<svg width="1168" height="1168" xmlns="http://www.w3.org/2000/svg" xmlns:xlink="http://www.w3.org/1999/xlink" overflow="hidden"><defs><clipPath id="clip0"><rect x="3304" y="209" width="1168" height="1168"/></clipPath><clipPath id="clip1"><rect x="3676" y="518" width="132" height="131"/></clipPath><clipPath id="clip2"><rect x="3684" y="525" width="118" height="119"/></clipPath><clipPath id="clip3"><rect x="3684" y="525" width="118" height="119"/></clipPath><clipPath id="clip4"><rect x="3564" y="800" width="131" height="132"/></clipPath><clipPath id="clip5"><rect x="3564" y="800" width="131" height="132"/></clipPath><clipPath id="clip6"><rect x="3564" y="800" width="131" height="132"/></clipPath><clipPath id="clip7"><rect x="3821" y="961" width="131" height="132"/></clipPath><clipPath id="clip8"><rect x="3821" y="961" width="131" height="132"/></clipPath><clipPath id="clip9"><rect x="3821" y="961" width="131" height="132"/></clipPath><clipPath id="clip10"><rect x="4076" y="790" width="99" height="98"/></clipPath><clipPath id="clip11"><rect x="4076" y="790" width="99" height="98"/></clipPath><clipPath id="clip12"><rect x="4076" y="790" width="99" height="98"/></clipPath><clipPath id="clip13"><rect x="4035" y="764" width="182" height="180"/></clipPath><clipPath id="clip14"><rect x="4035" y="764" width="182" height="180"/></clipPath><clipPath id="clip15"><rect x="4035" y="764" width="182" height="180"/></clipPath><clipPath id="clip16"><rect x="3979" y="518" width="132" height="131"/></clipPath><clipPath id="clip17"><rect x="3979" y="518" width="132" height="131"/></clipPath><clipPath id="clip18"><rect x="3979" y="518" width="132" height="131"/></clipPath></defs><g clip-path="url(#clip0)" transform="translate(-3304 -209)"><path d="M3494.13 647.584C3547.81 482.363 3701.78 370.5 3875.5 370.5L3875.5 771.5Z" stroke="#FFFFFF" stroke-width="4.58333" stroke-miterlimit="8" fill="#E6E6E6" fill-rule="evenodd"/><path d="M3475.1 641.712C3527.04 481.862 3669.29 368.378 3836.69 353.245L3836.69 322.804 3874.46 374.447 3836.7 429.698 3836.69 399.27C3689.21 414.249 3564.48 514.889 3518.67 655.871Z" fill="#2327D0" fill-rule="evenodd"/><path d="M3580.05 483.001 3594.1 469.646 3596.96 472.658 3598.75 495.604 3609.68 485.224 3612.75 488.458 3597.15 503.282 3593.83 499.785 3592.08 477.748 3583.13 486.248Z" fill="#FFFFFF" fill-rule="evenodd"/><text fill="#000000" fill-opacity="0" font-family="Arial,Arial_MSFontService,sans-serif" font-size="33.6354" x="3580.05" y="499.077">Z</text><path d="M3602.25 472.176 3606.12 468.88 3611.84 475.587C3613.59 477.639 3614.73 478.836 3615.27 479.177 3615.81 479.518 3616.38 479.664 3616.99 479.614 3617.59 479.563 3618.18 479.292 3618.76 478.799 3619.42 478.236 3619.86 477.551 3620.07 476.744 3620.28 475.936 3620.26 475.182 3619.99 474.482 3619.73 473.782 3618.7 472.388 3616.92 470.299L3611.67 464.142 3615.53 460.847 3627.98 475.441 3624.4 478.502 3622.53 476.317C3622.67 477.549 3622.49 478.759 3622.01 479.947 3621.53 481.135 3620.8 482.139 3619.84 482.96 3618.86 483.797 3617.8 484.332 3616.65 484.566 3615.51 484.8 3614.43 484.676 3613.41 484.194 3612.4 483.713 3611.31 482.785 3610.13 481.411Z" fill="#FFFFFF" fill-rule="evenodd"/><text fill="#000000" fill-opacity="0" font-family="Arial,Arial_MSFontService,sans-serif" font-size="23.834" x="3602.25" y="481.701">u</text><path d="M3628.57 455.036C3627.6 455.775 3627.09 456.76 3627.04 457.99 3626.99 459.22 3627.55 460.605 3628.73 462.146 3629.97 463.762 3631.19 464.707 3632.39 464.978 3633.59 465.25 3634.65 465.034 3635.57 464.332 3636.55 463.578 3637.09 462.557 3637.18 461.267 3637.27 459.977 3636.74 458.577 3635.58 457.065 3634.37 455.487 3633.15 454.564 3631.92 454.296 3630.68 454.028 3629.56 454.275 3628.57 455.036ZM3625.18 452.741C3627.06 451.299 3629.25 450.938 3631.74 451.656L3630.1 449.518 3633.88 446.631 3644.34 460.306C3645.71 462.105 3646.59 463.562 3646.98 464.679 3647.36 465.796 3647.48 466.812 3647.33 467.729 3647.18 468.646 3646.77 469.59 3646.1 470.561 3645.42 471.532 3644.4 472.541 3643.03 473.587 3640.45 475.563 3638.28 476.522 3636.52 476.464 3634.76 476.406 3633.37 475.698 3632.33 474.339 3632.22 474.205 3632.1 474.039 3631.97 473.841L3637 470.877C3637.49 471.354 3637.95 471.587 3638.38 471.576 3638.98 471.57 3639.69 471.252 3640.52 470.623 3641.57 469.818 3642.24 469.057 3642.52 468.338 3642.71 467.857 3642.72 467.313 3642.54 466.705 3642.41 466.275 3642 465.61 3641.32 464.711L3639.61 462.487C3639.67 465.054 3638.78 467.041 3636.94 468.445 3634.89 470.011 3632.61 470.386 3630.09 469.569 3628.1 468.918 3626.33 467.574 3624.77 465.536 3622.82 462.982 3621.94 460.56 3622.14 458.271 3622.34 455.982 3623.35 454.139 3625.18 452.741Z" fill="#FFFFFF" fill-rule="evenodd"/><text fill="#000000" fill-opacity="0" font-family="Arial,Arial_MSFontService,sans-serif" font-size="29.8353" x="3622.11" y="472.737">g</text><path d="M3652.62 445.736C3652.21 446.283 3651.51 447.079 3650.51 448.125 3649.52 449.171 3648.93 449.936 3648.74 450.419 3648.46 451.181 3648.52 451.86 3648.93 452.456 3649.33 453.042 3649.9 453.399 3650.63 453.526 3651.36 453.653 3652.06 453.484 3652.74 453.021 3653.49 452.503 3654.04 451.761 3654.38 450.794 3654.63 450.069 3654.65 449.379 3654.43 448.724 3654.29 448.291 3653.88 447.573 3653.19 446.57ZM3644.19 438.905C3646.05 437.624 3647.59 436.89 3648.81 436.705 3650.03 436.52 3651.06 436.64 3651.9 437.064 3652.73 437.489 3653.78 438.61 3655.03 440.427L3658.33 445.343C3659.29 446.733 3660.06 447.713 3660.65 448.281 3661.23 448.849 3661.97 449.385 3662.86 449.887L3658.71 452.729C3658.41 452.526 3658 452.206 3657.46 451.769 3657.22 451.569 3657.06 451.439 3656.98 451.38 3656.74 452.566 3656.33 453.612 3655.76 454.518 3655.18 455.425 3654.43 456.195 3653.51 456.829 3651.88 457.947 3650.29 458.386 3648.75 458.146 3647.2 457.907 3645.97 457.112 3645.04 455.761 3644.43 454.867 3644.09 453.924 3644.04 452.931 3643.99 451.938 3644.22 450.991 3644.73 450.09 3645.24 449.19 3646.13 448.103 3647.39 446.829 3649.09 445.119 3650.21 443.846 3650.75 443.01L3650.46 442.593C3649.91 441.789 3649.32 441.352 3648.69 441.282 3648.06 441.212 3647.19 441.555 3646.09 442.312 3645.34 442.823 3644.86 443.368 3644.64 443.948 3644.43 444.527 3644.44 445.273 3644.69 446.185L3640.42 448.107C3639.8 446.284 3639.76 444.648 3640.29 443.197 3640.83 441.747 3642.13 440.316 3644.19 438.905Z" fill="#FFFFFF" fill-rule="evenodd"/><text fill="#000000" fill-opacity="0" font-family="Arial,Arial_MSFontService,sans-serif" font-size="21.589" x="3639.92" y="455.511">a</text><path d="M3664.98 425.475C3665.94 424.889 3666.91 424.526 3667.92 424.385 3668.92 424.244 3669.78 424.316 3670.52 424.602 3671.25 424.887 3671.9 425.319 3672.48 425.899 3673.05 426.479 3673.73 427.401 3674.5 428.664L3680.74 438.828 3676.41 441.482 3671.29 433.135C3670.21 431.369 3669.41 430.284 3668.91 429.878 3668.41 429.473 3667.86 429.254 3667.27 429.222 3666.68 429.19 3666.09 429.353 3665.5 429.712 3664.75 430.171 3664.21 430.789 3663.86 431.565 3663.52 432.341 3663.44 433.135 3663.64 433.948 3663.83 434.761 3664.49 436.082 3665.61 437.909L3670.16 445.317 3665.83 447.971 3655.8 431.615 3659.82 429.15 3661.29 431.553C3661.58 428.829 3662.81 426.803 3664.98 425.475Z" fill="#FFFFFF" fill-rule="evenodd"/><text fill="#000000" fill-opacity="0" font-family="Arial,Arial_MSFontService,sans-serif" font-size="23.6558" x="3655.8" y="445.014">n</text><path d="M3684.4 418.82C3683.33 419.4 3682.67 420.293 3682.43 421.5 3682.19 422.707 3682.53 424.163 3683.45 425.868 3684.42 427.658 3685.48 428.78 3686.62 429.236 3687.77 429.691 3688.85 429.643 3689.86 429.092 3690.95 428.501 3691.64 427.576 3691.93 426.316 3692.22 425.056 3691.92 423.59 3691.01 421.916 3690.06 420.169 3689 419.067 3687.82 418.61 3686.64 418.153 3685.5 418.223 3684.4 418.82ZM3681.41 416.025C3683.49 414.894 3685.71 414.878 3688.06 415.975L3686.77 413.608 3690.95 411.345 3699.16 426.482C3700.23 428.473 3700.88 430.049 3701.08 431.212 3701.29 432.375 3701.25 433.398 3700.96 434.28 3700.67 435.163 3700.11 436.031 3699.3 436.885 3698.48 437.74 3697.31 438.577 3695.8 439.398 3692.94 440.947 3690.65 441.556 3688.92 441.225 3687.19 440.894 3685.92 439.977 3685.1 438.473 3685.02 438.325 3684.93 438.142 3684.83 437.925L3690.26 435.781C3690.67 436.328 3691.09 436.629 3691.51 436.685 3692.11 436.774 3692.86 436.571 3693.77 436.077 3694.94 435.446 3695.72 434.798 3696.11 434.133 3696.37 433.688 3696.47 433.151 3696.39 432.523 3696.32 432.078 3696.02 431.358 3695.48 430.362L3694.15 427.9C3693.8 430.445 3692.61 432.268 3690.58 433.369 3688.31 434.598 3686 434.612 3683.64 433.413 3681.78 432.461 3680.24 430.857 3679.02 428.602 3677.48 425.774 3676.99 423.245 3677.54 421.015 3678.1 418.784 3679.38 417.121 3681.41 416.025Z" fill="#FFFFFF" fill-rule="evenodd"/><text fill="#000000" fill-opacity="0" font-family="Arial,Arial_MSFontService,sans-serif" font-size="29.968" x="3677.33" y="437.567">g</text><g clip-path="url(#clip1)"><g clip-path="url(#clip2)"><g clip-path="url(#clip3)"><path d="M88.2813 3.29583C72.5083 3.29583 59.8743 16.0083 59.8743 31.7028L59.8743 63.3271 67.8 63.3271 67.8 31.7028C67.8 20.3243 76.9813 11.1431 88.3597 11.1431 99.7382 11.1431 108.919 20.3243 108.919 31.7028L108.919 53.5181 116.845 53.5181 116.845 31.7028C116.688 15.9299 104.054 3.29583 88.2813 3.29583Z" fill="#475055" fill-rule="evenodd" transform="matrix(1.00001 0 0 1 3681.88 527.734)"/><path d="M72.4299 58.4618 6.04236 58.4618C5.80694 58.4618 5.65 58.6188 5.65 58.8542L5.65 110.097C5.65 110.332 5.80694 110.489 6.04236 110.489L72.4299 110.489C72.6653 110.489 72.8222 110.332 72.8222 110.097L72.8222 58.8542C72.8222 58.6972 72.6653 58.4618 72.4299 58.4618ZM30.6826 99.2674 34.2924 88.909 34.2924 88.909C32.1736 87.7319 30.6826 85.5347 30.6826 82.8667 30.6826 79.1 33.7431 76.0396 37.5097 76.0396 41.2764 76.0396 44.3368 79.1 44.3368 82.8667 44.3368 85.3778 42.9243 87.575 40.884 88.7521 40.8056 88.7521 40.8056 88.8306 40.7271 88.8306L40.884 88.8306 44.4938 99.1889 30.6826 99.1889Z" fill="#475055" fill-rule="evenodd" transform="matrix(1.00001 0 0 1 3681.88 527.734)"/><path d="M31.7028 81.0618 31.7028 81.1403 31.5458 81.1403C31.6243 81.1403 31.6243 81.0618 31.7028 81.0618Z" fill="#475055" fill-rule="evenodd" transform="matrix(1.00001 0 0 1 3684.21 525.772)"/></g></g></g><path d="M3632.8 1117.92C3492.25 1015.8 3433.44 834.806 3487.13 669.585L3868.5 793.5Z" stroke="#FFFFFF" stroke-width="4.58333" stroke-miterlimit="8" fill="#E6E6E6" fill-rule="evenodd"/><path d="M3620.68 1132.27C3484.67 1033.47 3420.68 863.077 3458.04 699.168L3429.09 689.761 3489.88 669.798 3530.75 722.795 3501.81 713.391C3470.46 858.308 3527.65 1008.07 3647.61 1095.21Z" fill="#2327D0" fill-rule="evenodd"/><path d="M3481.26 817.576 3471.2 814.735 3471.73 821.942ZM3487.22 814.362 3487.64 820.002 3462.01 832.535 3461.58 826.734 3467.41 823.983 3466.62 813.425 3460.46 811.69 3460.04 806.032Z" fill="#FFFFFF" fill-rule="evenodd"/><text fill="#000000" fill-opacity="0" font-family="Arial,Arial_MSFontService,sans-serif" font-size="26.503" x="3460.04" y="829.222">A</text><path d="M3483.06 841.701C3483.2 842.849 3483.02 843.993 3482.52 845.135L3477.93 844.117C3478.38 843.201 3478.55 842.378 3478.46 841.649 3478.38 840.943 3478.11 840.37 3477.66 839.928 3477.21 839.485 3476.46 839.187 3475.41 839.031 3474.36 838.875 3472.21 838.997 3468.97 839.397L3463.09 840.122 3462.47 835.084 3481.51 832.735 3482.09 837.415 3479.38 837.749C3480.76 838.392 3481.69 839.008 3482.18 839.598 3482.66 840.187 3482.96 840.888 3483.06 841.701Z" fill="#FFFFFF" fill-rule="evenodd"/><text fill="#000000" fill-opacity="0" font-family="Arial,Arial_MSFontService,sans-serif" font-size="12.4004" x="3462.47" y="843.585">r</text><path d="M3485.04 854.676C3485.42 856.981 3485.23 858.896 3484.46 860.421 3483.7 861.946 3482.35 863.174 3480.41 864.106L3478.7 859.317C3479.66 858.987 3480.34 858.487 3480.74 857.816 3481.14 857.145 3481.27 856.34 3481.11 855.401 3480.9 854.154 3480.31 853.23 3479.32 852.63 3478.34 852.031 3476.84 851.899 3474.82 852.234 3472.57 852.607 3471.05 853.248 3470.24 854.156 3469.44 855.065 3469.15 856.155 3469.36 857.426 3469.52 858.377 3469.92 859.11 3470.56 859.626 3471.2 860.142 3472.2 860.416 3473.56 860.446L3473.54 865.504C3471.2 865.368 3469.33 864.671 3467.94 863.413 3466.54 862.155 3465.64 860.308 3465.24 857.872 3464.78 855.104 3465.29 852.752 3466.76 850.816 3468.23 848.88 3470.51 847.656 3473.6 847.143 3476.73 846.624 3479.3 847.046 3481.31 848.408 3483.33 849.771 3484.57 851.86 3485.04 854.676Z" fill="#FFFFFF" fill-rule="evenodd"/><text fill="#000000" fill-opacity="0" font-family="Arial,Arial_MSFontService,sans-serif" font-size="18.5759" x="3465.08" y="863.182">c</text><path d="M3493.77 864.825 3494.86 869.783 3485.35 871.871C3487.57 873.06 3488.92 874.767 3489.41 876.99 3489.66 878.131 3489.68 879.207 3489.46 880.218 3489.23 881.228 3488.84 882.038 3488.29 882.647 3487.73 883.257 3487.07 883.734 3486.31 884.081 3485.55 884.427 3484.32 884.785 3482.64 885.154L3471.65 887.567 3470.56 882.608 3480.46 880.435C3482.42 880.004 3483.65 879.636 3484.14 879.332 3484.63 879.027 3484.97 878.603 3485.18 878.058 3485.39 877.513 3485.41 876.882 3485.25 876.164 3485.07 875.341 3484.71 874.649 3484.17 874.09 3483.63 873.531 3482.92 873.19 3482.05 873.067 3481.18 872.943 3479.95 873.055 3478.38 873.401L3468.99 875.461 3467.9 870.503Z" fill="#FFFFFF" fill-rule="evenodd"/><text fill="#000000" fill-opacity="0" font-family="Arial,Arial_MSFontService,sans-serif" font-size="22.742" x="3467.9" y="884.724">h</text><path d="M3491.54 887.734 3492.83 892.646 3474.26 897.489 3472.98 892.576ZM3498.61 885.891 3499.89 890.804 3495.34 891.989 3494.06 887.077Z" fill="#FFFFFF" fill-rule="evenodd"/><text fill="#000000" fill-opacity="0" font-family="Arial,Arial_MSFontService,sans-serif" font-size="11.5975" x="3472.98" y="896.039">i</text><path d="M3493.32 894.94 3494.86 900.044 3486.52 906.325 3483.69 908.27C3484.57 908.296 3485.14 908.305 3485.42 908.298 3485.99 908.303 3486.56 908.32 3487.13 908.349L3497.56 909.023 3499.06 914.022 3478.49 912.249 3477.18 907.872Z" fill="#FFFFFF" fill-rule="evenodd"/><text fill="#000000" fill-opacity="0" font-family="Arial,Arial_MSFontService,sans-serif" font-size="19.0825" x="3477.18" y="911.637">v</text><path d="M3500.02 916.57 3501.67 921.374 3483.51 927.578 3481.87 922.774ZM3506.93 914.21 3508.57 919.014 3504.13 920.533 3502.49 915.729Z" fill="#FFFFFF" fill-rule="evenodd"/><text fill="#000000" fill-opacity="0" font-family="Arial,Arial_MSFontService,sans-serif" font-size="13.3678" x="3481.87" y="925.907">i</text><path d="M3502.72 934.273C3502.32 933.239 3501.62 932.529 3500.61 932.143 3499.6 931.757 3498.45 931.818 3497.16 932.326L3499.87 939.41C3501.23 938.85 3502.14 938.096 3502.6 937.147 3503.05 936.198 3503.09 935.241 3502.72 934.273ZM3506.24 932.595C3507.26 935.261 3507.19 937.701 3506.02 939.917 3504.85 942.132 3502.44 943.903 3498.78 945.229L3494.22 933.354C3492.83 933.927 3491.88 934.729 3491.38 935.76 3490.88 936.791 3490.84 937.851 3491.26 938.942 3491.54 939.684 3491.98 940.231 3492.58 940.582 3493.18 940.932 3493.98 941.064 3494.98 940.978L3496 946.005C3494.03 946.062 3492.35 945.609 3490.94 944.646 3489.53 943.684 3488.45 942.218 3487.7 940.25 3486.5 937.135 3486.63 934.44 3488.1 932.163 3489.27 930.357 3491.11 928.977 3493.59 928.024 3496.56 926.885 3499.18 926.769 3501.46 927.676 3503.73 928.583 3505.33 930.223 3506.24 932.595Z" fill="#FFFFFF" fill-rule="evenodd"/><text fill="#000000" fill-opacity="0" font-family="Arial,Arial_MSFontService,sans-serif" font-size="18.9369" x="3486.89" y="943.643">e</text><path d="M3514.5 952.625C3514.96 953.686 3515.11 954.835 3514.95 956.073L3510.26 956.387C3510.43 955.382 3510.37 954.542 3510.07 953.868 3509.79 953.216 3509.37 952.741 3508.82 952.443 3508.26 952.145 3507.46 952.069 3506.41 952.216 3505.36 952.363 3503.33 953.084 3500.34 954.379L3494.9 956.731 3492.88 952.072 3510.49 944.456 3512.36 948.784 3509.86 949.867C3511.36 950.096 3512.43 950.425 3513.06 950.854 3513.69 951.283 3514.17 951.873 3514.5 952.625Z" fill="#FFFFFF" fill-rule="evenodd"/><text fill="#000000" fill-opacity="0" font-family="Arial,Arial_MSFontService,sans-serif" font-size="12.2752" x="3492.88" y="955.197">r</text><path d="M3516.03 957.224 3518.24 961.791 3510.31 965.642C3507.89 966.821 3506.44 967.627 3505.98 968.061 3505.51 968.494 3505.23 969.011 3505.12 969.61 3505.02 970.21 3505.13 970.851 3505.46 971.533 3505.84 972.313 3506.39 972.908 3507.12 973.318 3507.85 973.728 3508.59 973.892 3509.33 973.812 3510.07 973.732 3511.68 973.092 3514.15 971.892L3521.43 968.357 3523.65 972.923 3506.39 981.305 3504.33 977.063 3506.92 975.808C3505.69 975.627 3504.56 975.154 3503.53 974.387 3502.51 973.621 3501.72 972.67 3501.16 971.532 3500.6 970.373 3500.35 969.209 3500.41 968.041 3500.47 966.873 3500.87 965.859 3501.59 965 3502.31 964.141 3503.48 963.317 3505.11 962.528Z" fill="#FFFFFF" fill-rule="evenodd"/><text fill="#000000" fill-opacity="0" font-family="Arial,Arial_MSFontService,sans-serif" font-size="24.0803" x="3500.4" y="978.295">u</text><path d="M3531.38 986.216C3531.92 987.196 3532.24 988.19 3532.34 989.196 3532.43 990.203 3532.32 991.066 3532.01 991.786 3531.69 992.506 3531.23 993.14 3530.62 993.688 3530.02 994.236 3529.07 994.869 3527.77 995.587L3517.34 1001.36 3514.88 996.921 3523.45 992.178C3525.26 991.174 3526.38 990.431 3526.81 989.946 3527.23 989.462 3527.48 988.925 3527.54 988.335 3527.59 987.745 3527.46 987.149 3527.12 986.549 3526.7 985.779 3526.11 985.206 3525.35 984.828 3524.59 984.45 3523.8 984.341 3522.98 984.499 3522.15 984.658 3520.81 985.256 3518.93 986.294L3511.33 990.503 3508.87 986.062 3525.65 976.769 3527.94 980.894 3525.47 982.259C3528.18 982.674 3530.15 983.993 3531.38 986.216Z" fill="#FFFFFF" fill-rule="evenodd"/><text fill="#000000" fill-opacity="0" font-family="Arial,Arial_MSFontService,sans-serif" font-size="24.593" x="3508.87" y="998.288">n</text><path d="M3537.75 1004.57C3537.11 1003.54 3536.18 1002.94 3534.96 1002.77 3533.74 1002.6 3532.3 1003.03 3530.66 1004.06 3528.93 1005.14 3527.88 1006.27 3527.5 1007.44 3527.11 1008.61 3527.23 1009.68 3527.84 1010.66 3528.5 1011.71 3529.47 1012.35 3530.74 1012.56 3532.02 1012.77 3533.46 1012.37 3535.08 1011.36 3536.76 1010.3 3537.79 1009.17 3538.18 1007.97 3538.56 1006.76 3538.42 1005.63 3537.75 1004.57ZM3540.36 1001.4C3541.61 1003.42 3541.77 1005.63 3540.82 1008.04L3543.1 1006.61 3545.62 1010.64 3531.03 1019.77C3529.11 1020.97 3527.58 1021.71 3526.43 1021.99 3525.28 1022.27 3524.26 1022.29 3523.36 1022.06 3522.46 1021.82 3521.56 1021.33 3520.65 1020.56 3519.75 1019.8 3518.84 1018.69 3517.93 1017.23 3516.2 1014.47 3515.45 1012.22 3515.67 1010.48 3515.9 1008.73 3516.73 1007.41 3518.18 1006.5 3518.33 1006.41 3518.5 1006.31 3518.71 1006.19L3521.19 1011.48C3520.67 1011.92 3520.4 1012.35 3520.37 1012.78 3520.32 1013.38 3520.57 1014.12 3521.12 1015 3521.82 1016.12 3522.51 1016.86 3523.2 1017.21 3523.66 1017.45 3524.2 1017.51 3524.83 1017.39 3525.27 1017.3 3525.97 1016.95 3526.93 1016.35L3529.3 1014.86C3526.74 1014.68 3524.85 1013.6 3523.62 1011.64 3522.25 1009.46 3522.09 1007.15 3523.14 1004.72 3523.98 1002.8 3525.48 1001.17 3527.65 999.804 3530.38 998.098 3532.87 997.451 3535.13 997.862 3537.4 998.273 3539.14 999.454 3540.36 1001.4Z" fill="#FFFFFF" fill-rule="evenodd"/><text fill="#000000" fill-opacity="0" font-family="Arial,Arial_MSFontService,sans-serif" font-size="24.4747" x="3515.64" y="1019.16">g</text><g clip-path="url(#clip4)"><g clip-path="url(#clip5)"><g clip-path="url(#clip6)"><path d="M3625.41 892.427 3633.59 892.427 3633.59 903.344 3625.41 903.344Z" fill="#475055"/><path d="M3625.41 908.802 3633.59 908.802 3633.59 916.99 3625.41 916.99Z" fill="#475055"/><path d="M3639.05 908.802 3678.62 908.802 3678.62 916.99 3639.05 916.99Z" fill="#475055"/><path d="M3580.38 908.802 3619.95 908.802 3619.95 916.99 3580.38 916.99Z" fill="#475055"/><path d="M3668.28 870.594 3590.72 870.594C3588.02 870.594 3585.83 872.781 3585.83 875.479L3585.83 887.542C3585.83 890.24 3588.02 892.427 3590.72 892.427L3668.28 892.427C3670.98 892.427 3673.17 890.24 3673.17 887.542L3673.17 875.479C3673.17 872.781 3670.98 870.594 3668.28 870.594ZM3599.48 884.24C3597.97 884.24 3596.75 883.018 3596.75 881.51 3596.75 880.003 3597.97 878.781 3599.48 878.781 3600.99 878.781 3602.21 880.003 3602.21 881.51 3602.21 883.018 3600.99 884.24 3599.48 884.24ZM3613.12 884.24C3611.62 884.24 3610.4 883.018 3610.4 881.51 3610.4 880.003 3611.62 878.781 3613.12 878.781 3614.63 878.781 3615.85 880.003 3615.85 881.51 3615.85 883.018 3614.63 884.24 3613.12 884.24ZM3626.77 884.24C3625.26 884.24 3624.04 883.018 3624.04 881.51 3624.04 880.003 3625.26 878.781 3626.77 878.781 3628.28 878.781 3629.5 880.003 3629.5 881.51 3629.5 883.018 3628.28 884.24 3626.77 884.24Z" fill="#475055"/><path d="M3668.28 843.302 3590.72 843.302C3588.02 843.302 3585.83 845.489 3585.83 848.187L3585.83 860.25C3585.83 862.948 3588.02 865.135 3590.72 865.135L3668.28 865.135C3670.98 865.135 3673.17 862.948 3673.17 860.25L3673.17 848.187C3673.17 845.489 3670.98 843.302 3668.28 843.302ZM3599.48 856.948C3597.97 856.948 3596.75 855.726 3596.75 854.219 3596.75 852.711 3597.97 851.49 3599.48 851.49 3600.99 851.49 3602.21 852.711 3602.21 854.219 3602.21 855.726 3600.99 856.948 3599.48 856.948ZM3613.12 856.948C3611.62 856.948 3610.4 855.726 3610.4 854.219 3610.4 852.711 3611.62 851.49 3613.12 851.49 3614.63 851.49 3615.85 852.711 3615.85 854.219 3615.85 855.726 3614.63 856.948 3613.12 856.948ZM3626.77 856.948C3625.26 856.948 3624.04 855.726 3624.04 854.219 3624.04 852.711 3625.26 851.49 3626.77 851.49 3628.28 851.49 3629.5 852.711 3629.5 854.219 3629.5 855.726 3628.28 856.948 3626.77 856.948Z" fill="#475055"/><path d="M3668.28 816.01 3590.72 816.01C3588.02 816.01 3585.83 818.198 3585.83 820.896L3585.83 832.958C3585.83 835.656 3588.02 837.844 3590.72 837.844L3668.28 837.844C3670.98 837.844 3673.17 835.656 3673.17 832.958L3673.17 820.896C3673.17 818.198 3670.98 816.01 3668.28 816.01ZM3599.48 829.656C3597.97 829.656 3596.75 828.434 3596.75 826.927 3596.75 825.42 3597.97 824.198 3599.48 824.198 3600.99 824.198 3602.21 825.42 3602.21 826.927 3602.21 828.434 3600.99 829.656 3599.48 829.656ZM3613.12 829.656C3611.62 829.656 3610.4 828.434 3610.4 826.927 3610.4 825.42 3611.62 824.198 3613.12 824.198 3614.63 824.198 3615.85 825.42 3615.85 826.927 3615.85 828.434 3614.63 829.656 3613.12 829.656ZM3626.77 829.656C3625.26 829.656 3624.04 828.434 3624.04 826.927 3624.04 825.42 3625.26 824.198 3626.77 824.198 3628.28 824.198 3629.5 825.42 3629.5 826.927 3629.5 828.434 3628.28 829.656 3626.77 829.656Z" fill="#475055"/></g></g></g><path d="M4122.2 1130.92C3981.66 1233.03 3791.34 1233.03 3650.8 1130.92L3886.5 806.5Z" stroke="#FFFFFF" stroke-width="4.58333" stroke-miterlimit="8" fill="#16D41B" fill-rule="evenodd"/><path d="M4132.57 1146C3996.48 1245.12 3814.44 1253.34 3669.99 1166.88L3652.1 1191.51 3651.9 1127.47 3714.93 1105.03 3697.05 1129.65C3825.29 1204.52 3985.6 1196.39 4105.64 1108.93Z" fill="#2327D0" fill-rule="evenodd"/><path d="M3831.76 1187.19 3826.86 1196.43 3834.02 1197.42ZM3829.87 1180.69 3835.47 1181.46 3842.33 1209.15 3836.57 1208.35 3835.11 1202.08 3824.62 1200.62 3821.63 1206.28 3816.01 1205.5Z" fill="#FFFFFF" fill-rule="evenodd"/><text fill="#000000" fill-opacity="0" font-family="Arial,Arial_MSFontService,sans-serif" font-size="28.4691" x="3816.01" y="1205.6">A</text><path d="M3857.73 1190.64C3858.85 1190.73 3859.85 1191.01 3860.74 1191.49 3861.64 1191.96 3862.29 1192.53 3862.72 1193.2 3863.14 1193.86 3863.42 1194.59 3863.54 1195.4 3863.66 1196.21 3863.66 1197.35 3863.55 1198.83L3862.6 1210.71 3857.54 1210.31 3858.32 1200.55C3858.48 1198.48 3858.48 1197.14 3858.31 1196.51 3858.14 1195.89 3857.83 1195.39 3857.37 1195.02 3856.91 1194.64 3856.34 1194.43 3855.66 1194.37 3854.78 1194.3 3853.97 1194.48 3853.24 1194.91 3852.5 1195.33 3851.98 1195.93 3851.66 1196.7 3851.33 1197.47 3851.09 1198.93 3850.92 1201.06L3850.23 1209.73 3845.17 1209.32 3846.69 1190.2 3851.39 1190.57 3851.17 1193.38C3853.01 1191.35 3855.2 1190.44 3857.73 1190.64Z" fill="#FFFFFF" fill-rule="evenodd"/><text fill="#000000" fill-opacity="0" font-family="Arial,Arial_MSFontService,sans-serif" font-size="20.516" x="3845.17" y="1208.15">n</text><path d="M3878.71 1202.05C3878.05 1202.25 3877.02 1202.48 3875.6 1202.74 3874.18 1203 3873.25 1203.27 3872.81 1203.55 3872.14 1204 3871.79 1204.59 3871.77 1205.31 3871.75 1206.02 3872 1206.64 3872.51 1207.17 3873.03 1207.71 3873.69 1207.98 3874.51 1208.01 3875.43 1208.03 3876.31 1207.76 3877.16 1207.18 3877.78 1206.74 3878.2 1206.19 3878.41 1205.53 3878.56 1205.1 3878.65 1204.28 3878.68 1203.06ZM3875.92 1191.56C3878.18 1191.63 3879.86 1191.94 3880.95 1192.51 3882.04 1193.08 3882.8 1193.78 3883.23 1194.61 3883.66 1195.45 3883.84 1196.97 3883.78 1199.18L3883.56 1205.1C3883.51 1206.78 3883.56 1208.03 3883.7 1208.83 3883.84 1209.64 3884.12 1210.51 3884.54 1211.43L3879.52 1211.29C3879.39 1210.95 3879.25 1210.45 3879.07 1209.78 3879 1209.48 3878.94 1209.28 3878.91 1209.18 3878.02 1210 3877.07 1210.6 3876.07 1211 3875.07 1211.39 3874.01 1211.57 3872.9 1211.54 3870.92 1211.48 3869.38 1210.9 3868.27 1209.8 3867.16 1208.7 3866.63 1207.33 3866.68 1205.69 3866.71 1204.61 3867 1203.65 3867.54 1202.81 3868.08 1201.98 3868.82 1201.35 3869.77 1200.92 3870.71 1200.5 3872.07 1200.14 3873.84 1199.85 3876.22 1199.48 3877.88 1199.11 3878.8 1198.75L3878.82 1198.24C3878.85 1197.27 3878.62 1196.56 3878.15 1196.13 3877.68 1195.71 3876.78 1195.47 3875.44 1195.43 3874.54 1195.41 3873.83 1195.57 3873.32 1195.91 3872.8 1196.25 3872.37 1196.86 3872.04 1197.74L3867.45 1196.78C3868.02 1194.94 3868.95 1193.6 3870.24 1192.74 3871.53 1191.88 3873.42 1191.49 3875.92 1191.56Z" fill="#FFFFFF" fill-rule="evenodd"/><text fill="#000000" fill-opacity="0" font-family="Arial,Arial_MSFontService,sans-serif" font-size="19.9882" x="3866.68" y="1209.04">a</text><path d="M3888.53 1184.87 3893.6 1184.82 3893.84 1211.31 3888.76 1211.35Z" fill="#FFFFFF" fill-rule="evenodd"/><text fill="#000000" fill-opacity="0" font-family="Arial,Arial_MSFontService,sans-serif" font-size="26.5297" x="3888.53" y="1208.04">l</text><path d="M3896.07 1192.19 3901.47 1191.95 3906.68 1205.34 3910.52 1191.53 3915.78 1191.29 3909.86 1210.04 3908.8 1213.44C3908.41 1214.58 3908.02 1215.45 3907.65 1216.06 3907.27 1216.67 3906.83 1217.17 3906.32 1217.56 3905.82 1217.95 3905.19 1218.26 3904.43 1218.5 3903.68 1218.74 3902.82 1218.89 3901.86 1218.93 3900.88 1218.97 3899.92 1218.92 3898.97 1218.76L3898.34 1214.81C3899.14 1214.93 3899.86 1214.97 3900.5 1214.94 3901.68 1214.89 3902.53 1214.5 3903.07 1213.78 3903.6 1213.07 3903.99 1212.16 3904.24 1211.08Z" fill="#FFFFFF" fill-rule="evenodd"/><text fill="#000000" fill-opacity="0" font-family="Arial,Arial_MSFontService,sans-serif" font-size="27.657" x="3896.07" y="1215.49">y</text><path d="M3925.41 1189.95C3928.02 1189.7 3930 1189.94 3931.35 1190.67 3932.71 1191.4 3933.7 1192.57 3934.34 1194.19L3929.66 1195.53C3929.39 1194.81 3928.94 1194.27 3928.34 1193.93 3927.73 1193.59 3926.9 1193.47 3925.84 1193.57 3924.51 1193.7 3923.58 1193.98 3923.04 1194.4 3922.68 1194.7 3922.52 1195.06 3922.56 1195.48 3922.59 1195.84 3922.79 1196.13 3923.15 1196.35 3923.64 1196.65 3925.26 1196.97 3928.01 1197.32 3930.76 1197.68 3932.71 1198.25 3933.86 1199.03 3935 1199.83 3935.65 1201.03 3935.8 1202.64 3935.97 1204.39 3935.38 1205.96 3934.04 1207.36 3932.7 1208.76 3930.59 1209.6 3927.73 1209.87 3925.13 1210.12 3923.02 1209.79 3921.4 1208.88 3919.78 1207.97 3918.65 1206.63 3918.01 1204.87L3923.01 1203.61C3923.32 1204.57 3923.83 1205.28 3924.54 1205.72 3925.25 1206.17 3926.19 1206.33 3927.38 1206.22 3928.69 1206.1 3929.65 1205.76 3930.26 1205.22 3930.67 1204.84 3930.85 1204.37 3930.8 1203.81 3930.76 1203.42 3930.61 1203.12 3930.35 1202.89 3930.07 1202.67 3929.49 1202.5 3928.59 1202.38 3924.43 1201.88 3921.77 1201.3 3920.6 1200.66 3919 1199.78 3918.1 1198.42 3917.93 1196.58 3917.77 1194.93 3918.29 1193.47 3919.49 1192.22 3920.69 1190.97 3922.66 1190.21 3925.41 1189.95Z" fill="#FFFFFF" fill-rule="evenodd"/><text fill="#000000" fill-opacity="0" font-family="Arial,Arial_MSFontService,sans-serif" font-size="20.0989" x="3917.9" y="1207.44">s</text><path d="M3946.47 1191.34C3945.37 1191.5 3944.53 1192.03 3943.93 1192.93 3943.33 1193.83 3943.14 1194.97 3943.35 1196.34L3950.86 1195.24C3950.61 1193.79 3950.07 1192.74 3949.25 1192.09 3948.42 1191.44 3947.5 1191.19 3946.47 1191.34ZM3945.61 1187.54C3948.43 1187.12 3950.8 1187.73 3952.7 1189.36 3954.6 1190.99 3955.8 1193.73 3956.29 1197.59L3943.71 1199.43C3943.96 1200.91 3944.53 1202.01 3945.43 1202.73 3946.32 1203.44 3947.35 1203.71 3948.51 1203.55 3949.29 1203.43 3949.92 1203.12 3950.4 1202.61 3950.87 1202.11 3951.18 1201.35 3951.31 1200.36L3956.44 1200.47C3956.06 1202.4 3955.25 1203.95 3954 1205.11 3952.75 1206.27 3951.09 1207 3949 1207.31 3945.7 1207.79 3943.1 1207.07 3941.2 1205.14 3939.7 1203.59 3938.75 1201.51 3938.37 1198.87 3937.91 1195.72 3938.37 1193.14 3939.76 1191.12 3941.14 1189.1 3943.09 1187.9 3945.61 1187.54Z" fill="#FFFFFF" fill-rule="evenodd"/><text fill="#000000" fill-opacity="0" font-family="Arial,Arial_MSFontService,sans-serif" font-size="20.04" x="3938.2" y="1204.95">e</text><g clip-path="url(#clip7)"><g clip-path="url(#clip8)"><g clip-path="url(#clip9)"><path d="M27.0833 18.9583 18.9583 18.9583 18.9583 111.042 111.042 111.042 111.042 102.917 27.0833 102.917Z" fill="#475055" transform="matrix(1 0 0 1.00769 3821 961)"/><path d="M35.2083 47.3958 50.1041 47.3958 50.1041 94.7916 35.2083 94.7916Z" fill="#475055" transform="matrix(1 0 0 1.00769 3821 961)"/><path d="M55.5208 18.9583 70.4166 18.9583 70.4166 94.7916 55.5208 94.7916Z" fill="#475055" transform="matrix(1 0 0 1.00769 3821 961)"/><path d="M75.8333 47.3958 90.7291 47.3958 90.7291 94.7916 75.8333 94.7916Z" fill="#475055" transform="matrix(1 0 0 1.00769 3821 961)"/><path d="M96.1458 70.4166 111.042 70.4166 111.042 94.7916 96.1458 94.7916Z" fill="#475055" transform="matrix(1 0 0 1.00769 3821 961)"/></g></g></g><path d="M4285.87 669.584C4339.56 834.805 4280.75 1015.8 4140.2 1117.92L3904.5 793.5Z" stroke="#FFFFFF" stroke-width="4.58333" stroke-miterlimit="8" fill="#E6E6E6" fill-rule="evenodd"/><path d="M4303.83 662.58C4355.95 822.582 4307.42 998.206 4180.52 1108.86L4198.41 1133.49 4137.46 1113.88 4135.59 1047.01 4153.47 1071.63C4264.35 972.8 4306.24 817.869 4260.26 676.738Z" fill="#2327D0" fill-rule="evenodd"/><path d="M4234.48 982.414 4243.72 965.084 4247.67 967.192 4240.95 979.803 4246.13 982.565 4252.38 970.831 4256.32 972.931 4250.07 984.664 4256.43 988.056 4263.39 974.999 4267.33 977.098 4257.85 994.874Z" fill="#FFFFFF" fill-rule="evenodd"/><text fill="#000000" fill-opacity="0" font-family="Arial,Arial_MSFontService,sans-serif" font-size="29.7894" x="4234.48" y="991.15">E</text><path d="M4255.44 956.319C4255.94 955.275 4256.7 954.405 4257.74 953.71L4261.06 957.028C4260.19 957.563 4259.6 958.163 4259.29 958.826 4258.98 959.468 4258.9 960.096 4259.04 960.71 4259.19 961.324 4259.66 961.978 4260.46 962.673 4261.27 963.368 4263.14 964.415 4266.09 965.814L4271.44 968.355 4269.27 972.942 4251.93 964.715 4253.96 960.455 4256.42 961.625C4255.6 960.343 4255.15 959.323 4255.05 958.566 4254.96 957.808 4255.09 957.059 4255.44 956.319Z" fill="#FFFFFF" fill-rule="evenodd"/><text fill="#000000" fill-opacity="0" font-family="Arial,Arial_MSFontService,sans-serif" font-size="19.2313" x="4251.93" y="970.538">r</text><path d="M4251.2 949.217 4253.17 944.54 4262.15 948.325C4261.02 946.071 4260.9 943.896 4261.78 941.798 4262.24 940.722 4262.85 939.835 4263.61 939.138 4264.37 938.441 4265.16 938.005 4265.97 937.828 4266.77 937.652 4267.59 937.643 4268.41 937.8 4269.23 937.958 4270.44 938.371 4272.02 939.041L4282.39 943.416 4280.42 948.093 4271.08 944.154C4269.23 943.372 4268.02 942.964 4267.44 942.931 4266.87 942.898 4266.34 943.044 4265.85 943.369 4265.37 943.695 4264.99 944.196 4264.7 944.873 4264.37 945.65 4264.27 946.423 4264.39 947.192 4264.51 947.962 4264.89 948.648 4265.53 949.252 4266.17 949.856 4267.23 950.471 4268.72 951.099L4277.58 954.835 4275.6 959.512Z" fill="#FFFFFF" fill-rule="evenodd"/><text fill="#000000" fill-opacity="0" font-family="Arial,Arial_MSFontService,sans-serif" font-size="21.8233" x="4251.2" y="956.784">h</text><path d="M4272.09 925.962C4271.72 927.003 4271.78 928.001 4272.3 928.956 4272.81 929.91 4273.72 930.618 4275.02 931.079L4277.61 923.945C4276.22 923.478 4275.04 923.454 4274.07 923.873 4273.11 924.292 4272.45 924.988 4272.09 925.962ZM4268.34 924.927C4269.31 922.243 4270.96 920.447 4273.3 919.538 4275.63 918.629 4278.62 918.871 4282.25 920.265L4277.91 932.223C4279.34 932.702 4280.58 932.716 4281.64 932.265 4282.69 931.814 4283.42 931.04 4283.81 929.941 4284.08 929.194 4284.11 928.492 4283.89 927.834 4283.66 927.177 4283.15 926.554 4282.33 925.965L4284.86 921.499C4286.38 922.742 4287.36 924.189 4287.79 925.839 4288.22 927.488 4288.08 929.304 4287.36 931.285 4286.23 934.422 4284.36 936.372 4281.76 937.135 4279.69 937.728 4277.4 937.572 4274.9 936.665 4271.91 935.581 4269.85 933.951 4268.73 931.775 4267.6 929.599 4267.47 927.316 4268.34 924.927Z" fill="#FFFFFF" fill-rule="evenodd"/><text fill="#000000" fill-opacity="0" font-family="Arial,Arial_MSFontService,sans-serif" font-size="18.4873" x="4267.77" y="935.176">e</text><path d="M4278.93 905.431C4278.57 906.594 4278.73 907.7 4279.4 908.748 4280.07 909.796 4281.32 910.601 4283.17 911.164 4285.07 911.744 4286.56 911.874 4287.66 911.552 4289.21 911.105 4290.19 910.185 4290.62 908.791 4290.94 907.72 4290.76 906.667 4290.08 905.633 4289.39 904.599 4288.07 903.781 4286.1 903.18 4284 902.54 4282.37 902.458 4281.21 902.936 4280.05 903.413 4279.29 904.245 4278.93 905.431ZM4265.94 911.174 4267.42 906.318 4276.54 909.104C4275.3 907.086 4274.98 905.051 4275.61 903.001 4276.29 900.766 4277.67 899.164 4279.73 898.196 4281.8 897.227 4284.34 897.205 4287.37 898.13 4290.51 899.086 4292.69 900.569 4293.93 902.578 4295.17 904.586 4295.46 906.656 4294.81 908.787 4294.49 909.835 4293.91 910.789 4293.08 911.649 4292.24 912.508 4291.2 913.15 4289.95 913.574L4292.65 914.397 4291.27 918.907Z" fill="#FFFFFF" fill-rule="evenodd"/><text fill="#000000" fill-opacity="0" font-family="Arial,Arial_MSFontService,sans-serif" font-size="21.4551" x="4265.94" y="916.225">b</text><path d="M4279.18 892.398 4280.4 887.47 4288.95 889.59C4291.57 890.238 4293.2 890.545 4293.84 890.51 4294.47 890.475 4295.02 890.26 4295.48 889.867 4295.95 889.473 4296.27 888.907 4296.45 888.171 4296.66 887.329 4296.62 886.518 4296.32 885.737 4296.02 884.956 4295.56 884.359 4294.94 883.944 4294.32 883.529 4292.67 882.991 4290.01 882.331L4282.15 880.385 4283.37 875.458 4302 880.07 4300.86 884.647 4298.07 883.956C4298.9 884.881 4299.46 885.966 4299.76 887.213 4300.06 888.459 4300.06 889.697 4299.75 890.924 4299.44 892.175 4298.89 893.229 4298.1 894.087 4297.3 894.945 4296.35 895.473 4295.25 895.671 4294.14 895.869 4292.71 895.751 4290.96 895.317Z" fill="#FFFFFF" fill-rule="evenodd"/><text fill="#000000" fill-opacity="0" font-family="Arial,Arial_MSFontService,sans-serif" font-size="20.3063" x="4279.18" y="893.226">u</text><path d="M4285.95 860.297C4286.16 859.197 4286.55 858.229 4287.12 857.395 4287.69 856.56 4288.33 855.967 4289.03 855.618 4289.74 855.269 4290.5 855.077 4291.31 855.043 4292.13 855.009 4293.26 855.132 4294.72 855.41L4306.43 857.654 4305.47 862.64 4295.86 860.797C4293.82 860.408 4292.49 860.262 4291.85 860.361 4291.21 860.459 4290.68 860.716 4290.26 861.132 4289.83 861.548 4289.56 862.093 4289.43 862.767 4289.26 863.63 4289.35 864.45 4289.69 865.227 4290.03 866.004 4290.57 866.594 4291.3 866.998 4292.03 867.402 4293.45 867.806 4295.56 868.209L4304.09 869.844 4303.14 874.83 4284.29 871.22 4285.18 866.589 4287.95 867.119C4286.14 865.067 4285.47 862.793 4285.95 860.297Z" fill="#FFFFFF" fill-rule="evenodd"/><text fill="#000000" fill-opacity="0" font-family="Arial,Arial_MSFontService,sans-serif" font-size="19.792" x="4284.29" y="872.356">n</text><path d="M4292.8 842.121C4292.64 843.326 4292.97 844.383 4293.8 845.293 4294.63 846.203 4296 846.788 4297.93 847.051 4299.94 847.326 4301.47 847.137 4302.52 846.483 4303.56 845.83 4304.16 844.93 4304.32 843.784 4304.48 842.555 4304.15 841.451 4303.3 840.473 4302.46 839.495 4301.09 838.877 4299.2 838.619 4297.24 838.35 4295.72 838.556 4294.65 839.237 4293.59 839.918 4292.97 840.88 4292.8 842.121ZM4288.78 842.884C4289.1 840.533 4290.39 838.735 4292.67 837.489L4290 837.125 4290.64 832.417 4307.7 834.747C4309.95 835.053 4311.6 835.467 4312.66 835.989 4313.72 836.51 4314.52 837.148 4315.06 837.903 4315.6 838.657 4315.97 839.617 4316.18 840.782 4316.38 841.947 4316.37 843.382 4316.14 845.089 4315.7 848.311 4314.83 850.521 4313.54 851.718 4312.26 852.916 4310.76 853.399 4309.07 853.168 4308.9 853.145 4308.7 853.111 4308.46 853.067L4309.95 847.416C4310.63 847.412 4311.12 847.254 4311.42 846.942 4311.84 846.514 4312.12 845.786 4312.26 844.76 4312.44 843.447 4312.38 842.436 4312.07 841.726 4311.87 841.248 4311.49 840.856 4310.94 840.55 4310.54 840.338 4309.78 840.155 4308.66 840.002L4305.89 839.623C4307.73 841.407 4308.5 843.444 4308.19 845.736 4307.84 848.289 4306.48 850.165 4304.12 851.361 4302.25 852.298 4300.05 852.592 4297.51 852.245 4294.32 851.81 4291.99 850.711 4290.52 848.948 4289.05 847.184 4288.46 845.163 4288.78 842.884Z" fill="#FFFFFF" fill-rule="evenodd"/><text fill="#000000" fill-opacity="0" font-family="Arial,Arial_MSFontService,sans-serif" font-size="20.8067" x="4288.69" y="850.623">g</text><g clip-path="url(#clip10)"><g clip-path="url(#clip11)"><g clip-path="url(#clip12)"><path d="M53.552 7.07291C53.552 8.74702 52.1949 10.1042 50.5208 10.1042 48.8467 10.1042 47.4896 8.74702 47.4896 7.07291 47.4896 5.3988 48.8467 4.04166 50.5208 4.04166 52.1949 4.04166 53.552 5.3988 53.552 7.07291Z" fill="#475055" transform="matrix(1.01031 0 0 1 4077 791)"/><path d="M58.6041 16.1667C58.6041 17.8408 57.247 19.1979 55.5729 19.1979 53.8988 19.1979 52.5416 17.8408 52.5416 16.1667 52.5416 14.4925 53.8988 13.1354 55.5729 13.1354 57.247 13.1354 58.6041 14.4925 58.6041 16.1667Z" fill="#475055" transform="matrix(1.01031 0 0 1 4077 791)"/><path d="M47.4896 14.1458C47.4896 15.8199 46.1324 17.1771 44.4583 17.1771 42.7842 17.1771 41.4271 15.8199 41.4271 14.1458 41.4271 12.4717 42.7842 11.1146 44.4583 11.1146 46.1324 11.1146 47.4896 12.4717 47.4896 14.1458Z" fill="#475055" transform="matrix(1.01031 0 0 1 4077 791)"/><path d="M50.5208 25.2604C50.5208 27.4925 48.7113 29.3021 46.4791 29.3021 44.247 29.3021 42.4375 27.4925 42.4375 25.2604 42.4375 23.0283 44.247 21.2187 46.4791 21.2187 48.7113 21.2187 50.5208 23.0283 50.5208 25.2604Z" fill="#475055" transform="matrix(1.01031 0 0 1 4077 791)"/><path d="M68.2031 84.4708 56.5833 58.2 56.5833 40.4166C56.5833 36.7791 59.5135 35.2635 59.6145 35.1625 60.625 34.6573 61.0291 33.4448 60.5239 32.4344 60.1198 31.7271 59.4125 31.3229 58.6041 31.3229L58.6041 31.3229 38.3958 31.3229 38.3958 31.3229C37.5875 31.3229 36.8802 31.7271 36.476 32.4344 35.9708 33.4448 36.375 34.6573 37.3854 35.1625 37.3854 35.1625 40.4166 36.7791 40.4166 40.4166L40.4166 58.2 28.7969 84.4708C27.9885 86.3906 28.1906 88.5124 29.3021 90.2302 30.4135 91.9479 32.3333 92.9583 34.3541 92.9583L62.6458 92.9583C64.6666 92.9583 66.5864 91.9479 67.6979 90.2302 68.8093 88.5124 69.0114 86.3906 68.2031 84.4708ZM52.5416 40.4166 52.5416 44.4583 44.4583 44.4583 44.4583 40.4166C44.4583 38.2948 43.8521 36.6781 43.1448 35.3646L53.9562 35.3646C53.1479 36.6781 52.5416 38.2948 52.5416 40.4166Z" fill="#475055" transform="matrix(1.01031 0 0 1 4077 791)"/></g></g></g><g clip-path="url(#clip13)"><g clip-path="url(#clip14)"><g clip-path="url(#clip15)"><path d="M28.4437 132.056C29.8584 134.783 32.5657 136.599 35.625 136.875L69.3749 136.875 69.3749 151.875 35.625 151.875C27.0753 151.719 19.2542 147.027 15.0937 139.556 11.1081 132.346 11.4548 123.519 15.9937 116.644L35.4937 82.8936 22.6312 75.3937 54.0187 66.9937 62.4187 98.3811 48.7499 90.5249 29.175 124.462C27.5043 126.647 27.2208 129.592 28.4437 132.056Z" fill="#475055" transform="matrix(1 0 0 1 4036 764)"/><path d="M54.9749 54.6374 70.6687 25.3312C74.7854 17.9247 82.6137 13.3528 91.0874 13.4062 99.3259 13.5752 106.792 18.2973 110.475 25.6687L129.975 59.4187 142.837 51.9187 134.437 83.3999 103.125 74.9999 116.775 67.1062 97.1061 33.15C96.0379 30.614 93.6273 28.9003 90.8811 28.725 87.9893 28.8682 85.3718 30.4813 83.9436 33L68.2312 62.3062Z" fill="#475055" transform="matrix(1 0 0 1 4036 764)"/><path d="M164.231 141.056C160.131 147.935 152.643 152.07 144.637 151.875L105 151.875 105 166.875 81.9561 143.437 105 120.637 105 136.875 144.131 136.875C146.943 137.062 149.623 135.657 151.069 133.237 152.468 130.677 152.382 127.561 150.844 125.081L133.687 95.8311 146.944 88.1249 164.119 117.356C165.087 119.06 165.848 120.872 166.387 122.756L166.706 123.994C168.124 129.787 167.236 135.904 164.231 141.056Z" fill="#475055" transform="matrix(1 0 0 1 4036 764)"/></g></g></g><path d="M3897.5 370.5C4071.22 370.5 4225.19 482.363 4278.87 647.584L3897.5 771.5Z" stroke="#FFFFFF" stroke-width="4.58333" stroke-miterlimit="8" fill="#E6E6E6" fill-rule="evenodd"/><path d="M3897.54 351.54C4065.62 351.556 4217.5 451.785 4283.61 606.316L4312.56 596.908 4275.12 648.792 4210.9 629.943 4239.84 620.539C4180.03 484.902 4045.77 397.369 3897.54 397.355Z" fill="#2327D0" fill-rule="evenodd"/><path d="M4085.21 408.652 4081.71 415.303 4084.3 416.666C4086.16 417.647 4087.47 418.18 4088.23 418.266 4088.99 418.352 4089.69 418.228 4090.32 417.893 4090.95 417.559 4091.45 417.045 4091.81 416.352 4092.26 415.499 4092.38 414.664 4092.17 413.846 4091.96 413.028 4091.51 412.348 4090.81 411.806 4090.31 411.402 4089.2 410.752 4087.49 409.854ZM4082.56 402.196 4090.15 406.192C4093.03 407.706 4094.85 408.81 4095.6 409.505 4096.76 410.563 4097.48 411.92 4097.76 413.574 4098.05 415.229 4097.7 416.988 4096.72 418.854 4095.96 420.293 4095.07 421.365 4094.03 422.071 4092.99 422.777 4091.92 423.198 4090.82 423.334 4089.72 423.47 4088.71 423.41 4087.78 423.154 4086.54 422.784 4084.84 422.035 4082.7 420.907L4079.61 419.284 4074.96 428.126 4070.23 425.636Z" fill="#FFFFFF" fill-rule="evenodd"/><text fill="#000000" fill-opacity="0" font-family="Arial,Arial_MSFontService,sans-serif" font-size="25.9292" x="4070.23" y="424.885">P</text><path d="M4104.91 414.266 4109.29 416.815 4095.99 439.718 4091.6 437.169Z" fill="#FFFFFF" fill-rule="evenodd"/><text fill="#000000" fill-opacity="0" font-family="Arial,Arial_MSFontService,sans-serif" font-size="25.4526" x="4091.6" y="436.537">l</text><path d="M4114.16 440.07C4113.49 439.906 4112.48 439.575 4111.13 439.078 4109.78 438.58 4108.84 438.337 4108.32 438.35 4107.51 438.394 4106.91 438.721 4106.53 439.332 4106.15 439.933 4106.04 440.594 4106.21 441.315 4106.39 442.036 4106.82 442.615 4107.51 443.052 4108.28 443.541 4109.18 443.752 4110.21 443.687 4110.97 443.628 4111.61 443.369 4112.13 442.912 4112.47 442.616 4112.97 441.954 4113.62 440.926ZM4117.1 429.622C4119.02 430.831 4120.3 431.957 4120.95 433.002 4121.6 434.047 4121.9 435.039 4121.84 435.977 4121.78 436.916 4121.16 438.317 4119.99 440.181L4116.78 445.163C4115.88 446.588 4115.28 447.683 4114.99 448.447 4114.7 449.211 4114.5 450.099 4114.39 451.111L4110.14 448.43C4110.21 448.074 4110.34 447.565 4110.53 446.902 4110.62 446.602 4110.67 446.402 4110.69 446.301 4109.51 446.551 4108.39 446.591 4107.33 446.42 4106.27 446.249 4105.27 445.864 4104.32 445.266 4102.65 444.212 4101.62 442.927 4101.23 441.413 4100.84 439.899 4101.08 438.45 4101.95 437.065 4102.53 436.148 4103.27 435.469 4104.16 435.028 4105.05 434.586 4106.01 434.424 4107.04 434.54 4108.07 434.657 4109.42 435.042 4111.09 435.695 4113.33 436.585 4114.94 437.112 4115.92 437.275L4116.19 436.847C4116.71 436.022 4116.88 435.305 4116.7 434.697 4116.51 434.088 4115.85 433.427 4114.72 432.713 4113.96 432.231 4113.27 432.005 4112.65 432.035 4112.03 432.066 4111.35 432.374 4110.61 432.96L4107.16 429.798C4108.59 428.506 4110.08 427.821 4111.62 427.743 4113.17 427.664 4114.99 428.291 4117.1 429.622Z" fill="#FFFFFF" fill-rule="evenodd"/><text fill="#000000" fill-opacity="0" font-family="Arial,Arial_MSFontService,sans-serif" font-size="23.3753" x="4101.05" y="448.189">a</text><path d="M4137.65 443.421C4138.57 444.067 4139.29 444.822 4139.81 445.687 4140.34 446.551 4140.62 447.376 4140.64 448.162 4140.67 448.948 4140.53 449.72 4140.23 450.477 4139.92 451.234 4139.34 452.218 4138.49 453.428L4131.61 463.17 4127.46 460.242 4133.11 452.242C4134.3 450.55 4134.99 449.393 4135.16 448.771 4135.33 448.149 4135.32 447.559 4135.11 447.003 4134.91 446.446 4134.53 445.969 4133.97 445.574 4133.25 445.066 4132.47 444.808 4131.62 444.799 4130.77 444.79 4130.01 445.035 4129.34 445.536 4128.67 446.036 4127.72 447.161 4126.48 448.913L4121.47 456.013 4117.32 453.085 4128.39 437.41 4132.24 440.129 4130.61 442.432C4133.23 441.626 4135.58 441.956 4137.65 443.421Z" fill="#FFFFFF" fill-rule="evenodd"/><text fill="#000000" fill-opacity="0" font-family="Arial,Arial_MSFontService,sans-serif" font-size="25.7598" x="4117.32" y="459.95">n</text><path d="M4147.01 450.742 4150.99 453.887 4145.53 460.808C4143.86 462.925 4142.91 464.281 4142.68 464.874 4142.45 465.467 4142.42 466.056 4142.59 466.641 4142.75 467.226 4143.14 467.753 4143.73 468.223 4144.41 468.76 4145.17 469.055 4146 469.107 4146.84 469.159 4147.57 468.986 4148.21 468.59 4148.84 468.194 4150.01 466.918 4151.71 464.762L4156.72 458.408 4160.71 461.553 4148.82 476.615 4145.12 473.693 4146.9 471.439C4145.72 471.809 4144.5 471.874 4143.24 471.632 4141.98 471.39 4140.85 470.878 4139.86 470.094 4138.85 469.296 4138.12 468.357 4137.66 467.279 4137.21 466.2 4137.12 465.117 4137.4 464.03 4137.67 462.943 4138.37 461.69 4139.49 460.272Z" fill="#FFFFFF" fill-rule="evenodd"/><text fill="#000000" fill-opacity="0" font-family="Arial,Arial_MSFontService,sans-serif" font-size="25.873" x="4137.24" y="473.381">u</text><path d="M4173.58 472.109C4174.42 472.849 4175.05 473.677 4175.48 474.592 4175.91 475.508 4176.1 476.358 4176.04 477.142 4175.99 477.927 4175.77 478.679 4175.38 479.399 4175 480.119 4174.31 481.035 4173.34 482.148L4165.46 491.099 4161.65 487.746 4168.12 480.395C4169.48 478.839 4170.29 477.762 4170.53 477.162 4170.77 476.562 4170.81 475.974 4170.67 475.399 4170.53 474.824 4170.2 474.309 4169.68 473.856 4169.02 473.275 4168.27 472.935 4167.43 472.835 4166.59 472.735 4165.81 472.898 4165.09 473.324 4164.37 473.749 4163.3 474.767 4161.88 476.377L4156.14 482.901 4152.33 479.547 4165 465.143 4168.54 468.258 4166.68 470.373C4169.37 469.852 4171.67 470.43 4173.58 472.109Z" fill="#FFFFFF" fill-rule="evenodd"/><text fill="#000000" fill-opacity="0" font-family="Arial,Arial_MSFontService,sans-serif" font-size="25.9568" x="4152.33" y="487.855">n</text><path d="M4185.66 488.705C4184.79 487.854 4183.74 487.49 4182.52 487.614 4181.29 487.737 4180 488.491 4178.64 489.876 4177.22 491.33 4176.46 492.671 4176.36 493.899 4176.26 495.126 4176.63 496.144 4177.45 496.954 4178.34 497.822 4179.43 498.209 4180.72 498.114 4182.01 498.02 4183.32 497.293 4184.65 495.934 4186.04 494.514 4186.78 493.174 4186.87 491.912 4186.96 490.651 4186.55 489.582 4185.66 488.705ZM4187.45 485.02C4189.14 486.681 4189.81 488.795 4189.46 491.362L4191.34 489.439 4194.73 492.764 4182.68 505.063C4181.1 506.681 4179.78 507.759 4178.73 508.298 4177.68 508.837 4176.69 509.098 4175.76 509.082 4174.83 509.066 4173.84 508.793 4172.78 508.263 4171.73 507.733 4170.58 506.866 4169.35 505.66 4167.03 503.385 4165.77 501.373 4165.58 499.625 4165.39 497.876 4165.89 496.391 4167.09 495.169 4167.2 495.049 4167.35 494.907 4167.53 494.743L4171.18 499.305C4170.78 499.854 4170.61 500.341 4170.68 500.766 4170.77 501.362 4171.19 502.022 4171.93 502.747 4172.88 503.674 4173.72 504.227 4174.48 504.407 4174.98 504.529 4175.52 504.46 4176.1 504.198 4176.5 504.007 4177.1 503.507 4177.9 502.698L4179.85 500.698C4177.32 501.115 4175.23 500.515 4173.58 498.897 4171.73 497.093 4171.04 494.886 4171.49 492.275 4171.85 490.219 4172.93 488.274 4174.73 486.442 4176.98 484.145 4179.25 482.931 4181.54 482.801 4183.84 482.671 4185.8 483.411 4187.45 485.02Z" fill="#FFFFFF" fill-rule="evenodd"/><text fill="#000000" fill-opacity="0" font-family="Arial,Arial_MSFontService,sans-serif" font-size="26.2966" x="4165.54" y="505.796">g</text><g clip-path="url(#clip16)"><g clip-path="url(#clip17)"><g clip-path="url(#clip18)"><path d="M4007.29 537.104 3999.1 537.104 3999.1 629.896 4091.9 629.896 4091.9 621.708 4007.29 621.708 4007.29 537.104Z" fill="#475055"/><path d="M4076.89 605.333 4089.17 605.333 4089.17 613.521 4076.89 613.521Z" fill="#475055"/><path d="M4065.97 591.688 4079.61 591.688 4079.61 599.875 4065.97 599.875Z" fill="#475055"/><path d="M4045.5 578.042 4072.79 578.042 4072.79 586.229 4045.5 586.229Z" fill="#475055"/><path d="M4030.49 564.396 4076.89 564.396 4076.89 572.583 4030.49 572.583Z" fill="#475055"/><path d="M4015.48 550.75 4042.77 550.75 4042.77 558.938 4015.48 558.938Z" fill="#475055"/></g></g></g></g></svg>