<svg width="1168" height="1168" xmlns="http://www.w3.org/2000/svg" xmlns:xlink="http://www.w3.org/1999/xlink" overflow="hidden"><defs><clipPath id="clip0"><rect x="1171" y="192" width="1168" height="1168"/></clipPath><clipPath id="clip1"><rect x="1544" y="500" width="132" height="133"/></clipPath><clipPath id="clip2"><rect x="1552" y="507" width="118" height="120"/></clipPath><clipPath id="clip3"><rect x="1552" y="507" width="118" height="120"/></clipPath><clipPath id="clip4"><rect x="1432" y="783" width="132" height="132"/></clipPath><clipPath id="clip5"><rect x="1432" y="783" width="132" height="132"/></clipPath><clipPath id="clip6"><rect x="1432" y="783" width="132" height="132"/></clipPath><clipPath id="clip7"><rect x="1688" y="943" width="132" height="131"/></clipPath><clipPath id="clip8"><rect x="1688" y="943" width="132" height="131"/></clipPath><clipPath id="clip9"><rect x="1688" y="943" width="132" height="131"/></clipPath><clipPath id="clip10"><rect x="1944" y="773" width="99" height="99"/></clipPath><clipPath id="clip11"><rect x="1944" y="773" width="99" height="99"/></clipPath><clipPath id="clip12"><rect x="1944" y="773" width="99" height="99"/></clipPath><clipPath id="clip13"><rect x="1904" y="746" width="181" height="181"/></clipPath><clipPath id="clip14"><rect x="1904" y="746" width="181" height="181"/></clipPath><clipPath id="clip15"><rect x="1904" y="746" width="181" height="181"/></clipPath><clipPath id="clip16"><rect x="1848" y="500" width="131" height="133"/></clipPath><clipPath id="clip17"><rect x="1848" y="500" width="131" height="133"/></clipPath><clipPath id="clip18"><rect x="1848" y="500" width="131" height="133"/></clipPath></defs><g clip-path="url(#clip0)" transform="translate(-1171 -192)"><path d="M1361.13 630.584C1414.81 465.363 1568.78 353.5 1742.5 353.5L1742.5 754.5Z" stroke="#FFFFFF" stroke-width="4.58333" stroke-miterlimit="8" fill="#E6E6E6" fill-rule="evenodd"/><path d="M1343.1 623.712C1395.04 463.861 1537.29 350.378 1704.69 335.245L1704.69 304.804 1742.46 356.447 1704.7 411.698 1704.69 381.27C1557.21 396.249 1432.48 496.888 1386.67 637.871Z" fill="#2327D0" fill-rule="evenodd"/><path d="M1447.85 465.473 1461.91 452.118 1464.77 455.13 1466.56 478.076 1477.48 467.696 1480.56 470.93 1464.96 485.753 1461.64 482.257 1459.89 460.22 1450.94 468.72Z" fill="#FFFFFF" fill-rule="evenodd"/><text fill="#000000" fill-opacity="0" font-family="Arial,Arial_MSFontService,sans-serif" font-size="33.6354" x="1447.85" y="481.549">Z</text><path d="M1470.06 454.648 1473.92 451.352 1479.65 458.058C1481.4 460.111 1482.54 461.307 1483.08 461.649 1483.61 461.99 1484.19 462.136 1484.79 462.086 1485.4 462.035 1485.99 461.764 1486.57 461.271 1487.23 460.708 1487.66 460.023 1487.88 459.216 1488.09 458.408 1488.06 457.654 1487.8 456.954 1487.53 456.254 1486.51 454.859 1484.73 452.771L1479.47 446.614 1483.34 443.318 1495.79 457.913 1492.2 460.974 1490.34 458.789C1490.47 460.021 1490.3 461.231 1489.82 462.419 1489.33 463.607 1488.61 464.611 1487.65 465.432 1486.67 466.268 1485.6 466.804 1484.46 467.038 1483.31 467.272 1482.23 467.148 1481.22 466.666 1480.21 466.185 1479.11 465.257 1477.94 463.883Z" fill="#FFFFFF" fill-rule="evenodd"/><text fill="#000000" fill-opacity="0" font-family="Arial,Arial_MSFontService,sans-serif" font-size="23.834" x="1470.06" y="464.173">u</text><path d="M1496.38 437.508C1495.41 438.247 1494.9 439.232 1494.85 440.462 1494.8 441.692 1495.36 443.077 1496.54 444.617 1497.77 446.234 1498.99 447.178 1500.19 447.45 1501.4 447.722 1502.46 447.506 1503.37 446.804 1504.36 446.05 1504.9 445.028 1504.99 443.739 1505.08 442.449 1504.54 441.049 1503.39 439.537 1502.18 437.959 1500.96 437.036 1499.72 436.768 1498.49 436.5 1497.37 436.747 1496.38 437.508ZM1492.98 435.213C1494.87 433.771 1497.06 433.41 1499.55 434.128L1497.91 431.99 1501.68 429.103 1512.15 442.778C1513.52 444.577 1514.4 446.034 1514.78 447.151 1515.17 448.267 1515.29 449.284 1515.14 450.201 1514.99 451.118 1514.58 452.062 1513.9 453.033 1513.23 454.004 1512.21 455.013 1510.84 456.059 1508.26 458.035 1506.09 458.994 1504.33 458.936 1502.57 458.878 1501.17 458.17 1500.13 456.811 1500.03 456.677 1499.91 456.511 1499.77 456.312L1504.81 453.349C1505.3 453.826 1505.75 454.059 1506.18 454.047 1506.79 454.042 1507.5 453.724 1508.32 453.095 1509.37 452.29 1510.04 451.528 1510.33 450.81 1510.52 450.329 1510.53 449.784 1510.35 449.177 1510.22 448.747 1509.81 448.082 1509.12 447.183L1507.42 444.959C1507.47 447.526 1506.58 449.512 1504.75 450.917 1502.7 452.483 1500.42 452.858 1497.89 452.041 1495.91 451.39 1494.14 450.046 1492.58 448.008 1490.63 445.454 1489.75 443.032 1489.95 440.743 1490.14 438.454 1491.16 436.611 1492.98 435.213Z" fill="#FFFFFF" fill-rule="evenodd"/><text fill="#000000" fill-opacity="0" font-family="Arial,Arial_MSFontService,sans-serif" font-size="29.8353" x="1489.92" y="455.209">g</text><path d="M1520.43 428.208C1520.02 428.755 1519.31 429.551 1518.32 430.597 1517.33 431.643 1516.74 432.407 1516.54 432.891 1516.26 433.653 1516.33 434.332 1516.74 434.928 1517.14 435.514 1517.7 435.87 1518.43 435.997 1519.16 436.125 1519.87 435.956 1520.54 435.493 1521.3 434.975 1521.85 434.232 1522.19 433.266 1522.44 432.541 1522.45 431.851 1522.24 431.195 1522.1 430.763 1521.69 430.045 1521 429.042ZM1511.99 421.377C1513.86 420.096 1515.4 419.362 1516.62 419.177 1517.84 418.992 1518.86 419.112 1519.7 419.536 1520.54 419.961 1521.59 421.082 1522.83 422.899L1526.14 427.815C1527.1 429.205 1527.87 430.185 1528.45 430.753 1529.04 431.321 1529.78 431.857 1530.66 432.359L1526.52 435.201C1526.22 434.998 1525.8 434.678 1525.27 434.241 1525.03 434.041 1524.87 433.911 1524.78 433.852 1524.55 435.038 1524.14 436.084 1523.56 436.99 1522.99 437.897 1522.24 438.667 1521.32 439.301 1519.69 440.419 1518.1 440.858 1516.56 440.618 1515.01 440.379 1513.77 439.583 1512.85 438.233 1512.23 437.339 1511.9 436.396 1511.85 435.403 1511.79 434.41 1512.02 433.463 1512.54 432.562 1513.05 431.661 1513.94 430.575 1515.2 429.301 1516.9 427.591 1518.02 426.318 1518.56 425.482L1518.27 425.065C1517.72 424.261 1517.13 423.824 1516.49 423.754 1515.86 423.684 1515 424.027 1513.89 424.784 1513.15 425.295 1512.67 425.84 1512.45 426.42 1512.24 426.999 1512.25 427.744 1512.5 428.656L1508.23 430.578C1507.61 428.756 1507.56 427.12 1508.1 425.669 1508.64 424.219 1509.94 422.788 1511.99 421.377Z" fill="#FFFFFF" fill-rule="evenodd"/><text fill="#000000" fill-opacity="0" font-family="Arial,Arial_MSFontService,sans-serif" font-size="21.589" x="1507.73" y="437.983">a</text><path d="M1532.79 407.947C1533.74 407.361 1534.72 406.998 1535.72 406.857 1536.72 406.716 1537.59 406.788 1538.32 407.073 1539.06 407.359 1539.71 407.791 1540.29 408.371 1540.86 408.951 1541.53 409.873 1542.31 411.136L1548.54 421.3 1544.22 423.954 1539.1 415.607C1538.01 413.841 1537.22 412.755 1536.72 412.35 1536.21 411.945 1535.67 411.726 1535.08 411.694 1534.48 411.661 1533.89 411.825 1533.31 412.184 1532.56 412.643 1532.01 413.261 1531.67 414.037 1531.33 414.813 1531.25 415.607 1531.45 416.42 1531.64 417.233 1532.3 418.553 1533.42 420.381L1537.96 427.789 1533.64 430.443 1523.6 414.087 1527.62 411.622 1529.1 414.025C1529.39 411.301 1530.62 409.275 1532.79 407.947Z" fill="#FFFFFF" fill-rule="evenodd"/><text fill="#000000" fill-opacity="0" font-family="Arial,Arial_MSFontService,sans-serif" font-size="23.6558" x="1523.6" y="427.486">n</text><path d="M1552.21 401.292C1551.14 401.872 1550.48 402.765 1550.24 403.972 1549.99 405.179 1550.34 406.635 1551.26 408.34 1552.23 410.13 1553.29 411.252 1554.43 411.708 1555.57 412.163 1556.65 412.115 1557.67 411.564 1558.76 410.973 1559.45 410.048 1559.74 408.788 1560.03 407.528 1559.72 406.061 1558.82 404.388 1557.87 402.641 1556.81 401.539 1555.63 401.082 1554.45 400.625 1553.31 400.695 1552.21 401.292ZM1549.21 398.497C1551.3 397.366 1553.52 397.35 1555.86 398.447L1554.58 396.08 1558.76 393.816 1566.96 408.954C1568.04 410.945 1568.68 412.521 1568.89 413.684 1569.09 414.847 1569.05 415.869 1568.76 416.752 1568.47 417.635 1567.92 418.503 1567.1 419.357 1566.29 420.211 1565.12 421.049 1563.6 421.87 1560.75 423.419 1558.45 424.028 1556.73 423.697 1555 423.366 1553.73 422.449 1552.91 420.945 1552.83 420.797 1552.74 420.614 1552.63 420.396L1558.07 418.253C1558.48 418.8 1558.89 419.101 1559.32 419.157 1559.92 419.245 1560.67 419.043 1561.58 418.549 1562.74 417.918 1563.52 417.27 1563.92 416.605 1564.18 416.159 1564.27 415.623 1564.19 414.995 1564.13 414.55 1563.83 413.829 1563.29 412.834L1561.96 410.372C1561.61 412.916 1560.42 414.74 1558.39 415.841 1556.12 417.069 1553.81 417.084 1551.44 415.884 1549.58 414.933 1548.04 413.329 1546.82 411.073 1545.29 408.246 1544.8 405.717 1545.35 403.487 1545.9 401.256 1547.19 399.593 1549.21 398.497Z" fill="#FFFFFF" fill-rule="evenodd"/><text fill="#000000" fill-opacity="0" font-family="Arial,Arial_MSFontService,sans-serif" font-size="29.968" x="1545.13" y="420.039">g</text><g clip-path="url(#clip1)"><g clip-path="url(#clip2)"><g clip-path="url(#clip3)"><path d="M88.282 3.29586C72.509 3.29586 59.8748 16.0085 59.8748 31.7031L59.8748 63.3277 67.8006 63.3277 67.8006 31.7031C67.8006 20.3245 76.9819 11.1432 88.3605 11.1432 99.7391 11.1432 108.92 20.3245 108.92 31.7031L108.92 53.5185 116.846 53.5185 116.846 31.7031C116.689 15.93 104.055 3.29586 88.282 3.29586Z" fill="#475055" fill-rule="evenodd" transform="matrix(1 0 0 1.00762 1549.88 509.809)"/><path d="M72.4305 58.4623 6.04242 58.4623C5.807 58.4623 5.65005 58.6193 5.65005 58.8547L5.65005 110.098C5.65005 110.333 5.807 110.49 6.04242 110.49L72.4305 110.49C72.6659 110.49 72.8229 110.333 72.8229 110.098L72.8229 58.8547C72.8229 58.6978 72.6659 58.4623 72.4305 58.4623ZM30.6829 99.2683 34.2927 88.9098 34.2927 88.9098C32.1739 87.7327 30.6829 85.5355 30.6829 82.8674 30.6829 79.1007 33.7434 76.0403 37.5101 76.0403 41.2768 76.0403 44.3372 79.1007 44.3372 82.8674 44.3372 85.3785 42.9247 87.5758 40.8844 88.7529 40.8059 88.7529 40.8059 88.8314 40.7275 88.8314L40.8844 88.8314 44.4942 99.1898 30.6829 99.1898Z" fill="#475055" fill-rule="evenodd" transform="matrix(1 0 0 1.00762 1549.88 509.809)"/><path d="M31.7031 81.0625 31.7031 81.141 31.5461 81.141C31.6246 81.141 31.6246 81.0625 31.7031 81.0625Z" fill="#475055" fill-rule="evenodd" transform="matrix(1 0 0 1.00762 1552.21 507.832)"/></g></g></g><path d="M1500.8 1099.92C1360.25 997.803 1301.44 816.805 1355.13 651.584L1736.5 775.5Z" stroke="#FFFFFF" stroke-width="4.58333" stroke-miterlimit="8" fill="#E6E6E6" fill-rule="evenodd"/><path d="M1488.68 1115.28C1352.67 1016.47 1288.68 846.078 1326.04 682.169L1297.09 672.761 1357.88 652.799 1398.75 705.795 1369.81 696.391C1338.46 841.309 1395.65 991.067 1515.61 1078.21Z" fill="#2327D0" fill-rule="evenodd"/><path d="M1349.07 800.047 1339 797.207 1339.54 804.413ZM1355.03 796.834 1355.44 802.473 1329.82 815.007 1329.39 809.206 1335.21 806.455 1334.43 795.897 1328.27 794.161 1327.85 788.504Z" fill="#FFFFFF" fill-rule="evenodd"/><text fill="#000000" fill-opacity="0" font-family="Arial,Arial_MSFontService,sans-serif" font-size="26.503" x="1327.85" y="811.694">A</text><path d="M1350.86 824.173C1351.01 825.32 1350.83 826.465 1350.32 827.607L1345.74 826.589C1346.18 825.673 1346.36 824.85 1346.27 824.121 1346.18 823.415 1345.92 822.842 1345.47 822.399 1345.02 821.957 1344.27 821.658 1343.22 821.503 1342.17 821.347 1340.02 821.469 1336.78 821.869L1330.9 822.594 1330.28 817.556 1349.32 815.207 1349.9 819.887 1347.19 820.221C1348.57 820.864 1349.5 821.48 1349.99 822.069 1350.47 822.659 1350.76 823.36 1350.86 824.173Z" fill="#FFFFFF" fill-rule="evenodd"/><text fill="#000000" fill-opacity="0" font-family="Arial,Arial_MSFontService,sans-serif" font-size="12.4004" x="1330.28" y="826.057">r</text><path d="M1352.84 837.147C1353.23 839.452 1353.04 841.368 1352.27 842.893 1351.5 844.418 1350.15 845.646 1348.22 846.578L1346.51 841.789C1347.47 841.459 1348.15 840.958 1348.55 840.287 1348.95 839.616 1349.07 838.812 1348.92 837.873 1348.71 836.625 1348.11 835.702 1347.13 835.102 1346.14 834.503 1344.64 834.371 1342.62 834.706 1340.38 835.079 1338.85 835.72 1338.05 836.628 1337.25 837.537 1336.96 838.627 1337.17 839.898 1337.32 840.848 1337.72 841.582 1338.36 842.098 1339.01 842.614 1340.01 842.887 1341.37 842.918L1341.35 847.976C1339 847.84 1337.14 847.143 1335.74 845.885 1334.35 844.627 1333.45 842.78 1333.05 840.344 1332.59 837.576 1333.09 835.224 1334.57 833.288 1336.04 831.352 1338.32 830.128 1341.41 829.615 1344.54 829.096 1347.11 829.517 1349.12 830.88 1351.14 832.242 1352.38 834.331 1352.84 837.147Z" fill="#FFFFFF" fill-rule="evenodd"/><text fill="#000000" fill-opacity="0" font-family="Arial,Arial_MSFontService,sans-serif" font-size="18.5759" x="1332.88" y="845.654">c</text><path d="M1361.58 847.297 1362.67 852.255 1353.16 854.343C1355.38 855.532 1356.73 857.239 1357.22 859.462 1357.47 860.603 1357.48 861.679 1357.26 862.69 1357.04 863.7 1356.65 864.51 1356.09 865.119 1355.54 865.729 1354.88 866.206 1354.11 866.552 1353.35 866.899 1352.13 867.256 1350.45 867.626L1339.45 870.039 1338.37 865.08 1348.27 862.907C1350.23 862.476 1351.46 862.108 1351.94 861.804 1352.43 861.499 1352.78 861.075 1352.99 860.53 1353.19 859.985 1353.22 859.354 1353.06 858.636 1352.88 857.812 1352.52 857.121 1351.98 856.562 1351.44 856.003 1350.73 855.661 1349.86 855.538 1348.99 855.415 1347.76 855.527 1346.18 855.873L1336.8 857.933 1335.71 852.974Z" fill="#FFFFFF" fill-rule="evenodd"/><text fill="#000000" fill-opacity="0" font-family="Arial,Arial_MSFontService,sans-serif" font-size="22.742" x="1335.71" y="867.196">h</text><path d="M1359.35 870.205 1360.63 875.118 1342.07 879.961 1340.79 875.048ZM1366.41 868.363 1367.69 873.275 1363.15 874.461 1361.87 869.549Z" fill="#FFFFFF" fill-rule="evenodd"/><text fill="#000000" fill-opacity="0" font-family="Arial,Arial_MSFontService,sans-serif" font-size="11.5975" x="1340.79" y="878.511">i</text><path d="M1361.13 877.412 1362.67 882.515 1354.33 888.796 1351.5 890.742C1352.38 890.768 1352.95 890.777 1353.23 890.77 1353.79 890.775 1354.36 890.792 1354.94 890.82L1365.37 891.494 1366.87 896.494 1346.3 894.721 1344.98 890.344Z" fill="#FFFFFF" fill-rule="evenodd"/><text fill="#000000" fill-opacity="0" font-family="Arial,Arial_MSFontService,sans-serif" font-size="19.0825" x="1344.98" y="894.109">v</text><path d="M1367.83 899.042 1369.47 903.846 1351.32 910.05 1349.68 905.246ZM1374.74 896.682 1376.38 901.486 1371.93 903.005 1370.29 898.201Z" fill="#FFFFFF" fill-rule="evenodd"/><text fill="#000000" fill-opacity="0" font-family="Arial,Arial_MSFontService,sans-serif" font-size="13.3678" x="1349.68" y="908.379">i</text><path d="M1370.53 916.745C1370.13 915.711 1369.43 915.001 1368.42 914.615 1367.4 914.229 1366.25 914.29 1364.96 914.797L1367.68 921.882C1369.04 921.322 1369.95 920.568 1370.4 919.619 1370.86 918.67 1370.9 917.712 1370.53 916.745ZM1374.05 915.067C1375.07 917.732 1374.99 920.173 1373.83 922.389 1372.66 924.604 1370.24 926.375 1366.59 927.701L1362.03 915.826C1360.64 916.399 1359.69 917.201 1359.19 918.232 1358.69 919.262 1358.65 920.323 1359.06 921.414 1359.35 922.156 1359.79 922.703 1360.39 923.053 1360.99 923.404 1361.79 923.536 1362.79 923.45L1363.81 928.477C1361.84 928.534 1360.16 928.081 1358.75 927.118 1357.34 926.156 1356.26 924.69 1355.5 922.722 1354.31 919.607 1354.44 916.912 1355.9 914.635 1357.08 912.829 1358.91 911.449 1361.4 910.496 1364.37 909.357 1366.99 909.241 1369.27 910.148 1371.54 911.055 1373.14 912.695 1374.05 915.067Z" fill="#FFFFFF" fill-rule="evenodd"/><text fill="#000000" fill-opacity="0" font-family="Arial,Arial_MSFontService,sans-serif" font-size="18.9369" x="1354.7" y="926.115">e</text><path d="M1382.3 935.097C1382.76 936.158 1382.91 937.307 1382.75 938.544L1378.07 938.859C1378.23 937.854 1378.17 937.014 1377.88 936.34 1377.6 935.688 1377.18 935.213 1376.63 934.915 1376.07 934.617 1375.27 934.541 1374.21 934.688 1373.16 934.834 1371.14 935.555 1368.14 936.851L1362.7 939.203 1360.69 934.543 1378.3 926.928 1380.17 931.256 1377.67 932.339C1379.17 932.568 1380.24 932.897 1380.87 933.326 1381.5 933.755 1381.98 934.345 1382.3 935.097Z" fill="#FFFFFF" fill-rule="evenodd"/><text fill="#000000" fill-opacity="0" font-family="Arial,Arial_MSFontService,sans-serif" font-size="12.2752" x="1360.69" y="937.669">r</text><path d="M1383.83 939.696 1386.05 944.263 1378.12 948.114C1375.69 949.293 1374.25 950.099 1373.78 950.533 1373.32 950.966 1373.03 951.483 1372.93 952.082 1372.82 952.682 1372.94 953.323 1373.27 954.005 1373.65 954.785 1374.2 955.38 1374.93 955.79 1375.66 956.2 1376.39 956.364 1377.14 956.284 1377.88 956.204 1379.49 955.564 1381.96 954.364L1389.24 950.829 1391.46 955.395 1374.2 963.777 1372.14 959.535 1374.72 958.28C1373.5 958.099 1372.37 957.625 1371.34 956.859 1370.31 956.093 1369.52 955.141 1368.97 954.004 1368.41 952.845 1368.16 951.681 1368.22 950.513 1368.28 949.344 1368.67 948.331 1369.39 947.472 1370.11 946.613 1371.29 945.789 1372.91 945Z" fill="#FFFFFF" fill-rule="evenodd"/><text fill="#000000" fill-opacity="0" font-family="Arial,Arial_MSFontService,sans-serif" font-size="24.0803" x="1368.21" y="960.767">u</text><path d="M1399.19 968.688C1399.73 969.668 1400.05 970.661 1400.15 971.668 1400.24 972.675 1400.13 973.538 1399.81 974.258 1399.5 974.977 1399.03 975.611 1398.43 976.16 1397.82 976.708 1396.87 977.341 1395.58 978.059L1385.15 983.834 1382.69 979.392 1391.25 974.65C1393.07 973.646 1394.19 972.902 1394.61 972.418 1395.04 971.934 1395.28 971.397 1395.34 970.807 1395.4 970.216 1395.26 969.621 1394.93 969.021 1394.51 968.251 1393.91 967.678 1393.15 967.3 1392.39 966.922 1391.6 966.812 1390.78 966.971 1389.96 967.129 1388.61 967.728 1386.74 968.766L1379.13 972.975 1376.68 968.534 1393.46 959.241 1395.75 963.366 1393.28 964.731C1395.99 965.146 1397.96 966.465 1399.19 968.688Z" fill="#FFFFFF" fill-rule="evenodd"/><text fill="#000000" fill-opacity="0" font-family="Arial,Arial_MSFontService,sans-serif" font-size="24.593" x="1376.68" y="980.76">n</text><path d="M1405.56 987.039C1404.92 986.008 1403.98 985.408 1402.76 985.241 1401.54 985.074 1400.11 985.505 1398.47 986.533 1396.74 987.613 1395.69 988.738 1395.3 989.908 1394.92 991.079 1395.04 992.154 1395.65 993.134 1396.31 994.186 1397.27 994.817 1398.55 995.027 1399.83 995.238 1401.27 994.839 1402.88 993.829 1404.57 992.775 1405.6 991.645 1405.98 990.44 1406.37 989.234 1406.22 988.101 1405.56 987.039ZM1408.16 983.876C1409.42 985.887 1409.58 988.099 1408.63 990.511L1410.91 989.083 1413.43 993.111 1398.84 1002.24C1396.92 1003.45 1395.38 1004.18 1394.23 1004.46 1393.09 1004.74 1392.06 1004.76 1391.17 1004.53 1390.27 1004.3 1389.36 1003.8 1388.46 1003.04 1387.56 1002.27 1386.65 1001.16 1385.74 999.701 1384.01 996.944 1383.26 994.693 1383.48 992.948 1383.7 991.204 1384.54 989.878 1385.99 988.97 1386.13 988.881 1386.31 988.777 1386.52 988.66L1389 993.95C1388.48 994.389 1388.2 994.824 1388.17 995.254 1388.12 995.854 1388.37 996.594 1388.92 997.472 1389.63 998.595 1390.32 999.332 1391.01 999.682 1391.47 999.92 1392.01 999.979 1392.63 999.859 1393.07 999.769 1393.77 999.423 1394.73 998.822L1397.11 997.337C1394.55 997.149 1392.65 996.075 1391.43 994.115 1390.06 991.93 1389.9 989.621 1390.95 987.189 1391.78 985.274 1393.29 983.637 1395.46 982.276 1398.19 980.57 1400.68 979.923 1402.94 980.334 1405.2 980.745 1406.94 981.926 1408.16 983.876Z" fill="#FFFFFF" fill-rule="evenodd"/><text fill="#000000" fill-opacity="0" font-family="Arial,Arial_MSFontService,sans-serif" font-size="24.4747" x="1383.44" y="1001.63">g</text><g clip-path="url(#clip4)"><g clip-path="url(#clip5)"><g clip-path="url(#clip6)"><path d="M1493.41 874.427 1501.59 874.427 1501.59 885.344 1493.41 885.344Z" fill="#475055"/><path d="M1493.41 890.802 1501.59 890.802 1501.59 898.99 1493.41 898.99Z" fill="#475055"/><path d="M1507.05 890.802 1546.63 890.802 1546.63 898.99 1507.05 898.99Z" fill="#475055"/><path d="M1448.38 890.802 1487.95 890.802 1487.95 898.99 1448.38 898.99Z" fill="#475055"/><path d="M1536.28 852.594 1458.72 852.594C1456.02 852.594 1453.83 854.781 1453.83 857.479L1453.83 869.542C1453.83 872.24 1456.02 874.427 1458.72 874.427L1536.28 874.427C1538.98 874.427 1541.17 872.24 1541.17 869.542L1541.17 857.479C1541.17 854.781 1538.98 852.594 1536.28 852.594ZM1467.48 866.24C1465.97 866.24 1464.75 865.018 1464.75 863.51 1464.75 862.003 1465.97 860.781 1467.48 860.781 1468.99 860.781 1470.21 862.003 1470.21 863.51 1470.21 865.018 1468.99 866.24 1467.48 866.24ZM1481.13 866.24C1479.62 866.24 1478.4 865.018 1478.4 863.51 1478.4 862.003 1479.62 860.781 1481.13 860.781 1482.63 860.781 1483.85 862.003 1483.85 863.51 1483.85 865.018 1482.63 866.24 1481.13 866.24ZM1494.77 866.24C1493.26 866.24 1492.04 865.018 1492.04 863.51 1492.04 862.003 1493.26 860.781 1494.77 860.781 1496.28 860.781 1497.5 862.003 1497.5 863.51 1497.5 865.018 1496.28 866.24 1494.77 866.24Z" fill="#475055"/><path d="M1536.28 825.302 1458.72 825.302C1456.02 825.302 1453.83 827.489 1453.83 830.187L1453.83 842.25C1453.83 844.948 1456.02 847.135 1458.72 847.135L1536.28 847.135C1538.98 847.135 1541.17 844.948 1541.17 842.25L1541.17 830.187C1541.17 827.489 1538.98 825.302 1536.28 825.302ZM1467.48 838.948C1465.97 838.948 1464.75 837.726 1464.75 836.219 1464.75 834.711 1465.97 833.49 1467.48 833.49 1468.99 833.49 1470.21 834.711 1470.21 836.219 1470.21 837.726 1468.99 838.948 1467.48 838.948ZM1481.13 838.948C1479.62 838.948 1478.4 837.726 1478.4 836.219 1478.4 834.711 1479.62 833.49 1481.13 833.49 1482.63 833.49 1483.85 834.711 1483.85 836.219 1483.85 837.726 1482.63 838.948 1481.13 838.948ZM1494.77 838.948C1493.26 838.948 1492.04 837.726 1492.04 836.219 1492.04 834.711 1493.26 833.49 1494.77 833.49 1496.28 833.49 1497.5 834.711 1497.5 836.219 1497.5 837.726 1496.28 838.948 1494.77 838.948Z" fill="#475055"/><path d="M1536.28 798.01 1458.72 798.01C1456.02 798.01 1453.83 800.198 1453.83 802.896L1453.83 814.959C1453.83 817.657 1456.02 819.844 1458.72 819.844L1536.28 819.844C1538.98 819.844 1541.17 817.657 1541.17 814.959L1541.17 802.896C1541.17 800.198 1538.98 798.01 1536.28 798.01ZM1467.48 811.656C1465.97 811.656 1464.75 810.434 1464.75 808.927 1464.75 807.42 1465.97 806.198 1467.48 806.198 1468.99 806.198 1470.21 807.42 1470.21 808.927 1470.21 810.434 1468.99 811.656 1467.48 811.656ZM1481.13 811.656C1479.62 811.656 1478.4 810.434 1478.4 808.927 1478.4 807.42 1479.62 806.198 1481.13 806.198 1482.63 806.198 1483.85 807.42 1483.85 808.927 1483.85 810.434 1482.63 811.656 1481.13 811.656ZM1494.77 811.656C1493.26 811.656 1492.04 810.434 1492.04 808.927 1492.04 807.42 1493.26 806.198 1494.77 806.198 1496.28 806.198 1497.5 807.42 1497.5 808.927 1497.5 810.434 1496.28 811.656 1494.77 811.656Z" fill="#475055"/></g></g></g><path d="M1990.2 1112.92C1849.66 1215.03 1659.34 1215.03 1518.8 1112.92L1754.5 788.5Z" stroke="#FFFFFF" stroke-width="4.58333" stroke-miterlimit="8" fill="#E6E6E6" fill-rule="evenodd"/><path d="M2000.38 1128.23C1864.37 1227.07 1682.53 1235.26 1538.18 1149.06L1520.28 1173.69 1520.09 1109.7 1583.12 1087.21 1565.24 1111.83C1693.38 1186.44 1853.49 1178.34 1973.44 1091.17Z" fill="#2327D0" fill-rule="evenodd"/><path d="M1699.56 1169.66 1694.67 1178.9 1701.83 1179.89ZM1697.67 1163.16 1703.28 1163.93 1710.14 1191.63 1704.38 1190.83 1702.91 1184.55 1692.43 1183.09 1689.44 1188.75 1683.82 1187.97Z" fill="#FFFFFF" fill-rule="evenodd"/><text fill="#000000" fill-opacity="0" font-family="Arial,Arial_MSFontService,sans-serif" font-size="28.4691" x="1683.82" y="1188.07">A</text><path d="M1725.54 1173.11C1726.65 1173.2 1727.66 1173.48 1728.55 1173.96 1729.44 1174.44 1730.1 1175.01 1730.53 1175.67 1730.95 1176.33 1731.22 1177.06 1731.35 1177.87 1731.47 1178.68 1731.47 1179.82 1731.35 1181.3L1730.41 1193.18 1725.35 1192.78 1726.12 1183.02C1726.29 1180.95 1726.29 1179.61 1726.12 1178.99 1725.95 1178.36 1725.64 1177.86 1725.18 1177.49 1724.72 1177.11 1724.15 1176.9 1723.46 1176.84 1722.59 1176.77 1721.78 1176.95 1721.05 1177.38 1720.31 1177.8 1719.78 1178.4 1719.46 1179.17 1719.14 1179.94 1718.9 1181.4 1718.72 1183.54L1718.03 1192.2 1712.97 1191.79 1714.5 1172.67 1719.2 1173.04 1718.98 1175.85C1720.82 1173.82 1723 1172.91 1725.54 1173.11Z" fill="#FFFFFF" fill-rule="evenodd"/><text fill="#000000" fill-opacity="0" font-family="Arial,Arial_MSFontService,sans-serif" font-size="20.516" x="1712.97" y="1190.62">n</text><path d="M1746.52 1184.52C1745.86 1184.72 1744.83 1184.95 1743.41 1185.21 1741.99 1185.47 1741.06 1185.74 1740.62 1186.02 1739.94 1186.47 1739.6 1187.06 1739.58 1187.78 1739.56 1188.49 1739.8 1189.11 1740.32 1189.64 1740.83 1190.18 1741.5 1190.45 1742.32 1190.48 1743.24 1190.5 1744.12 1190.23 1744.96 1189.65 1745.59 1189.21 1746.01 1188.66 1746.22 1188 1746.37 1187.57 1746.46 1186.75 1746.49 1185.53ZM1743.72 1174.03C1745.99 1174.1 1747.66 1174.41 1748.76 1174.98 1749.85 1175.55 1750.61 1176.25 1751.04 1177.09 1751.47 1177.92 1751.65 1179.44 1751.59 1181.65L1751.37 1187.57C1751.32 1189.25 1751.37 1190.5 1751.51 1191.31 1751.65 1192.11 1751.93 1192.98 1752.34 1193.9L1747.32 1193.76C1747.2 1193.42 1747.05 1192.92 1746.88 1192.25 1746.8 1191.95 1746.75 1191.75 1746.72 1191.65 1745.82 1192.47 1744.88 1193.07 1743.88 1193.47 1742.88 1193.86 1741.82 1194.04 1740.7 1194.01 1738.73 1193.96 1737.19 1193.38 1736.08 1192.27 1734.97 1191.17 1734.44 1189.8 1734.49 1188.16 1734.52 1187.08 1734.8 1186.12 1735.35 1185.28 1735.89 1184.45 1736.63 1183.82 1737.58 1183.4 1738.52 1182.97 1739.88 1182.61 1741.65 1182.33 1744.03 1181.95 1745.69 1181.58 1746.61 1181.22L1746.63 1180.71C1746.65 1179.74 1746.43 1179.04 1745.96 1178.61 1745.49 1178.18 1744.59 1177.94 1743.25 1177.91 1742.35 1177.88 1741.64 1178.04 1741.12 1178.38 1740.61 1178.72 1740.18 1179.33 1739.84 1180.21L1735.26 1179.25C1735.83 1177.41 1736.76 1176.07 1738.05 1175.21 1739.34 1174.36 1741.23 1173.96 1743.72 1174.03Z" fill="#FFFFFF" fill-rule="evenodd"/><text fill="#000000" fill-opacity="0" font-family="Arial,Arial_MSFontService,sans-serif" font-size="19.9882" x="1734.48" y="1191.52">a</text><path d="M1756.33 1167.34 1761.41 1167.29 1761.65 1193.78 1756.57 1193.82Z" fill="#FFFFFF" fill-rule="evenodd"/><text fill="#000000" fill-opacity="0" font-family="Arial,Arial_MSFontService,sans-serif" font-size="26.5297" x="1756.33" y="1190.51">l</text><path d="M1763.88 1174.67 1769.27 1174.42 1774.48 1187.81 1778.33 1174 1783.58 1173.76 1777.67 1192.52 1776.61 1195.91C1776.22 1197.05 1775.83 1197.92 1775.46 1198.53 1775.08 1199.14 1774.64 1199.64 1774.13 1200.03 1773.63 1200.42 1772.99 1200.74 1772.24 1200.98 1771.49 1201.22 1770.63 1201.36 1769.66 1201.4 1768.69 1201.45 1767.73 1201.39 1766.78 1201.23L1766.15 1197.28C1766.95 1197.4 1767.67 1197.44 1768.31 1197.41 1769.48 1197.36 1770.34 1196.97 1770.87 1196.26 1771.41 1195.54 1771.8 1194.64 1772.05 1193.55Z" fill="#FFFFFF" fill-rule="evenodd"/><text fill="#000000" fill-opacity="0" font-family="Arial,Arial_MSFontService,sans-serif" font-size="27.657" x="1763.88" y="1197.96">y</text><path d="M1793.21 1172.42C1795.83 1172.17 1797.81 1172.41 1799.16 1173.14 1800.51 1173.87 1801.51 1175.04 1802.15 1176.67L1797.47 1178C1797.19 1177.28 1796.75 1176.75 1796.14 1176.41 1795.54 1176.06 1794.71 1175.94 1793.65 1176.05 1792.32 1176.17 1791.38 1176.45 1790.84 1176.88 1790.49 1177.18 1790.33 1177.54 1790.37 1177.96 1790.4 1178.32 1790.6 1178.61 1790.96 1178.83 1791.45 1179.12 1793.06 1179.44 1795.81 1179.79 1798.56 1180.15 1800.52 1180.72 1801.67 1181.5 1802.81 1182.3 1803.46 1183.5 1803.61 1185.11 1803.78 1186.86 1803.19 1188.44 1801.85 1189.83 1800.51 1191.23 1798.4 1192.07 1795.54 1192.34 1792.93 1192.59 1790.83 1192.26 1789.21 1191.35 1787.59 1190.44 1786.46 1189.1 1785.82 1187.34L1790.82 1186.08C1791.13 1187.04 1791.64 1187.75 1792.34 1188.19 1793.05 1188.64 1794 1188.81 1795.19 1188.69 1796.49 1188.57 1797.45 1188.23 1798.07 1187.69 1798.48 1187.31 1798.66 1186.84 1798.6 1186.28 1798.57 1185.9 1798.42 1185.59 1798.15 1185.36 1797.88 1185.14 1797.29 1184.98 1796.4 1184.86 1792.24 1184.35 1789.57 1183.77 1788.41 1183.13 1786.8 1182.25 1785.91 1180.89 1785.73 1179.05 1785.58 1177.4 1786.1 1175.95 1787.3 1174.69 1788.49 1173.44 1790.47 1172.68 1793.21 1172.42Z" fill="#FFFFFF" fill-rule="evenodd"/><text fill="#000000" fill-opacity="0" font-family="Arial,Arial_MSFontService,sans-serif" font-size="20.0989" x="1785.71" y="1189.91">s</text><path d="M1814.28 1173.81C1813.18 1173.97 1812.33 1174.5 1811.74 1175.4 1811.14 1176.3 1810.94 1177.44 1811.16 1178.81L1818.66 1177.71C1818.42 1176.27 1817.88 1175.21 1817.05 1174.56 1816.23 1173.91 1815.3 1173.66 1814.28 1173.81ZM1813.41 1170.01C1816.24 1169.6 1818.6 1170.2 1820.51 1171.83 1822.41 1173.46 1823.61 1176.2 1824.1 1180.06L1811.51 1181.9C1811.77 1183.38 1812.34 1184.48 1813.24 1185.2 1814.13 1185.91 1815.16 1186.19 1816.31 1186.02 1817.1 1185.9 1817.73 1185.59 1818.2 1185.08 1818.68 1184.58 1818.98 1183.83 1819.12 1182.83L1824.25 1182.94C1823.87 1184.87 1823.06 1186.42 1821.81 1187.58 1820.56 1188.74 1818.89 1189.48 1816.81 1189.78 1813.51 1190.26 1810.91 1189.54 1809.01 1187.61 1807.5 1186.07 1806.56 1183.98 1806.18 1181.34 1805.72 1178.2 1806.18 1175.61 1807.56 1173.59 1808.95 1171.57 1810.9 1170.38 1813.41 1170.01Z" fill="#FFFFFF" fill-rule="evenodd"/><text fill="#000000" fill-opacity="0" font-family="Arial,Arial_MSFontService,sans-serif" font-size="20.04" x="1806" y="1187.42">e</text><g clip-path="url(#clip7)"><g clip-path="url(#clip8)"><g clip-path="url(#clip9)"><path d="M27.0833 18.9583 18.9583 18.9583 18.9583 111.042 111.042 111.042 111.042 102.917 27.0833 102.917Z" fill="#475055" transform="matrix(1.00769 0 0 1 1688 944)"/><path d="M35.2083 47.3958 50.1041 47.3958 50.1041 94.7916 35.2083 94.7916Z" fill="#475055" transform="matrix(1.00769 0 0 1 1688 944)"/><path d="M55.5208 18.9583 70.4166 18.9583 70.4166 94.7916 55.5208 94.7916Z" fill="#475055" transform="matrix(1.00769 0 0 1 1688 944)"/><path d="M75.8333 47.3958 90.7291 47.3958 90.7291 94.7916 75.8333 94.7916Z" fill="#475055" transform="matrix(1.00769 0 0 1 1688 944)"/><path d="M96.1458 70.4166 111.042 70.4166 111.042 94.7916 96.1458 94.7916Z" fill="#475055" transform="matrix(1.00769 0 0 1 1688 944)"/></g></g></g><path d="M2153.87 651.585C2207.56 816.806 2148.75 997.804 2008.2 1099.92L1772.5 775.5Z" stroke="#FFFFFF" stroke-width="4.58333" stroke-miterlimit="8" fill="#E6E6E6" fill-rule="evenodd"/><path d="M2170.9 645.72C2222.86 805.604 2174.46 981.064 2047.88 1091.7L2065.77 1116.33 2004.86 1096.74 2002.94 1029.84 2020.83 1054.46C2131.38 955.656 2173.15 800.891 2127.33 659.879Z" fill="#2327D0" fill-rule="evenodd"/><path d="M2102.28 964.885 2111.52 947.556 2115.48 949.664 2108.75 962.274 2113.94 965.037 2120.19 953.303 2124.13 955.403 2117.87 967.136 2124.23 970.527 2131.19 957.471 2135.13 959.57 2125.66 977.346Z" fill="#FFFFFF" fill-rule="evenodd"/><text fill="#000000" fill-opacity="0" font-family="Arial,Arial_MSFontService,sans-serif" font-size="29.7894" x="2102.28" y="973.622">E</text><path d="M2123.25 938.791C2123.74 937.747 2124.51 936.877 2125.54 936.182L2128.87 939.5C2128 940.035 2127.41 940.634 2127.1 941.298 2126.79 941.94 2126.71 942.568 2126.85 943.182 2126.99 943.796 2127.47 944.45 2128.27 945.145 2129.07 945.84 2130.95 946.887 2133.9 948.286L2139.25 950.827 2137.07 955.413 2119.74 947.187 2121.76 942.927 2124.23 944.096C2123.41 942.815 2122.95 941.795 2122.86 941.037 2122.77 940.28 2122.9 939.531 2123.25 938.791Z" fill="#FFFFFF" fill-rule="evenodd"/><text fill="#000000" fill-opacity="0" font-family="Arial,Arial_MSFontService,sans-serif" font-size="19.2313" x="2119.74" y="953.01">r</text><path d="M2119.01 931.689 2120.98 927.011 2129.95 930.797C2128.83 928.543 2128.7 926.368 2129.59 924.27 2130.04 923.194 2130.65 922.307 2131.42 921.61 2132.18 920.913 2132.97 920.476 2133.77 920.3 2134.58 920.124 2135.39 920.115 2136.22 920.272 2137.04 920.43 2138.24 920.843 2139.83 921.512L2150.2 925.887 2148.23 930.565 2138.89 926.625C2137.04 925.844 2135.82 925.436 2135.25 925.403 2134.67 925.37 2134.15 925.516 2133.66 925.841 2133.18 926.167 2132.79 926.668 2132.51 927.345 2132.18 928.121 2132.08 928.895 2132.2 929.664 2132.32 930.434 2132.7 931.12 2133.34 931.724 2133.98 932.328 2135.04 932.943 2136.53 933.57L2145.38 937.306 2143.41 941.984Z" fill="#FFFFFF" fill-rule="evenodd"/><text fill="#000000" fill-opacity="0" font-family="Arial,Arial_MSFontService,sans-serif" font-size="21.8232" x="2119.01" y="939.256">h</text><path d="M2139.9 908.434C2139.52 909.475 2139.59 910.473 2140.1 911.428 2140.61 912.382 2141.52 913.09 2142.83 913.55L2145.42 906.417C2144.02 905.95 2142.84 905.926 2141.88 906.345 2140.91 906.763 2140.25 907.46 2139.9 908.434ZM2136.14 907.399C2137.12 904.715 2138.77 902.919 2141.1 902.01 2143.44 901.101 2146.42 901.343 2150.06 902.737L2145.72 914.694C2147.15 915.173 2148.39 915.188 2149.44 914.737 2150.5 914.286 2151.22 913.512 2151.62 912.413 2151.89 911.666 2151.92 910.964 2151.69 910.306 2151.47 909.649 2150.95 909.026 2150.14 908.437L2152.66 903.971C2154.19 905.214 2155.16 906.661 2155.6 908.31 2156.03 909.96 2155.89 911.776 2155.17 913.757 2154.03 916.894 2152.17 918.843 2149.57 919.607 2147.5 920.2 2145.21 920.044 2142.71 919.137 2139.72 918.053 2137.66 916.423 2136.53 914.247 2135.41 912.07 2135.28 909.788 2136.14 907.399Z" fill="#FFFFFF" fill-rule="evenodd"/><text fill="#000000" fill-opacity="0" font-family="Arial,Arial_MSFontService,sans-serif" font-size="18.4873" x="2135.58" y="917.648">e</text><path d="M2146.74 887.903C2146.38 889.066 2146.54 890.172 2147.21 891.22 2147.88 892.268 2149.13 893.073 2150.97 893.636 2152.88 894.216 2154.37 894.345 2155.47 894.024 2157.01 893.577 2158 892.657 2158.42 891.263 2158.75 890.192 2158.57 889.139 2157.89 888.105 2157.2 887.071 2155.87 886.253 2153.9 885.652 2151.81 885.012 2150.18 884.93 2149.02 885.407 2147.86 885.885 2147.1 886.716 2146.74 887.903ZM2133.74 893.646 2135.23 888.79 2144.35 891.576C2143.1 889.557 2142.79 887.523 2143.42 885.473 2144.1 883.238 2145.47 881.636 2147.54 880.667 2149.6 879.698 2152.15 879.677 2155.18 880.601 2158.31 881.558 2160.5 883.041 2161.74 885.049 2162.98 887.058 2163.27 889.128 2162.62 891.259 2162.3 892.307 2161.72 893.261 2160.89 894.121 2160.05 894.98 2159.01 895.622 2157.76 896.046L2160.45 896.869 2159.08 901.379Z" fill="#FFFFFF" fill-rule="evenodd"/><text fill="#000000" fill-opacity="0" font-family="Arial,Arial_MSFontService,sans-serif" font-size="21.4551" x="2133.74" y="898.697">b</text><path d="M2146.98 874.87 2148.2 869.942 2156.76 872.061C2159.38 872.71 2161.01 873.017 2161.64 872.982 2162.28 872.947 2162.83 872.732 2163.29 872.338 2163.75 871.945 2164.08 871.379 2164.26 870.643 2164.47 869.801 2164.42 868.99 2164.13 868.209 2163.83 867.428 2163.37 866.83 2162.75 866.415 2162.12 866.001 2160.48 865.463 2157.81 864.803L2149.96 862.857 2151.18 857.929 2169.8 862.542 2168.67 867.119 2165.88 866.428C2166.71 867.352 2167.27 868.438 2167.57 869.685 2167.87 870.931 2167.87 872.168 2167.56 873.396 2167.25 874.647 2166.7 875.701 2165.9 876.559 2165.11 877.417 2164.16 877.944 2163.05 878.143 2161.95 878.341 2160.52 878.223 2158.77 877.788Z" fill="#FFFFFF" fill-rule="evenodd"/><text fill="#000000" fill-opacity="0" font-family="Arial,Arial_MSFontService,sans-serif" font-size="20.3063" x="2146.98" y="875.697">u</text><path d="M2153.75 842.769C2153.96 841.669 2154.35 840.701 2154.92 839.866 2155.5 839.031 2156.13 838.439 2156.84 838.09 2157.54 837.74 2158.3 837.549 2159.12 837.515 2159.93 837.481 2161.07 837.604 2162.52 837.882L2174.24 840.125 2173.28 845.111 2163.66 843.269C2161.63 842.88 2160.29 842.734 2159.65 842.833 2159.02 842.931 2158.49 843.188 2158.06 843.604 2157.64 844.019 2157.36 844.564 2157.23 845.239 2157.07 846.102 2157.16 846.922 2157.5 847.699 2157.84 848.476 2158.38 849.066 2159.11 849.47 2159.84 849.874 2161.26 850.277 2163.37 850.681L2171.9 852.315 2170.95 857.301 2152.1 853.692 2152.99 849.061 2155.76 849.591C2153.94 847.539 2153.27 845.265 2153.75 842.769Z" fill="#FFFFFF" fill-rule="evenodd"/><text fill="#000000" fill-opacity="0" font-family="Arial,Arial_MSFontService,sans-serif" font-size="19.792" x="2152.1" y="854.827">n</text><path d="M2160.61 824.592C2160.44 825.798 2160.78 826.855 2161.61 827.765 2162.44 828.674 2163.81 829.26 2165.73 829.523 2167.75 829.798 2169.28 829.609 2170.32 828.955 2171.37 828.302 2171.97 827.402 2172.12 826.256 2172.29 825.027 2171.95 823.923 2171.11 822.945 2170.26 821.966 2168.9 821.348 2167.01 821.091 2165.04 820.822 2163.53 821.028 2162.46 821.709 2161.39 822.39 2160.78 823.351 2160.61 824.592ZM2156.58 825.356C2156.9 823.005 2158.2 821.207 2160.47 819.961L2157.81 819.597 2158.45 814.889 2175.51 817.219C2177.75 817.525 2179.4 817.939 2180.46 818.46 2181.52 818.982 2182.32 819.62 2182.86 820.375 2183.41 821.129 2183.78 822.089 2183.98 823.254 2184.19 824.418 2184.18 825.854 2183.94 827.56 2183.5 830.782 2182.64 832.992 2181.35 834.19 2180.06 835.388 2178.57 835.871 2176.88 835.64 2176.71 835.617 2176.51 835.583 2176.27 835.539L2177.75 829.888C2178.44 829.884 2178.92 829.726 2179.22 829.414 2179.65 828.985 2179.93 828.258 2180.07 827.232 2180.25 825.919 2180.18 824.908 2179.88 824.198 2179.68 823.72 2179.3 823.328 2178.75 823.022 2178.35 822.809 2177.59 822.627 2176.47 822.474L2173.69 822.095C2175.54 823.879 2176.31 825.916 2176 828.207 2175.65 830.761 2174.29 832.636 2171.93 833.833 2170.06 834.77 2167.86 835.064 2165.31 834.717 2162.13 834.282 2159.8 833.183 2158.33 831.42 2156.85 829.656 2156.27 827.635 2156.58 825.356Z" fill="#FFFFFF" fill-rule="evenodd"/><text fill="#000000" fill-opacity="0" font-family="Arial,Arial_MSFontService,sans-serif" font-size="20.8068" x="2156.5" y="833.095">g</text><g clip-path="url(#clip10)"><g clip-path="url(#clip11)"><g clip-path="url(#clip12)"><path d="M1999.1 780.146C1999.1 781.837 1997.73 783.208 1996.04 783.208 1994.35 783.208 1992.98 781.837 1992.98 780.146 1992.98 778.455 1994.35 777.083 1996.04 777.083 1997.73 777.083 1999.1 778.455 1999.1 780.146Z" fill="#475055"/><path d="M2004.21 789.333C2004.21 791.025 2002.84 792.396 2001.15 792.396 1999.45 792.396 1998.08 791.025 1998.08 789.333 1998.08 787.642 1999.45 786.271 2001.15 786.271 2002.84 786.271 2004.21 787.642 2004.21 789.333Z" fill="#475055"/><path d="M1992.98 787.292C1992.98 788.983 1991.61 790.354 1989.92 790.354 1988.23 790.354 1986.85 788.983 1986.85 787.292 1986.85 785.6 1988.23 784.229 1989.92 784.229 1991.61 784.229 1992.98 785.6 1992.98 787.292Z" fill="#475055"/><path d="M1996.04 798.521C1996.04 800.776 1994.21 802.604 1991.96 802.604 1989.7 802.604 1987.87 800.776 1987.87 798.521 1987.87 796.266 1989.7 794.438 1991.96 794.438 1994.21 794.438 1996.04 796.266 1996.04 798.521Z" fill="#475055"/><path d="M2013.91 858.342 2002.17 831.8 2002.17 813.833C2002.17 810.158 2005.13 808.627 2005.23 808.525 2006.25 808.015 2006.66 806.79 2006.15 805.769 2005.74 805.054 2005.02 804.646 2004.21 804.646L2004.21 804.646 1983.79 804.646 1983.79 804.646C1982.97 804.646 1982.26 805.054 1981.85 805.769 1981.34 806.79 1981.75 808.015 1982.77 808.525 1982.77 808.525 1985.83 810.158 1985.83 813.833L1985.83 831.8 1974.09 858.342C1973.28 860.281 1973.48 862.425 1974.6 864.161 1975.73 865.896 1977.67 866.917 1979.71 866.917L2008.29 866.917C2010.33 866.917 2012.27 865.896 2013.4 864.161 2014.52 862.425 2014.72 860.281 2013.91 858.342ZM1998.08 813.833 1998.08 817.917 1989.92 817.917 1989.92 813.833C1989.92 811.69 1989.3 810.056 1988.59 808.729L1999.51 808.729C1998.7 810.056 1998.08 811.69 1998.08 813.833Z" fill="#475055"/></g></g></g><g clip-path="url(#clip13)"><g clip-path="url(#clip14)"><g clip-path="url(#clip15)"><path d="M28.2857 131.323C29.6926 134.034 32.3848 135.841 35.4271 136.115L68.9896 136.115 68.9896 151.031 35.4271 151.031C26.925 150.877 19.1472 146.21 15.0099 138.781 11.0464 131.611 11.3912 122.833 15.9049 115.996L35.2966 82.4333 22.5055 74.9749 53.7187 66.6216 62.072 97.8347 48.4792 90.0221 29.0129 123.771C27.3516 125.944 27.0697 128.873 28.2857 131.323Z" fill="#475055" transform="matrix(1.00559 0 0 1 1904 747)"/><path d="M54.6696 54.334 70.2762 25.1905C74.3701 17.8252 82.1549 13.2787 90.5815 13.3318 98.7743 13.4998 106.199 18.1957 109.861 25.5262L129.253 59.0887 142.044 51.6303 133.691 82.9367 102.552 74.5834 116.126 66.7335 96.5668 32.9659C95.5046 30.444 93.1073 28.7398 90.3764 28.5654 87.5007 28.7079 84.8977 30.312 83.4774 32.8167L67.8522 61.9601Z" fill="#475055" transform="matrix(1.00559 0 0 1 1904 747)"/><path d="M163.319 140.273C159.242 147.113 151.795 151.225 143.834 151.031L104.417 151.031 104.417 165.948 81.501 142.641 104.417 119.967 104.417 136.115 143.331 136.115C146.127 136.301 148.792 134.904 150.23 132.497 151.622 129.951 151.536 126.852 150.006 124.386L132.945 95.2989 146.127 87.6355 163.207 116.704C164.17 118.398 164.927 120.201 165.463 122.074L165.78 123.305C167.19 129.066 166.308 135.15 163.319 140.273Z" fill="#475055" transform="matrix(1.00559 0 0 1 1904 747)"/></g></g></g><path d="M1765.5 353.5C1939.22 353.5 2093.19 465.363 2146.87 630.584L1765.5 754.5Z" stroke="#FFFFFF" stroke-width="4.58333" stroke-miterlimit="8" fill="#16D41B" fill-rule="evenodd"/><path d="M1765.04 333.539C1933.25 333.555 2085.27 433.706 2151.5 588.147L2180.45 578.74 2143.05 630.652 2078.78 611.776 2107.72 602.372C2047.79 466.825 1913.41 379.369 1765.04 379.355Z" fill="#2327D0" fill-rule="evenodd"/><path d="M1953.01 391.123 1949.51 397.775 1952.1 399.137C1953.97 400.119 1955.28 400.652 1956.04 400.738 1956.8 400.824 1957.49 400.699 1958.12 400.365 1958.76 400.03 1959.25 399.517 1959.62 398.824 1960.07 397.971 1960.19 397.136 1959.98 396.318 1959.77 395.5 1959.32 394.82 1958.62 394.278 1958.11 393.874 1957.01 393.224 1955.3 392.326ZM1950.37 384.668 1957.96 388.664C1960.84 390.178 1962.65 391.282 1963.4 391.977 1964.56 393.035 1965.28 394.391 1965.57 396.046 1965.86 397.7 1965.51 399.46 1964.53 401.326 1963.77 402.765 1962.87 403.837 1961.84 404.543 1960.8 405.249 1959.73 405.67 1958.63 405.806 1957.53 405.942 1956.52 405.882 1955.59 405.626 1954.34 405.255 1952.65 404.506 1950.51 403.379L1947.42 401.756 1942.77 410.598 1938.04 408.108Z" fill="#FFFFFF" fill-rule="evenodd"/><text fill="#000000" fill-opacity="0" font-family="Arial,Arial_MSFontService,sans-serif" font-size="25.9292" x="1938.04" y="407.356">P</text><path d="M1972.71 396.737 1977.1 399.287 1963.8 422.19 1959.41 419.64Z" fill="#FFFFFF" fill-rule="evenodd"/><text fill="#000000" fill-opacity="0" font-family="Arial,Arial_MSFontService,sans-serif" font-size="25.4526" x="1959.41" y="419.008">l</text><path d="M1981.97 422.542C1981.3 422.378 1980.29 422.047 1978.94 421.549 1977.59 421.052 1976.65 420.809 1976.13 420.822 1975.32 420.866 1974.72 421.193 1974.33 421.804 1973.95 422.405 1973.85 423.066 1974.02 423.787 1974.19 424.507 1974.63 425.086 1975.32 425.524 1976.09 426.012 1976.99 426.224 1978.02 426.159 1978.78 426.099 1979.42 425.841 1979.94 425.384 1980.28 425.088 1980.78 424.426 1981.43 423.397ZM1984.91 412.093C1986.82 413.302 1988.11 414.429 1988.76 415.474 1989.41 416.519 1989.7 417.51 1989.65 418.449 1989.59 419.388 1988.97 420.789 1987.79 422.653L1984.58 427.635C1983.68 429.06 1983.09 430.155 1982.8 430.919 1982.51 431.683 1982.31 432.571 1982.19 433.583L1977.95 430.902C1978.02 430.546 1978.14 430.036 1978.34 429.373 1978.43 429.074 1978.48 428.874 1978.5 428.773 1977.32 429.023 1976.2 429.062 1975.14 428.891 1974.08 428.721 1973.07 428.336 1972.12 427.738 1970.45 426.684 1969.42 425.399 1969.03 423.885 1968.64 422.371 1968.89 420.922 1969.76 419.537 1970.34 418.62 1971.07 417.941 1971.97 417.5 1972.86 417.058 1973.82 416.896 1974.85 417.012 1975.88 417.128 1977.23 417.514 1978.89 418.167 1981.14 419.057 1982.75 419.583 1983.73 419.746L1984 419.319C1984.52 418.494 1984.69 417.777 1984.5 417.168 1984.32 416.56 1983.66 415.899 1982.53 415.185 1981.77 414.703 1981.08 414.477 1980.46 414.507 1979.84 414.537 1979.16 414.846 1978.42 415.432L1974.97 412.27C1976.4 410.978 1977.88 410.293 1979.43 410.215 1980.97 410.136 1982.8 410.762 1984.91 412.093Z" fill="#FFFFFF" fill-rule="evenodd"/><text fill="#000000" fill-opacity="0" font-family="Arial,Arial_MSFontService,sans-serif" font-size="23.3752" x="1968.85" y="430.661">a</text><path d="M2005.46 425.893C2006.38 426.539 2007.1 427.294 2007.62 428.158 2008.15 429.023 2008.42 429.848 2008.45 430.634 2008.48 431.42 2008.34 432.192 2008.03 432.949 2007.73 433.706 2007.15 434.69 2006.29 435.9L1999.42 445.642 1995.27 442.714 2000.92 434.714C2002.11 433.022 2002.79 431.864 2002.97 431.242 2003.14 430.621 2003.13 430.031 2002.92 429.474 2002.72 428.918 2002.34 428.441 2001.77 428.045 2001.06 427.538 2000.27 427.28 1999.42 427.271 1998.58 427.262 1997.82 427.507 1997.15 428.007 1996.48 428.507 1995.52 429.633 1994.29 431.385L1989.28 438.484 1985.13 435.557 1996.19 419.882 2000.04 422.601 1998.42 424.903C2001.04 424.098 2003.38 424.427 2005.46 425.893Z" fill="#FFFFFF" fill-rule="evenodd"/><text fill="#000000" fill-opacity="0" font-family="Arial,Arial_MSFontService,sans-serif" font-size="25.7598" x="1985.13" y="442.422">n</text><path d="M2014.82 433.214 2018.8 436.359 2013.34 443.279C2011.67 445.397 2010.72 446.753 2010.49 447.346 2010.26 447.939 2010.23 448.528 2010.39 449.113 2010.56 449.698 2010.94 450.225 2011.54 450.695 2012.22 451.232 2012.98 451.527 2013.81 451.579 2014.64 451.63 2015.38 451.458 2016.01 451.062 2016.65 450.665 2017.82 449.389 2019.52 447.234L2024.53 440.88 2028.52 444.025 2016.63 459.086 2012.93 456.165 2014.71 453.91C2013.53 454.281 2012.3 454.346 2011.05 454.104 2009.79 453.862 2008.66 453.349 2007.67 452.566 2006.66 451.768 2005.92 450.829 2005.47 449.751 2005.02 448.672 2004.93 447.589 2005.2 446.502 2005.48 445.415 2006.18 444.162 2007.29 442.744Z" fill="#FFFFFF" fill-rule="evenodd"/><text fill="#000000" fill-opacity="0" font-family="Arial,Arial_MSFontService,sans-serif" font-size="25.873" x="2005.05" y="455.852">u</text><path d="M2041.39 454.581C2042.23 455.321 2042.86 456.149 2043.29 457.064 2043.72 457.98 2043.91 458.83 2043.85 459.614 2043.79 460.399 2043.57 461.151 2043.19 461.871 2042.8 462.591 2042.12 463.507 2041.14 464.619L2033.27 473.571 2029.46 470.218 2035.92 462.866C2037.29 461.311 2038.1 460.234 2038.33 459.634 2038.57 459.034 2038.62 458.446 2038.48 457.871 2038.33 457.295 2038.01 456.781 2037.49 456.327 2036.83 455.747 2036.08 455.406 2035.24 455.307 2034.39 455.207 2033.61 455.37 2032.89 455.795 2032.17 456.221 2031.1 457.239 2029.69 458.848L2023.95 465.372 2020.14 462.019 2032.81 447.614 2036.35 450.729 2034.49 452.845C2037.18 452.324 2039.48 452.902 2041.39 454.581Z" fill="#FFFFFF" fill-rule="evenodd"/><text fill="#000000" fill-opacity="0" font-family="Arial,Arial_MSFontService,sans-serif" font-size="25.9568" x="2020.14" y="470.327">n</text><path d="M2053.47 471.177C2052.6 470.326 2051.55 469.962 2050.32 470.085 2049.1 470.209 2047.81 470.963 2046.45 472.348 2045.03 473.802 2044.27 475.143 2044.17 476.37 2044.07 477.598 2044.43 478.616 2045.26 479.425 2046.15 480.293 2047.23 480.68 2048.52 480.586 2049.81 480.492 2051.12 479.765 2052.45 478.406 2053.85 476.986 2054.58 475.646 2054.67 474.384 2054.76 473.123 2054.36 472.054 2053.47 471.177ZM2055.25 467.492C2056.95 469.153 2057.62 471.267 2057.26 473.834L2059.15 471.911 2062.54 475.236 2050.49 487.535C2048.91 489.153 2047.59 490.231 2046.54 490.77 2045.49 491.309 2044.5 491.57 2043.57 491.554 2042.64 491.538 2041.65 491.265 2040.59 490.735 2039.53 490.205 2038.39 489.338 2037.16 488.132 2034.84 485.857 2033.58 483.845 2033.39 482.096 2033.19 480.348 2033.7 478.863 2034.89 477.641 2035.01 477.521 2035.16 477.379 2035.34 477.215L2038.99 481.777C2038.58 482.326 2038.42 482.813 2038.49 483.238 2038.58 483.834 2039 484.494 2039.74 485.218 2040.68 486.146 2041.53 486.699 2042.28 486.879 2042.79 487.001 2043.33 486.932 2043.9 486.67 2044.31 486.479 2044.91 485.979 2045.7 485.17L2047.66 483.169C2045.13 483.587 2043.03 482.987 2041.38 481.369 2039.54 479.565 2038.85 477.358 2039.3 474.747 2039.66 472.691 2040.74 470.746 2042.53 468.914 2044.78 466.616 2047.05 465.403 2049.35 465.273 2051.64 465.143 2053.61 465.882 2055.25 467.492Z" fill="#FFFFFF" fill-rule="evenodd"/><text fill="#000000" fill-opacity="0" font-family="Arial,Arial_MSFontService,sans-serif" font-size="26.2966" x="2033.35" y="488.268">g</text><g clip-path="url(#clip16)"><g clip-path="url(#clip17)"><g clip-path="url(#clip18)"><path d="M27.2917 19.1042 19.1042 19.1042 19.1042 111.896 111.896 111.896 111.896 103.708 27.2917 103.708 27.2917 19.1042Z" fill="#475055" transform="matrix(1 0 0 1 1848 501)"/><path d="M96.8854 87.3333 109.167 87.3333 109.167 95.5208 96.8854 95.5208Z" fill="#475055" transform="matrix(1 0 0 1 1848 501)"/><path d="M85.9687 73.6875 99.6146 73.6875 99.6146 81.875 85.9687 81.875Z" fill="#475055" transform="matrix(1 0 0 1 1848 501)"/><path d="M65.5 60.0417 92.7916 60.0417 92.7916 68.2291 65.5 68.2291Z" fill="#475055" transform="matrix(1 0 0 1 1848 501)"/><path d="M50.4896 46.3958 96.8854 46.3958 96.8854 54.5833 50.4896 54.5833Z" fill="#475055" transform="matrix(1 0 0 1 1848 501)"/><path d="M35.4792 32.75 62.7708 32.75 62.7708 40.9375 35.4792 40.9375Z" fill="#475055" transform="matrix(1 0 0 1 1848 501)"/></g></g></g></g></svg>