<svg width="1168" height="1167" xmlns="http://www.w3.org/2000/svg" xmlns:xlink="http://www.w3.org/1999/xlink" overflow="hidden"><defs><clipPath id="clip0"><rect x="1787" y="1353" width="1168" height="1167"/></clipPath><clipPath id="clip1"><rect x="2159" y="1661" width="133" height="131"/></clipPath><clipPath id="clip2"><rect x="2167" y="1668" width="119" height="119"/></clipPath><clipPath id="clip3"><rect x="2167" y="1668" width="119" height="119"/></clipPath><clipPath id="clip4"><rect x="2047" y="1943" width="131" height="132"/></clipPath><clipPath id="clip5"><rect x="2047" y="1943" width="131" height="132"/></clipPath><clipPath id="clip6"><rect x="2047" y="1943" width="131" height="132"/></clipPath><clipPath id="clip7"><rect x="2304" y="2105" width="131" height="131"/></clipPath><clipPath id="clip8"><rect x="2304" y="2105" width="131" height="131"/></clipPath><clipPath id="clip9"><rect x="2304" y="2105" width="131" height="131"/></clipPath><clipPath id="clip10"><rect x="2560" y="1933" width="98" height="99"/></clipPath><clipPath id="clip11"><rect x="2560" y="1933" width="98" height="99"/></clipPath><clipPath id="clip12"><rect x="2560" y="1933" width="98" height="99"/></clipPath><clipPath id="clip13"><rect x="2519" y="1908" width="181" height="179"/></clipPath><clipPath id="clip14"><rect x="2519" y="1908" width="181" height="179"/></clipPath><clipPath id="clip15"><rect x="2519" y="1908" width="181" height="179"/></clipPath><clipPath id="clip16"><rect x="2464" y="1662" width="130" height="131"/></clipPath><clipPath id="clip17"><rect x="2464" y="1662" width="130" height="131"/></clipPath><clipPath id="clip18"><rect x="2464" y="1662" width="130" height="131"/></clipPath></defs><g clip-path="url(#clip0)" transform="translate(-1787 -1353)"><path d="M1977.13 1791.58C2030.81 1626.36 2184.78 1514.5 2358.5 1514.5L2358.5 1915.5Z" stroke="#FFFFFF" stroke-width="4.58333" stroke-miterlimit="8" fill="#E6E6E6" fill-rule="evenodd"/><path d="M1958.1 1784.71C2010.04 1624.86 2152.29 1511.38 2319.69 1496.25L2319.69 1465.8 2357.46 1517.45 2319.7 1572.7 2319.69 1542.27C2172.21 1557.25 2047.48 1657.89 2001.67 1798.87Z" fill="#2327D0" fill-rule="evenodd"/><path d="M2063.21 1626.29 2077.27 1612.93 2080.13 1615.94 2081.92 1638.89 2092.84 1628.51 2095.92 1631.75 2080.32 1646.57 2077 1643.07 2075.25 1621.03 2066.3 1629.54Z" fill="#FFFFFF" fill-rule="evenodd"/><text fill="#000000" fill-opacity="0" font-family="Arial,Arial_MSFontService,sans-serif" font-size="33.6354" x="2063.21" y="1642.36">Z</text><path d="M2085.42 1615.46 2089.28 1612.17 2095.01 1618.87C2096.76 1620.93 2097.9 1622.12 2098.44 1622.46 2098.97 1622.81 2099.55 1622.95 2100.15 1622.9 2100.76 1622.85 2101.35 1622.58 2101.93 1622.09 2102.59 1621.52 2103.02 1620.84 2103.24 1620.03 2103.45 1619.22 2103.42 1618.47 2103.16 1617.77 2102.89 1617.07 2101.87 1615.67 2100.09 1613.59L2094.83 1607.43 2098.7 1604.13 2111.15 1618.73 2107.56 1621.79 2105.7 1619.6C2105.83 1620.84 2105.66 1622.05 2105.18 1623.23 2104.69 1624.42 2103.97 1625.43 2103.01 1626.25 2102.03 1627.08 2100.96 1627.62 2099.82 1627.85 2098.67 1628.09 2097.59 1627.96 2096.58 1627.48 2095.57 1627 2094.47 1626.07 2093.3 1624.7Z" fill="#FFFFFF" fill-rule="evenodd"/><text fill="#000000" fill-opacity="0" font-family="Arial,Arial_MSFontService,sans-serif" font-size="23.834" x="2085.42" y="1624.99">u</text><path d="M2111.74 1598.32C2110.77 1599.06 2110.26 1600.05 2110.21 1601.28 2110.16 1602.51 2110.72 1603.89 2111.9 1605.43 2113.13 1607.05 2114.35 1607.99 2115.55 1608.27 2116.76 1608.54 2117.81 1608.32 2118.73 1607.62 2119.72 1606.86 2120.26 1605.84 2120.35 1604.55 2120.44 1603.26 2119.9 1601.86 2118.75 1600.35 2117.54 1598.77 2116.32 1597.85 2115.08 1597.58 2113.85 1597.31 2112.73 1597.56 2111.74 1598.32ZM2108.34 1596.03C2110.23 1594.59 2112.42 1594.22 2114.91 1594.94L2113.27 1592.8 2117.04 1589.92 2127.5 1603.59C2128.88 1605.39 2129.76 1606.85 2130.14 1607.97 2130.53 1609.08 2130.65 1610.1 2130.5 1611.02 2130.35 1611.93 2129.94 1612.88 2129.26 1613.85 2128.59 1614.82 2127.57 1615.83 2126.2 1616.87 2123.62 1618.85 2121.45 1619.81 2119.69 1619.75 2117.93 1619.69 2116.53 1618.98 2115.49 1617.63 2115.39 1617.49 2115.27 1617.33 2115.13 1617.13L2120.17 1614.16C2120.66 1614.64 2121.11 1614.87 2121.54 1614.86 2122.15 1614.86 2122.86 1614.54 2123.68 1613.91 2124.73 1613.1 2125.4 1612.34 2125.69 1611.63 2125.88 1611.14 2125.89 1610.6 2125.71 1609.99 2125.58 1609.56 2125.17 1608.9 2124.48 1608L2122.78 1605.77C2122.83 1608.34 2121.94 1610.33 2120.11 1611.73 2118.06 1613.3 2115.77 1613.67 2113.25 1612.86 2111.27 1612.21 2109.5 1610.86 2107.94 1608.82 2105.99 1606.27 2105.11 1603.85 2105.31 1601.56 2105.5 1599.27 2106.52 1597.43 2108.34 1596.03Z" fill="#FFFFFF" fill-rule="evenodd"/><text fill="#000000" fill-opacity="0" font-family="Arial,Arial_MSFontService,sans-serif" font-size="29.8352" x="2105.28" y="1616.02">g</text><path d="M2135.79 1589.02C2135.38 1589.57 2134.67 1590.37 2133.68 1591.41 2132.69 1592.46 2132.1 1593.22 2131.9 1593.71 2131.62 1594.47 2131.69 1595.15 2132.1 1595.74 2132.5 1596.33 2133.06 1596.69 2133.79 1596.81 2134.52 1596.94 2135.23 1596.77 2135.9 1596.31 2136.66 1595.79 2137.21 1595.05 2137.55 1594.08 2137.8 1593.36 2137.81 1592.67 2137.6 1592.01 2137.46 1591.58 2137.05 1590.86 2136.36 1589.86ZM2127.35 1582.19C2129.22 1580.91 2130.76 1580.18 2131.98 1579.99 2133.19 1579.81 2134.22 1579.93 2135.06 1580.35 2135.9 1580.78 2136.94 1581.9 2138.19 1583.71L2141.5 1588.63C2142.46 1590.02 2143.23 1591 2143.81 1591.57 2144.4 1592.14 2145.14 1592.67 2146.02 1593.17L2141.88 1596.02C2141.58 1595.81 2141.16 1595.49 2140.63 1595.06 2140.39 1594.86 2140.23 1594.73 2140.14 1594.67 2139.91 1595.85 2139.5 1596.9 2138.92 1597.81 2138.35 1598.71 2137.6 1599.48 2136.68 1600.12 2135.05 1601.23 2133.46 1601.67 2131.92 1601.43 2130.37 1601.19 2129.13 1600.4 2128.21 1599.05 2127.59 1598.15 2127.26 1597.21 2127.21 1596.22 2127.15 1595.22 2127.38 1594.28 2127.9 1593.38 2128.41 1592.48 2129.3 1591.39 2130.56 1590.12 2132.26 1588.41 2133.38 1587.13 2133.92 1586.3L2133.63 1585.88C2133.08 1585.08 2132.49 1584.64 2131.85 1584.57 2131.22 1584.5 2130.35 1584.84 2129.25 1585.6 2128.51 1586.11 2128.03 1586.66 2127.81 1587.23 2127.6 1587.81 2127.61 1588.56 2127.86 1589.47L2123.59 1591.39C2122.97 1589.57 2122.92 1587.93 2123.46 1586.48 2124 1585.03 2125.3 1583.6 2127.35 1582.19Z" fill="#FFFFFF" fill-rule="evenodd"/><text fill="#000000" fill-opacity="0" font-family="Arial,Arial_MSFontService,sans-serif" font-size="21.589" x="2123.09" y="1598.8">a</text><path d="M2148.15 1568.76C2149.1 1568.18 2150.08 1567.81 2151.08 1567.67 2152.08 1567.53 2152.95 1567.6 2153.68 1567.89 2154.42 1568.17 2155.07 1568.61 2155.65 1569.19 2156.22 1569.77 2156.89 1570.69 2157.67 1571.95L2163.9 1582.12 2159.58 1584.77 2154.46 1576.42C2153.37 1574.66 2152.58 1573.57 2152.08 1573.17 2151.57 1572.76 2151.03 1572.54 2150.44 1572.51 2149.84 1572.48 2149.25 1572.64 2148.67 1573 2147.92 1573.46 2147.37 1574.08 2147.03 1574.85 2146.69 1575.63 2146.61 1576.42 2146.81 1577.24 2147 1578.05 2147.66 1579.37 2148.78 1581.2L2153.32 1588.6 2148.99 1591.26 2138.96 1574.9 2142.98 1572.44 2144.46 1574.84C2144.75 1572.12 2145.98 1570.09 2148.15 1568.76Z" fill="#FFFFFF" fill-rule="evenodd"/><text fill="#000000" fill-opacity="0" font-family="Arial,Arial_MSFontService,sans-serif" font-size="23.6559" x="2138.96" y="1588.3">n</text><path d="M2167.57 1562.11C2166.5 1562.69 2165.84 1563.58 2165.6 1564.79 2165.35 1565.99 2165.69 1567.45 2166.62 1569.16 2167.59 1570.94 2168.65 1572.07 2169.79 1572.52 2170.93 1572.98 2172.01 1572.93 2173.03 1572.38 2174.12 1571.79 2174.81 1570.86 2175.1 1569.6 2175.39 1568.34 2175.08 1566.88 2174.18 1565.2 2173.23 1563.46 2172.17 1562.35 2170.99 1561.9 2169.81 1561.44 2168.67 1561.51 2167.57 1562.11ZM2164.57 1559.31C2166.66 1558.18 2168.88 1558.16 2171.22 1559.26L2169.94 1556.9 2174.12 1554.63 2182.32 1569.77C2183.4 1571.76 2184.04 1573.34 2184.25 1574.5 2184.45 1575.66 2184.41 1576.68 2184.12 1577.57 2183.83 1578.45 2183.28 1579.32 2182.46 1580.17 2181.65 1581.03 2180.48 1581.86 2178.96 1582.68 2176.11 1584.23 2173.81 1584.84 2172.08 1584.51 2170.36 1584.18 2169.09 1583.26 2168.27 1581.76 2168.19 1581.61 2168.1 1581.43 2167.99 1581.21L2173.43 1579.07C2173.84 1579.61 2174.25 1579.92 2174.68 1579.97 2175.28 1580.06 2176.03 1579.86 2176.94 1579.36 2178.1 1578.73 2178.88 1578.08 2179.28 1577.42 2179.54 1576.97 2179.63 1576.44 2179.55 1575.81 2179.49 1575.36 2179.19 1574.64 2178.65 1573.65L2177.32 1571.19C2176.97 1573.73 2175.78 1575.55 2173.75 1576.66 2171.48 1577.88 2169.17 1577.9 2166.8 1576.7 2164.94 1575.75 2163.4 1574.14 2162.18 1571.89 2160.65 1569.06 2160.16 1566.53 2160.71 1564.3 2161.26 1562.07 2162.55 1560.41 2164.57 1559.31Z" fill="#FFFFFF" fill-rule="evenodd"/><text fill="#000000" fill-opacity="0" font-family="Arial,Arial_MSFontService,sans-serif" font-size="29.9681" x="2160.49" y="1580.85">g</text><g clip-path="url(#clip1)"><g clip-path="url(#clip2)"><g clip-path="url(#clip3)"><path d="M88.2813 3.29583C72.5083 3.29583 59.8743 16.0083 59.8743 31.7028L59.8743 63.3271 67.8 63.3271 67.8 31.7028C67.8 20.3243 76.9813 11.1431 88.3597 11.1431 99.7382 11.1431 108.919 20.3243 108.919 31.7028L108.919 53.5181 116.845 53.5181 116.845 31.7028C116.688 15.9299 104.054 3.29583 88.2813 3.29583Z" fill="#475055" fill-rule="evenodd" transform="matrix(1.00764 0 0 1 2164.92 1670.73)"/><path d="M72.4299 58.4618 6.04236 58.4618C5.80694 58.4618 5.65 58.6188 5.65 58.8542L5.65 110.097C5.65 110.332 5.80694 110.489 6.04236 110.489L72.4299 110.489C72.6653 110.489 72.8222 110.332 72.8222 110.097L72.8222 58.8542C72.8222 58.6972 72.6653 58.4618 72.4299 58.4618ZM30.6826 99.2674 34.2924 88.909 34.2924 88.909C32.1736 87.7319 30.6826 85.5347 30.6826 82.8667 30.6826 79.1 33.7431 76.0396 37.5097 76.0396 41.2764 76.0396 44.3368 79.1 44.3368 82.8667 44.3368 85.3778 42.9243 87.575 40.884 88.7521 40.8056 88.7521 40.8056 88.8306 40.7271 88.8306L40.884 88.8306 44.4938 99.1889 30.6826 99.1889Z" fill="#475055" fill-rule="evenodd" transform="matrix(1.00764 0 0 1 2164.92 1670.73)"/><path d="M31.7028 81.0618 31.7028 81.1403 31.5458 81.1403C31.6243 81.1403 31.6243 81.0618 31.7028 81.0618Z" fill="#475055" fill-rule="evenodd" transform="matrix(1.00764 0 0 1 2167.27 1668.77)"/></g></g></g><path d="M2115.8 2260.92C1975.25 2158.8 1916.44 1977.81 1970.13 1812.58L2351.5 1936.5Z" stroke="#FFFFFF" stroke-width="4.58333" stroke-miterlimit="8" fill="#16D41B" fill-rule="evenodd"/><path d="M2103.49 2276.04C1967.63 2177.12 1903.73 2006.65 1941.02 1842.66L1912.07 1833.26 1972.84 1813.28 2013.73 1866.29 1984.79 1856.89C1953.51 2001.89 2010.61 2151.71 2130.42 2238.97Z" fill="#2327D0" fill-rule="evenodd"/><path d="M1964.43 1960.86 1954.36 1958.02 1954.9 1965.23ZM1970.39 1957.65 1970.8 1963.29 1945.18 1975.82 1944.75 1970.02 1950.57 1967.27 1949.79 1956.71 1943.63 1954.98 1943.21 1949.32Z" fill="#FFFFFF" fill-rule="evenodd"/><text fill="#000000" fill-opacity="0" font-family="Arial,Arial_MSFontService,sans-serif" font-size="26.5031" x="1943.21" y="1972.51">A</text><path d="M1966.22 1984.99C1966.37 1986.14 1966.19 1987.28 1965.68 1988.42L1961.1 1987.4C1961.54 1986.49 1961.72 1985.66 1961.63 1984.94 1961.54 1984.23 1961.28 1983.66 1960.83 1983.21 1960.38 1982.77 1959.63 1982.47 1958.58 1982.32 1957.53 1982.16 1955.38 1982.28 1952.14 1982.68L1946.26 1983.41 1945.64 1978.37 1964.68 1976.02 1965.26 1980.7 1962.55 1981.04C1963.93 1981.68 1964.86 1982.3 1965.35 1982.88 1965.83 1983.47 1966.12 1984.18 1966.22 1984.99Z" fill="#FFFFFF" fill-rule="evenodd"/><text fill="#000000" fill-opacity="0" font-family="Arial,Arial_MSFontService,sans-serif" font-size="12.4004" x="1945.64" y="1986.87">r</text><path d="M1968.2 1997.96C1968.59 2000.27 1968.4 2002.18 1967.63 2003.71 1966.86 2005.23 1965.51 2006.46 1963.58 2007.39L1961.87 2002.6C1962.83 2002.27 1963.51 2001.77 1963.91 2001.1 1964.31 2000.43 1964.43 1999.63 1964.28 1998.69 1964.07 1997.44 1963.47 1996.52 1962.49 1995.92 1961.5 1995.32 1960 1995.19 1957.98 1995.52 1955.74 1995.89 1954.21 1996.53 1953.41 1997.44 1952.61 1998.35 1952.31 1999.44 1952.53 2000.71 1952.68 2001.66 1953.08 2002.4 1953.72 2002.91 1954.37 2003.43 1955.37 2003.7 1956.73 2003.73L1956.71 2008.79C1954.36 2008.66 1952.5 2007.96 1951.1 2006.7 1949.71 2005.44 1948.81 2003.59 1948.41 2001.16 1947.95 1998.39 1948.45 1996.04 1949.93 1994.1 1951.4 1992.17 1953.68 1990.94 1956.77 1990.43 1959.89 1989.91 1962.46 1990.33 1964.48 1991.69 1966.49 1993.06 1967.74 1995.15 1968.2 1997.96Z" fill="#FFFFFF" fill-rule="evenodd"/><text fill="#000000" fill-opacity="0" font-family="Arial,Arial_MSFontService,sans-serif" font-size="18.5759" x="1948.24" y="2006.47">c</text><path d="M1976.94 2008.11 1978.03 2013.07 1968.51 2015.16C1970.74 2016.35 1972.09 2018.05 1972.58 2020.28 1972.83 2021.42 1972.84 2022.49 1972.62 2023.5 1972.4 2024.52 1972.01 2025.33 1971.45 2025.93 1970.9 2026.54 1970.24 2027.02 1969.47 2027.37 1968.71 2027.71 1967.49 2028.07 1965.81 2028.44L1954.81 2030.85 1953.73 2025.89 1963.62 2023.72C1965.59 2023.29 1966.82 2022.92 1967.3 2022.62 1967.79 2022.31 1968.14 2021.89 1968.35 2021.34 1968.55 2020.8 1968.58 2020.17 1968.42 2019.45 1968.24 2018.63 1967.88 2017.94 1967.34 2017.38 1966.8 2016.82 1966.09 2016.48 1965.22 2016.35 1964.34 2016.23 1963.12 2016.34 1961.54 2016.69L1952.16 2018.75 1951.07 2013.79Z" fill="#FFFFFF" fill-rule="evenodd"/><text fill="#000000" fill-opacity="0" font-family="Arial,Arial_MSFontService,sans-serif" font-size="22.7419" x="1951.07" y="2028.01">h</text><path d="M1974.71 2031.02 1975.99 2035.93 1957.43 2040.78 1956.15 2035.86ZM1981.77 2029.18 1983.05 2034.09 1978.51 2035.28 1977.23 2030.36Z" fill="#FFFFFF" fill-rule="evenodd"/><text fill="#000000" fill-opacity="0" font-family="Arial,Arial_MSFontService,sans-serif" font-size="11.5974" x="1956.15" y="2039.33">i</text><path d="M1976.49 2038.23 1978.03 2043.33 1969.69 2049.61 1966.86 2051.56C1967.74 2051.58 1968.31 2051.59 1968.59 2051.58 1969.15 2051.59 1969.72 2051.61 1970.3 2051.64L1980.73 2052.31 1982.23 2057.31 1961.66 2055.54 1960.34 2051.16Z" fill="#FFFFFF" fill-rule="evenodd"/><text fill="#000000" fill-opacity="0" font-family="Arial,Arial_MSFontService,sans-serif" font-size="19.0825" x="1960.34" y="2054.92">v</text><path d="M1983.19 2059.86 1984.83 2064.66 1966.68 2070.86 1965.04 2066.06ZM1990.1 2057.5 1991.74 2062.3 1987.29 2063.82 1985.65 2059.02Z" fill="#FFFFFF" fill-rule="evenodd"/><text fill="#000000" fill-opacity="0" font-family="Arial,Arial_MSFontService,sans-serif" font-size="13.3679" x="1965.04" y="2069.19">i</text><path d="M1985.89 2077.56C1985.49 2076.53 1984.79 2075.82 1983.77 2075.43 1982.76 2075.04 1981.61 2075.11 1980.32 2075.61L1983.04 2082.7C1984.4 2082.14 1985.31 2081.38 1985.76 2080.43 1986.22 2079.49 1986.26 2078.53 1985.89 2077.56ZM1989.41 2075.88C1990.43 2078.55 1990.35 2080.99 1989.19 2083.2 1988.02 2085.42 1985.6 2087.19 1981.94 2088.52L1977.39 2076.64C1976 2077.21 1975.05 2078.02 1974.55 2079.05 1974.05 2080.08 1974.01 2081.14 1974.42 2082.23 1974.71 2082.97 1975.15 2083.52 1975.75 2083.87 1976.35 2084.22 1977.15 2084.35 1978.15 2084.26L1979.17 2089.29C1977.2 2089.35 1975.52 2088.9 1974.11 2087.93 1972.7 2086.97 1971.62 2085.51 1970.86 2083.54 1969.67 2080.42 1969.8 2077.73 1971.26 2075.45 1972.44 2073.64 1974.27 2072.26 1976.76 2071.31 1979.73 2070.17 1982.35 2070.06 1984.63 2070.96 1986.9 2071.87 1988.49 2073.51 1989.41 2075.88Z" fill="#FFFFFF" fill-rule="evenodd"/><text fill="#000000" fill-opacity="0" font-family="Arial,Arial_MSFontService,sans-serif" font-size="18.937" x="1970.06" y="2086.93">e</text><path d="M1997.66 2095.91C1998.12 2096.97 1998.27 2098.12 1998.11 2099.36L1993.43 2099.67C1993.59 2098.67 1993.53 2097.83 1993.24 2097.16 1992.96 2096.5 1992.54 2096.03 1991.99 2095.73 1991.43 2095.43 1990.63 2095.36 1989.57 2095.5 1988.52 2095.65 1986.5 2096.37 1983.5 2097.67L1978.06 2100.02 1976.05 2095.36 1993.66 2087.74 1995.53 2092.07 1993.03 2093.15C1994.53 2093.38 1995.6 2093.71 1996.23 2094.14 1996.86 2094.57 1997.34 2095.16 1997.66 2095.91Z" fill="#FFFFFF" fill-rule="evenodd"/><text fill="#000000" fill-opacity="0" font-family="Arial,Arial_MSFontService,sans-serif" font-size="12.2751" x="1976.05" y="2098.48">r</text><path d="M1999.19 2100.51 2001.41 2105.08 1993.48 2108.93C1991.05 2110.11 1989.61 2110.91 1989.14 2111.35 1988.68 2111.78 1988.39 2112.3 1988.29 2112.9 1988.18 2113.5 1988.3 2114.14 1988.63 2114.82 1989.01 2115.6 1989.56 2116.2 1990.29 2116.6 1991.02 2117.01 1991.75 2117.18 1992.5 2117.1 1993.24 2117.02 1994.85 2116.38 1997.32 2115.18L2004.6 2111.64 2006.82 2116.21 1989.56 2124.59 1987.5 2120.35 1990.08 2119.1C1988.86 2118.91 1987.73 2118.44 1986.7 2117.67 1985.67 2116.91 1984.88 2115.96 1984.33 2114.82 1983.77 2113.66 1983.52 2112.5 1983.58 2111.33 1983.64 2110.16 1984.03 2109.15 1984.75 2108.29 1985.47 2107.43 1986.65 2106.6 1988.27 2105.81Z" fill="#FFFFFF" fill-rule="evenodd"/><text fill="#000000" fill-opacity="0" font-family="Arial,Arial_MSFontService,sans-serif" font-size="24.0801" x="1983.57" y="2121.58">u</text><path d="M2014.55 2129.5C2015.09 2130.48 2015.41 2131.48 2015.51 2132.48 2015.6 2133.49 2015.49 2134.35 2015.17 2135.07 2014.86 2135.79 2014.39 2136.43 2013.79 2136.97 2013.18 2137.52 2012.23 2138.16 2010.94 2138.87L2000.51 2144.65 1998.05 2140.21 2006.61 2135.46C2008.43 2134.46 2009.55 2133.72 2009.97 2133.23 2010.4 2132.75 2010.64 2132.21 2010.7 2131.62 2010.76 2131.03 2010.62 2130.44 2010.29 2129.84 2009.87 2129.07 2009.27 2128.49 2008.51 2128.11 2007.75 2127.74 2006.96 2127.63 2006.14 2127.79 2005.32 2127.94 2003.97 2128.54 2002.1 2129.58L1994.49 2133.79 1992.04 2129.35 2008.82 2120.06 2011.11 2124.18 2008.64 2125.55C2011.35 2125.96 2013.32 2127.28 2014.55 2129.5Z" fill="#FFFFFF" fill-rule="evenodd"/><text fill="#000000" fill-opacity="0" font-family="Arial,Arial_MSFontService,sans-serif" font-size="24.593" x="1992.04" y="2141.57">n</text><path d="M2020.92 2147.85C2020.27 2146.82 2019.34 2146.22 2018.12 2146.06 2016.9 2145.89 2015.47 2146.32 2013.83 2147.35 2012.1 2148.43 2011.05 2149.55 2010.66 2150.72 2010.28 2151.89 2010.4 2152.97 2011.01 2153.95 2011.67 2155 2012.63 2155.63 2013.91 2155.84 2015.19 2156.05 2016.63 2155.65 2018.24 2154.64 2019.93 2153.59 2020.96 2152.46 2021.34 2151.25 2021.73 2150.05 2021.58 2148.92 2020.92 2147.85ZM2023.52 2144.69C2024.78 2146.7 2024.94 2148.91 2023.99 2151.33L2026.27 2149.9 2028.79 2153.93 2014.2 2163.06C2012.28 2164.26 2010.74 2165 2009.59 2165.28 2008.45 2165.56 2007.42 2165.58 2006.52 2165.34 2005.63 2165.11 2004.72 2164.61 2003.82 2163.85 2002.92 2163.09 2002.01 2161.98 2001.09 2160.52 1999.37 2157.76 1998.62 2155.51 1998.84 2153.76 1999.06 2152.02 1999.9 2150.69 2001.35 2149.79 2001.49 2149.7 2001.67 2149.59 2001.88 2149.48L2004.36 2154.76C2003.84 2155.2 2003.56 2155.64 2003.53 2156.07 2003.48 2156.67 2003.73 2157.41 2004.28 2158.29 2004.99 2159.41 2005.68 2160.15 2006.37 2160.5 2006.83 2160.73 2007.37 2160.79 2007.99 2160.67 2008.43 2160.58 2009.13 2160.24 2010.09 2159.64L2012.47 2158.15C2009.91 2157.96 2008.01 2156.89 2006.79 2154.93 2005.42 2152.75 2005.26 2150.44 2006.31 2148 2007.14 2146.09 2008.65 2144.45 2010.82 2143.09 2013.55 2141.39 2016.04 2140.74 2018.3 2141.15 2020.56 2141.56 2022.3 2142.74 2023.52 2144.69Z" fill="#FFFFFF" fill-rule="evenodd"/><text fill="#000000" fill-opacity="0" font-family="Arial,Arial_MSFontService,sans-serif" font-size="24.4749" x="1998.8" y="2162.44">g</text><g clip-path="url(#clip4)"><g clip-path="url(#clip5)"><g clip-path="url(#clip6)"><path d="M2108.41 2035.43 2116.59 2035.43 2116.59 2046.34 2108.41 2046.34Z" fill="#475055"/><path d="M2108.41 2051.8 2116.59 2051.8 2116.59 2059.99 2108.41 2059.99Z" fill="#475055"/><path d="M2122.05 2051.8 2161.62 2051.8 2161.62 2059.99 2122.05 2059.99Z" fill="#475055"/><path d="M2063.38 2051.8 2102.95 2051.8 2102.95 2059.99 2063.38 2059.99Z" fill="#475055"/><path d="M2151.28 2013.59 2073.72 2013.59C2071.02 2013.59 2068.83 2015.78 2068.83 2018.48L2068.83 2030.54C2068.83 2033.24 2071.02 2035.43 2073.72 2035.43L2151.28 2035.43C2153.98 2035.43 2156.17 2033.24 2156.17 2030.54L2156.17 2018.48C2156.17 2015.78 2153.98 2013.59 2151.28 2013.59ZM2082.48 2027.24C2080.97 2027.24 2079.75 2026.02 2079.75 2024.51 2079.75 2023 2080.97 2021.78 2082.48 2021.78 2083.99 2021.78 2085.21 2023 2085.21 2024.51 2085.21 2026.02 2083.99 2027.24 2082.48 2027.24ZM2096.12 2027.24C2094.62 2027.24 2093.4 2026.02 2093.4 2024.51 2093.4 2023 2094.62 2021.78 2096.12 2021.78 2097.63 2021.78 2098.85 2023 2098.85 2024.51 2098.85 2026.02 2097.63 2027.24 2096.12 2027.24ZM2109.77 2027.24C2108.26 2027.24 2107.04 2026.02 2107.04 2024.51 2107.04 2023 2108.26 2021.78 2109.77 2021.78 2111.28 2021.78 2112.5 2023 2112.5 2024.51 2112.5 2026.02 2111.28 2027.24 2109.77 2027.24Z" fill="#475055"/><path d="M2151.28 1986.3 2073.72 1986.3C2071.02 1986.3 2068.83 1988.49 2068.83 1991.19L2068.83 2003.25C2068.83 2005.95 2071.02 2008.14 2073.72 2008.14L2151.28 2008.14C2153.98 2008.14 2156.17 2005.95 2156.17 2003.25L2156.17 1991.19C2156.17 1988.49 2153.98 1986.3 2151.28 1986.3ZM2082.48 1999.95C2080.97 1999.95 2079.75 1998.73 2079.75 1997.22 2079.75 1995.71 2080.97 1994.49 2082.48 1994.49 2083.99 1994.49 2085.21 1995.71 2085.21 1997.22 2085.21 1998.73 2083.99 1999.95 2082.48 1999.95ZM2096.12 1999.95C2094.62 1999.95 2093.4 1998.73 2093.4 1997.22 2093.4 1995.71 2094.62 1994.49 2096.12 1994.49 2097.63 1994.49 2098.85 1995.71 2098.85 1997.22 2098.85 1998.73 2097.63 1999.95 2096.12 1999.95ZM2109.77 1999.95C2108.26 1999.95 2107.04 1998.73 2107.04 1997.22 2107.04 1995.71 2108.26 1994.49 2109.77 1994.49 2111.28 1994.49 2112.5 1995.71 2112.5 1997.22 2112.5 1998.73 2111.28 1999.95 2109.77 1999.95Z" fill="#475055"/><path d="M2151.28 1959.01 2073.72 1959.01C2071.02 1959.01 2068.83 1961.2 2068.83 1963.9L2068.83 1975.96C2068.83 1978.66 2071.02 1980.84 2073.72 1980.84L2151.28 1980.84C2153.98 1980.84 2156.17 1978.66 2156.17 1975.96L2156.17 1963.9C2156.17 1961.2 2153.98 1959.01 2151.28 1959.01ZM2082.48 1972.66C2080.97 1972.66 2079.75 1971.43 2079.75 1969.93 2079.75 1968.42 2080.97 1967.2 2082.48 1967.2 2083.99 1967.2 2085.21 1968.42 2085.21 1969.93 2085.21 1971.43 2083.99 1972.66 2082.48 1972.66ZM2096.12 1972.66C2094.62 1972.66 2093.4 1971.43 2093.4 1969.93 2093.4 1968.42 2094.62 1967.2 2096.12 1967.2 2097.63 1967.2 2098.85 1968.42 2098.85 1969.93 2098.85 1971.43 2097.63 1972.66 2096.12 1972.66ZM2109.77 1972.66C2108.26 1972.66 2107.04 1971.43 2107.04 1969.93 2107.04 1968.42 2108.26 1967.2 2109.77 1967.2 2111.28 1967.2 2112.5 1968.42 2112.5 1969.93 2112.5 1971.43 2111.28 1972.66 2109.77 1972.66Z" fill="#475055"/></g></g></g><path d="M2605.2 2273.92C2464.66 2376.03 2274.34 2376.03 2133.8 2273.92L2369.5 1949.5Z" stroke="#FFFFFF" stroke-width="4.58333" stroke-miterlimit="8" fill="#E6E6E6" fill-rule="evenodd"/><path d="M2615.98 2289.37C2479.89 2388.03 2298.03 2396.21 2153.61 2310.17L2135.72 2334.8 2135.49 2270.84 2198.56 2248.32 2180.67 2272.94C2308.88 2347.39 2469.01 2339.3 2589.04 2252.31Z" fill="#2327D0" fill-rule="evenodd"/><path d="M2314.92 2330.47 2310.03 2339.72 2317.19 2340.71ZM2313.03 2323.97 2318.64 2324.75 2325.5 2352.44 2319.74 2351.64 2318.27 2345.36 2307.79 2343.91 2304.79 2349.57 2299.18 2348.79Z" fill="#FFFFFF" fill-rule="evenodd"/><text fill="#000000" fill-opacity="0" font-family="Arial,Arial_MSFontService,sans-serif" font-size="28.4692" x="2299.18" y="2348.88">A</text><path d="M2340.9 2333.93C2342.01 2334.02 2343.02 2334.3 2343.91 2334.78 2344.8 2335.25 2345.46 2335.82 2345.89 2336.48 2346.31 2337.15 2346.58 2337.88 2346.71 2338.69 2346.83 2339.49 2346.83 2340.64 2346.71 2342.11L2345.77 2354 2340.71 2353.6 2341.48 2343.83C2341.65 2341.77 2341.65 2340.43 2341.48 2339.8 2341.31 2339.18 2341 2338.68 2340.54 2338.3 2340.08 2337.93 2339.51 2337.71 2338.82 2337.66 2337.95 2337.59 2337.14 2337.77 2336.41 2338.19 2335.67 2338.62 2335.14 2339.21 2334.82 2339.99 2334.5 2340.76 2334.25 2342.21 2334.08 2344.35L2333.39 2353.01 2328.33 2352.61 2329.86 2333.48 2334.56 2333.86 2334.33 2336.67C2336.18 2334.64 2338.36 2333.73 2340.9 2333.93Z" fill="#FFFFFF" fill-rule="evenodd"/><text fill="#000000" fill-opacity="0" font-family="Arial,Arial_MSFontService,sans-serif" font-size="20.5161" x="2328.33" y="2351.43">n</text><path d="M2361.88 2345.34C2361.22 2345.54 2360.18 2345.77 2358.77 2346.03 2357.35 2346.29 2356.42 2346.56 2355.98 2346.84 2355.3 2347.29 2354.96 2347.87 2354.94 2348.59 2354.92 2349.31 2355.16 2349.93 2355.68 2350.46 2356.19 2350.99 2356.86 2351.27 2357.68 2351.29 2358.59 2351.32 2359.48 2351.04 2360.32 2350.46 2360.95 2350.02 2361.37 2349.47 2361.58 2348.82 2361.73 2348.39 2361.81 2347.57 2361.85 2346.35ZM2359.08 2334.85C2361.35 2334.91 2363.02 2335.23 2364.12 2335.79 2365.21 2336.36 2365.97 2337.06 2366.4 2337.9 2366.83 2338.74 2367.01 2340.26 2366.95 2342.46L2366.73 2348.38C2366.68 2350.07 2366.72 2351.32 2366.86 2352.12 2367 2352.93 2367.28 2353.79 2367.7 2354.72L2362.68 2354.58C2362.56 2354.24 2362.41 2353.73 2362.24 2353.07 2362.16 2352.76 2362.11 2352.56 2362.07 2352.46 2361.18 2353.28 2360.24 2353.89 2359.24 2354.28 2358.24 2354.68 2357.18 2354.86 2356.06 2354.83 2354.09 2354.77 2352.55 2354.19 2351.44 2353.09 2350.33 2351.98 2349.8 2350.61 2349.85 2348.98 2349.88 2347.89 2350.16 2346.93 2350.7 2346.1 2351.25 2345.27 2351.99 2344.64 2352.94 2344.21 2353.88 2343.78 2355.24 2343.43 2357.01 2343.14 2359.39 2342.76 2361.04 2342.39 2361.97 2342.03L2361.98 2341.53C2362.01 2340.55 2361.79 2339.85 2361.32 2339.42 2360.85 2338.99 2359.95 2338.76 2358.61 2338.72 2357.71 2338.7 2357 2338.85 2356.48 2339.2 2355.97 2339.54 2355.54 2340.15 2355.2 2341.03L2350.62 2340.07C2351.19 2338.23 2352.12 2336.88 2353.41 2336.03 2354.7 2335.17 2356.59 2334.78 2359.08 2334.85Z" fill="#FFFFFF" fill-rule="evenodd"/><text fill="#000000" fill-opacity="0" font-family="Arial,Arial_MSFontService,sans-serif" font-size="19.9883" x="2349.84" y="2352.33">a</text><path d="M2371.69 2328.16 2376.77 2328.11 2377.01 2354.59 2371.93 2354.64Z" fill="#FFFFFF" fill-rule="evenodd"/><text fill="#000000" fill-opacity="0" font-family="Arial,Arial_MSFontService,sans-serif" font-size="26.5295" x="2371.69" y="2351.32">l</text><path d="M2379.24 2335.48 2384.63 2335.23 2389.84 2348.63 2393.69 2334.82 2398.94 2334.57 2393.02 2353.33 2391.97 2356.72C2391.58 2357.86 2391.19 2358.74 2390.81 2359.35 2390.44 2359.95 2390 2360.45 2389.49 2360.84 2388.98 2361.24 2388.35 2361.55 2387.6 2361.79 2386.85 2362.03 2385.99 2362.17 2385.02 2362.22 2384.05 2362.26 2383.09 2362.2 2382.14 2362.04L2381.51 2358.09C2382.31 2358.21 2383.03 2358.26 2383.67 2358.23 2384.84 2358.17 2385.7 2357.79 2386.23 2357.07 2386.77 2356.35 2387.16 2355.45 2387.41 2354.37Z" fill="#FFFFFF" fill-rule="evenodd"/><text fill="#000000" fill-opacity="0" font-family="Arial,Arial_MSFontService,sans-serif" font-size="27.657" x="2379.24" y="2358.77">y</text><path d="M2408.57 2333.24C2411.19 2332.99 2413.17 2333.23 2414.52 2333.96 2415.87 2334.68 2416.87 2335.86 2417.51 2337.48L2412.83 2338.82C2412.55 2338.09 2412.11 2337.56 2411.5 2337.22 2410.9 2336.88 2410.06 2336.76 2409.01 2336.86 2407.68 2336.99 2406.74 2337.26 2406.2 2337.69 2405.85 2337.99 2405.69 2338.35 2405.73 2338.77 2405.76 2339.13 2405.96 2339.42 2406.32 2339.64 2406.81 2339.93 2408.42 2340.26 2411.17 2340.61 2413.92 2340.96 2415.88 2341.53 2417.03 2342.32 2418.17 2343.12 2418.82 2344.32 2418.97 2345.93 2419.14 2347.68 2418.55 2349.25 2417.21 2350.65 2415.87 2352.05 2413.76 2352.88 2410.9 2353.16 2408.29 2353.41 2406.18 2353.08 2404.57 2352.17 2402.95 2351.26 2401.82 2349.92 2401.18 2348.15L2406.18 2346.9C2406.49 2347.86 2407 2348.56 2407.7 2349.01 2408.41 2349.46 2409.36 2349.62 2410.55 2349.51 2411.85 2349.38 2412.81 2349.05 2413.43 2348.51 2413.84 2348.13 2414.02 2347.66 2413.96 2347.09 2413.93 2346.71 2413.78 2346.4 2413.51 2346.18 2413.24 2345.96 2412.65 2345.79 2411.76 2345.67 2407.6 2345.16 2404.93 2344.59 2403.77 2343.95 2402.16 2343.06 2401.27 2341.7 2401.09 2339.87 2400.94 2338.21 2401.46 2336.76 2402.66 2335.51 2403.85 2334.26 2405.83 2333.5 2408.57 2333.24Z" fill="#FFFFFF" fill-rule="evenodd"/><text fill="#000000" fill-opacity="0" font-family="Arial,Arial_MSFontService,sans-serif" font-size="20.0989" x="2401.07" y="2350.73">s</text><path d="M2429.64 2334.62C2428.54 2334.78 2427.69 2335.31 2427.09 2336.22 2426.5 2337.12 2426.3 2338.26 2426.51 2339.62L2434.02 2338.53C2433.78 2337.08 2433.24 2336.03 2432.41 2335.38 2431.59 2334.72 2430.66 2334.47 2429.64 2334.62ZM2428.77 2330.82C2431.6 2330.41 2433.96 2331.02 2435.87 2332.65 2437.77 2334.27 2438.97 2337.02 2439.46 2340.88L2426.87 2342.71C2427.13 2344.2 2427.7 2345.3 2428.6 2346.01 2429.49 2346.73 2430.52 2347 2431.67 2346.83 2432.46 2346.72 2433.09 2346.41 2433.56 2345.9 2434.04 2345.39 2434.34 2344.64 2434.48 2343.65L2439.61 2343.76C2439.23 2345.69 2438.42 2347.23 2437.17 2348.4 2435.92 2349.56 2434.25 2350.29 2432.17 2350.59 2428.87 2351.08 2426.27 2350.35 2424.37 2348.43 2422.86 2346.88 2421.92 2344.79 2421.53 2342.16 2421.08 2339.01 2421.54 2336.43 2422.92 2334.41 2424.31 2332.38 2426.26 2331.19 2428.77 2330.82Z" fill="#FFFFFF" fill-rule="evenodd"/><text fill="#000000" fill-opacity="0" font-family="Arial,Arial_MSFontService,sans-serif" font-size="20.04" x="2421.36" y="2348.23">e</text><g clip-path="url(#clip7)"><g clip-path="url(#clip8)"><g clip-path="url(#clip9)"><path d="M2331.08 2123.96 2322.96 2123.96 2322.96 2216.04 2415.04 2216.04 2415.04 2207.92 2331.08 2207.92Z" fill="#475055"/><path d="M2339.21 2152.4 2354.1 2152.4 2354.1 2199.79 2339.21 2199.79Z" fill="#475055"/><path d="M2359.52 2123.96 2374.42 2123.96 2374.42 2199.79 2359.52 2199.79Z" fill="#475055"/><path d="M2379.83 2152.4 2394.73 2152.4 2394.73 2199.79 2379.83 2199.79Z" fill="#475055"/><path d="M2400.15 2175.42 2415.04 2175.42 2415.04 2199.79 2400.15 2199.79Z" fill="#475055"/></g></g></g><path d="M2768.87 1812.58C2822.56 1977.8 2763.75 2158.8 2623.2 2260.92L2387.5 1936.5Z" stroke="#FFFFFF" stroke-width="4.58333" stroke-miterlimit="8" fill="#E6E6E6" fill-rule="evenodd"/><path d="M2786.95 1806.21C2838.8 1966.16 2790.47 2141.66 2664.07 2252.41L2681.96 2277.04 2621.05 2257.51 2619.13 2190.55 2637.01 2215.17C2747.39 2116.25 2789.1 1961.45 2743.38 1820.36Z" fill="#2327D0" fill-rule="evenodd"/><path d="M2717.64 2125.7 2726.88 2108.37 2730.84 2110.48 2724.11 2123.09 2729.29 2125.85 2735.55 2114.12 2739.49 2116.22 2733.23 2127.95 2739.59 2131.34 2746.55 2118.29 2750.49 2120.39 2741.02 2138.16Z" fill="#FFFFFF" fill-rule="evenodd"/><text fill="#000000" fill-opacity="0" font-family="Arial,Arial_MSFontService,sans-serif" font-size="29.7893" x="2717.64" y="2134.44">E</text><path d="M2738.61 2099.61C2739.1 2098.56 2739.87 2097.69 2740.9 2097L2744.23 2100.31C2743.36 2100.85 2742.77 2101.45 2742.46 2102.11 2742.15 2102.76 2742.07 2103.38 2742.21 2104 2742.35 2104.61 2742.83 2105.27 2743.63 2105.96 2744.43 2106.65 2746.31 2107.7 2749.26 2109.1L2754.61 2111.64 2752.43 2116.23 2735.1 2108 2737.12 2103.74 2739.59 2104.91C2738.77 2103.63 2738.31 2102.61 2738.22 2101.85 2738.13 2101.09 2738.25 2100.35 2738.61 2099.61Z" fill="#FFFFFF" fill-rule="evenodd"/><text fill="#000000" fill-opacity="0" font-family="Arial,Arial_MSFontService,sans-serif" font-size="19.2312" x="2735.1" y="2113.82">r</text><path d="M2734.37 2092.5 2736.34 2087.83 2745.31 2091.61C2744.19 2089.36 2744.06 2087.18 2744.95 2085.09 2745.4 2084.01 2746.01 2083.12 2746.78 2082.43 2747.54 2081.73 2748.33 2081.29 2749.13 2081.12 2749.94 2080.94 2750.75 2080.93 2751.58 2081.09 2752.4 2081.24 2753.6 2081.66 2755.19 2082.33L2765.56 2086.7 2763.59 2091.38 2754.25 2087.44C2752.4 2086.66 2751.18 2086.25 2750.61 2086.22 2750.03 2086.18 2749.51 2086.33 2749.02 2086.66 2748.54 2086.98 2748.15 2087.48 2747.87 2088.16 2747.54 2088.94 2747.44 2089.71 2747.56 2090.48 2747.68 2091.25 2748.06 2091.94 2748.7 2092.54 2749.34 2093.14 2750.4 2093.76 2751.89 2094.39L2760.74 2098.12 2758.77 2102.8Z" fill="#FFFFFF" fill-rule="evenodd"/><text fill="#000000" fill-opacity="0" font-family="Arial,Arial_MSFontService,sans-serif" font-size="21.8232" x="2734.37" y="2100.07">h</text><path d="M2755.26 2069.25C2754.88 2070.29 2754.95 2071.29 2755.46 2072.24 2755.97 2073.2 2756.88 2073.9 2758.19 2074.37L2760.78 2067.23C2759.38 2066.76 2758.2 2066.74 2757.24 2067.16 2756.27 2067.58 2755.61 2068.27 2755.26 2069.25ZM2751.5 2068.21C2752.48 2065.53 2754.13 2063.73 2756.46 2062.82 2758.8 2061.92 2761.78 2062.16 2765.42 2063.55L2761.08 2075.51C2762.51 2075.99 2763.75 2076 2764.8 2075.55 2765.86 2075.1 2766.58 2074.33 2766.98 2073.23 2767.25 2072.48 2767.28 2071.78 2767.05 2071.12 2766.83 2070.46 2766.31 2069.84 2765.5 2069.25L2768.02 2064.79C2769.55 2066.03 2770.52 2067.48 2770.96 2069.13 2771.39 2070.77 2771.25 2072.59 2770.53 2074.57 2769.39 2077.71 2767.53 2079.66 2764.93 2080.42 2762.86 2081.02 2760.57 2080.86 2758.07 2079.95 2755.08 2078.87 2753.02 2077.24 2751.89 2075.06 2750.77 2072.89 2750.64 2070.6 2751.5 2068.21Z" fill="#FFFFFF" fill-rule="evenodd"/><text fill="#000000" fill-opacity="0" font-family="Arial,Arial_MSFontService,sans-serif" font-size="18.4873" x="2750.94" y="2078.46">e</text><path d="M2762.1 2048.72C2761.74 2049.88 2761.9 2050.99 2762.57 2052.03 2763.24 2053.08 2764.49 2053.89 2766.33 2054.45 2768.24 2055.03 2769.73 2055.16 2770.82 2054.84 2772.37 2054.39 2773.36 2053.47 2773.78 2052.08 2774.11 2051.01 2773.93 2049.95 2773.25 2048.92 2772.56 2047.89 2771.23 2047.07 2769.26 2046.47 2767.17 2045.83 2765.54 2045.75 2764.38 2046.22 2763.22 2046.7 2762.46 2047.53 2762.1 2048.72ZM2749.1 2054.46 2750.59 2049.61 2759.71 2052.39C2758.46 2050.37 2758.15 2048.34 2758.78 2046.29 2759.46 2044.05 2760.83 2042.45 2762.9 2041.48 2764.96 2040.51 2767.51 2040.49 2770.54 2041.42 2773.67 2042.37 2775.86 2043.86 2777.1 2045.86 2778.34 2047.87 2778.63 2049.94 2777.98 2052.07 2777.66 2053.12 2777.08 2054.08 2776.25 2054.94 2775.41 2055.8 2774.37 2056.44 2773.12 2056.86L2775.81 2057.68 2774.44 2062.19Z" fill="#FFFFFF" fill-rule="evenodd"/><text fill="#000000" fill-opacity="0" font-family="Arial,Arial_MSFontService,sans-serif" font-size="21.4552" x="2749.1" y="2059.51">b</text><path d="M2762.34 2035.68 2763.56 2030.76 2772.12 2032.88C2774.74 2033.53 2776.37 2033.83 2777 2033.8 2777.64 2033.76 2778.19 2033.55 2778.65 2033.15 2779.11 2032.76 2779.44 2032.19 2779.62 2031.46 2779.83 2030.62 2779.78 2029.8 2779.49 2029.02 2779.19 2028.24 2778.73 2027.65 2778.11 2027.23 2777.48 2026.82 2775.84 2026.28 2773.17 2025.62L2765.32 2023.67 2766.54 2018.74 2785.16 2023.36 2784.03 2027.93 2781.24 2027.24C2782.07 2028.17 2782.63 2029.25 2782.93 2030.5 2783.23 2031.75 2783.23 2032.98 2782.92 2034.21 2782.61 2035.46 2782.06 2036.52 2781.26 2037.37 2780.47 2038.23 2779.52 2038.76 2778.41 2038.96 2777.31 2039.16 2775.88 2039.04 2774.13 2038.6Z" fill="#FFFFFF" fill-rule="evenodd"/><text fill="#000000" fill-opacity="0" font-family="Arial,Arial_MSFontService,sans-serif" font-size="20.3064" x="2762.34" y="2036.51">u</text><path d="M2769.11 2003.58C2769.32 2002.48 2769.71 2001.52 2770.28 2000.68 2770.86 1999.85 2771.49 1999.25 2772.2 1998.9 2772.9 1998.56 2773.66 1998.36 2774.48 1998.33 2775.29 1998.3 2776.43 1998.42 2777.88 1998.7L2789.6 2000.94 2788.64 2005.93 2779.02 2004.08C2776.99 2003.69 2775.65 2003.55 2775.01 2003.65 2774.38 2003.75 2773.85 2004 2773.42 2004.42 2773 2004.83 2772.72 2005.38 2772.59 2006.05 2772.43 2006.92 2772.52 2007.74 2772.86 2008.51 2773.2 2009.29 2773.74 2009.88 2774.47 2010.28 2775.2 2010.69 2776.62 2011.09 2778.73 2011.5L2787.26 2013.13 2786.31 2018.12 2767.46 2014.51 2768.35 2009.88 2771.12 2010.41C2769.3 2008.35 2768.63 2006.08 2769.11 2003.58Z" fill="#FFFFFF" fill-rule="evenodd"/><text fill="#000000" fill-opacity="0" font-family="Arial,Arial_MSFontService,sans-serif" font-size="19.792" x="2767.46" y="2015.64">n</text><path d="M2775.97 1985.41C2775.8 1986.61 2776.14 1987.67 2776.97 1988.58 2777.8 1989.49 2779.17 1990.08 2781.09 1990.34 2783.11 1990.61 2784.64 1990.42 2785.68 1989.77 2786.73 1989.12 2787.33 1988.22 2787.48 1987.07 2787.65 1985.84 2787.31 1984.74 2786.47 1983.76 2785.62 1982.78 2784.26 1982.16 2782.37 1981.91 2780.4 1981.64 2778.89 1981.84 2777.82 1982.52 2776.75 1983.21 2776.14 1984.17 2775.97 1985.41ZM2771.94 1986.17C2772.26 1983.82 2773.56 1982.02 2775.83 1980.78L2773.17 1980.41 2773.81 1975.7 2790.87 1978.03C2793.11 1978.34 2794.76 1978.75 2795.82 1979.28 2796.88 1979.8 2797.68 1980.44 2798.22 1981.19 2798.76 1981.94 2799.14 1982.9 2799.34 1984.07 2799.55 1985.23 2799.54 1986.67 2799.3 1988.38 2798.86 1991.6 2798 1993.81 2796.71 1995.01 2795.42 1996.2 2793.93 1996.69 2792.24 1996.45 2792.07 1996.43 2791.87 1996.4 2791.63 1996.35L2793.11 1990.7C2793.79 1990.7 2794.28 1990.54 2794.58 1990.23 2795.01 1989.8 2795.29 1989.07 2795.43 1988.05 2795.61 1986.73 2795.54 1985.72 2795.24 1985.01 2795.04 1984.54 2794.66 1984.14 2794.11 1983.84 2793.71 1983.62 2792.95 1983.44 2791.83 1983.29L2789.05 1982.91C2790.9 1984.69 2791.67 1986.73 2791.36 1989.02 2791.01 1991.58 2789.65 1993.45 2787.29 1994.65 2785.42 1995.58 2783.22 1995.88 2780.67 1995.53 2777.49 1995.1 2775.16 1994 2773.69 1992.23 2772.21 1990.47 2771.63 1988.45 2771.94 1986.17Z" fill="#FFFFFF" fill-rule="evenodd"/><text fill="#000000" fill-opacity="0" font-family="Arial,Arial_MSFontService,sans-serif" font-size="20.8068" x="2771.86" y="1993.91">g</text><g clip-path="url(#clip10)"><g clip-path="url(#clip11)"><g clip-path="url(#clip12)"><path d="M53.552 7.07291C53.552 8.74702 52.1949 10.1042 50.5208 10.1042 48.8467 10.1042 47.4896 8.74702 47.4896 7.07291 47.4896 5.3988 48.8467 4.04166 50.5208 4.04166 52.1949 4.04166 53.552 5.3988 53.552 7.07291Z" fill="#475055" transform="matrix(1 0 0 1.01031 2561 1934)"/><path d="M58.6041 16.1667C58.6041 17.8408 57.247 19.1979 55.5729 19.1979 53.8988 19.1979 52.5416 17.8408 52.5416 16.1667 52.5416 14.4925 53.8988 13.1354 55.5729 13.1354 57.247 13.1354 58.6041 14.4925 58.6041 16.1667Z" fill="#475055" transform="matrix(1 0 0 1.01031 2561 1934)"/><path d="M47.4896 14.1458C47.4896 15.8199 46.1324 17.1771 44.4583 17.1771 42.7842 17.1771 41.4271 15.8199 41.4271 14.1458 41.4271 12.4717 42.7842 11.1146 44.4583 11.1146 46.1324 11.1146 47.4896 12.4717 47.4896 14.1458Z" fill="#475055" transform="matrix(1 0 0 1.01031 2561 1934)"/><path d="M50.5208 25.2604C50.5208 27.4925 48.7113 29.3021 46.4791 29.3021 44.247 29.3021 42.4375 27.4925 42.4375 25.2604 42.4375 23.0283 44.247 21.2187 46.4791 21.2187 48.7113 21.2187 50.5208 23.0283 50.5208 25.2604Z" fill="#475055" transform="matrix(1 0 0 1.01031 2561 1934)"/><path d="M68.2031 84.4708 56.5833 58.2 56.5833 40.4166C56.5833 36.7791 59.5135 35.2635 59.6145 35.1625 60.625 34.6573 61.0291 33.4448 60.5239 32.4344 60.1198 31.7271 59.4125 31.3229 58.6041 31.3229L58.6041 31.3229 38.3958 31.3229 38.3958 31.3229C37.5875 31.3229 36.8802 31.7271 36.476 32.4344 35.9708 33.4448 36.375 34.6573 37.3854 35.1625 37.3854 35.1625 40.4166 36.7791 40.4166 40.4166L40.4166 58.2 28.7969 84.4708C27.9885 86.3906 28.1906 88.5124 29.3021 90.2302 30.4135 91.9479 32.3333 92.9583 34.3541 92.9583L62.6458 92.9583C64.6666 92.9583 66.5864 91.9479 67.6979 90.2302 68.8093 88.5124 69.0114 86.3906 68.2031 84.4708ZM52.5416 40.4166 52.5416 44.4583 44.4583 44.4583 44.4583 40.4166C44.4583 38.2948 43.8521 36.6781 43.1448 35.3646L53.9562 35.3646C53.1479 36.6781 52.5416 38.2948 52.5416 40.4166Z" fill="#475055" transform="matrix(1 0 0 1.01031 2561 1934)"/></g></g></g><g clip-path="url(#clip13)"><g clip-path="url(#clip14)"><g clip-path="url(#clip15)"><path d="M28.2857 131.322C29.6925 134.034 32.3848 135.84 35.427 136.114L68.9895 136.114 68.9895 151.031 35.427 151.031C26.9249 150.876 19.1472 146.21 15.0099 138.781 11.0464 131.611 11.3912 122.833 15.9049 115.996L35.2965 82.4331 22.5055 74.9748 53.7186 66.6215 62.0719 97.8345 48.4791 90.0219 29.0129 123.771C27.3515 125.944 27.0696 128.872 28.2857 131.322Z" fill="#475055" transform="matrix(1.00559 0 0 1 2519 1908)"/><path d="M54.6695 54.3339 70.276 25.1905C74.3699 17.8251 82.1547 13.2786 90.5813 13.3318 98.7741 13.4998 106.198 18.1957 109.861 25.5261L129.253 59.0886 142.044 51.6302 133.69 82.9365 102.552 74.5832 116.126 66.7333 96.5666 32.9658C95.5044 30.4439 93.1071 28.7397 90.3762 28.5654 87.5005 28.7078 84.8975 30.3119 83.4773 32.8166L67.8521 61.96Z" fill="#475055" transform="matrix(1.00559 0 0 1 2519 1908)"/><path d="M163.319 140.272C159.242 147.113 151.795 151.225 143.834 151.031L104.417 151.031 104.417 165.948 81.5008 142.64 104.417 119.967 104.417 136.114 143.33 136.114C146.127 136.301 148.792 134.903 150.229 132.497 151.621 129.951 151.536 126.852 150.006 124.386L132.945 95.2987 146.127 87.6353 163.207 116.704C164.17 118.398 164.927 120.201 165.463 122.074L165.78 123.305C167.19 129.066 166.307 135.149 163.319 140.272Z" fill="#475055" transform="matrix(1.00559 0 0 1 2519 1908)"/></g></g></g><path d="M2380.5 1514.5C2554.22 1514.5 2708.19 1626.36 2761.87 1791.58L2380.5 1915.5Z" stroke="#FFFFFF" stroke-width="4.58333" stroke-miterlimit="8" fill="#E6E6E6" fill-rule="evenodd"/><path d="M2380.54 1494.54C2548.62 1494.56 2700.5 1594.78 2766.61 1749.32L2795.56 1739.91 2758.12 1791.79 2693.9 1772.94 2722.84 1763.54C2663.03 1627.9 2528.77 1540.37 2380.54 1540.35Z" fill="#2327D0" fill-rule="evenodd"/><path d="M2568.37 1551.94 2564.87 1558.59 2567.46 1559.95C2569.33 1560.93 2570.64 1561.47 2571.4 1561.55 2572.16 1561.64 2572.85 1561.51 2573.48 1561.18 2574.12 1560.85 2574.61 1560.33 2574.98 1559.64 2575.43 1558.79 2575.55 1557.95 2575.34 1557.13 2575.13 1556.32 2574.68 1555.64 2573.98 1555.09 2573.47 1554.69 2572.37 1554.04 2570.66 1553.14ZM2565.73 1545.48 2573.32 1549.48C2576.2 1550.99 2578.01 1552.1 2578.76 1552.79 2579.92 1553.85 2580.64 1555.21 2580.93 1556.86 2581.22 1558.52 2580.87 1560.28 2579.89 1562.14 2579.13 1563.58 2578.23 1564.65 2577.2 1565.36 2576.16 1566.06 2575.09 1566.48 2573.99 1566.62 2572.89 1566.76 2571.88 1566.7 2570.95 1566.44 2569.7 1566.07 2568.01 1565.32 2565.87 1564.19L2562.78 1562.57 2558.13 1571.41 2553.4 1568.92Z" fill="#FFFFFF" fill-rule="evenodd"/><text fill="#000000" fill-opacity="0" font-family="Arial,Arial_MSFontService,sans-serif" font-size="25.9293" x="2553.4" y="1568.17">P</text><path d="M2588.07 1557.55 2592.46 1560.1 2579.16 1583 2574.77 1580.46Z" fill="#FFFFFF" fill-rule="evenodd"/><text fill="#000000" fill-opacity="0" font-family="Arial,Arial_MSFontService,sans-serif" font-size="25.4526" x="2574.77" y="1579.82">l</text><path d="M2597.33 1583.36C2596.66 1583.19 2595.65 1582.86 2594.3 1582.36 2592.95 1581.87 2592.01 1581.62 2591.49 1581.64 2590.68 1581.68 2590.08 1582.01 2589.69 1582.62 2589.31 1583.22 2589.21 1583.88 2589.38 1584.6 2589.55 1585.32 2589.99 1585.9 2590.68 1586.34 2591.45 1586.83 2592.35 1587.04 2593.38 1586.97 2594.14 1586.91 2594.78 1586.66 2595.3 1586.2 2595.64 1585.9 2596.14 1585.24 2596.78 1584.21ZM2600.27 1572.91C2602.18 1574.12 2603.47 1575.24 2604.12 1576.29 2604.77 1577.33 2605.06 1578.33 2605 1579.26 2604.95 1580.2 2604.33 1581.6 2603.15 1583.47L2599.94 1588.45C2599.04 1589.88 2598.45 1590.97 2598.16 1591.73 2597.87 1592.5 2597.67 1593.39 2597.55 1594.4L2593.31 1591.72C2593.38 1591.36 2593.5 1590.85 2593.7 1590.19 2593.78 1589.89 2593.84 1589.69 2593.86 1589.59 2592.68 1589.84 2591.56 1589.88 2590.5 1589.71 2589.44 1589.54 2588.43 1589.15 2587.48 1588.55 2585.81 1587.5 2584.78 1586.21 2584.39 1584.7 2584 1583.19 2584.25 1581.74 2585.12 1580.35 2585.7 1579.44 2586.43 1578.76 2587.33 1578.31 2588.22 1577.87 2589.18 1577.71 2590.21 1577.83 2591.24 1577.94 2592.59 1578.33 2594.25 1578.98 2596.5 1579.87 2598.11 1580.4 2599.09 1580.56L2599.36 1580.13C2599.88 1579.31 2600.05 1578.59 2599.86 1577.98 2599.68 1577.37 2599.02 1576.71 2597.89 1576 2597.13 1575.52 2596.43 1575.29 2595.82 1575.32 2595.2 1575.35 2594.52 1575.66 2593.78 1576.25L2590.33 1573.08C2591.76 1571.79 2593.24 1571.11 2594.79 1571.03 2596.33 1570.95 2598.16 1571.58 2600.27 1572.91Z" fill="#FFFFFF" fill-rule="evenodd"/><text fill="#000000" fill-opacity="0" font-family="Arial,Arial_MSFontService,sans-serif" font-size="23.3754" x="2584.21" y="1591.48">a</text><path d="M2620.82 1586.71C2621.74 1587.35 2622.46 1588.11 2622.98 1588.97 2623.51 1589.84 2623.78 1590.66 2623.81 1591.45 2623.84 1592.24 2623.7 1593.01 2623.39 1593.76 2623.09 1594.52 2622.51 1595.5 2621.65 1596.71L2614.78 1606.46 2610.63 1603.53 2616.27 1595.53C2617.47 1593.84 2618.15 1592.68 2618.33 1592.06 2618.5 1591.44 2618.49 1590.85 2618.28 1590.29 2618.08 1589.73 2617.7 1589.26 2617.13 1588.86 2616.42 1588.35 2615.63 1588.1 2614.78 1588.09 2613.94 1588.08 2613.18 1588.32 2612.51 1588.82 2611.84 1589.32 2610.88 1590.45 2609.65 1592.2L2604.64 1599.3 2600.49 1596.37 2611.55 1580.7 2615.4 1583.42 2613.78 1585.72C2616.4 1584.91 2618.74 1585.24 2620.82 1586.71Z" fill="#FFFFFF" fill-rule="evenodd"/><text fill="#000000" fill-opacity="0" font-family="Arial,Arial_MSFontService,sans-serif" font-size="25.7599" x="2600.49" y="1603.24">n</text><path d="M2630.18 1594.03 2634.16 1597.17 2628.7 1604.09C2627.03 1606.21 2626.08 1607.57 2625.85 1608.16 2625.62 1608.75 2625.59 1609.34 2625.75 1609.93 2625.92 1610.51 2626.3 1611.04 2626.9 1611.51 2627.58 1612.05 2628.34 1612.34 2629.17 1612.39 2630 1612.45 2630.74 1612.27 2631.37 1611.88 2632.01 1611.48 2633.18 1610.2 2634.88 1608.05L2639.89 1601.7 2643.88 1604.84 2631.99 1619.9 2628.29 1616.98 2630.07 1614.73C2628.89 1615.1 2627.66 1615.16 2626.41 1614.92 2625.15 1614.68 2624.02 1614.16 2623.03 1613.38 2622.02 1612.58 2621.28 1611.64 2620.83 1610.57 2620.38 1609.49 2620.29 1608.4 2620.56 1607.32 2620.84 1606.23 2621.54 1604.98 2622.65 1603.56Z" fill="#FFFFFF" fill-rule="evenodd"/><text fill="#000000" fill-opacity="0" font-family="Arial,Arial_MSFontService,sans-serif" font-size="25.8729" x="2620.41" y="1616.67">u</text><path d="M2656.74 1615.4C2657.59 1616.14 2658.22 1616.96 2658.65 1617.88 2659.08 1618.79 2659.27 1619.64 2659.21 1620.43 2659.15 1621.21 2658.93 1621.97 2658.55 1622.69 2658.16 1623.41 2657.48 1624.32 2656.5 1625.43L2648.63 1634.39 2644.81 1631.03 2651.28 1623.68C2652.65 1622.13 2653.46 1621.05 2653.69 1620.45 2653.93 1619.85 2653.98 1619.26 2653.84 1618.69 2653.69 1618.11 2653.37 1617.6 2652.85 1617.14 2652.19 1616.56 2651.44 1616.22 2650.6 1616.12 2649.75 1616.02 2648.97 1616.18 2648.25 1616.61 2647.53 1617.04 2646.46 1618.05 2645.05 1619.66L2639.31 1626.19 2635.5 1622.83 2648.17 1608.43 2651.71 1611.54 2649.85 1613.66C2652.54 1613.14 2654.84 1613.72 2656.74 1615.4Z" fill="#FFFFFF" fill-rule="evenodd"/><text fill="#000000" fill-opacity="0" font-family="Arial,Arial_MSFontService,sans-serif" font-size="25.9568" x="2635.5" y="1631.14">n</text><path d="M2668.83 1631.99C2667.96 1631.14 2666.91 1630.78 2665.68 1630.9 2664.46 1631.02 2663.17 1631.78 2661.81 1633.16 2660.39 1634.62 2659.63 1635.96 2659.53 1637.19 2659.43 1638.41 2659.79 1639.43 2660.62 1640.24 2661.51 1641.11 2662.59 1641.5 2663.88 1641.4 2665.17 1641.31 2666.48 1640.58 2667.81 1639.22 2669.2 1637.8 2669.94 1636.46 2670.03 1635.2 2670.12 1633.94 2669.72 1632.87 2668.83 1631.99ZM2670.61 1628.31C2672.31 1629.97 2672.98 1632.08 2672.62 1634.65L2674.51 1632.73 2677.9 1636.05 2665.85 1648.35C2664.27 1649.97 2662.95 1651.05 2661.9 1651.58 2660.85 1652.12 2659.86 1652.38 2658.93 1652.37 2658 1652.35 2657.01 1652.08 2655.95 1651.55 2654.89 1651.02 2653.75 1650.15 2652.52 1648.95 2650.2 1646.67 2648.94 1644.66 2648.75 1642.91 2648.55 1641.16 2649.06 1639.68 2650.25 1638.46 2650.37 1638.34 2650.52 1638.19 2650.7 1638.03L2654.35 1642.59C2653.94 1643.14 2653.78 1643.63 2653.85 1644.05 2653.94 1644.65 2654.36 1645.31 2655.1 1646.03 2656.04 1646.96 2656.89 1647.51 2657.64 1647.69 2658.15 1647.82 2658.69 1647.75 2659.26 1647.49 2659.67 1647.29 2660.27 1646.79 2661.06 1645.98L2663.02 1643.98C2660.49 1644.4 2658.39 1643.8 2656.74 1642.18 2654.9 1640.38 2654.21 1638.17 2654.66 1635.56 2655.02 1633.51 2656.1 1631.56 2657.89 1629.73 2660.14 1627.43 2662.41 1626.22 2664.71 1626.09 2667 1625.96 2668.97 1626.7 2670.61 1628.31Z" fill="#FFFFFF" fill-rule="evenodd"/><text fill="#000000" fill-opacity="0" font-family="Arial,Arial_MSFontService,sans-serif" font-size="26.2966" x="2648.71" y="1649.08">g</text><g clip-path="url(#clip16)"><g clip-path="url(#clip17)"><g clip-path="url(#clip18)"><path d="M27.0833 18.9583 18.9583 18.9583 18.9583 111.042 111.042 111.042 111.042 102.917 27.0833 102.917 27.0833 18.9583Z" fill="#475055" transform="matrix(1 0 0 1.00769 2464 1662)"/><path d="M96.1458 86.6666 108.333 86.6666 108.333 94.7916 96.1458 94.7916Z" fill="#475055" transform="matrix(1 0 0 1.00769 2464 1662)"/><path d="M85.3125 73.125 98.8541 73.125 98.8541 81.25 85.3125 81.25Z" fill="#475055" transform="matrix(1 0 0 1.00769 2464 1662)"/><path d="M65 59.5833 92.0833 59.5833 92.0833 67.7083 65 67.7083Z" fill="#475055" transform="matrix(1 0 0 1.00769 2464 1662)"/><path d="M50.1041 46.0416 96.1458 46.0416 96.1458 54.1666 50.1041 54.1666Z" fill="#475055" transform="matrix(1 0 0 1.00769 2464 1662)"/><path d="M35.2083 32.5 62.2916 32.5 62.2916 40.625 35.2083 40.625Z" fill="#475055" transform="matrix(1 0 0 1.00769 2464 1662)"/></g></g></g></g></svg>