<svg width="1168" height="1168" xmlns="http://www.w3.org/2000/svg" xmlns:xlink="http://www.w3.org/1999/xlink" overflow="hidden"><defs><clipPath id="clip0"><rect x="2977" y="1316" width="1168" height="1168"/></clipPath><clipPath id="clip1"><rect x="3349" y="1624" width="133" height="132"/></clipPath><clipPath id="clip2"><rect x="3357" y="1632" width="119" height="119"/></clipPath><clipPath id="clip3"><rect x="3357" y="1632" width="119" height="119"/></clipPath><clipPath id="clip4"><rect x="3237" y="1907" width="132" height="132"/></clipPath><clipPath id="clip5"><rect x="3237" y="1907" width="132" height="132"/></clipPath><clipPath id="clip6"><rect x="3237" y="1907" width="132" height="132"/></clipPath><clipPath id="clip7"><rect x="3493" y="2068" width="132" height="131"/></clipPath><clipPath id="clip8"><rect x="3493" y="2068" width="132" height="131"/></clipPath><clipPath id="clip9"><rect x="3493" y="2068" width="132" height="131"/></clipPath><clipPath id="clip10"><rect x="3751" y="1897" width="97" height="99"/></clipPath><clipPath id="clip11"><rect x="3751" y="1897" width="97" height="99"/></clipPath><clipPath id="clip12"><rect x="3751" y="1897" width="97" height="99"/></clipPath><clipPath id="clip13"><rect x="3709" y="1871" width="180" height="181"/></clipPath><clipPath id="clip14"><rect x="3709" y="1871" width="180" height="181"/></clipPath><clipPath id="clip15"><rect x="3709" y="1871" width="180" height="181"/></clipPath><clipPath id="clip16"><rect x="3654" y="1624" width="130" height="132"/></clipPath><clipPath id="clip17"><rect x="3654" y="1624" width="130" height="132"/></clipPath><clipPath id="clip18"><rect x="3654" y="1624" width="130" height="132"/></clipPath></defs><g clip-path="url(#clip0)" transform="translate(-2977 -1316)"><path d="M3167.13 1754.58C3220.81 1589.36 3374.78 1477.5 3548.5 1477.5L3548.5 1878.5Z" stroke="#FFFFFF" stroke-width="4.58333" stroke-miterlimit="8" fill="#16D41B" fill-rule="evenodd"/><path d="M3148.05 1748.2C3199.95 1588.1 3342.21 1474.42 3509.64 1459.25L3509.64 1428.81 3547.46 1480.45 3509.65 1535.71 3509.65 1505.28C3362.13 1520.3 3237.39 1621.13 3191.63 1762.36Z" fill="#2327D0" fill-rule="evenodd"/><path d="M3253.22 1589.65 3267.27 1576.3 3270.13 1579.31 3271.92 1602.26 3282.84 1591.88 3285.92 1595.11 3270.32 1609.94 3267 1606.44 3265.25 1584.4 3256.3 1592.9Z" fill="#FFFFFF" fill-rule="evenodd"/><text fill="#000000" fill-opacity="0" font-family="Arial,Arial_MSFontService,sans-serif" font-size="33.6354" x="3253.22" y="1605.73">Z</text><path d="M3275.42 1578.83 3279.28 1575.53 3285.01 1582.24C3286.76 1584.29 3287.9 1585.49 3288.44 1585.83 3288.98 1586.17 3289.55 1586.32 3290.15 1586.27 3290.76 1586.22 3291.35 1585.95 3291.93 1585.45 3292.59 1584.89 3293.03 1584.21 3293.24 1583.4 3293.45 1582.59 3293.43 1581.84 3293.16 1581.14 3292.9 1580.44 3291.87 1579.04 3290.09 1576.95L3284.84 1570.8 3288.7 1567.5 3301.15 1582.1 3297.57 1585.16 3295.7 1582.97C3295.83 1584.2 3295.66 1585.41 3295.18 1586.6 3294.69 1587.79 3293.97 1588.79 3293.01 1589.61 3292.03 1590.45 3290.97 1590.99 3289.82 1591.22 3288.67 1591.45 3287.59 1591.33 3286.58 1590.85 3285.57 1590.37 3284.48 1589.44 3283.3 1588.06Z" fill="#FFFFFF" fill-rule="evenodd"/><text fill="#000000" fill-opacity="0" font-family="Arial,Arial_MSFontService,sans-serif" font-size="23.834" x="3275.42" y="1588.36">u</text><path d="M3301.74 1561.69C3300.77 1562.43 3300.26 1563.41 3300.21 1564.64 3300.16 1565.87 3300.72 1567.26 3301.9 1568.8 3303.14 1570.42 3304.35 1571.36 3305.56 1571.63 3306.76 1571.9 3307.82 1571.69 3308.74 1570.99 3309.72 1570.23 3310.26 1569.21 3310.35 1567.92 3310.44 1566.63 3309.91 1565.23 3308.75 1563.72 3307.54 1562.14 3306.32 1561.22 3305.08 1560.95 3303.85 1560.68 3302.73 1560.93 3301.74 1561.69ZM3298.34 1559.4C3300.23 1557.95 3302.42 1557.59 3304.91 1558.31L3303.27 1556.17 3307.05 1553.29 3317.51 1566.96C3318.88 1568.76 3319.76 1570.22 3320.15 1571.33 3320.53 1572.45 3320.65 1573.47 3320.5 1574.38 3320.35 1575.3 3319.94 1576.24 3319.27 1577.22 3318.59 1578.19 3317.57 1579.2 3316.2 1580.24 3313.62 1582.22 3311.45 1583.18 3309.69 1583.12 3307.93 1583.06 3306.53 1582.35 3305.49 1580.99 3305.39 1580.86 3305.27 1580.69 3305.14 1580.49L3310.17 1577.53C3310.66 1578.01 3311.12 1578.24 3311.55 1578.23 3312.15 1578.22 3312.86 1577.91 3313.68 1577.28 3314.74 1576.47 3315.4 1575.71 3315.69 1574.99 3315.88 1574.51 3315.89 1573.97 3315.71 1573.36 3315.58 1572.93 3315.17 1572.26 3314.48 1571.37L3312.78 1569.14C3312.84 1571.71 3311.94 1573.69 3310.11 1575.1 3308.06 1576.67 3305.78 1577.04 3303.26 1576.22 3301.27 1575.57 3299.5 1574.23 3297.94 1572.19 3295.99 1569.64 3295.11 1567.21 3295.31 1564.93 3295.51 1562.64 3296.52 1560.79 3298.34 1559.4Z" fill="#FFFFFF" fill-rule="evenodd"/><text fill="#000000" fill-opacity="0" font-family="Arial,Arial_MSFontService,sans-serif" font-size="29.8352" x="3295.28" y="1579.39">g</text><path d="M3325.79 1552.39C3325.38 1552.94 3324.67 1553.73 3323.68 1554.78 3322.69 1555.82 3322.1 1556.59 3321.9 1557.07 3321.62 1557.84 3321.69 1558.51 3322.1 1559.11 3322.5 1559.7 3323.07 1560.05 3323.8 1560.18 3324.53 1560.31 3325.23 1560.14 3325.9 1559.68 3326.66 1559.16 3327.21 1558.41 3327.55 1557.45 3327.8 1556.72 3327.82 1556.03 3327.6 1555.38 3327.46 1554.95 3327.05 1554.23 3326.36 1553.22ZM3317.35 1545.56C3319.22 1544.28 3320.76 1543.54 3321.98 1543.36 3323.2 1543.17 3324.22 1543.29 3325.06 1543.72 3325.9 1544.14 3326.95 1545.26 3328.19 1547.08L3331.5 1552C3332.46 1553.39 3333.23 1554.37 3333.81 1554.94 3334.4 1555.5 3335.14 1556.04 3336.02 1556.54L3331.88 1559.38C3331.58 1559.18 3331.17 1558.86 3330.63 1558.42 3330.39 1558.22 3330.23 1558.09 3330.15 1558.03 3329.91 1559.22 3329.5 1560.27 3328.93 1561.17 3328.35 1562.08 3327.6 1562.85 3326.68 1563.48 3325.05 1564.6 3323.46 1565.04 3321.92 1564.8 3320.37 1564.56 3319.14 1563.77 3318.21 1562.42 3317.6 1561.52 3317.26 1560.58 3317.21 1559.58 3317.15 1558.59 3317.39 1557.65 3317.9 1556.74 3318.41 1555.84 3319.3 1554.76 3320.56 1553.48 3322.26 1551.77 3323.38 1550.5 3323.92 1549.66L3323.63 1549.25C3323.08 1548.44 3322.49 1548.01 3321.86 1547.94 3321.22 1547.87 3320.36 1548.21 3319.25 1548.97 3318.51 1549.48 3318.03 1550.02 3317.81 1550.6 3317.6 1551.18 3317.61 1551.93 3317.86 1552.84L3313.59 1554.76C3312.97 1552.94 3312.93 1551.3 3313.46 1549.85 3314 1548.4 3315.3 1546.97 3317.35 1545.56Z" fill="#FFFFFF" fill-rule="evenodd"/><text fill="#000000" fill-opacity="0" font-family="Arial,Arial_MSFontService,sans-serif" font-size="21.5891" x="3313.09" y="1562.17">a</text><path d="M3338.15 1532.13C3339.1 1531.54 3340.08 1531.18 3341.08 1531.04 3342.09 1530.9 3342.95 1530.97 3343.69 1531.26 3344.42 1531.54 3345.07 1531.97 3345.65 1532.55 3346.22 1533.13 3346.9 1534.06 3347.67 1535.32L3353.9 1545.48 3349.58 1548.14 3344.46 1539.79C3343.37 1538.02 3342.58 1536.94 3342.08 1536.53 3341.58 1536.13 3341.03 1535.91 3340.44 1535.88 3339.84 1535.84 3339.26 1536.01 3338.67 1536.37 3337.92 1536.83 3337.37 1537.44 3337.03 1538.22 3336.69 1538.99 3336.61 1539.79 3336.81 1540.6 3337 1541.42 3337.66 1542.74 3338.78 1544.56L3343.32 1551.97 3339 1554.63 3328.97 1538.27 3332.99 1535.8 3334.46 1538.21C3334.75 1535.48 3335.98 1533.46 3338.15 1532.13Z" fill="#FFFFFF" fill-rule="evenodd"/><text fill="#000000" fill-opacity="0" font-family="Arial,Arial_MSFontService,sans-serif" font-size="23.6559" x="3328.97" y="1551.67">n</text><path d="M3357.57 1525.47C3356.5 1526.05 3355.84 1526.95 3355.6 1528.15 3355.36 1529.36 3355.7 1530.82 3356.62 1532.52 3357.59 1534.31 3358.65 1535.43 3359.79 1535.89 3360.94 1536.35 3362.02 1536.3 3363.03 1535.75 3364.12 1535.16 3364.81 1534.23 3365.1 1532.97 3365.39 1531.71 3365.08 1530.24 3364.18 1528.57 3363.23 1526.82 3362.17 1525.72 3360.99 1525.26 3359.81 1524.81 3358.67 1524.88 3357.57 1525.47ZM3354.57 1522.68C3356.66 1521.55 3358.88 1521.53 3361.23 1522.63L3359.94 1520.26 3364.12 1518 3372.32 1533.14C3373.4 1535.13 3374.04 1536.7 3374.25 1537.87 3374.46 1539.03 3374.41 1540.05 3374.12 1540.93 3373.84 1541.82 3373.28 1542.69 3372.46 1543.54 3371.65 1544.39 3370.48 1545.23 3368.97 1546.05 3366.11 1547.6 3363.81 1548.21 3362.09 1547.88 3360.36 1547.55 3359.09 1546.63 3358.27 1545.13 3358.19 1544.98 3358.1 1544.8 3358 1544.58L3363.43 1542.43C3363.84 1542.98 3364.25 1543.28 3364.68 1543.34 3365.28 1543.43 3366.03 1543.22 3366.94 1542.73 3368.11 1542.1 3368.88 1541.45 3369.28 1540.79 3369.54 1540.34 3369.64 1539.81 3369.56 1539.18 3369.49 1538.73 3369.19 1538.01 3368.65 1537.02L3367.32 1534.55C3366.97 1537.1 3365.78 1538.92 3363.75 1540.02 3361.48 1541.25 3359.17 1541.27 3356.8 1540.07 3354.95 1539.11 3353.41 1537.51 3352.18 1535.26 3350.65 1532.43 3350.16 1529.9 3350.71 1527.67 3351.26 1525.44 3352.55 1523.78 3354.57 1522.68Z" fill="#FFFFFF" fill-rule="evenodd"/><text fill="#000000" fill-opacity="0" font-family="Arial,Arial_MSFontService,sans-serif" font-size="29.968" x="3350.49" y="1544.22">g</text><g clip-path="url(#clip1)"><g clip-path="url(#clip2)"><g clip-path="url(#clip3)"><path d="M88.2813 3.29583C72.5083 3.29583 59.8743 16.0083 59.8743 31.7028L59.8743 63.3271 67.8 63.3271 67.8 31.7028C67.8 20.3243 76.9813 11.1431 88.3597 11.1431 99.7382 11.1431 108.919 20.3243 108.919 31.7028L108.919 53.5181 116.845 53.5181 116.845 31.7028C116.688 15.9299 104.054 3.29583 88.2813 3.29583Z" fill="#475055" fill-rule="evenodd" transform="matrix(1.00764 0 0 1 3354.92 1634.73)"/><path d="M72.4299 58.4618 6.04236 58.4618C5.80694 58.4618 5.65 58.6188 5.65 58.8542L5.65 110.097C5.65 110.332 5.80694 110.489 6.04236 110.489L72.4299 110.489C72.6653 110.489 72.8222 110.332 72.8222 110.097L72.8222 58.8542C72.8222 58.6972 72.6653 58.4618 72.4299 58.4618ZM30.6826 99.2674 34.2924 88.909 34.2924 88.909C32.1736 87.7319 30.6826 85.5347 30.6826 82.8667 30.6826 79.1 33.7431 76.0396 37.5097 76.0396 41.2764 76.0396 44.3368 79.1 44.3368 82.8667 44.3368 85.3778 42.9243 87.575 40.884 88.7521 40.8056 88.7521 40.8056 88.8306 40.7271 88.8306L40.884 88.8306 44.4938 99.1889 30.6826 99.1889Z" fill="#475055" fill-rule="evenodd" transform="matrix(1.00764 0 0 1 3354.92 1634.73)"/><path d="M31.7028 81.0618 31.7028 81.1403 31.5458 81.1403C31.6243 81.1403 31.6243 81.0618 31.7028 81.0618Z" fill="#475055" fill-rule="evenodd" transform="matrix(1.00764 0 0 1 3357.27 1632.77)"/></g></g></g><path d="M3305.8 2223.92C3165.25 2121.8 3106.44 1940.81 3160.13 1775.58L3541.5 1899.5Z" stroke="#FFFFFF" stroke-width="4.58333" stroke-miterlimit="8" fill="#E6E6E6" fill-rule="evenodd"/><path d="M3293.68 2239.27C3157.67 2140.47 3093.68 1970.08 3131.04 1806.17L3102.09 1796.76 3162.88 1776.8 3203.75 1829.79 3174.81 1820.39C3143.46 1965.31 3200.65 2115.07 3320.61 2202.21Z" fill="#2327D0" fill-rule="evenodd"/><path d="M3154.43 1924.23 3144.36 1921.39 3144.9 1928.6ZM3160.39 1921.02 3160.81 1926.66 3135.18 1939.19 3134.75 1933.39 3140.58 1930.64 3139.79 1920.08 3133.63 1918.34 3133.21 1912.69Z" fill="#FFFFFF" fill-rule="evenodd"/><text fill="#000000" fill-opacity="0" font-family="Arial,Arial_MSFontService,sans-serif" font-size="26.5031" x="3133.21" y="1935.88">A</text><path d="M3156.23 1948.36C3156.37 1949.5 3156.19 1950.65 3155.68 1951.79L3151.1 1950.77C3151.54 1949.85 3151.72 1949.03 3151.63 1948.3 3151.54 1947.6 3151.28 1947.02 3150.83 1946.58 3150.38 1946.14 3149.63 1945.84 3148.58 1945.68 3147.53 1945.53 3145.38 1945.65 3142.14 1946.05L3136.26 1946.78 3135.64 1941.74 3154.68 1939.39 3155.26 1944.07 3152.55 1944.4C3153.93 1945.05 3154.86 1945.66 3155.35 1946.25 3155.83 1946.84 3156.13 1947.54 3156.23 1948.36Z" fill="#FFFFFF" fill-rule="evenodd"/><text fill="#000000" fill-opacity="0" font-family="Arial,Arial_MSFontService,sans-serif" font-size="12.4004" x="3135.64" y="1950.24">r</text><path d="M3158.21 1961.33C3158.59 1963.63 3158.4 1965.55 3157.63 1967.07 3156.86 1968.6 3155.51 1969.83 3153.58 1970.76L3151.87 1965.97C3152.83 1965.64 3153.51 1965.14 3153.91 1964.47 3154.31 1963.8 3154.43 1962.99 3154.28 1962.06 3154.07 1960.81 3153.48 1959.88 3152.49 1959.28 3151.51 1958.69 3150 1958.55 3147.98 1958.89 3145.74 1959.26 3144.21 1959.9 3143.41 1960.81 3142.61 1961.72 3142.32 1962.81 3142.53 1964.08 3142.69 1965.03 3143.08 1965.76 3143.73 1966.28 3144.37 1966.8 3145.37 1967.07 3146.73 1967.1L3146.71 1972.16C3144.37 1972.02 3142.5 1971.33 3141.1 1970.07 3139.71 1968.81 3138.81 1966.96 3138.41 1964.53 3137.95 1961.76 3138.45 1959.41 3139.93 1957.47 3141.4 1955.53 3143.68 1954.31 3146.77 1953.8 3149.9 1953.28 3152.47 1953.7 3154.48 1955.06 3156.5 1956.42 3157.74 1958.51 3158.21 1961.33Z" fill="#FFFFFF" fill-rule="evenodd"/><text fill="#000000" fill-opacity="0" font-family="Arial,Arial_MSFontService,sans-serif" font-size="18.5759" x="3138.24" y="1969.84">c</text><path d="M3166.94 1971.48 3168.03 1976.44 3158.52 1978.53C3160.74 1979.71 3162.09 1981.42 3162.58 1983.64 3162.83 1984.79 3162.85 1985.86 3162.62 1986.87 3162.4 1987.88 3162.01 1988.69 3161.45 1989.3 3160.9 1989.91 3160.24 1990.39 3159.48 1990.73 3158.71 1991.08 3157.49 1991.44 3155.81 1991.81L3144.81 1994.22 3143.73 1989.26 3153.63 1987.09C3155.59 1986.66 3156.82 1986.29 3157.31 1985.99 3157.79 1985.68 3158.14 1985.26 3158.35 1984.71 3158.56 1984.17 3158.58 1983.54 3158.42 1982.82 3158.24 1981.99 3157.88 1981.3 3157.34 1980.74 3156.8 1980.18 3156.09 1979.84 3155.22 1979.72 3154.35 1979.6 3153.12 1979.71 3151.55 1980.05L3142.16 1982.12 3141.07 1977.16Z" fill="#FFFFFF" fill-rule="evenodd"/><text fill="#000000" fill-opacity="0" font-family="Arial,Arial_MSFontService,sans-serif" font-size="22.7419" x="3141.07" y="1991.38">h</text><path d="M3164.71 1994.39 3165.99 1999.3 3147.43 2004.14 3146.15 1999.23ZM3171.77 1992.55 3173.06 1997.46 3168.51 1998.64 3167.23 1993.73Z" fill="#FFFFFF" fill-rule="evenodd"/><text fill="#000000" fill-opacity="0" font-family="Arial,Arial_MSFontService,sans-serif" font-size="11.5974" x="3146.15" y="2002.69">i</text><path d="M3166.49 2001.59 3168.03 2006.7 3159.69 2012.98 3156.86 2014.92C3157.74 2014.95 3158.31 2014.96 3158.59 2014.95 3159.15 2014.96 3159.73 2014.97 3160.3 2015L3170.73 2015.68 3172.23 2020.68 3151.66 2018.9 3150.35 2014.53Z" fill="#FFFFFF" fill-rule="evenodd"/><text fill="#000000" fill-opacity="0" font-family="Arial,Arial_MSFontService,sans-serif" font-size="19.0825" x="3150.35" y="2018.29">v</text><path d="M3173.19 2023.22 3174.83 2028.03 3156.68 2034.23 3155.04 2029.43ZM3180.1 2020.86 3181.74 2025.67 3177.3 2027.19 3175.65 2022.38Z" fill="#FFFFFF" fill-rule="evenodd"/><text fill="#000000" fill-opacity="0" font-family="Arial,Arial_MSFontService,sans-serif" font-size="13.3678" x="3155.04" y="2032.56">i</text><path d="M3175.89 2040.93C3175.49 2039.89 3174.79 2039.18 3173.78 2038.8 3172.76 2038.41 3171.61 2038.47 3170.32 2038.98L3173.04 2046.06C3174.4 2045.5 3175.31 2044.75 3175.76 2043.8 3176.22 2042.85 3176.26 2041.89 3175.89 2040.93ZM3179.41 2039.25C3180.43 2041.91 3180.36 2044.36 3179.19 2046.57 3178.02 2048.79 3175.6 2050.56 3171.95 2051.88L3167.39 2040.01C3166 2040.58 3165.05 2041.38 3164.55 2042.41 3164.05 2043.44 3164.01 2044.51 3164.43 2045.6 3164.71 2046.34 3165.15 2046.88 3165.75 2047.24 3166.35 2047.59 3167.15 2047.72 3168.15 2047.63L3169.17 2052.66C3167.2 2052.72 3165.52 2052.26 3164.11 2051.3 3162.7 2050.34 3161.62 2048.87 3160.86 2046.9 3159.67 2043.79 3159.8 2041.09 3161.26 2038.82 3162.44 2037.01 3164.27 2035.63 3166.76 2034.68 3169.73 2033.54 3172.35 2033.42 3174.63 2034.33 3176.9 2035.24 3178.5 2036.88 3179.41 2039.25Z" fill="#FFFFFF" fill-rule="evenodd"/><text fill="#000000" fill-opacity="0" font-family="Arial,Arial_MSFontService,sans-serif" font-size="18.9371" x="3160.06" y="2050.3">e</text><path d="M3187.67 2059.28C3188.12 2060.34 3188.27 2061.49 3188.11 2062.73L3183.43 2063.04C3183.6 2062.04 3183.53 2061.2 3183.24 2060.52 3182.96 2059.87 3182.54 2059.4 3181.99 2059.1 3181.43 2058.8 3180.63 2058.72 3179.58 2058.87 3178.52 2059.02 3176.5 2059.74 3173.5 2061.03L3168.07 2063.39 3166.05 2058.73 3183.66 2051.11 3185.53 2055.44 3183.03 2056.52C3184.53 2056.75 3185.6 2057.08 3186.23 2057.51 3186.86 2057.94 3187.34 2058.53 3187.67 2059.28Z" fill="#FFFFFF" fill-rule="evenodd"/><text fill="#000000" fill-opacity="0" font-family="Arial,Arial_MSFontService,sans-serif" font-size="12.2751" x="3166.05" y="2061.85">r</text><path d="M3189.2 2063.88 3191.41 2068.45 3183.48 2072.3C3181.06 2073.48 3179.61 2074.28 3179.14 2074.71 3178.68 2075.15 3178.39 2075.67 3178.29 2076.26 3178.19 2076.86 3178.3 2077.5 3178.63 2078.19 3179.01 2078.97 3179.56 2079.56 3180.29 2079.97 3181.02 2080.38 3181.75 2080.55 3182.5 2080.47 3183.24 2080.39 3184.85 2079.75 3187.32 2078.55L3194.6 2075.01 3196.82 2079.58 3179.56 2087.96 3177.5 2083.72 3180.08 2082.46C3178.86 2082.28 3177.73 2081.81 3176.7 2081.04 3175.67 2080.28 3174.88 2079.32 3174.33 2078.19 3173.77 2077.03 3173.52 2075.86 3173.58 2074.69 3173.64 2073.53 3174.03 2072.51 3174.76 2071.65 3175.48 2070.8 3176.65 2069.97 3178.27 2069.18Z" fill="#FFFFFF" fill-rule="evenodd"/><text fill="#000000" fill-opacity="0" font-family="Arial,Arial_MSFontService,sans-serif" font-size="24.0801" x="3173.57" y="2084.95">u</text><path d="M3204.55 2092.87C3205.09 2093.85 3205.41 2094.84 3205.51 2095.85 3205.6 2096.86 3205.49 2097.72 3205.17 2098.44 3204.86 2099.16 3204.4 2099.79 3203.79 2100.34 3203.19 2100.89 3202.24 2101.52 3200.94 2102.24L3190.51 2108.02 3188.05 2103.57 3196.62 2098.83C3198.43 2097.83 3199.55 2097.08 3199.97 2096.6 3200.4 2096.12 3200.64 2095.58 3200.7 2094.99 3200.76 2094.4 3200.63 2093.8 3200.29 2093.2 3199.87 2092.43 3199.27 2091.86 3198.51 2091.48 3197.75 2091.1 3196.96 2090.99 3196.14 2091.15 3195.32 2091.31 3193.97 2091.91 3192.1 2092.95L3184.5 2097.16 3182.04 2092.72 3198.82 2083.42 3201.11 2087.55 3198.64 2088.91C3201.35 2089.33 3203.32 2090.65 3204.55 2092.87Z" fill="#FFFFFF" fill-rule="evenodd"/><text fill="#000000" fill-opacity="0" font-family="Arial,Arial_MSFontService,sans-serif" font-size="24.593" x="3182.04" y="2104.94">n</text><path d="M3210.92 2111.22C3210.28 2110.19 3209.34 2109.59 3208.12 2109.42 3206.9 2109.26 3205.47 2109.69 3203.83 2110.72 3202.1 2111.8 3201.05 2112.92 3200.67 2114.09 3200.28 2115.26 3200.4 2116.34 3201.01 2117.32 3201.67 2118.37 3202.64 2119 3203.91 2119.21 3205.19 2119.42 3206.63 2119.02 3208.24 2118.01 3209.93 2116.96 3210.96 2115.83 3211.34 2114.62 3211.73 2113.42 3211.59 2112.28 3210.92 2111.22ZM3213.52 2108.06C3214.78 2110.07 3214.94 2112.28 3213.99 2114.69L3216.27 2113.27 3218.79 2117.29 3204.2 2126.43C3202.28 2127.63 3200.74 2128.37 3199.6 2128.64 3198.45 2128.92 3197.43 2128.94 3196.53 2128.71 3195.63 2128.48 3194.73 2127.98 3193.82 2127.22 3192.92 2126.45 3192.01 2125.34 3191.1 2123.88 3189.37 2121.13 3188.62 2118.88 3188.84 2117.13 3189.06 2115.39 3189.9 2114.06 3191.35 2113.15 3191.49 2113.06 3191.67 2112.96 3191.88 2112.84L3194.36 2118.13C3193.84 2118.57 3193.56 2119.01 3193.54 2119.44 3193.48 2120.04 3193.73 2120.78 3194.28 2121.65 3194.99 2122.78 3195.68 2123.51 3196.37 2123.86 3196.83 2124.1 3197.37 2124.16 3197.99 2124.04 3198.43 2123.95 3199.14 2123.61 3200.09 2123L3202.47 2121.52C3199.91 2121.33 3198.01 2120.26 3196.79 2118.3 3195.42 2116.11 3195.26 2113.8 3196.31 2111.37 3197.14 2109.46 3198.65 2107.82 3200.82 2106.46 3203.55 2104.75 3206.04 2104.1 3208.3 2104.52 3210.56 2104.93 3212.3 2106.11 3213.52 2108.06Z" fill="#FFFFFF" fill-rule="evenodd"/><text fill="#000000" fill-opacity="0" font-family="Arial,Arial_MSFontService,sans-serif" font-size="24.4749" x="3188.8" y="2125.81">g</text><g clip-path="url(#clip4)"><g clip-path="url(#clip5)"><g clip-path="url(#clip6)"><path d="M3298.41 1998.43 3306.59 1998.43 3306.59 2009.34 3298.41 2009.34Z" fill="#475055"/><path d="M3298.41 2014.8 3306.59 2014.8 3306.59 2022.99 3298.41 2022.99Z" fill="#475055"/><path d="M3312.05 2014.8 3351.62 2014.8 3351.62 2022.99 3312.05 2022.99Z" fill="#475055"/><path d="M3253.38 2014.8 3292.95 2014.8 3292.95 2022.99 3253.38 2022.99Z" fill="#475055"/><path d="M3341.28 1976.59 3263.72 1976.59C3261.02 1976.59 3258.83 1978.78 3258.83 1981.48L3258.83 1993.54C3258.83 1996.24 3261.02 1998.43 3263.72 1998.43L3341.28 1998.43C3343.98 1998.43 3346.17 1996.24 3346.17 1993.54L3346.17 1981.48C3346.17 1978.78 3343.98 1976.59 3341.28 1976.59ZM3272.48 1990.24C3270.97 1990.24 3269.75 1989.02 3269.75 1987.51 3269.75 1986 3270.97 1984.78 3272.48 1984.78 3273.99 1984.78 3275.21 1986 3275.21 1987.51 3275.21 1989.02 3273.99 1990.24 3272.48 1990.24ZM3286.12 1990.24C3284.62 1990.24 3283.4 1989.02 3283.4 1987.51 3283.4 1986 3284.62 1984.78 3286.12 1984.78 3287.63 1984.78 3288.85 1986 3288.85 1987.51 3288.85 1989.02 3287.63 1990.24 3286.12 1990.24ZM3299.77 1990.24C3298.26 1990.24 3297.04 1989.02 3297.04 1987.51 3297.04 1986 3298.26 1984.78 3299.77 1984.78 3301.28 1984.78 3302.5 1986 3302.5 1987.51 3302.5 1989.02 3301.28 1990.24 3299.77 1990.24Z" fill="#475055"/><path d="M3341.28 1949.3 3263.72 1949.3C3261.02 1949.3 3258.83 1951.49 3258.83 1954.19L3258.83 1966.25C3258.83 1968.95 3261.02 1971.14 3263.72 1971.14L3341.28 1971.14C3343.98 1971.14 3346.17 1968.95 3346.17 1966.25L3346.17 1954.19C3346.17 1951.49 3343.98 1949.3 3341.28 1949.3ZM3272.48 1962.95C3270.97 1962.95 3269.75 1961.73 3269.75 1960.22 3269.75 1958.71 3270.97 1957.49 3272.48 1957.49 3273.99 1957.49 3275.21 1958.71 3275.21 1960.22 3275.21 1961.73 3273.99 1962.95 3272.48 1962.95ZM3286.12 1962.95C3284.62 1962.95 3283.4 1961.73 3283.4 1960.22 3283.4 1958.71 3284.62 1957.49 3286.12 1957.49 3287.63 1957.49 3288.85 1958.71 3288.85 1960.22 3288.85 1961.73 3287.63 1962.95 3286.12 1962.95ZM3299.77 1962.95C3298.26 1962.95 3297.04 1961.73 3297.04 1960.22 3297.04 1958.71 3298.26 1957.49 3299.77 1957.49 3301.28 1957.49 3302.5 1958.71 3302.5 1960.22 3302.5 1961.73 3301.28 1962.95 3299.77 1962.95Z" fill="#475055"/><path d="M3341.28 1922.01 3263.72 1922.01C3261.02 1922.01 3258.83 1924.2 3258.83 1926.9L3258.83 1938.96C3258.83 1941.66 3261.02 1943.84 3263.72 1943.84L3341.28 1943.84C3343.98 1943.84 3346.17 1941.66 3346.17 1938.96L3346.17 1926.9C3346.17 1924.2 3343.98 1922.01 3341.28 1922.01ZM3272.48 1935.66C3270.97 1935.66 3269.75 1934.43 3269.75 1932.93 3269.75 1931.42 3270.97 1930.2 3272.48 1930.2 3273.99 1930.2 3275.21 1931.42 3275.21 1932.93 3275.21 1934.43 3273.99 1935.66 3272.48 1935.66ZM3286.12 1935.66C3284.62 1935.66 3283.4 1934.43 3283.4 1932.93 3283.4 1931.42 3284.62 1930.2 3286.12 1930.2 3287.63 1930.2 3288.85 1931.42 3288.85 1932.93 3288.85 1934.43 3287.63 1935.66 3286.12 1935.66ZM3299.77 1935.66C3298.26 1935.66 3297.04 1934.43 3297.04 1932.93 3297.04 1931.42 3298.26 1930.2 3299.77 1930.2 3301.28 1930.2 3302.5 1931.42 3302.5 1932.93 3302.5 1934.43 3301.28 1935.66 3299.77 1935.66Z" fill="#475055"/></g></g></g><path d="M3795.01 2237.15C3654.54 2338.95 3464.45 2338.95 3323.99 2237.15L3559.5 1913Z" stroke="#FFFFFF" stroke-width="4.58333" stroke-miterlimit="8" fill="#E6E6E6" fill-rule="evenodd"/><path d="M3805.98 2252.37C3669.89 2351.03 3488.03 2359.21 3343.61 2273.17L3325.72 2297.8 3325.49 2233.84 3388.56 2211.32 3370.67 2235.94C3498.88 2310.39 3659.01 2302.3 3779.04 2215.31Z" fill="#2327D0" fill-rule="evenodd"/><path d="M3504.92 2293.84 3500.03 2303.08 3507.19 2304.08ZM3503.04 2287.34 3508.64 2288.12 3515.5 2315.81 3509.74 2315.01 3508.27 2308.73 3497.79 2307.28 3494.8 2312.93 3489.18 2312.16Z" fill="#FFFFFF" fill-rule="evenodd"/><text fill="#000000" fill-opacity="0" font-family="Arial,Arial_MSFontService,sans-serif" font-size="28.4692" x="3489.18" y="2312.25">A</text><path d="M3530.9 2297.3C3532.01 2297.38 3533.02 2297.67 3533.91 2298.14 3534.8 2298.62 3535.46 2299.19 3535.89 2299.85 3536.31 2300.51 3536.58 2301.25 3536.71 2302.05 3536.83 2302.86 3536.83 2304 3536.72 2305.48L3535.77 2317.37 3530.71 2316.96 3531.49 2307.2C3531.65 2305.14 3531.65 2303.79 3531.48 2303.17 3531.31 2302.55 3531 2302.05 3530.54 2301.67 3530.08 2301.3 3529.51 2301.08 3528.82 2301.03 3527.95 2300.96 3527.14 2301.13 3526.41 2301.56 3525.67 2301.98 3525.15 2302.58 3524.82 2303.35 3524.5 2304.13 3524.26 2305.58 3524.09 2307.72L3523.4 2316.38 3518.33 2315.98 3519.86 2296.85 3524.56 2297.23 3524.34 2300.03C3526.18 2298.01 3528.36 2297.09 3530.9 2297.3Z" fill="#FFFFFF" fill-rule="evenodd"/><text fill="#000000" fill-opacity="0" font-family="Arial,Arial_MSFontService,sans-serif" font-size="20.5161" x="3518.33" y="2314.8">n</text><path d="M3551.88 2308.71C3551.22 2308.9 3550.19 2309.13 3548.77 2309.4 3547.35 2309.66 3546.42 2309.93 3545.98 2310.2 3545.31 2310.65 3544.96 2311.24 3544.94 2311.96 3544.92 2312.67 3545.17 2313.29 3545.68 2313.83 3546.2 2314.36 3546.86 2314.64 3547.68 2314.66 3548.6 2314.69 3549.48 2314.41 3550.33 2313.83 3550.95 2313.39 3551.37 2312.84 3551.58 2312.19 3551.73 2311.76 3551.82 2310.93 3551.85 2309.72ZM3549.08 2298.22C3551.35 2298.28 3553.02 2298.6 3554.12 2299.16 3555.21 2299.73 3555.97 2300.43 3556.4 2301.27 3556.83 2302.11 3557.01 2303.63 3556.95 2305.83L3556.73 2311.75C3556.68 2313.44 3556.73 2314.68 3556.87 2315.49 3557.01 2316.29 3557.29 2317.16 3557.71 2318.09L3552.69 2317.95C3552.56 2317.6 3552.41 2317.1 3552.24 2316.43 3552.16 2316.13 3552.11 2315.93 3552.08 2315.83 3551.19 2316.65 3550.24 2317.26 3549.24 2317.65 3548.24 2318.04 3547.18 2318.22 3546.06 2318.19 3544.09 2318.14 3542.55 2317.56 3541.44 2316.45 3540.33 2315.35 3539.8 2313.98 3539.85 2312.34 3539.88 2311.26 3540.16 2310.3 3540.71 2309.47 3541.25 2308.63 3541.99 2308 3542.94 2307.58 3543.88 2307.15 3545.24 2306.8 3547.01 2306.51 3549.39 2306.13 3551.05 2305.76 3551.97 2305.4L3551.99 2304.89C3552.01 2303.92 3551.79 2303.22 3551.32 2302.79 3550.85 2302.36 3549.95 2302.13 3548.61 2302.09 3547.71 2302.06 3547 2302.22 3546.49 2302.56 3545.97 2302.9 3545.54 2303.51 3545.2 2304.4L3540.62 2303.44C3541.19 2301.6 3542.12 2300.25 3543.41 2299.39 3544.7 2298.54 3546.59 2298.15 3549.08 2298.22Z" fill="#FFFFFF" fill-rule="evenodd"/><text fill="#000000" fill-opacity="0" font-family="Arial,Arial_MSFontService,sans-serif" font-size="19.9883" x="3539.85" y="2315.7">a</text><path d="M3561.7 2291.52 3566.77 2291.48 3567.01 2317.96 3561.93 2318.01Z" fill="#FFFFFF" fill-rule="evenodd"/><text fill="#000000" fill-opacity="0" font-family="Arial,Arial_MSFontService,sans-serif" font-size="26.5295" x="3561.7" y="2314.69">l</text><path d="M3569.24 2298.85 3574.63 2298.6 3579.84 2312 3583.69 2298.18 3588.95 2297.94 3583.03 2316.7 3581.97 2320.09C3581.58 2321.23 3581.19 2322.11 3580.82 2322.71 3580.44 2323.32 3580 2323.82 3579.49 2324.21 3578.99 2324.6 3578.36 2324.92 3577.6 2325.16 3576.85 2325.4 3575.99 2325.54 3575.03 2325.58 3574.05 2325.63 3573.09 2325.57 3572.14 2325.41L3571.51 2321.46C3572.31 2321.58 3573.03 2321.62 3573.67 2321.6 3574.85 2321.54 3575.7 2321.16 3576.24 2320.44 3576.77 2319.72 3577.16 2318.82 3577.41 2317.73Z" fill="#FFFFFF" fill-rule="evenodd"/><text fill="#000000" fill-opacity="0" font-family="Arial,Arial_MSFontService,sans-serif" font-size="27.657" x="3569.24" y="2322.14">y</text><path d="M3598.57 2296.6C3601.19 2296.35 3603.17 2296.59 3604.52 2297.32 3605.88 2298.05 3606.87 2299.23 3607.51 2300.85L3602.83 2302.19C3602.55 2301.46 3602.11 2300.93 3601.5 2300.59 3600.9 2300.25 3600.07 2300.13 3599.01 2300.23 3597.68 2300.35 3596.75 2300.63 3596.21 2301.06 3595.85 2301.36 3595.69 2301.72 3595.73 2302.14 3595.76 2302.5 3595.96 2302.79 3596.32 2303.01 3596.81 2303.3 3598.43 2303.62 3601.18 2303.98 3603.93 2304.33 3605.88 2304.9 3607.03 2305.69 3608.17 2306.48 3608.82 2307.69 3608.97 2309.29 3609.14 2311.04 3608.55 2312.62 3607.21 2314.02 3605.87 2315.42 3603.76 2316.25 3600.9 2316.53 3598.3 2316.77 3596.19 2316.44 3594.57 2315.53 3592.95 2314.62 3591.82 2313.29 3591.18 2311.52L3596.18 2310.26C3596.49 2311.22 3597 2311.93 3597.71 2312.38 3598.41 2312.82 3599.36 2312.99 3600.55 2312.88 3601.86 2312.75 3602.82 2312.42 3603.43 2311.87 3603.84 2311.5 3604.02 2311.02 3603.97 2310.46 3603.93 2310.08 3603.78 2309.77 3603.51 2309.54 3603.24 2309.33 3602.65 2309.16 3601.76 2309.04 3597.6 2308.53 3594.94 2307.96 3593.77 2307.32 3592.16 2306.43 3591.27 2305.07 3591.1 2303.24 3590.94 2301.58 3591.46 2300.13 3592.66 2298.88 3593.86 2297.62 3595.83 2296.87 3598.57 2296.6Z" fill="#FFFFFF" fill-rule="evenodd"/><text fill="#000000" fill-opacity="0" font-family="Arial,Arial_MSFontService,sans-serif" font-size="20.0989" x="3591.07" y="2314.09">s</text><path d="M3619.64 2297.99C3618.54 2298.15 3617.7 2298.68 3617.1 2299.58 3616.5 2300.49 3616.3 2301.62 3616.52 2302.99L3624.02 2301.9C3623.78 2300.45 3623.24 2299.4 3622.41 2298.74 3621.59 2298.09 3620.66 2297.84 3619.64 2297.99ZM3618.77 2294.19C3621.6 2293.78 3623.96 2294.39 3625.87 2296.01 3627.77 2297.64 3628.97 2300.38 3629.46 2304.24L3616.88 2306.08C3617.13 2307.56 3617.7 2308.66 3618.6 2309.38 3619.49 2310.09 3620.52 2310.37 3621.68 2310.2 3622.46 2310.08 3623.09 2309.77 3623.57 2309.27 3624.04 2308.76 3624.34 2308.01 3624.48 2307.02L3629.61 2307.13C3629.23 2309.05 3628.42 2310.6 3627.17 2311.76 3625.92 2312.92 3624.25 2313.66 3622.17 2313.96 3618.87 2314.44 3616.27 2313.72 3614.37 2311.79 3612.86 2310.25 3611.92 2308.16 3611.54 2305.53 3611.08 2302.38 3611.54 2299.79 3612.93 2297.77 3614.31 2295.75 3616.26 2294.56 3618.77 2294.19Z" fill="#FFFFFF" fill-rule="evenodd"/><text fill="#000000" fill-opacity="0" font-family="Arial,Arial_MSFontService,sans-serif" font-size="20.04" x="3611.36" y="2311.6">e</text><g clip-path="url(#clip7)"><g clip-path="url(#clip8)"><g clip-path="url(#clip9)"><path d="M27.0834 18.9584 18.9584 18.9584 18.9584 111.042 111.042 111.042 111.042 102.917 27.0834 102.917Z" fill="#475055" transform="matrix(1 0 0 1.00769 3494 2068)"/><path d="M35.2084 47.3959 50.1043 47.3959 50.1043 94.7919 35.2084 94.7919Z" fill="#475055" transform="matrix(1 0 0 1.00769 3494 2068)"/><path d="M55.521 18.9584 70.4168 18.9584 70.4168 94.7919 55.521 94.7919Z" fill="#475055" transform="matrix(1 0 0 1.00769 3494 2068)"/><path d="M75.8335 47.3959 90.7294 47.3959 90.7294 94.7919 75.8335 94.7919Z" fill="#475055" transform="matrix(1 0 0 1.00769 3494 2068)"/><path d="M96.146 70.4168 111.042 70.4168 111.042 94.7919 96.146 94.7919Z" fill="#475055" transform="matrix(1 0 0 1.00769 3494 2068)"/></g></g></g><path d="M3958.87 1775.58C4012.56 1940.8 3953.75 2121.8 3813.2 2223.92L3577.5 1899.5Z" stroke="#FFFFFF" stroke-width="4.58333" stroke-miterlimit="8" fill="#E6E6E6" fill-rule="evenodd"/><path d="M3976.9 1769.72C4028.86 1929.6 3980.46 2105.06 3853.88 2215.7L3871.77 2240.33 3810.86 2220.74 3808.94 2153.84 3826.83 2178.46C3937.38 2079.66 3979.15 1924.89 3933.33 1783.88Z" fill="#2327D0" fill-rule="evenodd"/><path d="M3907.65 2089.07 3916.88 2071.74 3920.84 2073.85 3914.12 2086.46 3919.3 2089.22 3925.55 2077.49 3929.49 2079.58 3923.23 2091.32 3929.6 2094.71 3936.56 2081.65 3940.49 2083.75 3931.02 2101.53Z" fill="#FFFFFF" fill-rule="evenodd"/><text fill="#000000" fill-opacity="0" font-family="Arial,Arial_MSFontService,sans-serif" font-size="29.7893" x="3907.65" y="2097.8">E</text><path d="M3928.61 2062.97C3929.1 2061.93 3929.87 2061.06 3930.91 2060.36L3934.23 2063.68C3933.36 2064.22 3932.77 2064.82 3932.46 2065.48 3932.15 2066.12 3932.07 2066.75 3932.21 2067.36 3932.35 2067.98 3932.83 2068.63 3933.63 2069.33 3934.43 2070.02 3936.31 2071.07 3939.26 2072.47L3944.61 2075.01 3942.44 2079.6 3925.1 2071.37 3927.12 2067.11 3929.59 2068.28C3928.77 2067 3928.31 2065.98 3928.22 2065.22 3928.13 2064.46 3928.26 2063.71 3928.61 2062.97Z" fill="#FFFFFF" fill-rule="evenodd"/><text fill="#000000" fill-opacity="0" font-family="Arial,Arial_MSFontService,sans-serif" font-size="19.2312" x="3925.1" y="2077.19">r</text><path d="M3924.37 2055.87 3926.34 2051.19 3935.31 2054.98C3934.19 2052.73 3934.07 2050.55 3934.95 2048.45 3935.4 2047.38 3936.01 2046.49 3936.78 2045.79 3937.54 2045.1 3938.33 2044.66 3939.14 2044.48 3939.94 2044.31 3940.76 2044.3 3941.58 2044.45 3942.4 2044.61 3943.61 2045.03 3945.19 2045.69L3955.56 2050.07 3953.59 2054.75 3944.25 2050.81C3942.4 2050.03 3941.18 2049.62 3940.61 2049.59 3940.04 2049.55 3939.51 2049.7 3939.02 2050.02 3938.54 2050.35 3938.15 2050.85 3937.87 2051.53 3937.54 2052.3 3937.44 2053.08 3937.56 2053.85 3937.68 2054.62 3938.06 2055.3 3938.7 2055.91 3939.34 2056.51 3940.4 2057.13 3941.89 2057.75L3950.75 2061.49 3948.77 2066.17Z" fill="#FFFFFF" fill-rule="evenodd"/><text fill="#000000" fill-opacity="0" font-family="Arial,Arial_MSFontService,sans-serif" font-size="21.8231" x="3924.37" y="2063.44">h</text><path d="M3945.26 2032.62C3944.88 2033.66 3944.95 2034.66 3945.46 2035.61 3945.98 2036.56 3946.89 2037.27 3948.19 2037.73L3950.78 2030.6C3949.38 2030.13 3948.2 2030.11 3947.24 2030.53 3946.27 2030.95 3945.61 2031.64 3945.26 2032.62ZM3941.51 2031.58C3942.48 2028.9 3944.13 2027.1 3946.47 2026.19 3948.8 2025.28 3951.78 2025.53 3955.42 2026.92L3951.08 2038.88C3952.51 2039.36 3953.75 2039.37 3954.8 2038.92 3955.86 2038.47 3956.58 2037.69 3956.98 2036.6 3957.25 2035.85 3957.28 2035.15 3957.05 2034.49 3956.83 2033.83 3956.31 2033.21 3955.5 2032.62L3958.03 2028.15C3959.55 2029.4 3960.53 2030.84 3960.96 2032.49 3961.39 2034.14 3961.25 2035.96 3960.53 2037.94 3959.39 2041.08 3957.53 2043.03 3954.93 2043.79 3952.86 2044.38 3950.57 2044.23 3948.07 2043.32 3945.08 2042.24 3943.02 2040.61 3941.9 2038.43 3940.77 2036.25 3940.64 2033.97 3941.51 2031.58Z" fill="#FFFFFF" fill-rule="evenodd"/><text fill="#000000" fill-opacity="0" font-family="Arial,Arial_MSFontService,sans-serif" font-size="18.4874" x="3940.94" y="2041.83">e</text><path d="M3952.1 2012.09C3951.74 2013.25 3951.9 2014.35 3952.57 2015.4 3953.24 2016.45 3954.49 2017.26 3956.34 2017.82 3958.24 2018.4 3959.73 2018.53 3960.83 2018.21 3962.37 2017.76 3963.36 2016.84 3963.79 2015.45 3964.11 2014.37 3963.93 2013.32 3963.25 2012.29 3962.56 2011.25 3961.23 2010.44 3959.26 2009.83 3957.17 2009.19 3955.54 2009.11 3954.38 2009.59 3953.22 2010.07 3952.46 2010.9 3952.1 2012.09ZM3939.11 2017.83 3940.59 2012.97 3949.71 2015.76C3948.46 2013.74 3948.15 2011.71 3948.78 2009.66 3949.46 2007.42 3950.83 2005.82 3952.9 2004.85 3954.97 2003.88 3957.51 2003.86 3960.54 2004.78 3963.68 2005.74 3965.86 2007.22 3967.1 2009.23 3968.34 2011.24 3968.63 2013.31 3967.98 2015.44 3967.66 2016.49 3967.08 2017.44 3966.25 2018.3 3965.41 2019.16 3964.37 2019.8 3963.12 2020.23L3965.81 2021.05 3964.44 2025.56Z" fill="#FFFFFF" fill-rule="evenodd"/><text fill="#000000" fill-opacity="0" font-family="Arial,Arial_MSFontService,sans-serif" font-size="21.4551" x="3939.11" y="2022.88">b</text><path d="M3952.34 1999.05 3953.57 1994.12 3962.12 1996.24C3964.74 1996.89 3966.37 1997.2 3967 1997.16 3967.64 1997.13 3968.19 1996.91 3968.65 1996.52 3969.12 1996.13 3969.44 1995.56 3969.62 1994.82 3969.83 1993.98 3969.79 1993.17 3969.49 1992.39 3969.19 1991.61 3968.73 1991.01 3968.11 1990.6 3967.49 1990.18 3965.84 1989.65 3963.18 1988.99L3955.32 1987.04 3956.54 1982.11 3975.16 1986.72 3974.03 1991.3 3971.24 1990.61C3972.07 1991.53 3972.63 1992.62 3972.93 1993.87 3973.23 1995.11 3973.23 1996.35 3972.92 1997.58 3972.61 1998.83 3972.06 1999.88 3971.26 2000.74 3970.47 2001.6 3969.52 2002.13 3968.42 2002.32 3967.31 2002.52 3965.88 2002.4 3964.13 2001.97Z" fill="#FFFFFF" fill-rule="evenodd"/><text fill="#000000" fill-opacity="0" font-family="Arial,Arial_MSFontService,sans-serif" font-size="20.3064" x="3952.34" y="1999.88">u</text><path d="M3959.11 1966.95C3959.32 1965.85 3959.72 1964.88 3960.29 1964.05 3960.86 1963.21 3961.49 1962.62 3962.2 1962.27 3962.9 1961.92 3963.66 1961.73 3964.48 1961.7 3965.3 1961.66 3966.43 1961.79 3967.89 1962.06L3979.6 1964.31 3978.64 1969.29 3969.02 1967.45C3966.99 1967.06 3965.65 1966.92 3965.02 1967.01 3964.38 1967.11 3963.85 1967.37 3963.42 1967.79 3963 1968.2 3962.73 1968.75 3962.6 1969.42 3962.43 1970.28 3962.52 1971.1 3962.86 1971.88 3963.2 1972.66 3963.74 1973.25 3964.47 1973.65 3965.2 1974.06 3966.62 1974.46 3968.73 1974.86L3977.26 1976.5 3976.31 1981.48 3957.46 1977.87 3958.35 1973.24 3961.12 1973.77C3959.3 1971.72 3958.64 1969.45 3959.11 1966.95Z" fill="#FFFFFF" fill-rule="evenodd"/><text fill="#000000" fill-opacity="0" font-family="Arial,Arial_MSFontService,sans-serif" font-size="19.792" x="3957.46" y="1979.01">n</text><path d="M3965.97 1948.77C3965.8 1949.98 3966.14 1951.04 3966.97 1951.95 3967.8 1952.86 3969.17 1953.44 3971.09 1953.7 3973.11 1953.98 3974.64 1953.79 3975.68 1953.14 3976.73 1952.48 3977.33 1951.58 3977.48 1950.44 3977.65 1949.21 3977.31 1948.11 3976.47 1947.13 3975.62 1946.15 3974.26 1945.53 3972.37 1945.27 3970.4 1945 3968.89 1945.21 3967.82 1945.89 3966.76 1946.57 3966.14 1947.53 3965.97 1948.77ZM3961.94 1949.54C3962.27 1947.19 3963.56 1945.39 3965.84 1944.14L3963.17 1943.78 3963.81 1939.07 3980.87 1941.4C3983.11 1941.71 3984.76 1942.12 3985.82 1942.64 3986.88 1943.16 3987.68 1943.8 3988.23 1944.56 3988.77 1945.31 3989.14 1946.27 3989.35 1947.44 3989.55 1948.6 3989.54 1950.04 3989.3 1951.74 3988.86 1954.96 3988 1957.17 3986.71 1958.37 3985.42 1959.57 3983.93 1960.05 3982.24 1959.82 3982.07 1959.8 3981.87 1959.77 3981.63 1959.72L3983.11 1954.07C3983.8 1954.07 3984.29 1953.91 3984.58 1953.6 3985.01 1953.17 3985.29 1952.44 3985.43 1951.41 3985.61 1950.1 3985.55 1949.09 3985.24 1948.38 3985.04 1947.9 3984.66 1947.51 3984.11 1947.2 3983.71 1946.99 3982.95 1946.81 3981.83 1946.66L3979.06 1946.28C3980.9 1948.06 3981.67 1950.1 3981.36 1952.39 3981.01 1954.94 3979.65 1956.82 3977.29 1958.02 3975.42 1958.95 3973.22 1959.25 3970.68 1958.9 3967.49 1958.46 3965.16 1957.36 3963.69 1955.6 3962.21 1953.84 3961.63 1951.82 3961.94 1949.54Z" fill="#FFFFFF" fill-rule="evenodd"/><text fill="#000000" fill-opacity="0" font-family="Arial,Arial_MSFontService,sans-serif" font-size="20.8068" x="3961.86" y="1957.28">g</text><g clip-path="url(#clip10)"><g clip-path="url(#clip11)"><g clip-path="url(#clip12)"><path d="M53.552 7.07291C53.552 8.74702 52.1949 10.1042 50.5208 10.1042 48.8467 10.1042 47.4896 8.74702 47.4896 7.07291 47.4896 5.3988 48.8467 4.04166 50.5208 4.04166 52.1949 4.04166 53.552 5.3988 53.552 7.07291Z" fill="#475055" transform="matrix(1 0 0 1 3751 1898)"/><path d="M58.6041 16.1667C58.6041 17.8408 57.247 19.1979 55.5729 19.1979 53.8988 19.1979 52.5416 17.8408 52.5416 16.1667 52.5416 14.4925 53.8988 13.1354 55.5729 13.1354 57.247 13.1354 58.6041 14.4925 58.6041 16.1667Z" fill="#475055" transform="matrix(1 0 0 1 3751 1898)"/><path d="M47.4896 14.1458C47.4896 15.8199 46.1324 17.1771 44.4583 17.1771 42.7842 17.1771 41.4271 15.8199 41.4271 14.1458 41.4271 12.4717 42.7842 11.1146 44.4583 11.1146 46.1324 11.1146 47.4896 12.4717 47.4896 14.1458Z" fill="#475055" transform="matrix(1 0 0 1 3751 1898)"/><path d="M50.5208 25.2604C50.5208 27.4925 48.7113 29.3021 46.4791 29.3021 44.247 29.3021 42.4375 27.4925 42.4375 25.2604 42.4375 23.0283 44.247 21.2187 46.4791 21.2187 48.7113 21.2187 50.5208 23.0283 50.5208 25.2604Z" fill="#475055" transform="matrix(1 0 0 1 3751 1898)"/><path d="M68.2031 84.4708 56.5833 58.2 56.5833 40.4166C56.5833 36.7791 59.5135 35.2635 59.6145 35.1625 60.625 34.6573 61.0291 33.4448 60.5239 32.4344 60.1198 31.7271 59.4125 31.3229 58.6041 31.3229L58.6041 31.3229 38.3958 31.3229 38.3958 31.3229C37.5875 31.3229 36.8802 31.7271 36.476 32.4344 35.9708 33.4448 36.375 34.6573 37.3854 35.1625 37.3854 35.1625 40.4166 36.7791 40.4166 40.4166L40.4166 58.2 28.7969 84.4708C27.9885 86.3906 28.1906 88.5124 29.3021 90.2302 30.4135 91.9479 32.3333 92.9583 34.3541 92.9583L62.6458 92.9583C64.6666 92.9583 66.5864 91.9479 67.6979 90.2302 68.8093 88.5124 69.0114 86.3906 68.2031 84.4708ZM52.5416 40.4166 52.5416 44.4583 44.4583 44.4583 44.4583 40.4166C44.4583 38.2948 43.8521 36.6781 43.1448 35.3646L53.9562 35.3646C53.1479 36.6781 52.5416 38.2948 52.5416 40.4166Z" fill="#475055" transform="matrix(1 0 0 1 3751 1898)"/></g></g></g><g clip-path="url(#clip13)"><g clip-path="url(#clip14)"><g clip-path="url(#clip15)"><path d="M28.4437 132.056C29.8584 134.783 32.5657 136.599 35.625 136.875L69.3749 136.875 69.3749 151.875 35.625 151.875C27.0753 151.719 19.2542 147.027 15.0937 139.556 11.1081 132.346 11.4548 123.519 15.9937 116.644L35.4937 82.8936 22.6312 75.3937 54.0187 66.9937 62.4187 98.3811 48.7499 90.5249 29.175 124.462C27.5043 126.647 27.2208 129.592 28.4437 132.056Z" fill="#475055" transform="matrix(1 0 0 1 3709 1871)"/><path d="M54.9749 54.6374 70.6687 25.3312C74.7854 17.9247 82.6137 13.3528 91.0874 13.4062 99.3259 13.5752 106.792 18.2973 110.475 25.6687L129.975 59.4187 142.837 51.9187 134.437 83.3999 103.125 74.9999 116.775 67.1062 97.1061 33.15C96.0379 30.614 93.6273 28.9003 90.8811 28.725 87.9893 28.8682 85.3718 30.4813 83.9436 33L68.2312 62.3062Z" fill="#475055" transform="matrix(1 0 0 1 3709 1871)"/><path d="M164.231 141.056C160.131 147.935 152.643 152.07 144.637 151.875L105 151.875 105 166.875 81.9561 143.437 105 120.637 105 136.875 144.131 136.875C146.943 137.062 149.623 135.657 151.069 133.237 152.468 130.677 152.382 127.561 150.844 125.081L133.687 95.8311 146.944 88.1249 164.119 117.356C165.087 119.06 165.848 120.872 166.387 122.756L166.706 123.994C168.124 129.787 167.236 135.904 164.231 141.056Z" fill="#475055" transform="matrix(1 0 0 1 3709 1871)"/></g></g></g><path d="M3570.5 1477.5C3744.22 1477.5 3898.19 1589.36 3951.87 1754.58L3570.5 1878.5Z" stroke="#FFFFFF" stroke-width="4.58333" stroke-miterlimit="8" fill="#E6E6E6" fill-rule="evenodd"/><path d="M3570.54 1457.54C3738.68 1457.55 3890.61 1557.98 3956.68 1712.78L3985.63 1703.38 3948.16 1755.28 3883.97 1736.41 3912.91 1727.01C3853.14 1591.1 3718.84 1503.37 3570.54 1503.36Z" fill="#2327D0" fill-rule="evenodd"/><path d="M3758.38 1515.31 3754.88 1521.96 3757.47 1523.32C3759.33 1524.3 3760.64 1524.83 3761.4 1524.92 3762.16 1525.01 3762.85 1524.88 3763.49 1524.55 3764.12 1524.21 3764.62 1523.7 3764.98 1523.01 3765.43 1522.15 3765.55 1521.32 3765.34 1520.5 3765.13 1519.68 3764.68 1519 3763.98 1518.46 3763.47 1518.06 3762.37 1517.41 3760.66 1516.51ZM3755.73 1508.85 3763.32 1512.85C3766.2 1514.36 3768.02 1515.46 3768.77 1516.16 3769.92 1517.22 3770.65 1518.57 3770.93 1520.23 3771.22 1521.88 3770.87 1523.64 3769.89 1525.51 3769.13 1526.95 3768.24 1528.02 3767.2 1528.73 3766.16 1529.43 3765.09 1529.85 3763.99 1529.99 3762.89 1530.12 3761.88 1530.06 3760.95 1529.81 3759.7 1529.44 3758.01 1528.69 3755.87 1527.56L3752.78 1525.94 3748.13 1534.78 3743.4 1532.29Z" fill="#FFFFFF" fill-rule="evenodd"/><text fill="#000000" fill-opacity="0" font-family="Arial,Arial_MSFontService,sans-serif" font-size="25.9292" x="3743.4" y="1531.54">P</text><path d="M3778.07 1520.92 3782.46 1523.47 3769.16 1546.37 3764.77 1543.82Z" fill="#FFFFFF" fill-rule="evenodd"/><text fill="#000000" fill-opacity="0" font-family="Arial,Arial_MSFontService,sans-serif" font-size="25.4526" x="3764.77" y="1543.19">l</text><path d="M3787.33 1546.72C3786.66 1546.56 3785.65 1546.23 3784.3 1545.73 3782.95 1545.23 3782.01 1544.99 3781.49 1545 3780.68 1545.05 3780.08 1545.38 3779.69 1545.99 3779.32 1546.59 3779.21 1547.25 3779.38 1547.97 3779.55 1548.69 3779.99 1549.27 3780.68 1549.71 3781.45 1550.19 3782.35 1550.41 3783.38 1550.34 3784.14 1550.28 3784.78 1550.02 3785.3 1549.57 3785.64 1549.27 3786.14 1548.61 3786.79 1547.58ZM3790.27 1536.28C3792.18 1537.48 3793.47 1538.61 3794.12 1539.66 3794.77 1540.7 3795.06 1541.69 3795.01 1542.63 3794.95 1543.57 3794.33 1544.97 3793.15 1546.84L3789.94 1551.82C3789.04 1553.24 3788.45 1554.34 3788.16 1555.1 3787.87 1555.87 3787.67 1556.75 3787.56 1557.77L3783.31 1555.08C3783.38 1554.73 3783.51 1554.22 3783.7 1553.56 3783.79 1553.26 3783.84 1553.06 3783.86 1552.96 3782.68 1553.21 3781.56 1553.24 3780.5 1553.07 3779.44 1552.9 3778.43 1552.52 3777.49 1551.92 3775.82 1550.87 3774.79 1549.58 3774.4 1548.07 3774.01 1546.55 3774.25 1545.1 3775.12 1543.72 3775.7 1542.8 3776.44 1542.12 3777.33 1541.68 3778.22 1541.24 3779.18 1541.08 3780.21 1541.19 3781.24 1541.31 3782.59 1541.7 3784.26 1542.35 3786.5 1543.24 3788.11 1543.77 3789.09 1543.93L3789.36 1543.5C3789.88 1542.68 3790.05 1541.96 3789.86 1541.35 3789.68 1540.74 3789.02 1540.08 3787.89 1539.37 3787.13 1538.88 3786.44 1538.66 3785.82 1538.69 3785.2 1538.72 3784.52 1539.03 3783.78 1539.61L3780.33 1536.45C3781.76 1535.16 3783.24 1534.48 3784.79 1534.4 3786.34 1534.32 3788.16 1534.94 3790.27 1536.28Z" fill="#FFFFFF" fill-rule="evenodd"/><text fill="#000000" fill-opacity="0" font-family="Arial,Arial_MSFontService,sans-serif" font-size="23.3754" x="3774.22" y="1554.84">a</text><path d="M3810.82 1550.08C3811.74 1550.72 3812.46 1551.48 3812.98 1552.34 3813.51 1553.21 3813.78 1554.03 3813.81 1554.82 3813.84 1555.6 3813.7 1556.37 3813.39 1557.13 3813.09 1557.89 3812.51 1558.87 3811.65 1560.08L3804.78 1569.82 3800.63 1566.9 3806.28 1558.9C3807.47 1557.2 3808.16 1556.05 3808.33 1555.42 3808.5 1554.8 3808.49 1554.21 3808.28 1553.66 3808.08 1553.1 3807.7 1552.62 3807.14 1552.23 3806.42 1551.72 3805.63 1551.46 3804.79 1551.45 3803.94 1551.44 3803.18 1551.69 3802.51 1552.19 3801.84 1552.69 3800.88 1553.82 3799.65 1555.57L3794.64 1562.67 3790.49 1559.74 3801.55 1544.06 3805.41 1546.78 3803.78 1549.09C3806.4 1548.28 3808.75 1548.61 3810.82 1550.08Z" fill="#FFFFFF" fill-rule="evenodd"/><text fill="#000000" fill-opacity="0" font-family="Arial,Arial_MSFontService,sans-serif" font-size="25.7599" x="3790.49" y="1566.6">n</text><path d="M3820.18 1557.4 3824.16 1560.54 3818.7 1567.46C3817.03 1569.58 3816.08 1570.93 3815.85 1571.53 3815.62 1572.12 3815.59 1572.71 3815.75 1573.29 3815.92 1573.88 3816.3 1574.41 3816.9 1574.88 3817.58 1575.41 3818.34 1575.71 3819.17 1575.76 3820 1575.81 3820.74 1575.64 3821.37 1575.24 3822.01 1574.85 3823.18 1573.57 3824.88 1571.42L3829.89 1565.06 3833.88 1568.21 3821.99 1583.27 3818.29 1580.35 3820.07 1578.09C3818.89 1578.46 3817.67 1578.53 3816.41 1578.29 3815.15 1578.04 3814.02 1577.53 3813.03 1576.75 3812.02 1575.95 3811.28 1575.01 3810.83 1573.93 3810.38 1572.85 3810.29 1571.77 3810.56 1570.68 3810.84 1569.6 3811.54 1568.34 3812.66 1566.93Z" fill="#FFFFFF" fill-rule="evenodd"/><text fill="#000000" fill-opacity="0" font-family="Arial,Arial_MSFontService,sans-serif" font-size="25.873" x="3810.41" y="1580.03">u</text><path d="M3846.75 1578.76C3847.59 1579.5 3848.22 1580.33 3848.65 1581.25 3849.08 1582.16 3849.27 1583.01 3849.21 1583.8 3849.16 1584.58 3848.93 1585.33 3848.55 1586.05 3848.16 1586.77 3847.48 1587.69 3846.5 1588.8L3838.63 1597.75 3834.82 1594.4 3841.28 1587.05C3842.65 1585.49 3843.46 1584.42 3843.7 1583.82 3843.94 1583.22 3843.98 1582.63 3843.84 1582.05 3843.7 1581.48 3843.37 1580.96 3842.85 1580.51 3842.19 1579.93 3841.44 1579.59 3840.6 1579.49 3839.75 1579.39 3838.97 1579.55 3838.25 1579.98 3837.53 1580.4 3836.47 1581.42 3835.05 1583.03L3829.31 1589.55 3825.5 1586.2 3838.17 1571.8 3841.71 1574.91 3839.85 1577.03C3842.54 1576.51 3844.84 1577.08 3846.75 1578.76Z" fill="#FFFFFF" fill-rule="evenodd"/><text fill="#000000" fill-opacity="0" font-family="Arial,Arial_MSFontService,sans-serif" font-size="25.9568" x="3825.5" y="1594.51">n</text><path d="M3858.83 1595.36C3857.96 1594.51 3856.91 1594.14 3855.69 1594.27 3854.46 1594.39 3853.17 1595.15 3851.81 1596.53 3850.39 1597.98 3849.63 1599.33 3849.53 1600.55 3849.43 1601.78 3849.79 1602.8 3850.62 1603.61 3851.51 1604.48 3852.59 1604.86 3853.88 1604.77 3855.17 1604.67 3856.48 1603.95 3857.82 1602.59 3859.21 1601.17 3859.95 1599.83 3860.04 1598.57 3860.12 1597.31 3859.72 1596.24 3858.83 1595.36ZM3860.62 1591.67C3862.31 1593.33 3862.98 1595.45 3862.62 1598.02L3864.51 1596.09 3867.9 1599.42 3855.85 1611.72C3854.27 1613.33 3852.95 1614.41 3851.9 1614.95 3850.85 1615.49 3849.86 1615.75 3848.93 1615.74 3848 1615.72 3847.01 1615.45 3845.95 1614.92 3844.9 1614.39 3843.75 1613.52 3842.52 1612.31 3840.2 1610.04 3838.94 1608.03 3838.75 1606.28 3838.56 1604.53 3839.06 1603.05 3840.25 1601.82 3840.37 1601.7 3840.52 1601.56 3840.7 1601.4L3844.35 1605.96C3843.94 1606.51 3843.78 1607 3843.85 1607.42 3843.94 1608.02 3844.36 1608.68 3845.1 1609.4 3846.04 1610.33 3846.89 1610.88 3847.64 1611.06 3848.15 1611.18 3848.69 1611.11 3849.26 1610.85 3849.67 1610.66 3850.27 1610.16 3851.06 1609.35L3853.02 1607.35C3850.49 1607.77 3848.4 1607.17 3846.74 1605.55 3844.9 1603.75 3844.21 1601.54 3844.66 1598.93 3845.02 1596.87 3846.1 1594.93 3847.89 1593.1 3850.14 1590.8 3852.42 1589.58 3854.71 1589.45 3857 1589.32 3858.97 1590.06 3860.62 1591.67Z" fill="#FFFFFF" fill-rule="evenodd"/><text fill="#000000" fill-opacity="0" font-family="Arial,Arial_MSFontService,sans-serif" font-size="26.2966" x="3838.71" y="1612.45">g</text><g clip-path="url(#clip16)"><g clip-path="url(#clip17)"><g clip-path="url(#clip18)"><path d="M27.0833 18.9583 18.9583 18.9583 18.9583 111.042 111.042 111.042 111.042 102.917 27.0833 102.917 27.0833 18.9583Z" fill="#475055" transform="matrix(1 0 0 1.00769 3654 1625)"/><path d="M96.1458 86.6666 108.333 86.6666 108.333 94.7916 96.1458 94.7916Z" fill="#475055" transform="matrix(1 0 0 1.00769 3654 1625)"/><path d="M85.3125 73.125 98.8541 73.125 98.8541 81.25 85.3125 81.25Z" fill="#475055" transform="matrix(1 0 0 1.00769 3654 1625)"/><path d="M65 59.5833 92.0833 59.5833 92.0833 67.7083 65 67.7083Z" fill="#475055" transform="matrix(1 0 0 1.00769 3654 1625)"/><path d="M50.1041 46.0416 96.1458 46.0416 96.1458 54.1666 50.1041 54.1666Z" fill="#475055" transform="matrix(1 0 0 1.00769 3654 1625)"/><path d="M35.2083 32.5 62.2916 32.5 62.2916 40.625 35.2083 40.625Z" fill="#475055" transform="matrix(1 0 0 1.00769 3654 1625)"/></g></g></g></g></svg>