<svg width="1168" height="1168" xmlns="http://www.w3.org/2000/svg" xmlns:xlink="http://www.w3.org/1999/xlink" overflow="hidden"><defs><clipPath id="clip0"><rect x="2256" y="190" width="1168" height="1168"/></clipPath><clipPath id="clip1"><rect x="2627" y="499" width="132" height="132"/></clipPath><clipPath id="clip2"><rect x="2636" y="506" width="118" height="119"/></clipPath><clipPath id="clip3"><rect x="2636" y="506" width="118" height="119"/></clipPath><clipPath id="clip4"><rect x="2515" y="782" width="132" height="131"/></clipPath><clipPath id="clip5"><rect x="2515" y="782" width="132" height="131"/></clipPath><clipPath id="clip6"><rect x="2515" y="782" width="132" height="131"/></clipPath><clipPath id="clip7"><rect x="2773" y="941" width="130" height="132"/></clipPath><clipPath id="clip8"><rect x="2773" y="941" width="130" height="132"/></clipPath><clipPath id="clip9"><rect x="2773" y="941" width="130" height="132"/></clipPath><clipPath id="clip10"><rect x="3029" y="772" width="99" height="97"/></clipPath><clipPath id="clip11"><rect x="3029" y="772" width="99" height="97"/></clipPath><clipPath id="clip12"><rect x="3029" y="772" width="99" height="97"/></clipPath><clipPath id="clip13"><rect x="2987" y="744" width="181" height="182"/></clipPath><clipPath id="clip14"><rect x="2987" y="744" width="181" height="182"/></clipPath><clipPath id="clip15"><rect x="2987" y="744" width="181" height="182"/></clipPath><clipPath id="clip16"><rect x="2931" y="499" width="133" height="132"/></clipPath><clipPath id="clip17"><rect x="2931" y="499" width="133" height="132"/></clipPath><clipPath id="clip18"><rect x="2931" y="499" width="133" height="132"/></clipPath></defs><g clip-path="url(#clip0)" transform="translate(-2256 -190)"><path d="M2446.13 628.584C2499.81 463.363 2653.78 351.5 2827.5 351.5L2827.5 752.5Z" stroke="#FFFFFF" stroke-width="4.58333" stroke-miterlimit="8" fill="#E6E6E6" fill-rule="evenodd"/><path d="M2427.1 622.712C2479.04 462.862 2621.29 349.378 2788.69 334.246L2788.69 303.804 2826.46 355.447 2788.7 410.699 2788.69 380.27C2641.21 395.249 2516.48 495.889 2470.67 636.871Z" fill="#2327D0" fill-rule="evenodd"/><path d="M2532.01 463.988 2546.06 450.633 2548.92 453.645 2550.71 476.591 2561.64 466.211 2564.71 469.446 2549.11 484.269 2545.79 480.772 2544.04 458.735 2535.09 467.236Z" fill="#FFFFFF" fill-rule="evenodd"/><text fill="#000000" fill-opacity="0" font-family="Arial,Arial_MSFontService,sans-serif" font-size="33.6354" x="2532.01" y="480.064">Z</text><path d="M2554.21 453.163 2558.07 449.867 2563.8 456.574C2565.55 458.626 2566.69 459.823 2567.23 460.164 2567.77 460.506 2568.34 460.651 2568.94 460.601 2569.55 460.551 2570.14 460.279 2570.72 459.787 2571.38 459.224 2571.82 458.538 2572.03 457.731 2572.24 456.923 2572.22 456.169 2571.95 455.469 2571.69 454.769 2570.66 453.375 2568.88 451.286L2563.63 445.129 2567.49 441.834 2579.94 456.428 2576.36 459.489 2574.49 457.304C2574.62 458.536 2574.45 459.746 2573.97 460.934 2573.48 462.122 2572.76 463.126 2571.8 463.947 2570.82 464.784 2569.76 465.319 2568.61 465.553 2567.46 465.787 2566.38 465.663 2565.37 465.182 2564.36 464.7 2563.27 463.772 2562.09 462.398Z" fill="#FFFFFF" fill-rule="evenodd"/><text fill="#000000" fill-opacity="0" font-family="Arial,Arial_MSFontService,sans-serif" font-size="23.834" x="2554.21" y="462.689">u</text><path d="M2580.53 436.023C2579.56 436.762 2579.05 437.747 2579 438.977 2578.95 440.207 2579.51 441.593 2580.69 443.133 2581.93 444.749 2583.15 445.694 2584.35 445.965 2585.55 446.237 2586.61 446.022 2587.53 445.319 2588.51 444.565 2589.05 443.544 2589.14 442.254 2589.23 440.964 2588.7 439.564 2587.54 438.052 2586.33 436.474 2585.11 435.551 2583.87 435.283 2582.64 435.015 2581.52 435.262 2580.53 436.023ZM2577.13 433.728C2579.02 432.287 2581.21 431.925 2583.7 432.643L2582.06 430.505 2585.84 427.618 2596.3 441.294C2597.67 443.092 2598.55 444.55 2598.94 445.666 2599.32 446.783 2599.44 447.799 2599.29 448.716 2599.14 449.633 2598.73 450.577 2598.06 451.548 2597.38 452.519 2596.36 453.528 2594.99 454.575 2592.41 456.55 2590.24 457.509 2588.48 457.451 2586.72 457.393 2585.32 456.685 2584.28 455.327 2584.18 455.193 2584.06 455.026 2583.93 454.828L2588.96 451.864C2589.45 452.341 2589.91 452.574 2590.34 452.563 2590.94 452.557 2591.65 452.239 2592.47 451.61 2593.53 450.805 2594.19 450.044 2594.48 449.325 2594.67 448.844 2594.68 448.3 2594.5 447.692 2594.37 447.262 2593.96 446.597 2593.27 445.698L2591.57 443.474C2591.63 446.041 2590.73 448.028 2588.9 449.433 2586.85 450.999 2584.57 451.373 2582.05 450.556 2580.06 449.905 2578.29 448.561 2576.73 446.524 2574.78 443.969 2573.9 441.548 2574.1 439.258 2574.3 436.969 2575.31 435.126 2577.13 433.728Z" fill="#FFFFFF" fill-rule="evenodd"/><text fill="#000000" fill-opacity="0" font-family="Arial,Arial_MSFontService,sans-serif" font-size="29.8353" x="2574.07" y="453.724">g</text><path d="M2604.58 426.723C2604.17 427.27 2603.46 428.067 2602.47 429.112 2601.48 430.158 2600.89 430.923 2600.69 431.406 2600.41 432.169 2600.48 432.848 2600.89 433.443 2601.29 434.029 2601.86 434.386 2602.59 434.513 2603.32 434.64 2604.02 434.472 2604.69 434.008 2605.45 433.49 2606 432.748 2606.34 431.781 2606.59 431.056 2606.61 430.366 2606.39 429.711 2606.25 429.278 2605.84 428.56 2605.15 427.558ZM2596.14 419.892C2598.01 418.611 2599.55 417.878 2600.77 417.692 2601.99 417.507 2603.01 417.627 2603.85 418.051 2604.69 418.476 2605.74 419.597 2606.98 421.414L2610.29 426.33C2611.25 427.721 2612.02 428.7 2612.6 429.268 2613.19 429.836 2613.93 430.372 2614.81 430.874L2610.67 433.717C2610.37 433.514 2609.96 433.193 2609.42 432.756 2609.18 432.556 2609.02 432.426 2608.94 432.367 2608.7 433.553 2608.29 434.599 2607.72 435.506 2607.14 436.412 2606.39 437.182 2605.47 437.816 2603.84 438.934 2602.25 439.373 2600.71 439.133 2599.16 438.894 2597.93 438.099 2597 436.748 2596.39 435.855 2596.05 434.911 2596 433.918 2595.94 432.925 2596.18 431.978 2596.69 431.077 2597.2 430.177 2598.09 429.09 2599.35 427.817 2601.05 426.106 2602.17 424.833 2602.71 423.998L2602.42 423.581C2601.87 422.776 2601.28 422.339 2600.65 422.269 2600.01 422.199 2599.15 422.543 2598.04 423.299 2597.3 423.81 2596.82 424.356 2596.6 424.935 2596.39 425.514 2596.4 426.26 2596.65 427.172L2592.38 429.094C2591.76 427.271 2591.72 425.635 2592.25 424.184 2592.79 422.734 2594.09 421.303 2596.14 419.892Z" fill="#FFFFFF" fill-rule="evenodd"/><text fill="#000000" fill-opacity="0" font-family="Arial,Arial_MSFontService,sans-serif" font-size="21.589" x="2591.88" y="436.498">a</text><path d="M2616.94 406.462C2617.89 405.876 2618.87 405.513 2619.87 405.372 2620.88 405.231 2621.74 405.303 2622.48 405.589 2623.21 405.874 2623.86 406.306 2624.44 406.887 2625.01 407.467 2625.69 408.388 2626.46 409.651L2632.69 419.815 2628.37 422.47 2623.25 414.122C2622.16 412.356 2621.37 411.271 2620.87 410.866 2620.37 410.46 2619.82 410.242 2619.23 410.209 2618.63 410.177 2618.05 410.34 2617.46 410.699 2616.71 411.158 2616.16 411.776 2615.82 412.552 2615.48 413.328 2615.4 414.122 2615.6 414.935 2615.79 415.748 2616.45 417.069 2617.57 418.896L2622.11 426.304 2617.79 428.958 2607.76 412.602 2611.78 410.137 2613.25 412.54C2613.54 409.817 2614.77 407.791 2616.94 406.462Z" fill="#FFFFFF" fill-rule="evenodd"/><text fill="#000000" fill-opacity="0" font-family="Arial,Arial_MSFontService,sans-serif" font-size="23.6558" x="2607.76" y="426.001">n</text><path d="M2636.36 399.807C2635.29 400.387 2634.63 401.28 2634.39 402.487 2634.15 403.695 2634.49 405.151 2635.41 406.855 2636.38 408.645 2637.44 409.767 2638.58 410.223 2639.73 410.678 2640.81 410.63 2641.82 410.08 2642.91 409.488 2643.6 408.563 2643.89 407.303 2644.18 406.043 2643.87 404.577 2642.97 402.904 2642.02 401.156 2640.96 400.054 2639.78 399.597 2638.6 399.14 2637.46 399.21 2636.36 399.807ZM2633.36 397.012C2635.45 395.881 2637.67 395.865 2640.02 396.962L2638.73 394.596 2642.91 392.332 2651.11 407.469C2652.19 409.46 2652.83 411.037 2653.04 412.199 2653.25 413.362 2653.2 414.385 2652.91 415.267 2652.63 416.15 2652.07 417.018 2651.25 417.872 2650.44 418.727 2649.27 419.564 2647.76 420.385 2644.9 421.934 2642.6 422.543 2640.88 422.212 2639.15 421.881 2637.88 420.964 2637.06 419.46 2636.98 419.312 2636.89 419.129 2636.79 418.912L2642.22 416.768C2642.63 417.315 2643.04 417.617 2643.47 417.673 2644.07 417.761 2644.82 417.558 2645.73 417.064 2646.9 416.433 2647.67 415.785 2648.07 415.12 2648.33 414.675 2648.43 414.138 2648.35 413.51 2648.28 413.065 2647.98 412.345 2647.44 411.349L2646.11 408.887C2645.76 411.432 2644.57 413.255 2642.54 414.357 2640.27 415.585 2637.96 415.599 2635.59 414.4 2633.74 413.448 2632.2 411.844 2630.97 409.589 2629.44 406.761 2628.95 404.232 2629.5 402.002 2630.05 399.771 2631.34 398.108 2633.36 397.012Z" fill="#FFFFFF" fill-rule="evenodd"/><text fill="#000000" fill-opacity="0" font-family="Arial,Arial_MSFontService,sans-serif" font-size="29.968" x="2629.28" y="418.554">g</text><g clip-path="url(#clip1)"><g clip-path="url(#clip2)"><g clip-path="url(#clip3)"><path d="M88.2813 3.29583C72.5083 3.29583 59.8743 16.0083 59.8743 31.7028L59.8743 63.3271 67.8 63.3271 67.8 31.7028C67.8 20.3243 76.9813 11.1431 88.3597 11.1431 99.7382 11.1431 108.919 20.3243 108.919 31.7028L108.919 53.5181 116.845 53.5181 116.845 31.7028C116.688 15.9299 104.054 3.29583 88.2813 3.29583Z" fill="#475055" fill-rule="evenodd" transform="matrix(1.00001 0 0 1 2633.88 508.734)"/><path d="M72.4299 58.4618 6.04236 58.4618C5.80694 58.4618 5.65 58.6188 5.65 58.8542L5.65 110.097C5.65 110.332 5.80694 110.489 6.04236 110.489L72.4299 110.489C72.6653 110.489 72.8222 110.332 72.8222 110.097L72.8222 58.8542C72.8222 58.6972 72.6653 58.4618 72.4299 58.4618ZM30.6826 99.2674 34.2924 88.909 34.2924 88.909C32.1736 87.7319 30.6826 85.5347 30.6826 82.8667 30.6826 79.1 33.7431 76.0396 37.5097 76.0396 41.2764 76.0396 44.3368 79.1 44.3368 82.8667 44.3368 85.3778 42.9243 87.575 40.884 88.7521 40.8056 88.7521 40.8056 88.8306 40.7271 88.8306L40.884 88.8306 44.4938 99.1889 30.6826 99.1889Z" fill="#475055" fill-rule="evenodd" transform="matrix(1.00001 0 0 1 2633.88 508.734)"/><path d="M31.7028 81.0618 31.7028 81.1403 31.5458 81.1403C31.6243 81.1403 31.6243 81.0618 31.7028 81.0618Z" fill="#475055" fill-rule="evenodd" transform="matrix(1.00001 0 0 1 2636.21 506.772)"/></g></g></g><path d="M2584.8 1098.92C2444.25 996.804 2385.44 815.806 2439.13 650.585L2820.5 774.5Z" stroke="#FFFFFF" stroke-width="4.58333" stroke-miterlimit="8" fill="#E6E6E6" fill-rule="evenodd"/><path d="M2572.68 1113.27C2436.67 1014.47 2372.68 844.077 2410.04 680.168L2381.09 670.761 2441.88 650.798 2482.75 703.795 2453.81 694.391C2422.46 839.308 2479.65 989.066 2599.61 1076.21Z" fill="#2327D0" fill-rule="evenodd"/><path d="M2433.22 798.563 2423.16 795.722 2423.69 802.929ZM2439.18 795.349 2439.6 800.989 2413.97 813.522 2413.54 807.721 2419.37 804.97 2418.58 794.412 2412.42 792.677 2412 787.019Z" fill="#FFFFFF" fill-rule="evenodd"/><text fill="#000000" fill-opacity="0" font-family="Arial,Arial_MSFontService,sans-serif" font-size="26.503" x="2412" y="810.21">A</text><path d="M2435.02 822.688C2435.16 823.836 2434.98 824.98 2434.47 826.123L2429.89 825.104C2430.33 824.188 2430.51 823.365 2430.42 822.636 2430.33 821.931 2430.07 821.357 2429.62 820.915 2429.17 820.472 2428.42 820.174 2427.37 820.018 2426.32 819.862 2424.17 819.984 2420.93 820.384L2415.05 821.109 2414.43 816.071 2433.47 813.722 2434.05 818.402 2431.34 818.736C2432.72 819.379 2433.65 819.995 2434.14 820.585 2434.62 821.174 2434.92 821.875 2435.02 822.688Z" fill="#FFFFFF" fill-rule="evenodd"/><text fill="#000000" fill-opacity="0" font-family="Arial,Arial_MSFontService,sans-serif" font-size="12.4004" x="2414.43" y="824.573">r</text><path d="M2437 835.663C2437.38 837.968 2437.19 839.883 2436.42 841.408 2435.65 842.933 2434.3 844.162 2432.37 845.093L2430.66 840.304C2431.62 839.974 2432.3 839.474 2432.7 838.803 2433.1 838.132 2433.22 837.327 2433.07 836.388 2432.86 835.141 2432.27 834.217 2431.28 833.617 2430.3 833.018 2428.79 832.886 2426.77 833.221 2424.53 833.594 2423 834.235 2422.2 835.144 2421.4 836.052 2421.11 837.142 2421.32 838.413 2421.48 839.364 2421.88 840.097 2422.52 840.613 2423.16 841.129 2424.16 841.403 2425.52 841.433L2425.5 846.491C2423.16 846.355 2421.29 845.658 2419.89 844.4 2418.5 843.142 2417.6 841.295 2417.2 838.859 2416.74 836.091 2417.24 833.739 2418.72 831.803 2420.19 829.868 2422.47 828.643 2425.56 828.13 2428.69 827.611 2431.26 828.033 2433.27 829.395 2435.29 830.758 2436.53 832.847 2437 835.663Z" fill="#FFFFFF" fill-rule="evenodd"/><text fill="#000000" fill-opacity="0" font-family="Arial,Arial_MSFontService,sans-serif" font-size="18.5759" x="2417.03" y="844.169">c</text><path d="M2445.73 845.812 2446.82 850.77 2437.31 852.858C2439.53 854.047 2440.88 855.754 2441.37 857.977 2441.62 859.118 2441.64 860.194 2441.41 861.205 2441.19 862.215 2440.8 863.025 2440.25 863.635 2439.69 864.244 2439.03 864.722 2438.27 865.068 2437.5 865.414 2436.28 865.772 2434.6 866.141L2423.61 868.554 2422.52 863.595 2432.42 861.422C2434.38 860.991 2435.61 860.623 2436.1 860.319 2436.58 860.014 2436.93 859.59 2437.14 859.045 2437.35 858.5 2437.37 857.869 2437.21 857.151 2437.03 856.328 2436.67 855.636 2436.13 855.077 2435.59 854.518 2434.88 854.177 2434.01 854.054 2433.14 853.93 2431.91 854.042 2430.34 854.388L2420.95 856.448 2419.86 851.49Z" fill="#FFFFFF" fill-rule="evenodd"/><text fill="#000000" fill-opacity="0" font-family="Arial,Arial_MSFontService,sans-serif" font-size="22.742" x="2419.86" y="865.711">h</text><path d="M2443.5 868.721 2444.78 873.633 2426.22 878.476 2424.94 873.563ZM2450.56 866.878 2451.85 871.791 2447.3 872.976 2446.02 868.064Z" fill="#FFFFFF" fill-rule="evenodd"/><text fill="#000000" fill-opacity="0" font-family="Arial,Arial_MSFontService,sans-serif" font-size="11.5975" x="2424.94" y="877.026">i</text><path d="M2445.28 875.927 2446.82 881.031 2438.48 887.312 2435.65 889.257C2436.53 889.283 2437.1 889.292 2437.38 889.285 2437.94 889.29 2438.52 889.307 2439.09 889.336L2449.52 890.01 2451.02 895.01 2430.45 893.236 2429.14 888.859Z" fill="#FFFFFF" fill-rule="evenodd"/><text fill="#000000" fill-opacity="0" font-family="Arial,Arial_MSFontService,sans-serif" font-size="19.0825" x="2429.14" y="892.624">v</text><path d="M2451.98 897.557 2453.62 902.361 2435.47 908.565 2433.83 903.761ZM2458.89 895.197 2460.53 900.001 2456.09 901.52 2454.44 896.716Z" fill="#FFFFFF" fill-rule="evenodd"/><text fill="#000000" fill-opacity="0" font-family="Arial,Arial_MSFontService,sans-serif" font-size="13.3678" x="2433.83" y="906.894">i</text><path d="M2454.68 915.261C2454.28 914.226 2453.58 913.516 2452.57 913.13 2451.55 912.745 2450.4 912.805 2449.11 913.313L2451.83 920.397C2453.19 919.837 2454.1 919.083 2454.55 918.134 2455.01 917.186 2455.05 916.228 2454.68 915.261ZM2458.2 913.583C2459.22 916.248 2459.15 918.688 2457.98 920.904 2456.81 923.12 2454.39 924.89 2450.74 926.216L2446.18 914.341C2444.79 914.914 2443.84 915.716 2443.34 916.747 2442.84 917.778 2442.8 918.838 2443.22 919.929 2443.5 920.671 2443.94 921.218 2444.54 921.569 2445.14 921.919 2445.94 922.051 2446.94 921.965L2447.96 926.992C2445.99 927.049 2444.31 926.596 2442.9 925.634 2441.49 924.671 2440.41 923.205 2439.65 921.238 2438.46 918.123 2438.59 915.427 2440.05 913.151 2441.23 911.344 2443.06 909.964 2445.55 909.011 2448.52 907.872 2451.14 907.756 2453.42 908.663 2455.69 909.57 2457.29 911.21 2458.2 913.583Z" fill="#FFFFFF" fill-rule="evenodd"/><text fill="#000000" fill-opacity="0" font-family="Arial,Arial_MSFontService,sans-serif" font-size="18.9369" x="2438.85" y="924.63">e</text><path d="M2466.46 933.612C2466.91 934.673 2467.06 935.823 2466.9 937.06L2462.22 937.374C2462.39 936.369 2462.32 935.53 2462.03 934.855 2461.75 934.203 2461.33 933.728 2460.78 933.43 2460.22 933.132 2459.42 933.057 2458.37 933.203 2457.31 933.35 2455.29 934.071 2452.29 935.366L2446.86 937.718 2444.84 933.059 2462.45 925.443 2464.32 929.771 2461.82 930.854C2463.32 931.083 2464.39 931.412 2465.02 931.841 2465.65 932.27 2466.13 932.86 2466.46 933.612Z" fill="#FFFFFF" fill-rule="evenodd"/><text fill="#000000" fill-opacity="0" font-family="Arial,Arial_MSFontService,sans-serif" font-size="12.2752" x="2444.84" y="936.184">r</text><path d="M2467.99 938.212 2470.2 942.778 2462.27 946.63C2459.85 947.808 2458.4 948.614 2457.93 949.048 2457.47 949.481 2457.18 949.998 2457.08 950.597 2456.98 951.197 2457.09 951.838 2457.42 952.52 2457.8 953.3 2458.35 953.895 2459.08 954.305 2459.81 954.715 2460.54 954.88 2461.29 954.799 2462.03 954.719 2463.64 954.079 2466.11 952.879L2473.39 949.344 2475.61 953.91 2458.35 962.292 2456.29 958.05 2458.87 956.795C2457.65 956.614 2456.52 956.141 2455.49 955.375 2454.47 954.609 2453.67 953.657 2453.12 952.519 2452.56 951.36 2452.31 950.196 2452.37 949.028 2452.43 947.86 2452.82 946.846 2453.55 945.987 2454.27 945.128 2455.44 944.304 2457.06 943.515Z" fill="#FFFFFF" fill-rule="evenodd"/><text fill="#000000" fill-opacity="0" font-family="Arial,Arial_MSFontService,sans-serif" font-size="24.0803" x="2452.36" y="959.282">u</text><path d="M2483.34 967.203C2483.88 968.183 2484.2 969.177 2484.3 970.184 2484.39 971.19 2484.28 972.054 2483.97 972.773 2483.65 973.493 2483.19 974.127 2482.58 974.675 2481.98 975.223 2481.03 975.856 2479.73 976.574L2469.3 982.349 2466.84 977.908 2475.41 973.165C2477.22 972.161 2478.34 971.418 2478.77 970.933 2479.19 970.449 2479.44 969.912 2479.49 969.322 2479.55 968.732 2479.42 968.136 2479.08 967.536 2478.66 966.767 2478.06 966.193 2477.3 965.815 2476.54 965.437 2475.75 965.328 2474.93 965.486 2474.11 965.645 2472.76 966.243 2470.89 967.281L2463.29 971.49 2460.83 967.049 2477.61 957.756 2479.9 961.881 2477.43 963.246C2480.14 963.661 2482.11 964.98 2483.34 967.203Z" fill="#FFFFFF" fill-rule="evenodd"/><text fill="#000000" fill-opacity="0" font-family="Arial,Arial_MSFontService,sans-serif" font-size="24.593" x="2460.83" y="979.275">n</text><path d="M2489.71 985.554C2489.07 984.523 2488.13 983.924 2486.91 983.756 2485.69 983.589 2484.26 984.02 2482.62 985.049 2480.89 986.128 2479.84 987.253 2479.46 988.424 2479.07 989.594 2479.19 990.669 2479.8 991.649 2480.46 992.701 2481.43 993.332 2482.7 993.543 2483.98 993.753 2485.42 993.354 2487.03 992.344 2488.72 991.29 2489.75 990.16 2490.14 988.955 2490.52 987.75 2490.38 986.616 2489.71 985.554ZM2492.31 982.391C2493.57 984.402 2493.73 986.614 2492.78 989.026L2495.06 987.598 2497.58 991.626 2482.99 1000.76C2481.07 1001.96 2479.53 1002.7 2478.39 1002.98 2477.24 1003.26 2476.22 1003.28 2475.32 1003.04 2474.42 1002.81 2473.52 1002.31 2472.61 1001.55 2471.71 1000.79 2470.8 999.676 2469.89 998.216 2468.16 995.459 2467.41 993.208 2467.63 991.464 2467.86 989.719 2468.69 988.393 2470.14 987.486 2470.28 987.396 2470.46 987.293 2470.67 987.175L2473.15 992.465C2472.63 992.905 2472.35 993.339 2472.33 993.77 2472.28 994.37 2472.52 995.109 2473.07 995.987 2473.78 997.11 2474.47 997.847 2475.16 998.198 2475.62 998.435 2476.16 998.494 2476.78 998.375 2477.23 998.284 2477.93 997.938 2478.89 997.338L2481.26 995.852C2478.7 995.665 2476.8 994.591 2475.58 992.63 2474.21 990.445 2474.05 988.137 2475.1 985.704 2475.93 983.79 2477.44 982.152 2479.61 980.791 2482.34 979.085 2484.83 978.438 2487.09 978.849 2489.35 979.26 2491.09 980.441 2492.31 982.391Z" fill="#FFFFFF" fill-rule="evenodd"/><text fill="#000000" fill-opacity="0" font-family="Arial,Arial_MSFontService,sans-serif" font-size="24.4747" x="2467.59" y="1000.14">g</text><g clip-path="url(#clip4)"><g clip-path="url(#clip5)"><g clip-path="url(#clip6)"><path d="M2577.41 873.427 2585.59 873.427 2585.59 884.344 2577.41 884.344Z" fill="#475055"/><path d="M2577.41 889.802 2585.59 889.802 2585.59 897.99 2577.41 897.99Z" fill="#475055"/><path d="M2591.05 889.802 2630.62 889.802 2630.62 897.99 2591.05 897.99Z" fill="#475055"/><path d="M2532.38 889.802 2571.95 889.802 2571.95 897.99 2532.38 897.99Z" fill="#475055"/><path d="M2620.28 851.594 2542.72 851.594C2540.02 851.594 2537.83 853.781 2537.83 856.479L2537.83 868.542C2537.83 871.24 2540.02 873.427 2542.72 873.427L2620.28 873.427C2622.98 873.427 2625.17 871.24 2625.17 868.542L2625.17 856.479C2625.17 853.781 2622.98 851.594 2620.28 851.594ZM2551.48 865.24C2549.97 865.24 2548.75 864.018 2548.75 862.51 2548.75 861.003 2549.97 859.781 2551.48 859.781 2552.99 859.781 2554.21 861.003 2554.21 862.51 2554.21 864.018 2552.99 865.24 2551.48 865.24ZM2565.12 865.24C2563.62 865.24 2562.4 864.018 2562.4 862.51 2562.4 861.003 2563.62 859.781 2565.12 859.781 2566.63 859.781 2567.85 861.003 2567.85 862.51 2567.85 864.018 2566.63 865.24 2565.12 865.24ZM2578.77 865.24C2577.26 865.24 2576.04 864.018 2576.04 862.51 2576.04 861.003 2577.26 859.781 2578.77 859.781 2580.28 859.781 2581.5 861.003 2581.5 862.51 2581.5 864.018 2580.28 865.24 2578.77 865.24Z" fill="#475055"/><path d="M2620.28 824.302 2542.72 824.302C2540.02 824.302 2537.83 826.489 2537.83 829.187L2537.83 841.25C2537.83 843.948 2540.02 846.135 2542.72 846.135L2620.28 846.135C2622.98 846.135 2625.17 843.948 2625.17 841.25L2625.17 829.187C2625.17 826.489 2622.98 824.302 2620.28 824.302ZM2551.48 837.948C2549.97 837.948 2548.75 836.726 2548.75 835.219 2548.75 833.711 2549.97 832.49 2551.48 832.49 2552.99 832.49 2554.21 833.711 2554.21 835.219 2554.21 836.726 2552.99 837.948 2551.48 837.948ZM2565.12 837.948C2563.62 837.948 2562.4 836.726 2562.4 835.219 2562.4 833.711 2563.62 832.49 2565.12 832.49 2566.63 832.49 2567.85 833.711 2567.85 835.219 2567.85 836.726 2566.63 837.948 2565.12 837.948ZM2578.77 837.948C2577.26 837.948 2576.04 836.726 2576.04 835.219 2576.04 833.711 2577.26 832.49 2578.77 832.49 2580.28 832.49 2581.5 833.711 2581.5 835.219 2581.5 836.726 2580.28 837.948 2578.77 837.948Z" fill="#475055"/><path d="M2620.28 797.01 2542.72 797.01C2540.02 797.01 2537.83 799.198 2537.83 801.896L2537.83 813.959C2537.83 816.657 2540.02 818.844 2542.72 818.844L2620.28 818.844C2622.98 818.844 2625.17 816.657 2625.17 813.959L2625.17 801.896C2625.17 799.198 2622.98 797.01 2620.28 797.01ZM2551.48 810.656C2549.97 810.656 2548.75 809.434 2548.75 807.927 2548.75 806.42 2549.97 805.198 2551.48 805.198 2552.99 805.198 2554.21 806.42 2554.21 807.927 2554.21 809.434 2552.99 810.656 2551.48 810.656ZM2565.12 810.656C2563.62 810.656 2562.4 809.434 2562.4 807.927 2562.4 806.42 2563.62 805.198 2565.12 805.198 2566.63 805.198 2567.85 806.42 2567.85 807.927 2567.85 809.434 2566.63 810.656 2565.12 810.656ZM2578.77 810.656C2577.26 810.656 2576.04 809.434 2576.04 807.927 2576.04 806.42 2577.26 805.198 2578.77 805.198 2580.28 805.198 2581.5 806.42 2581.5 807.927 2581.5 809.434 2580.28 810.656 2578.77 810.656Z" fill="#475055"/></g></g></g><path d="M3074.2 1111.92C2933.66 1214.03 2743.34 1214.03 2602.8 1111.92L2838.5 787.5Z" stroke="#FFFFFF" stroke-width="4.58333" stroke-miterlimit="8" fill="#E6E6E6" fill-rule="evenodd"/><path d="M3084.57 1127C2948.48 1226.12 2766.44 1234.34 2621.99 1147.88L2604.1 1172.51 2603.9 1108.47 2666.93 1086.03 2649.05 1110.65C2777.29 1185.52 2937.6 1177.39 3057.64 1089.93Z" fill="#2327D0" fill-rule="evenodd"/><path d="M2783.71 1168.17 2778.82 1177.42 2785.98 1178.41ZM2781.83 1161.67 2787.43 1162.45 2794.29 1190.14 2788.53 1189.34 2787.06 1183.06 2776.58 1181.61 2773.59 1187.27 2767.97 1186.49Z" fill="#FFFFFF" fill-rule="evenodd"/><text fill="#000000" fill-opacity="0" font-family="Arial,Arial_MSFontService,sans-serif" font-size="28.4691" x="2767.97" y="1186.58">A</text><path d="M2809.69 1171.63C2810.8 1171.72 2811.81 1172 2812.7 1172.48 2813.59 1172.95 2814.25 1173.52 2814.68 1174.18 2815.1 1174.85 2815.38 1175.58 2815.5 1176.39 2815.62 1177.19 2815.62 1178.34 2815.51 1179.81L2814.56 1191.7 2809.5 1191.3 2810.28 1181.53C2810.44 1179.47 2810.44 1178.13 2810.27 1177.5 2810.1 1176.88 2809.79 1176.38 2809.33 1176 2808.87 1175.63 2808.3 1175.41 2807.61 1175.36 2806.74 1175.29 2805.93 1175.47 2805.2 1175.89 2804.46 1176.32 2803.94 1176.92 2803.61 1177.69 2803.29 1178.46 2803.05 1179.91 2802.88 1182.05L2802.19 1190.71 2797.12 1190.31 2798.65 1171.18 2803.35 1171.56 2803.13 1174.37C2804.97 1172.34 2807.15 1171.43 2809.69 1171.63Z" fill="#FFFFFF" fill-rule="evenodd"/><text fill="#000000" fill-opacity="0" font-family="Arial,Arial_MSFontService,sans-serif" font-size="20.516" x="2797.12" y="1189.13">n</text><path d="M2830.67 1183.04C2830.01 1183.24 2828.98 1183.47 2827.56 1183.73 2826.14 1183.99 2825.21 1184.26 2824.77 1184.54 2824.1 1184.99 2823.75 1185.57 2823.73 1186.3 2823.71 1187.01 2823.96 1187.63 2824.47 1188.16 2824.99 1188.69 2825.65 1188.97 2826.47 1188.99 2827.39 1189.02 2828.27 1188.74 2829.12 1188.16 2829.74 1187.72 2830.16 1187.17 2830.37 1186.52 2830.52 1186.09 2830.61 1185.27 2830.64 1184.05ZM2827.87 1172.55C2830.14 1172.61 2831.81 1172.93 2832.91 1173.5 2834 1174.06 2834.76 1174.76 2835.19 1175.6 2835.62 1176.44 2835.8 1177.96 2835.74 1180.16L2835.52 1186.08C2835.47 1187.77 2835.52 1189.02 2835.66 1189.82 2835.8 1190.63 2836.08 1191.49 2836.5 1192.42L2831.48 1192.28C2831.35 1191.94 2831.2 1191.43 2831.03 1190.77 2830.95 1190.46 2830.9 1190.26 2830.87 1190.16 2829.98 1190.98 2829.03 1191.59 2828.03 1191.98 2827.03 1192.38 2825.97 1192.56 2824.85 1192.53 2822.88 1192.47 2821.34 1191.89 2820.23 1190.79 2819.12 1189.68 2818.59 1188.31 2818.64 1186.68 2818.67 1185.59 2818.95 1184.63 2819.5 1183.8 2820.04 1182.97 2820.78 1182.34 2821.73 1181.91 2822.67 1181.49 2824.03 1181.13 2825.8 1180.84 2828.18 1180.46 2829.84 1180.09 2830.76 1179.73L2830.78 1179.23C2830.8 1178.25 2830.58 1177.55 2830.11 1177.12 2829.64 1176.69 2828.74 1176.46 2827.4 1176.42 2826.5 1176.4 2825.79 1176.55 2825.28 1176.9 2824.76 1177.24 2824.33 1177.85 2823.99 1178.73L2819.41 1177.77C2819.98 1175.93 2820.91 1174.58 2822.2 1173.73 2823.49 1172.87 2825.38 1172.48 2827.87 1172.55Z" fill="#FFFFFF" fill-rule="evenodd"/><text fill="#000000" fill-opacity="0" font-family="Arial,Arial_MSFontService,sans-serif" font-size="19.9882" x="2818.64" y="1190.03">a</text><path d="M2840.49 1165.86 2845.56 1165.81 2845.8 1192.29 2840.72 1192.34Z" fill="#FFFFFF" fill-rule="evenodd"/><text fill="#000000" fill-opacity="0" font-family="Arial,Arial_MSFontService,sans-serif" font-size="26.5297" x="2840.49" y="1189.02">l</text><path d="M2848.03 1173.18 2853.42 1172.93 2858.63 1186.33 2862.48 1172.52 2867.74 1172.27 2861.82 1191.03 2860.76 1194.43C2860.37 1195.56 2859.98 1196.44 2859.61 1197.05 2859.23 1197.65 2858.79 1198.15 2858.28 1198.55 2857.78 1198.94 2857.15 1199.25 2856.39 1199.49 2855.64 1199.73 2854.78 1199.87 2853.82 1199.92 2852.84 1199.96 2851.88 1199.9 2850.93 1199.74L2850.3 1195.79C2851.1 1195.91 2851.82 1195.96 2852.46 1195.93 2853.64 1195.87 2854.49 1195.49 2855.03 1194.77 2855.56 1194.05 2855.95 1193.15 2856.2 1192.07Z" fill="#FFFFFF" fill-rule="evenodd"/><text fill="#000000" fill-opacity="0" font-family="Arial,Arial_MSFontService,sans-serif" font-size="27.657" x="2848.03" y="1196.47">y</text><path d="M2877.36 1170.94C2879.98 1170.69 2881.96 1170.93 2883.31 1171.66 2884.67 1172.39 2885.66 1173.56 2886.3 1175.18L2881.62 1176.52C2881.34 1175.79 2880.9 1175.26 2880.29 1174.92 2879.69 1174.58 2878.86 1174.46 2877.8 1174.56 2876.47 1174.69 2875.54 1174.96 2875 1175.39 2874.64 1175.69 2874.48 1176.05 2874.52 1176.47 2874.55 1176.83 2874.75 1177.12 2875.11 1177.34 2875.6 1177.63 2877.22 1177.96 2879.97 1178.31 2882.72 1178.66 2884.67 1179.23 2885.82 1180.02 2886.96 1180.82 2887.61 1182.02 2887.76 1183.63 2887.93 1185.38 2887.34 1186.95 2886 1188.35 2884.66 1189.75 2882.55 1190.58 2879.69 1190.86 2877.09 1191.11 2874.98 1190.78 2873.36 1189.87 2871.74 1188.96 2870.61 1187.62 2869.97 1185.85L2874.97 1184.6C2875.28 1185.56 2875.79 1186.26 2876.5 1186.71 2877.2 1187.16 2878.15 1187.32 2879.34 1187.21 2880.65 1187.08 2881.61 1186.75 2882.22 1186.21 2882.63 1185.83 2882.81 1185.36 2882.76 1184.79 2882.72 1184.41 2882.57 1184.1 2882.3 1183.88 2882.03 1183.66 2881.44 1183.49 2880.55 1183.37 2876.39 1182.86 2873.73 1182.29 2872.56 1181.65 2870.95 1180.76 2870.06 1179.4 2869.89 1177.57 2869.73 1175.91 2870.25 1174.46 2871.45 1173.21 2872.65 1171.96 2874.62 1171.2 2877.36 1170.94Z" fill="#FFFFFF" fill-rule="evenodd"/><text fill="#000000" fill-opacity="0" font-family="Arial,Arial_MSFontService,sans-serif" font-size="20.0989" x="2869.86" y="1188.43">s</text><path d="M2898.43 1172.32C2897.33 1172.48 2896.49 1173.01 2895.89 1173.92 2895.29 1174.82 2895.09 1175.96 2895.31 1177.32L2902.81 1176.23C2902.57 1174.78 2902.03 1173.73 2901.2 1173.08 2900.38 1172.43 2899.45 1172.17 2898.43 1172.32ZM2897.56 1168.52C2900.39 1168.11 2902.75 1168.72 2904.66 1170.35 2906.56 1171.97 2907.76 1174.72 2908.25 1178.58L2895.67 1180.41C2895.92 1181.9 2896.49 1183 2897.39 1183.71 2898.28 1184.43 2899.31 1184.7 2900.47 1184.53 2901.25 1184.42 2901.88 1184.11 2902.36 1183.6 2902.83 1183.09 2903.13 1182.34 2903.27 1181.35L2908.4 1181.46C2908.02 1183.39 2907.21 1184.93 2905.96 1186.1 2904.71 1187.26 2903.04 1187.99 2900.96 1188.29 2897.66 1188.78 2895.06 1188.05 2893.16 1186.13 2891.65 1184.58 2890.71 1182.49 2890.33 1179.86 2889.87 1176.71 2890.33 1174.13 2891.72 1172.11 2893.1 1170.08 2895.05 1168.89 2897.56 1168.52Z" fill="#FFFFFF" fill-rule="evenodd"/><text fill="#000000" fill-opacity="0" font-family="Arial,Arial_MSFontService,sans-serif" font-size="20.04" x="2890.15" y="1185.93">e</text><g clip-path="url(#clip7)"><g clip-path="url(#clip8)"><g clip-path="url(#clip9)"><path d="M27.0833 18.9583 18.9583 18.9583 18.9583 111.042 111.042 111.042 111.042 102.917 27.0833 102.917Z" fill="#475055" transform="matrix(1 0 0 1.00769 2773 942)"/><path d="M35.2083 47.3958 50.1041 47.3958 50.1041 94.7916 35.2083 94.7916Z" fill="#475055" transform="matrix(1 0 0 1.00769 2773 942)"/><path d="M55.5208 18.9583 70.4166 18.9583 70.4166 94.7916 55.5208 94.7916Z" fill="#475055" transform="matrix(1 0 0 1.00769 2773 942)"/><path d="M75.8333 47.3958 90.7291 47.3958 90.7291 94.7916 75.8333 94.7916Z" fill="#475055" transform="matrix(1 0 0 1.00769 2773 942)"/><path d="M96.1458 70.4166 111.042 70.4166 111.042 94.7916 96.1458 94.7916Z" fill="#475055" transform="matrix(1 0 0 1.00769 2773 942)"/></g></g></g><path d="M3237.87 650.584C3291.56 815.805 3232.75 996.803 3092.2 1098.92L2856.5 774.5Z" stroke="#FFFFFF" stroke-width="4.58333" stroke-miterlimit="8" fill="#16D41B" fill-rule="evenodd"/><path d="M3255.83 643.58C3307.95 803.582 3259.42 979.206 3132.52 1089.86L3150.41 1114.49 3089.46 1094.88 3087.59 1028.01 3105.47 1052.63C3216.34 953.8 3258.24 798.869 3212.26 657.738Z" fill="#2327D0" fill-rule="evenodd"/><path d="M3186.44 963.401 3195.67 946.072 3199.63 948.179 3192.91 960.79 3198.09 963.552 3204.34 951.818 3208.28 953.918 3202.02 965.651 3208.39 969.043 3215.35 955.986 3219.28 958.085 3209.81 975.861Z" fill="#FFFFFF" fill-rule="evenodd"/><text fill="#000000" fill-opacity="0" font-family="Arial,Arial_MSFontService,sans-serif" font-size="29.7894" x="3186.44" y="972.137">E</text><path d="M3207.4 937.306C3207.89 936.262 3208.66 935.392 3209.7 934.698L3213.02 938.015C3212.15 938.55 3211.56 939.15 3211.25 939.813 3210.94 940.455 3210.86 941.083 3211 941.697 3211.15 942.311 3211.62 942.966 3212.42 943.66 3213.22 944.355 3215.1 945.402 3218.05 946.802L3223.4 949.342 3221.23 953.929 3203.89 945.702 3205.91 941.442 3208.38 942.612C3207.56 941.33 3207.1 940.311 3207.01 939.553 3206.92 938.795 3207.05 938.046 3207.4 937.306Z" fill="#FFFFFF" fill-rule="evenodd"/><text fill="#000000" fill-opacity="0" font-family="Arial,Arial_MSFontService,sans-serif" font-size="19.2312" x="3203.89" y="951.525">r</text><path d="M3203.16 930.204 3205.13 925.527 3214.1 929.312C3212.98 927.058 3212.86 924.883 3213.74 922.785 3214.19 921.709 3214.8 920.822 3215.57 920.125 3216.33 919.428 3217.12 918.992 3217.93 918.815 3218.73 918.639 3219.55 918.63 3220.37 918.787 3221.19 918.945 3222.4 919.358 3223.98 920.028L3234.35 924.403 3232.38 929.08 3223.04 925.141C3221.19 924.359 3219.97 923.951 3219.4 923.918 3218.83 923.885 3218.3 924.031 3217.81 924.357 3217.33 924.682 3216.94 925.183 3216.66 925.86 3216.33 926.637 3216.23 927.41 3216.35 928.179 3216.47 928.949 3216.85 929.636 3217.49 930.239 3218.13 930.843 3219.19 931.458 3220.68 932.086L3229.54 935.822 3227.56 940.499Z" fill="#FFFFFF" fill-rule="evenodd"/><text fill="#000000" fill-opacity="0" font-family="Arial,Arial_MSFontService,sans-serif" font-size="21.8232" x="3203.16" y="937.771">h</text><path d="M3224.05 906.949C3223.67 907.991 3223.74 908.989 3224.25 909.943 3224.77 910.897 3225.68 911.605 3226.98 912.066L3229.57 904.932C3228.17 904.465 3226.99 904.441 3226.03 904.86 3225.06 905.279 3224.4 905.975 3224.05 906.949ZM3220.3 905.914C3221.27 903.23 3222.92 901.434 3225.26 900.525 3227.59 899.616 3230.57 899.859 3234.21 901.252L3229.87 913.21C3231.3 913.689 3232.54 913.703 3233.59 913.252 3234.65 912.801 3235.37 912.027 3235.77 910.928 3236.04 910.181 3236.07 909.479 3235.84 908.822 3235.62 908.164 3235.1 907.541 3234.29 906.952L3236.82 902.486C3238.34 903.729 3239.32 905.176 3239.75 906.826 3240.18 908.475 3240.04 910.291 3239.32 912.272 3238.18 915.409 3236.32 917.359 3233.72 918.122 3231.65 918.716 3229.36 918.559 3226.86 917.652 3223.87 916.568 3221.81 914.938 3220.69 912.762 3219.56 910.586 3219.43 908.303 3220.3 905.914Z" fill="#FFFFFF" fill-rule="evenodd"/><text fill="#000000" fill-opacity="0" font-family="Arial,Arial_MSFontService,sans-serif" font-size="18.4873" x="3219.73" y="916.163">e</text><path d="M3230.89 886.418C3230.53 887.582 3230.69 888.687 3231.36 889.735 3232.03 890.783 3233.28 891.588 3235.13 892.151 3237.03 892.731 3238.52 892.861 3239.62 892.54 3241.16 892.093 3242.15 891.172 3242.58 889.778 3242.9 888.707 3242.72 887.654 3242.04 886.62 3241.35 885.586 3240.02 884.768 3238.05 884.167 3235.96 883.527 3234.33 883.445 3233.17 883.923 3232.01 884.4 3231.25 885.232 3230.89 886.418ZM3217.9 892.161 3219.38 887.306 3228.5 890.091C3227.25 888.073 3226.94 886.039 3227.57 883.988 3228.25 881.753 3229.62 880.151 3231.69 879.183 3233.76 878.214 3236.3 878.192 3239.33 879.117 3242.47 880.073 3244.65 881.556 3245.89 883.565 3247.13 885.573 3247.42 887.643 3246.77 889.774 3246.45 890.823 3245.87 891.776 3245.04 892.636 3244.2 893.495 3243.16 894.137 3241.91 894.562L3244.6 895.384 3243.23 899.894Z" fill="#FFFFFF" fill-rule="evenodd"/><text fill="#000000" fill-opacity="0" font-family="Arial,Arial_MSFontService,sans-serif" font-size="21.4552" x="3217.9" y="897.212">b</text><path d="M3231.13 873.385 3232.36 868.457 3240.91 870.577C3243.53 871.225 3245.16 871.532 3245.79 871.497 3246.43 871.462 3246.98 871.248 3247.44 870.854 3247.91 870.46 3248.23 869.895 3248.41 869.158 3248.62 868.316 3248.58 867.505 3248.28 866.724 3247.98 865.943 3247.52 865.346 3246.9 864.931 3246.28 864.516 3244.63 863.978 3241.97 863.318L3234.11 861.372 3235.33 856.445 3253.95 861.057 3252.82 865.634 3250.03 864.944C3250.86 865.868 3251.42 866.953 3251.72 868.2 3252.02 869.447 3252.02 870.684 3251.71 871.911 3251.4 873.162 3250.85 874.217 3250.05 875.074 3249.26 875.932 3248.31 876.46 3247.21 876.658 3246.1 876.856 3244.67 876.738 3242.92 876.304Z" fill="#FFFFFF" fill-rule="evenodd"/><text fill="#000000" fill-opacity="0" font-family="Arial,Arial_MSFontService,sans-serif" font-size="20.3063" x="3231.13" y="874.213">u</text><path d="M3237.9 841.284C3238.11 840.184 3238.51 839.217 3239.08 838.382 3239.65 837.547 3240.28 836.955 3240.99 836.605 3241.69 836.256 3242.45 836.064 3243.27 836.03 3244.09 835.996 3245.22 836.119 3246.68 836.398L3258.39 838.641 3257.43 843.627 3247.81 841.785C3245.78 841.395 3244.44 841.249 3243.81 841.348 3243.17 841.446 3242.64 841.703 3242.21 842.119 3241.79 842.535 3241.52 843.08 3241.39 843.754 3241.22 844.617 3241.31 845.438 3241.65 846.214 3241.99 846.991 3242.53 847.581 3243.26 847.985 3243.99 848.389 3245.41 848.793 3247.52 849.196L3256.05 850.831 3255.1 855.817 3236.25 852.207 3237.14 847.576 3239.91 848.106C3238.09 846.054 3237.43 843.78 3237.9 841.284Z" fill="#FFFFFF" fill-rule="evenodd"/><text fill="#000000" fill-opacity="0" font-family="Arial,Arial_MSFontService,sans-serif" font-size="19.792" x="3236.25" y="853.343">n</text><path d="M3244.76 823.108C3244.59 824.313 3244.93 825.37 3245.76 826.28 3246.59 827.19 3247.96 827.776 3249.88 828.038 3251.9 828.313 3253.43 828.124 3254.47 827.471 3255.52 826.817 3256.12 825.917 3256.27 824.772 3256.44 823.542 3256.1 822.439 3255.26 821.46 3254.41 820.482 3253.05 819.864 3251.16 819.606 3249.19 819.337 3247.68 819.543 3246.61 820.224 3245.55 820.906 3244.93 821.867 3244.76 823.108ZM3240.73 823.871C3241.06 821.52 3242.35 819.722 3244.63 818.476L3241.96 818.112 3242.6 813.404 3259.66 815.734C3261.9 816.04 3263.55 816.454 3264.61 816.976 3265.67 817.497 3266.47 818.135 3267.02 818.89 3267.56 819.645 3267.93 820.604 3268.14 821.769 3268.34 822.934 3268.33 824.369 3268.09 826.076 3267.65 829.298 3266.79 831.508 3265.5 832.705 3264.21 833.903 3262.72 834.386 3261.03 834.155 3260.86 834.132 3260.66 834.098 3260.42 834.054L3261.91 828.403C3262.59 828.399 3263.08 828.241 3263.37 827.929 3263.8 827.501 3264.08 826.773 3264.22 825.747 3264.4 824.434 3264.34 823.423 3264.03 822.713 3263.83 822.235 3263.45 821.843 3262.9 821.537 3262.5 821.325 3261.74 821.142 3260.62 820.989L3257.85 820.61C3259.69 822.394 3260.46 824.431 3260.15 826.723 3259.8 829.276 3258.44 831.152 3256.08 832.348 3254.21 833.285 3252.01 833.579 3249.47 833.232 3246.28 832.797 3243.95 831.698 3242.48 829.935 3241 828.172 3240.42 826.15 3240.73 823.871Z" fill="#FFFFFF" fill-rule="evenodd"/><text fill="#000000" fill-opacity="0" font-family="Arial,Arial_MSFontService,sans-serif" font-size="20.8068" x="3240.65" y="831.61">g</text><g clip-path="url(#clip10)"><g clip-path="url(#clip11)"><g clip-path="url(#clip12)"><path d="M53.552 7.07291C53.552 8.74702 52.1949 10.1042 50.5208 10.1042 48.8467 10.1042 47.4896 8.74702 47.4896 7.07291 47.4896 5.3988 48.8467 4.04166 50.5208 4.04166 52.1949 4.04166 53.552 5.3988 53.552 7.07291Z" fill="#475055" transform="matrix(1.01031 0 0 1 3029 772)"/><path d="M58.6041 16.1667C58.6041 17.8408 57.247 19.1979 55.5729 19.1979 53.8988 19.1979 52.5416 17.8408 52.5416 16.1667 52.5416 14.4925 53.8988 13.1354 55.5729 13.1354 57.247 13.1354 58.6041 14.4925 58.6041 16.1667Z" fill="#475055" transform="matrix(1.01031 0 0 1 3029 772)"/><path d="M47.4896 14.1458C47.4896 15.8199 46.1324 17.1771 44.4583 17.1771 42.7842 17.1771 41.4271 15.8199 41.4271 14.1458 41.4271 12.4717 42.7842 11.1146 44.4583 11.1146 46.1324 11.1146 47.4896 12.4717 47.4896 14.1458Z" fill="#475055" transform="matrix(1.01031 0 0 1 3029 772)"/><path d="M50.5208 25.2604C50.5208 27.4925 48.7113 29.3021 46.4791 29.3021 44.247 29.3021 42.4375 27.4925 42.4375 25.2604 42.4375 23.0283 44.247 21.2187 46.4791 21.2187 48.7113 21.2187 50.5208 23.0283 50.5208 25.2604Z" fill="#475055" transform="matrix(1.01031 0 0 1 3029 772)"/><path d="M68.2031 84.4708 56.5833 58.2 56.5833 40.4166C56.5833 36.7791 59.5135 35.2635 59.6145 35.1625 60.625 34.6573 61.0291 33.4448 60.5239 32.4344 60.1198 31.7271 59.4125 31.3229 58.6041 31.3229L58.6041 31.3229 38.3958 31.3229 38.3958 31.3229C37.5875 31.3229 36.8802 31.7271 36.476 32.4344 35.9708 33.4448 36.375 34.6573 37.3854 35.1625 37.3854 35.1625 40.4166 36.7791 40.4166 40.4166L40.4166 58.2 28.7969 84.4708C27.9885 86.3906 28.1906 88.5124 29.3021 90.2302 30.4135 91.9479 32.3333 92.9583 34.3541 92.9583L62.6458 92.9583C64.6666 92.9583 66.5864 91.9479 67.6979 90.2302 68.8093 88.5124 69.0114 86.3906 68.2031 84.4708ZM52.5416 40.4166 52.5416 44.4583 44.4583 44.4583 44.4583 40.4166C44.4583 38.2948 43.8521 36.6781 43.1448 35.3646L53.9562 35.3646C53.1479 36.6781 52.5416 38.2948 52.5416 40.4166Z" fill="#475055" transform="matrix(1.01031 0 0 1 3029 772)"/></g></g></g><g clip-path="url(#clip13)"><g clip-path="url(#clip14)"><g clip-path="url(#clip15)"><path d="M3016.44 877.056C3017.86 879.783 3020.57 881.599 3023.62 881.875L3057.37 881.875 3057.37 896.875 3023.62 896.875C3015.08 896.72 3007.25 892.027 3003.09 884.556 2999.11 877.346 2999.45 868.519 3003.99 861.644L3023.49 827.894 3010.63 820.394 3042.02 811.994 3050.42 843.381 3036.75 835.525 3017.17 869.462C3015.5 871.648 3015.22 874.592 3016.44 877.056Z" fill="#475055"/><path d="M3042.97 799.637 3058.67 770.331C3062.79 762.925 3070.61 758.353 3079.09 758.406 3087.33 758.575 3094.79 763.297 3098.47 770.669L3117.97 804.419 3130.84 796.919 3122.44 828.4 3091.12 820 3104.77 812.106 3085.11 778.15C3084.04 775.614 3081.63 773.9 3078.88 773.725 3075.99 773.868 3073.37 775.481 3071.94 778L3056.23 807.306Z" fill="#475055"/><path d="M3152.23 886.056C3148.13 892.935 3140.64 897.07 3132.64 896.875L3093 896.875 3093 911.875 3069.96 888.438 3093 865.637 3093 881.875 3132.13 881.875C3134.94 882.062 3137.62 880.657 3139.07 878.237 3140.47 875.677 3140.38 872.561 3138.84 870.081L3121.69 840.831 3134.94 833.125 3152.12 862.356C3153.09 864.06 3153.85 865.872 3154.39 867.756L3154.71 868.994C3156.12 874.787 3155.24 880.904 3152.23 886.056Z" fill="#475055"/></g></g></g><path d="M2849.5 351.5C3023.22 351.5 3177.19 463.363 3230.87 628.584L2849.5 752.5Z" stroke="#FFFFFF" stroke-width="4.58333" stroke-miterlimit="8" fill="#E6E6E6" fill-rule="evenodd"/><path d="M2849.04 332.539C3017.25 332.555 3169.27 432.706 3235.5 587.148L3264.45 577.741 3227.05 629.652 3162.78 610.776 3191.72 601.373C3131.79 465.825 2997.41 378.369 2849.04 378.355Z" fill="#2327D0" fill-rule="evenodd"/><path d="M3037.17 389.639 3033.67 396.29 3036.26 397.653C3038.12 398.634 3039.43 399.168 3040.19 399.253 3040.95 399.339 3041.64 399.215 3042.28 398.88 3042.91 398.546 3043.41 398.032 3043.77 397.339 3044.22 396.487 3044.34 395.651 3044.13 394.833 3043.92 394.016 3043.47 393.335 3042.77 392.793 3042.26 392.389 3041.16 391.739 3039.45 390.842ZM3034.52 383.184 3042.11 387.179C3044.99 388.693 3046.81 389.798 3047.56 390.492 3048.71 391.55 3049.44 392.907 3049.72 394.561 3050.01 396.216 3049.66 397.976 3048.68 399.841 3047.92 401.28 3047.03 402.352 3045.99 403.058 3044.95 403.764 3043.88 404.185 3042.78 404.321 3041.68 404.457 3040.67 404.397 3039.74 404.141 3038.49 403.771 3036.8 403.022 3034.66 401.895L3031.57 400.271 3026.92 409.113 3022.19 406.623Z" fill="#FFFFFF" fill-rule="evenodd"/><text fill="#000000" fill-opacity="0" font-family="Arial,Arial_MSFontService,sans-serif" font-size="25.9292" x="3022.19" y="405.872">P</text><path d="M3056.86 395.253 3061.25 397.802 3047.95 420.705 3043.56 418.156Z" fill="#FFFFFF" fill-rule="evenodd"/><text fill="#000000" fill-opacity="0" font-family="Arial,Arial_MSFontService,sans-serif" font-size="25.4526" x="3043.56" y="417.524">l</text><path d="M3066.12 421.057C3065.45 420.893 3064.44 420.562 3063.09 420.065 3061.74 419.567 3060.8 419.325 3060.28 419.337 3059.47 419.381 3058.87 419.708 3058.48 420.319 3058.11 420.92 3058 421.581 3058.17 422.302 3058.34 423.023 3058.78 423.602 3059.47 424.039 3060.24 424.528 3061.14 424.739 3062.17 424.674 3062.93 424.615 3063.57 424.357 3064.09 423.899 3064.43 423.603 3064.93 422.941 3065.58 421.913ZM3069.06 410.609C3070.97 411.818 3072.26 412.944 3072.91 413.989 3073.56 415.034 3073.86 416.026 3073.8 416.965 3073.74 417.903 3073.12 419.305 3071.94 421.168L3068.73 426.15C3067.83 427.576 3067.24 428.671 3066.95 429.435 3066.66 430.199 3066.46 431.087 3066.35 432.099L3062.1 429.417C3062.17 429.061 3062.3 428.552 3062.49 427.889 3062.58 427.589 3062.63 427.389 3062.65 427.288 3061.47 427.538 3060.35 427.578 3059.29 427.407 3058.23 427.236 3057.22 426.852 3056.28 426.253 3054.61 425.199 3053.58 423.915 3053.19 422.401 3052.8 420.887 3053.04 419.437 3053.91 418.052 3054.49 417.135 3055.23 416.456 3056.12 416.015 3057.01 415.573 3057.97 415.411 3059 415.527 3060.03 415.644 3061.38 416.029 3063.05 416.682 3065.29 417.572 3066.9 418.099 3067.88 418.262L3068.15 417.834C3068.67 417.009 3068.84 416.292 3068.66 415.684 3068.47 415.075 3067.81 414.414 3066.68 413.7 3065.92 413.218 3065.23 412.992 3064.61 413.022 3063.99 413.053 3063.31 413.361 3062.57 413.948L3059.12 410.785C3060.55 409.493 3062.04 408.808 3063.58 408.73 3065.13 408.651 3066.95 409.278 3069.06 410.609Z" fill="#FFFFFF" fill-rule="evenodd"/><text fill="#000000" fill-opacity="0" font-family="Arial,Arial_MSFontService,sans-serif" font-size="23.3753" x="3053.01" y="429.177">a</text><path d="M3089.61 424.408C3090.53 425.054 3091.25 425.809 3091.77 426.674 3092.3 427.538 3092.57 428.363 3092.6 429.149 3092.63 429.935 3092.49 430.707 3092.18 431.464 3091.88 432.221 3091.3 433.205 3090.44 434.415L3083.57 444.157 3079.42 441.229 3085.07 433.229C3086.26 431.537 3086.95 430.38 3087.12 429.758 3087.29 429.136 3087.28 428.546 3087.07 427.99 3086.87 427.433 3086.49 426.956 3085.93 426.561 3085.21 426.054 3084.42 425.795 3083.58 425.786 3082.73 425.777 3081.97 426.022 3081.3 426.523 3080.63 427.023 3079.67 428.149 3078.44 429.9L3073.43 437 3069.28 434.072 3080.34 418.397 3084.2 421.116 3082.57 423.419C3085.19 422.613 3087.54 422.943 3089.61 424.408Z" fill="#FFFFFF" fill-rule="evenodd"/><text fill="#000000" fill-opacity="0" font-family="Arial,Arial_MSFontService,sans-serif" font-size="25.7599" x="3069.28" y="440.937">n</text><path d="M3098.97 431.729 3102.95 434.874 3097.49 441.795C3095.82 443.912 3094.87 445.268 3094.64 445.861 3094.41 446.454 3094.38 447.043 3094.54 447.628 3094.71 448.213 3095.09 448.74 3095.69 449.21 3096.37 449.748 3097.13 450.042 3097.96 450.094 3098.79 450.146 3099.53 449.974 3100.16 449.577 3100.8 449.181 3101.97 447.905 3103.67 445.749L3108.68 439.396 3112.67 442.54 3100.78 457.602 3097.08 454.681 3098.86 452.426C3097.68 452.797 3096.46 452.861 3095.2 452.619 3093.94 452.377 3092.81 451.865 3091.82 451.081 3090.81 450.283 3090.08 449.344 3089.62 448.266 3089.17 447.187 3089.08 446.104 3089.36 445.017 3089.63 443.93 3090.33 442.677 3091.45 441.259Z" fill="#FFFFFF" fill-rule="evenodd"/><text fill="#000000" fill-opacity="0" font-family="Arial,Arial_MSFontService,sans-serif" font-size="25.873" x="3089.2" y="454.368">u</text><path d="M3125.54 453.096C3126.38 453.836 3127.01 454.664 3127.44 455.579 3127.87 456.495 3128.06 457.345 3128 458.129 3127.95 458.914 3127.72 459.666 3127.34 460.386 3126.96 461.106 3126.27 462.023 3125.29 463.135L3117.42 472.087 3113.61 468.733 3120.07 461.382C3121.44 459.826 3122.25 458.749 3122.49 458.149 3122.73 457.549 3122.77 456.962 3122.63 456.386 3122.49 455.811 3122.16 455.296 3121.64 454.843 3120.98 454.262 3120.23 453.922 3119.39 453.822 3118.54 453.722 3117.76 453.885 3117.04 454.311 3116.32 454.737 3115.26 455.754 3113.84 457.364L3108.1 463.888 3104.29 460.534 3116.96 446.13 3120.5 449.245 3118.64 451.361C3121.33 450.839 3123.63 451.417 3125.54 453.096Z" fill="#FFFFFF" fill-rule="evenodd"/><text fill="#000000" fill-opacity="0" font-family="Arial,Arial_MSFontService,sans-serif" font-size="25.9568" x="3104.29" y="468.842">n</text><path d="M3137.62 469.693C3136.75 468.841 3135.7 468.477 3134.48 468.601 3133.25 468.724 3131.96 469.478 3130.6 470.863 3129.18 472.318 3128.42 473.658 3128.32 474.886 3128.22 476.113 3128.58 477.132 3129.41 477.941 3130.3 478.809 3131.39 479.196 3132.67 479.102 3133.96 479.007 3135.27 478.281 3136.61 476.921 3138 475.502 3138.74 474.161 3138.83 472.9 3138.92 471.638 3138.51 470.569 3137.62 469.693ZM3139.41 466.008C3141.1 467.668 3141.77 469.782 3141.41 472.349L3143.3 470.426 3146.69 473.751 3134.64 486.05C3133.06 487.668 3131.74 488.746 3130.69 489.285 3129.64 489.824 3128.65 490.085 3127.72 490.069 3126.79 490.053 3125.8 489.78 3124.74 489.25 3123.69 488.72 3122.54 487.853 3121.31 486.648 3118.99 484.372 3117.73 482.36 3117.54 480.612 3117.35 478.863 3117.85 477.378 3119.04 476.157 3119.16 476.036 3119.31 475.894 3119.49 475.73L3123.14 480.292C3122.73 480.841 3122.57 481.329 3122.64 481.754 3122.73 482.349 3123.15 483.009 3123.89 483.734 3124.83 484.661 3125.68 485.214 3126.43 485.394 3126.94 485.516 3127.48 485.447 3128.05 485.186 3128.46 484.994 3129.06 484.494 3129.85 483.685L3131.81 481.685C3129.28 482.103 3127.19 481.502 3125.53 479.884 3123.69 478.08 3123 475.873 3123.45 473.262 3123.81 471.206 3124.89 469.262 3126.68 467.429 3128.93 465.132 3131.21 463.918 3133.5 463.788 3135.79 463.658 3137.76 464.398 3139.41 466.008Z" fill="#FFFFFF" fill-rule="evenodd"/><text fill="#000000" fill-opacity="0" font-family="Arial,Arial_MSFontService,sans-serif" font-size="26.2966" x="3117.5" y="486.783">g</text><g clip-path="url(#clip16)"><g clip-path="url(#clip17)"><g clip-path="url(#clip18)"><path d="M27.2917 19.1042 19.1042 19.1042 19.1042 111.896 111.896 111.896 111.896 103.708 27.2917 103.708 27.2917 19.1042Z" fill="#475055" transform="matrix(1 0 0 1 2932 499)"/><path d="M96.8854 87.3333 109.167 87.3333 109.167 95.5208 96.8854 95.5208Z" fill="#475055" transform="matrix(1 0 0 1 2932 499)"/><path d="M85.9687 73.6875 99.6146 73.6875 99.6146 81.875 85.9687 81.875Z" fill="#475055" transform="matrix(1 0 0 1 2932 499)"/><path d="M65.5 60.0417 92.7916 60.0417 92.7916 68.2291 65.5 68.2291Z" fill="#475055" transform="matrix(1 0 0 1 2932 499)"/><path d="M50.4896 46.3958 96.8854 46.3958 96.8854 54.5833 50.4896 54.5833Z" fill="#475055" transform="matrix(1 0 0 1 2932 499)"/><path d="M35.4792 32.75 62.7708 32.75 62.7708 40.9375 35.4792 40.9375Z" fill="#475055" transform="matrix(1 0 0 1 2932 499)"/></g></g></g></g></svg>