<svg width="4033" height="1106" xmlns="http://www.w3.org/2000/svg" xmlns:xlink="http://www.w3.org/1999/xlink" overflow="hidden"><defs><clipPath id="clip0"><rect x="168" y="901" width="4033" height="1106"/></clipPath></defs><g clip-path="url(#clip0)" transform="translate(-168 -901)"><path d="M181 927.78C180.469 920.583 187.939 915.46 192.75 916 236.44 909.747 298.696 921.894 351.25 916 357.854 916.849 364.398 922.008 363 927.78 375.551 978.309 342.557 1064.17 363 1117.76 383.443 1171.35 350.418 1216.55 363 1297.18 375.582 1377.82 354.268 1417.39 363 1508.27 371.732 1599.15 345.277 1634.68 363 1719.36 380.723 1804.04 351.54 1873.47 363 1983.22 363.251 1991.5 357.435 1995.09 351.25 1995 282.366 1999.92 255.407 1987.92 192.75 1995 186.185 1995.19 180.982 1990.96 181 1983.22 161.83 1891.81 190.82 1845.89 181 1793.24 171.181 1740.59 206.047 1639.29 181 1561.04 155.953 1482.8 194.22 1409.44 181 1371.06 167.781 1332.69 198.988 1225.5 181 1181.09 163.013 1136.67 197.814 986.128 181 927.78Z" fill="#D0CECE" fill-rule="evenodd"/><path d="M181 927.78C181.327 922.36 185.524 915.769 192.75 916 258.183 897.934 303.643 934.401 351.25 916 356.724 915.216 361.794 921.959 363 927.78 382.495 1002.06 352.353 1082.26 363 1149.42 373.647 1216.58 362.127 1303.97 363 1371.06 363.873 1438.16 347.797 1488.92 363 1550.49 378.203 1612.06 342.644 1699.31 363 1740.47 383.356 1781.62 342.382 1906.65 363 1983.22 361.659 1989.91 358.533 1994.95 351.25 1995 314.765 2001.47 231.251 1979.44 192.75 1995 187.002 1994.81 179.335 1990.3 181 1983.22 177.333 1911.85 192.361 1844.46 181 1793.24 169.639 1742.02 200.677 1635.36 181 1592.71 161.323 1550.06 185.87 1446.21 181 1381.62 176.13 1317.03 198.331 1254.02 181 1181.09 163.669 1108.15 192.175 988.314 181 927.78Z" stroke="#0D0D0D" stroke-width="10.3125" stroke-miterlimit="8" fill="none" fill-rule="evenodd"/><path d="M343 932.386C342.197 921.739 352.066 914.585 360.367 915 410.279 911.946 436.328 926.042 482.185 915 528.043 903.958 539.092 928.243 594.633 915 602.762 914.685 612.134 921.204 612 932.386 616.445 1018.94 591.542 1033.39 612 1117.2 632.458 1201.01 603.29 1222.36 612 1325.61 613.912 1334.88 601.418 1343.45 594.633 1343 538.899 1356.44 521.355 1336.43 482.185 1343 443.016 1349.57 387.964 1330.36 360.367 1343 351.314 1343.99 345.406 1334.27 343 1325.61 324.985 1256.3 355.53 1210.91 343 1132.93 330.471 1054.95 355.745 977.547 343 932.386Z" fill="#E6E6E6" fill-rule="evenodd"/><path d="M343 932.386C344.819 920.888 349.387 916.707 360.367 915 411.903 904.626 442.883 915.805 482.185 915 521.487 914.195 563.643 924.251 594.633 915 604.547 916.069 609.818 922.101 612 932.386 626.955 1013.55 602.367 1067.13 612 1132.93 621.633 1198.73 592.085 1258.5 612 1325.61 612.485 1337.58 602.947 1340.89 594.633 1343 543.462 1350.95 501.032 1334.1 477.5 1343 453.968 1351.9 401.733 1332.43 360.367 1343 350.955 1345.75 343.315 1333.96 343 1325.61 337.524 1258.46 345.689 1218 343 1140.8 340.311 1063.6 361.958 1013.12 343 932.386Z" stroke="#0D0D0D" stroke-width="10.3125" stroke-miterlimit="8" fill="none" fill-rule="evenodd"/><path d="M0 5.21077C-0.432458 1.77146 2.89581-0.180864 5.21043 0 121.443-16.1984 173.337 0.182308 248.28 0 323.223-0.182308 354.911 13.4331 410.326 0 465.741-13.4331 503.853 14.1428 572.372 0 640.892-14.1428 704.768 11.4251 795.186 0 885.604-11.4251 893.369 4.85951 936.977 0 980.585-4.85951 1097.24 16.6688 1139.53 0 1181.83-16.6688 1243.66 23.9412 1342.09 0 1440.53-23.9412 1500.41 24.0893 1544.65 0 1588.89-24.0893 1712.51 1.43247 1787.72 0 1862.93-1.43247 1978.7 8.76488 2030.79 0 2033.78 0.210467 2036.26 2.23066 2036 5.21077 2056.13 65.9545 2018.53 143.071 2036 211.294 2053.47 279.517 2030.71 380.287 2036 425.789 2036.51 428.141 2033.54 431.157 2030.79 431 1942.22 440.026 1890.54 429.75 1787.72 431 1684.9 432.251 1660.32 419.983 1564.91 431 1469.49 442.017 1417.14 405.206 1321.84 431 1226.54 456.794 1209.94 427.134 1099.02 431 988.108 434.866 987.619 415.291 896.465 431 805.311 446.709 815.268 426.555 734.419 431 653.57 435.445 606.376 408.007 531.861 431 457.346 453.993 446.416 430.527 390.07 431 333.725 431.473 141.471 392.076 5.21043 431 3.06836 431.228-0.677927 428.316 0 425.789-9.50722 367.608 6.92547 287.155 0 211.294-6.92547 135.433 1.47895 104.086 0 5.21077Z" fill="#E6E6E6" fill-rule="evenodd" transform="matrix(-1 0 0 1 3374 916)"/><path d="M0 5.21077C-0.186989 1.74475 2.51244-0.424905 5.21043 0 115.641-21.0608 130.22 15.8695 248.28 0 366.34-15.8695 360.809 1.37544 430.582 0 500.356-1.37544 546.561 11.4706 612.884 0 679.208-11.4706 747.842 19.2817 795.186 0 842.531-19.2817 949.346 23.0795 997.744 0 1046.14-23.0795 1143.34 4.692 1180.05 0 1216.75-4.692 1283.18 5.38369 1342.09 0 1401-5.38369 1439.82 8.749 1483.88 0 1527.95-8.749 1597.11 21.6254 1666.19 0 1735.26-21.6254 1944.95 25.482 2030.79 0 2033.36 0.249456 2035.79 1.59962 2036 5.21077 2043.1 90.1585 2017.01 146.511 2036 207.089 2054.99 267.666 2025.14 346.549 2036 425.789 2035.76 428.106 2033.43 430.707 2030.79 431 1959.84 436.761 1900.41 427.415 1848.49 431 1796.56 434.586 1735.84 407.757 1625.67 431 1515.51 454.243 1543.61 423.606 1483.88 431 1424.15 438.395 1309.33 427.225 1261.07 431 1212.81 434.775 1084.88 418.437 1038.26 431 991.636 443.563 944.227 412.345 876.209 431 808.191 449.655 793.51 421.285 714.163 431 634.816 440.715 628.892 415.254 572.372 431 515.853 446.746 453.375 414.866 410.326 431 367.278 447.134 276.219 428.017 187.512 431 98.8055 433.983 80.2322 413.704 5.21043 431 2.51894 430.975 0.575408 429.033 0 425.789-22.0911 320.844 11.6345 260.205 0 207.089-11.6345 153.972 21.0323 52.6492 0 5.21077Z" stroke="#0D0D0D" stroke-width="10.3125" stroke-miterlimit="8" fill="none" fill-rule="evenodd" transform="matrix(-1 0 0 1 3374 916)"/><path d="M3067.66 1015.06C3127.13 1014.47 3159.96 1018.42 3191.21 1017.51 3232.88 1016.3 3348.88 1022.29 3396.37 1017.51 3400.38 1017.66 3404.3 1018.47 3404 1019.93L3404.22 1020.36 3404.18 1020.45C3397.99 1032.52 3391.75 1044.36 3404 1053.23L3404.2 1053.44 3404.06 1053.87C3399.54 1064.56 3394.99 1074.09 3404 1080.86 3406.25 1082.56 3407.65 1084.51 3408.41 1086.66L3409 1093.68 3406.37 1100.78C3405.47 1103.2 3404.72 1105.48 3404.27 1107.55L3404.18 1109.37 3403.84 1110.3C3401.56 1116.19 3399.29 1122.29 3398.75 1128.21L3399.27 1134.75 3398.51 1137.19C3393.25 1154.44 3388.35 1175.97 3404 1190.66L3406.21 1193.57 3404 1209.13C3404.08 1215.1 3403.78 1220.43 3403.36 1225.58L3403.02 1229.45 3399.73 1236.84C3399.19 1239.49 3399.1 1242.23 3399.73 1245.09L3401.63 1249.11 3401.63 1249.13C3401.43 1257.63 3401.9 1267.29 3404 1279.68L3404.47 1284.93 3401.24 1294.72C3397.09 1305.44 3393.46 1316.46 3397.34 1327.56L3399.12 1330.52 3399.11 1330.59C3399.21 1332.44 3399.59 1334.18 3400.37 1335.85L3403.04 1339.36 3399.43 1341.96C3397.02 1342.74 3393.85 1343.15 3390.27 1343.03L3367.61 1344.65 3352.77 1344.99C3317.91 1345.16 3284.08 1342.45 3231.4 1342.58L3198.24 1343.02 3161.23 1342.68C3118.57 1341.91 3062.25 1340.45 2987.54 1343.03 2975.09 1343.47 2963.85 1343.75 2953.63 1343.93L2928.86 1344.15 2898.55 1343.85 2883.51 1343.49C2871.55 1343.13 2861.21 1342.74 2850.83 1342.57L2832.91 1342.82 2832.26 1342.81C2813.4 1342.6 2795.92 1342.59 2780.89 1343.04 2776.95 1343.37 2773.17 1341.89 2773.27 1340.61 2771.84 1311.76 2776.07 1305.91 2773.27 1282.89 2770.46 1259.87 2779.16 1230.59 2773.27 1212.34 2767.38 1194.09 2775.03 1176.87 2773.27 1145 2771.51 1113.12 2777.67 1103.9 2773.27 1080.86 2768.87 1057.83 2783.58 1040.18 2773.27 1019.93 2773.05 1018.51 2777.5 1017.43 2780.89 1017.51 2855.03 1012.9 2891.65 1023.72 2998.36 1017.51 3025.04 1015.96 3047.83 1015.26 3067.66 1015.06Z" stroke="#0D0D0D" stroke-width="10.3125" stroke-miterlimit="8" fill="#E6E6E6" fill-rule="evenodd"/><path d="M0 5.21077C-0.432353 1.77146 2.8951-0.180864 5.20917 0 53.7265-16.55 143.954 14.1154 223.256 0 302.558-14.1154 319.605 1.77435 409 0 498.395-1.77435 554.257 21.4766 594.744 0 635.23-21.4766 739.566 4.80789 812.791 0 815.768-0.0682303 818.488 2.86278 818 5.21077 838.145 86.0828 795.679 137.889 818 211.294 840.321 284.699 815.427 324.505 818 425.789 818.087 429.281 815.042 431.183 812.791 431 741.191 440.034 695.57 426.339 635.123 431 574.676 435.661 502.589 406.894 425.152 431 347.714 455.106 261.599 416.131 215.18 431 168.762 445.869 63.767 421.328 5.20917 431 2.83736 430.474-0.127757 428.824 0 425.789-15.2958 359.397 2.43171 290.254 0 207.089-2.43171 123.923 1.31186 50.5814 0 5.21077Z" fill="#E6E6E6" fill-rule="evenodd" transform="matrix(-1 0 0 1 4186 916)"/><path d="M0 5.21077C0.20535 3.01332 2.23033-0.0317686 5.20917 0 53.3534-19.7987 159.606 2.00106 215.18 0 270.754-2.00106 313.697 8.86632 400.924 0 488.151-8.86632 558.988 5.4447 602.819 0 646.651-5.4447 721.569 23.4579 812.791 0 816.449-0.00180503 817.969 2.27434 818 5.21077 825.083 91.669 815.986 119.331 818 211.294 820.014 303.257 811.076 349.928 818 425.789 817.867 428.685 816.381 430.952 812.791 431 726.837 431.592 660.078 424.865 610.895 431 561.712 437.135 443.341 407.527 400.924 431 358.506 454.473 294.743 417.291 207.105 431 119.466 444.709 80.0181 416.487 5.20917 431 2.4079 431.202-0.134614 429.482 0 425.789-4.48593 326.647 23.1738 298.175 0 211.294-23.1738 124.414 4.63318 97.5281 0 5.21077Z" stroke="#0D0D0D" stroke-width="10.3125" stroke-miterlimit="8" fill="none" fill-rule="evenodd" transform="matrix(-1 0 0 1 4186 916)"/><path d="M0 5.21077C-0.432244 1.77146 2.89438-0.180864 5.20786 0 95.133-21.4218 107.492 7.21977 208.406 0 309.319-7.21977 335.495 14.2096 381.5 0 427.505-14.2096 507.24 7.61327 554.595 0 601.949-7.61327 702.42 21.7864 757.792 0 760.769-0.0682303 763.488 2.86278 763 5.21077 783.14 86.0828 740.685 137.889 763 211.294 785.316 284.699 760.428 324.505 763 425.789 763.087 429.281 760.043 431.183 757.792 431 690.689 449.645 653.571 426.76 592.224 431 530.876 435.24 483.328 424.198 396.552 431 309.775 437.802 271.982 408.497 200.88 431 129.778 453.503 82.3389 420.708 5.20786 431 2.83665 430.474-0.127725 428.824 0 425.789-15.292 359.397 2.4311 290.254 0 207.089-2.4311 123.923 1.31153 50.5814 0 5.21077Z" fill="#E6E6E6" fill-rule="evenodd" transform="matrix(-1 0 0 1 1343 916)"/><path d="M0 5.21077C0.205298 3.01332 2.22977-0.0317686 5.20786 0 52.9376-20.7182 153.945 16.346 200.88 0 247.815-16.346 294.217 5.41763 373.974 0 453.732-5.41763 499.802 6.78043 562.12 0 624.439-6.78043 712.15 14.7962 757.792 0 761.45-0.00180503 762.969 2.27434 763 5.21077 770.082 91.669 760.986 119.331 763 211.294 765.014 303.257 756.078 349.928 763 425.789 762.867 428.685 761.382 430.952 757.792 431 676.818 439.635 650.398 413.37 569.646 431 488.895 448.631 432.261 427.982 373.974 431 315.688 434.018 235.479 424.592 193.354 431 151.228 437.408 70.1607 430.244 5.20786 431 2.40729 431.202-0.13458 429.482 0 425.789-4.4848 326.647 23.168 298.175 0 211.294-23.168 124.414 4.63201 97.5281 0 5.21077Z" stroke="#0D0D0D" stroke-width="10.3125" stroke-miterlimit="8" fill="none" fill-rule="evenodd" transform="matrix(-1 0 0 1 1343 916)"/><path d="M1312 1354.79C1311.27 1349.54 1316.04 1346.82 1319.78 1347 1399.84 1337.75 1471.69 1349.03 1559.74 1347 1647.8 1344.97 1666.38 1367.96 1740.76 1347 1815.14 1326.04 1851.34 1366.9 1921.79 1347 1992.23 1327.1 2057.45 1347.2 2147.01 1347 2236.57 1346.8 2253.46 1356.94 2313.3 1347 2373.14 1337.06 2437.72 1351.52 2523.79 1347 2609.85 1342.48 2680.29 1376.71 2793.22 1347 2798.17 1346.69 2800.64 1349.34 2801 1354.79 2806.72 1433.01 2797.93 1490.51 2801 1545.41 2804.07 1600.31 2790.39 1661.34 2801 1767.45 2811.61 1873.57 2781.87 1911.95 2801 1983.21 2801.06 1987.28 2797.72 1991.37 2793.22 1991 2696.51 2004.39 2653.22 1981.33 2597.46 1991 2541.7 2000.67 2463.6 1976.53 2416.44 1991 2369.27 2005.47 2277.36 1988.95 2235.42 1991 2193.48 1993.05 2055.32 1986.46 2010.19 1991 1965.07 1995.54 1866.4 1969.01 1770.23 1991 1674.06 2012.99 1642.39 1970.6 1545.01 1991 1447.62 2011.4 1398.2 1987.24 1319.78 1991 1314.87 1990.52 1311.14 1988 1312 1983.21 1289.31 1894.25 1336.95 1867.72 1312 1767.45 1287.05 1667.19 1334.71 1621.16 1312 1551.69 1289.29 1482.23 1330.09 1415.51 1312 1354.79Z" fill="#DAE3F3" fill-rule="evenodd"/><path d="M1312 1354.79C1312.08 1351.73 1315.62 1346.45 1319.78 1347 1367.64 1335.49 1450 1363.67 1486.07 1347 1522.14 1330.33 1630.27 1366.72 1696.56 1347 1762.86 1327.28 1835.7 1363.83 1892.32 1347 1948.94 1330.17 2009.35 1369.45 2117.54 1347 2225.73 1324.55 2243.09 1347.06 2313.3 1347 2383.51 1346.94 2438.71 1365.71 2509.05 1347 2579.4 1328.3 2723.41 1370.05 2793.22 1347 2797.79 1347.78 2799.85 1350.84 2801 1354.79 2801.84 1412.53 2781.66 1495.54 2801 1545.41 2820.34 1595.28 2793.11 1678.69 2801 1736.03 2808.89 1793.37 2772.88 1909.09 2801 1983.21 2800.47 1987.57 2797.28 1990.97 2793.22 1991 2738.03 1996.62 2623.64 1967.81 2567.99 1991 2512.35 2014.19 2452.64 1974.58 2386.97 1991 2321.3 2007.42 2243.03 1972.56 2161.75 1991 2080.46 2009.44 2048.29 1968.35 1965.99 1991 1883.69 2013.65 1843.91 1969.83 1740.76 1991 1637.62 2012.17 1610.7 1985.47 1559.74 1991 1508.78 1996.53 1392.57 1984.84 1319.78 1991 1315.35 1990.8 1312.74 1986.69 1312 1983.21 1311.8 1933.97 1338.62 1814.96 1312 1761.17 1285.38 1707.38 1318.66 1657.03 1312 1564.26 1305.34 1471.49 1316.66 1421.83 1312 1354.79Z" stroke="#0D0D0D" stroke-width="10.3125" stroke-miterlimit="8" fill="none" fill-rule="evenodd"/><path d="M2771 1354.79C2770.27 1349.54 2775.04 1346.82 2778.79 1347 2824.54 1332.99 2899.32 1358.71 3006.69 1347 3114.06 1335.29 3133.02 1364.4 3178.62 1347 3224.22 1329.6 3265.47 1359.92 3350.55 1347 3435.63 1334.08 3501.76 1371.18 3564.46 1347 3627.17 1322.82 3686.87 1359.42 3722.4 1347 3757.93 1334.58 3824.59 1350.37 3922.32 1347 4020.05 1343.63 4121.63 1356.29 4178.21 1347 4183.17 1346.69 4185.64 1349.34 4186 1354.79 4191.72 1433.01 4182.93 1490.51 4186 1545.41 4189.07 1600.31 4175.39 1661.34 4186 1767.45 4196.61 1873.57 4166.86 1911.95 4186 1983.21 4186.06 1987.28 4182.71 1991.37 4178.21 1991 4098.23 1997.98 4066.64 1976.16 3992.29 1991 3917.94 2005.84 3896.77 1984.09 3820.36 1991 3743.95 1997.91 3713.98 1980.55 3648.43 1991 3582.88 2001.45 3504.62 1977.21 3434.52 1991 3364.41 2004.79 3293.92 1970.88 3206.61 1991 3119.3 2011.12 3057.13 1984.88 2992.7 1991 2928.27 1997.12 2863.34 1980.54 2778.79 1991 2773.87 1990.52 2770.14 1988 2771 1983.21 2748.3 1894.25 2795.96 1867.72 2771 1767.45 2746.04 1667.19 2793.71 1621.16 2771 1551.69 2748.29 1482.23 2789.09 1415.51 2771 1354.79Z" fill="#DAE3F3" fill-rule="evenodd"/><path d="M2771 1354.79C2771.08 1351.73 2774.62 1346.45 2778.79 1347 2845.98 1340.65 2858.4 1352.27 2936.72 1347 3015.04 1341.73 3042.02 1367.06 3136.64 1347 3231.26 1326.94 3281.53 1354.04 3322.56 1347 3363.6 1339.96 3464.14 1362.53 3536.48 1347 3608.81 1331.47 3658.19 1350.26 3722.4 1347 3786.61 1343.74 3829.82 1352.76 3908.32 1347 3986.82 1341.24 4083.36 1358.98 4178.21 1347 4182.79 1347.78 4184.85 1350.84 4186 1354.79 4186.84 1412.53 4166.66 1495.54 4186 1545.41 4205.34 1595.28 4178.11 1678.69 4186 1736.03 4193.89 1793.37 4157.87 1909.09 4186 1983.21 4185.47 1987.57 4182.28 1990.97 4178.21 1991 4122.77 1994.98 4033.7 1977.9 3964.3 1991 3894.9 2004.09 3851.91 1971.91 3792.37 1991 3732.84 2010.09 3642.14 1989.66 3578.46 1991 3514.78 1992.34 3474.99 1985.61 3392.54 1991 3310.08 1996.39 3249.86 1983.88 3178.62 1991 3107.38 1998.12 3070.22 1982.79 3006.69 1991 2943.17 1999.21 2851.11 1973.17 2778.79 1991 2774.35 1990.8 2771.74 1986.69 2771 1983.21 2770.8 1933.97 2797.63 1814.96 2771 1761.17 2744.37 1707.38 2777.66 1657.03 2771 1564.26 2764.34 1471.49 2775.66 1421.83 2771 1354.79Z" stroke="#0D0D0D" stroke-width="10.3125" stroke-miterlimit="8" fill="none" fill-rule="evenodd"/><path d="M343 1362.48C341.676 1352.21 350.345 1346.86 358.43 1347 442.741 1346.23 493.102 1353.54 566.57 1347 575.14 1347.35 583.387 1354.66 582 1362.48 593.234 1442.21 577.103 1469.57 582 1555.82 586.897 1642.07 571.415 1699.57 582 1742.99 592.585 1786.41 581.216 1862.92 582 1979.52 584.147 1987.69 574.52 1995.09 566.57 1995 502.132 2005.06 438.61 1979.7 358.43 1995 349.158 1995.33 342.769 1988.31 343 1979.52 339.468 1934.85 351.813 1823.81 343 1761.5 334.187 1699.19 351.23 1609.65 343 1549.65 334.771 1489.65 347.803 1406.56 343 1362.48Z" fill="#DAE3F3" fill-rule="evenodd"/><path d="M343 1362.48C344.665 1352.19 349.384 1347.65 358.43 1347 462.003 1323.51 518.007 1360.78 566.57 1347 574.659 1347.43 581.171 1355.32 582 1362.48 594.621 1454.87 571.648 1463.32 582 1561.99 592.352 1660.66 580.342 1676.01 582 1767.67 583.658 1859.33 566.62 1887.33 582 1979.52 582.456 1990.3 574.826 1994.56 566.57 1995 483.253 2019.17 446.184 1970.38 358.43 1995 351.349 1995.45 342.025 1987.56 343 1979.52 322.59 1932.82 344.289 1836.52 343 1767.67 341.711 1698.82 348.141 1634.09 343 1549.65 337.86 1465.2 361.012 1407.69 343 1362.48Z" stroke="#0D0D0D" stroke-width="10.3125" stroke-miterlimit="8" fill="none" fill-rule="evenodd"/><path d="M580 1354.79C579.272 1349.54 584.036 1346.82 587.782 1347 673.59 1344.89 707.323 1364.93 790.94 1347 874.556 1329.07 883.958 1347.26 964 1347 1044.04 1346.74 1081.72 1363.51 1137.06 1347 1192.4 1330.49 1271.99 1352.71 1340.22 1347 1345.26 1346.49 1348.87 1351.43 1348 1354.79 1361.44 1455.88 1346.06 1489.76 1348 1557.98 1349.93 1626.19 1326.19 1712.78 1348 1767.45 1369.81 1822.13 1333.91 1932.4 1348 1983.21 1346.99 1987.96 1344.35 1991.17 1340.22 1991 1242.07 1995.04 1229.72 1979.82 1137.06 1991 1044.4 2002.18 991.09 1980.21 941.427 1991 891.764 2001.79 857.485 1979.7 775.891 1991 694.297 2002.3 653.682 1976.92 587.782 1991 583.796 1992.25 579.939 1987.41 580 1983.21 575.799 1910.19 585.893 1858.86 580 1786.31 574.107 1713.75 605.333 1615.64 580 1564.26 554.667 1512.88 603.626 1457.51 580 1354.79Z" fill="#DAE3F3" fill-rule="evenodd"/><path d="M580 1354.79C580.052 1350.61 583.218 1346.14 587.782 1347 656.039 1329.56 685.879 1352.22 783.415 1347 880.952 1341.78 907.836 1359.38 948.951 1347 990.067 1334.62 1079.66 1360.06 1144.58 1347 1209.51 1333.94 1271.64 1362.01 1340.22 1347 1344.6 1348.24 1348.14 1349.93 1348 1354.79 1359.14 1424.12 1337.94 1490 1348 1545.41 1358.06 1600.82 1324.55 1679.21 1348 1754.89 1371.45 1830.56 1344.3 1884.2 1348 1983.21 1348.14 1987.48 1344.08 1991.15 1340.22 1991 1281.39 2007.13 1252.91 1977.11 1167.16 1991 1081.4 2004.89 1039.89 1980.95 986.573 1991 933.253 2001.05 872.179 1972.21 798.464 1991 724.749 2009.79 657.115 1984.93 587.782 1991 582.465 1991.79 579.439 1987.68 580 1983.21 560.898 1886.98 593.567 1844.99 580 1773.74 566.433 1702.48 599.609 1637.53 580 1551.69 560.391 1465.86 602.873 1415.67 580 1354.79Z" stroke="#0D0D0D" stroke-width="10.3125" stroke-miterlimit="8" fill="none" fill-rule="evenodd"/><text font-family="Arial Narrow,Arial Narrow_MSFontService,sans-serif" font-weight="400" font-stretch="condensed" font-size="83" transform="matrix(-1.83697e-16 -1 1 -1.83697e-16 285.284 1736)">Forschungsprojekt<tspan font-size="83" x="429" y="165.061">Forschungs</tspan><tspan font-size="83" x="500" y="265.076">-</tspan><tspan font-size="83" x="523" y="265.076">ebene</tspan><tspan fill="#2327D0" font-size="83" x="-219" y="170.08">Datenmanagement</tspan><tspan fill="#2327D0" font-size="83" x="-36" y="269.08">-</tspan><tspan fill="#2327D0" font-size="83" x="-14" y="269.08">ebene</tspan></text><path d="M598.5 1163C601.961 1123.57 634.328 1093.22 665 1096.5 699.406 1096.48 734.059 1116.9 731.5 1163 728.145 1201.55 709.172 1221.89 665 1229.5 636.706 1229.4 597.958 1207.41 598.5 1163Z" fill="#FFFFFF" fill-rule="evenodd"/><path d="M598.5 1163C601.957 1127.41 625.987 1106.89 665 1096.5 699.266 1085.97 734.993 1122.55 731.5 1163 732.036 1196.68 695.029 1226.5 665 1229.5 632.63 1229.59 606.307 1195.93 598.5 1163Z" stroke="#000000" stroke-width="6.875" stroke-miterlimit="8" fill="none" fill-rule="evenodd"/><path d="M4004 1160C4001.54 1122.17 4035.2 1097.95 4070.5 1094 4102.5 1094.11 4141.77 1125.98 4137 1160 4134.81 1200.05 4106.52 1227.49 4070.5 1226 4032.78 1220.17 3997.05 1200.53 4004 1160Z" fill="#FFFFFF" fill-rule="evenodd"/><path d="M4004 1160C4008.06 1133.01 4036.17 1091.54 4070.5 1094 4109.84 1102.01 4134.3 1126.74 4137 1160 4135.74 1204.31 4102.1 1219.27 4070.5 1226 4036.64 1228.85 4007.58 1195.92 4004 1160Z" stroke="#000000" stroke-width="13.75" stroke-miterlimit="8" fill="none" fill-rule="evenodd"/><path d="M0 0 3841.88 0.000360892" stroke="#000000" stroke-width="10.3125" stroke-miterlimit="8" fill="none" fill-rule="evenodd" transform="matrix(-1 0 0 1 4190.88 1345)"/><text font-family="Arial Narrow,Arial Narrow_MSFontService,sans-serif" font-weight="400" font-stretch="condensed" font-size="83" transform="matrix(1 0 0 1 2906.27 1119)">Publikation</text><path d="M778.5 1139C779.107 1131.57 783.476 1126.34 791.077 1126.5 832.962 1113.11 922.746 1147.3 986.923 1126.5 992.93 1126.15 999.396 1132.21 999.5 1139 1001.22 1160.58 998.753 1176.46 999.5 1189 1000.44 1194.81 993.576 1201.33 986.923 1201.5 925.996 1207.3 848.616 1181.35 791.077 1201.5 783.501 1202.44 778.019 1196.76 778.5 1189 776.565 1170.48 780.578 1154.01 778.5 1139Z" fill="#475055" fill-rule="evenodd"/><path d="M778.5 1139C779.336 1133.53 785.724 1127.65 791.077 1126.5 886.908 1103.51 907.329 1142.24 986.923 1126.5 991.884 1127.04 1000.48 1130.63 999.5 1139 1004.56 1151.89 998.262 1168.16 999.5 1189 998.986 1196.44 993.808 1201.94 986.923 1201.5 905.528 1203.24 885.286 1200.71 791.077 1201.5 782.651 1202.72 778.021 1195.33 778.5 1189 777.926 1165.2 779.596 1153.27 778.5 1139Z" stroke="#2327D0" stroke-width="4.58333" stroke-miterlimit="8" fill="none" fill-rule="evenodd"/><path d="M1070.5 1139C1071.11 1131.57 1075.48 1126.34 1083.08 1126.5 1124.96 1113.11 1214.75 1147.3 1278.92 1126.5 1284.93 1126.15 1291.4 1132.21 1291.5 1139 1293.22 1160.58 1290.75 1176.46 1291.5 1189 1292.44 1194.81 1285.58 1201.33 1278.92 1201.5 1218 1207.3 1140.62 1181.35 1083.08 1201.5 1075.5 1202.44 1070.02 1196.76 1070.5 1189 1068.56 1170.48 1072.58 1154.01 1070.5 1139Z" fill="#475055" fill-rule="evenodd"/><path d="M1070.5 1139C1071.34 1133.53 1077.72 1127.65 1083.08 1126.5 1178.91 1103.51 1199.33 1142.24 1278.92 1126.5 1283.88 1127.04 1292.48 1130.63 1291.5 1139 1296.56 1151.89 1290.26 1168.16 1291.5 1189 1290.99 1196.44 1285.81 1201.94 1278.92 1201.5 1197.53 1203.24 1177.29 1200.71 1083.08 1201.5 1074.65 1202.72 1070.02 1195.33 1070.5 1189 1069.93 1165.2 1071.6 1153.27 1070.5 1139Z" stroke="#2327D0" stroke-width="4.58333" stroke-miterlimit="8" fill="none" fill-rule="evenodd"/><path d="M808.5 1622C809.104 1614.57 813.453 1609.34 821.02 1609.5 862.716 1596.11 952.093 1630.3 1015.98 1609.5 1021.96 1609.15 1028.4 1615.21 1028.5 1622 1030.21 1643.58 1027.76 1659.46 1028.5 1672 1029.44 1677.81 1022.6 1684.33 1015.98 1684.5 955.328 1690.3 878.298 1664.35 821.02 1684.5 813.478 1685.44 808.021 1679.76 808.5 1672 806.573 1653.48 810.569 1637.01 808.5 1622Z" fill="#475055" fill-rule="evenodd"/><path d="M808.5 1622C809.332 1616.53 815.691 1610.65 821.02 1609.5 916.418 1586.51 936.746 1625.24 1015.98 1609.5 1020.92 1610.04 1029.47 1613.63 1028.5 1622 1033.54 1634.89 1027.27 1651.16 1028.5 1672 1027.99 1679.44 1022.83 1684.94 1015.98 1684.5 934.953 1686.24 914.803 1683.71 821.02 1684.5 812.632 1685.72 808.023 1678.33 808.5 1672 807.929 1648.2 809.591 1636.27 808.5 1622Z" stroke="#2327D0" stroke-width="4.58333" stroke-miterlimit="8" fill="none" fill-rule="evenodd"/><path d="M1363.5 1139C1364.1 1131.57 1368.45 1126.34 1376.02 1126.5 1417.72 1113.11 1507.09 1147.3 1570.98 1126.5 1576.96 1126.15 1583.4 1132.21 1583.5 1139 1585.21 1160.58 1582.76 1176.46 1583.5 1189 1584.44 1194.81 1577.6 1201.33 1570.98 1201.5 1510.33 1207.3 1433.3 1181.35 1376.02 1201.5 1368.48 1202.44 1363.02 1196.76 1363.5 1189 1361.57 1170.48 1365.57 1154.01 1363.5 1139Z" fill="#475055" fill-rule="evenodd"/><path d="M1363.5 1139C1364.33 1133.53 1370.69 1127.65 1376.02 1126.5 1471.42 1103.51 1491.75 1142.24 1570.98 1126.5 1575.92 1127.04 1584.47 1130.63 1583.5 1139 1588.54 1151.89 1582.27 1168.16 1583.5 1189 1582.99 1196.44 1577.83 1201.94 1570.98 1201.5 1489.95 1203.24 1469.8 1200.71 1376.02 1201.5 1367.63 1202.72 1363.02 1195.33 1363.5 1189 1362.93 1165.2 1364.59 1153.27 1363.5 1139Z" stroke="#2327D0" stroke-width="4.58333" stroke-miterlimit="8" fill="none" fill-rule="evenodd"/><path d="M1557.5 1622C1558.1 1614.57 1562.45 1609.34 1570.02 1609.5 1611.72 1596.11 1701.09 1630.3 1764.98 1609.5 1770.96 1609.15 1777.4 1615.21 1777.5 1622 1779.21 1643.58 1776.76 1659.46 1777.5 1672 1778.44 1677.81 1771.6 1684.33 1764.98 1684.5 1704.33 1690.3 1627.3 1664.35 1570.02 1684.5 1562.48 1685.44 1557.02 1679.76 1557.5 1672 1555.57 1653.48 1559.57 1637.01 1557.5 1622Z" fill="#475055" fill-rule="evenodd"/><path d="M1557.5 1622C1558.33 1616.53 1564.69 1610.65 1570.02 1609.5 1665.42 1586.51 1685.75 1625.24 1764.98 1609.5 1769.92 1610.04 1778.47 1613.63 1777.5 1622 1782.54 1634.89 1776.27 1651.16 1777.5 1672 1776.99 1679.44 1771.83 1684.94 1764.98 1684.5 1683.95 1686.24 1663.8 1683.71 1570.02 1684.5 1561.63 1685.72 1557.02 1678.33 1557.5 1672 1556.93 1648.2 1558.59 1636.27 1557.5 1622Z" stroke="#2327D0" stroke-width="4.58333" stroke-miterlimit="8" fill="none" fill-rule="evenodd"/><path d="M2161.5 1622C2162.1 1614.57 2166.45 1609.34 2174.02 1609.5 2215.72 1596.11 2305.09 1630.3 2368.98 1609.5 2374.96 1609.15 2381.4 1615.21 2381.5 1622 2383.21 1643.58 2380.76 1659.46 2381.5 1672 2382.44 1677.81 2375.6 1684.33 2368.98 1684.5 2308.33 1690.3 2231.3 1664.35 2174.02 1684.5 2166.48 1685.44 2161.02 1679.76 2161.5 1672 2159.57 1653.48 2163.57 1637.01 2161.5 1622Z" fill="#475055" fill-rule="evenodd"/><path d="M2161.5 1622C2162.33 1616.53 2168.69 1610.65 2174.02 1609.5 2269.42 1586.51 2289.75 1625.24 2368.98 1609.5 2373.92 1610.04 2382.47 1613.63 2381.5 1622 2386.54 1634.89 2380.27 1651.16 2381.5 1672 2380.99 1679.44 2375.83 1684.94 2368.98 1684.5 2287.95 1686.24 2267.8 1683.71 2174.02 1684.5 2165.63 1685.72 2161.02 1678.33 2161.5 1672 2160.93 1648.2 2162.59 1636.27 2161.5 1622Z" stroke="#2327D0" stroke-width="4.58333" stroke-miterlimit="8" fill="none" fill-rule="evenodd"/><path d="M1655.5 1139C1656.1 1131.57 1660.45 1126.34 1668.02 1126.5 1709.72 1113.11 1799.09 1147.3 1862.98 1126.5 1868.96 1126.15 1875.4 1132.21 1875.5 1139 1877.21 1160.58 1874.76 1176.46 1875.5 1189 1876.44 1194.81 1869.6 1201.33 1862.98 1201.5 1802.33 1207.3 1725.3 1181.35 1668.02 1201.5 1660.48 1202.44 1655.02 1196.76 1655.5 1189 1653.57 1170.48 1657.57 1154.01 1655.5 1139Z" fill="#475055" fill-rule="evenodd"/><path d="M1655.5 1139C1656.33 1133.53 1662.69 1127.65 1668.02 1126.5 1763.42 1103.51 1783.75 1142.24 1862.98 1126.5 1867.92 1127.04 1876.47 1130.63 1875.5 1139 1880.54 1151.89 1874.27 1168.16 1875.5 1189 1874.99 1196.44 1869.83 1201.94 1862.98 1201.5 1781.95 1203.24 1761.8 1200.71 1668.02 1201.5 1659.63 1202.72 1655.02 1195.33 1655.5 1189 1654.93 1165.2 1656.59 1153.27 1655.5 1139Z" stroke="#2327D0" stroke-width="4.58333" stroke-miterlimit="8" fill="none" fill-rule="evenodd"/><path d="M1947.5 1139C1948.11 1131.57 1952.48 1126.34 1960.08 1126.5 2001.96 1113.11 2091.75 1147.3 2155.92 1126.5 2161.93 1126.15 2168.4 1132.21 2168.5 1139 2170.22 1160.58 2167.75 1176.46 2168.5 1189 2169.44 1194.81 2162.58 1201.33 2155.92 1201.5 2095 1207.3 2017.62 1181.35 1960.08 1201.5 1952.5 1202.44 1947.02 1196.76 1947.5 1189 1945.56 1170.48 1949.58 1154.01 1947.5 1139Z" fill="#475055" fill-rule="evenodd"/><path d="M1947.5 1139C1948.34 1133.53 1954.72 1127.65 1960.08 1126.5 2055.91 1103.51 2076.33 1142.24 2155.92 1126.5 2160.88 1127.04 2169.48 1130.63 2168.5 1139 2173.56 1151.89 2167.26 1168.16 2168.5 1189 2167.99 1196.44 2162.81 1201.94 2155.92 1201.5 2074.53 1203.24 2054.29 1200.71 1960.08 1201.5 1951.65 1202.72 1947.02 1195.33 1947.5 1189 1946.93 1165.2 1948.6 1153.27 1947.5 1139Z" stroke="#2327D0" stroke-width="4.58333" stroke-miterlimit="8" fill="none" fill-rule="evenodd"/><path d="M2239.5 1139C2240.11 1131.57 2244.48 1126.34 2252.08 1126.5 2293.96 1113.11 2383.75 1147.3 2447.92 1126.5 2453.93 1126.15 2460.4 1132.21 2460.5 1139 2462.22 1160.58 2459.75 1176.46 2460.5 1189 2461.44 1194.81 2454.58 1201.33 2447.92 1201.5 2387 1207.3 2309.62 1181.35 2252.08 1201.5 2244.5 1202.44 2239.02 1196.76 2239.5 1189 2237.56 1170.48 2241.58 1154.01 2239.5 1139Z" fill="#475055" fill-rule="evenodd"/><path d="M2239.5 1139C2240.34 1133.53 2246.72 1127.65 2252.08 1126.5 2347.91 1103.51 2368.33 1142.24 2447.92 1126.5 2452.88 1127.04 2461.48 1130.63 2460.5 1139 2465.56 1151.89 2459.26 1168.16 2460.5 1189 2459.99 1196.44 2454.81 1201.94 2447.92 1201.5 2366.53 1203.24 2346.29 1200.71 2252.08 1201.5 2243.65 1202.72 2239.02 1195.33 2239.5 1189 2238.93 1165.2 2240.6 1153.27 2239.5 1139Z" stroke="#2327D0" stroke-width="4.58333" stroke-miterlimit="8" fill="none" fill-rule="evenodd"/><path d="M2532.5 1139C2533.1 1131.57 2537.45 1126.34 2545.02 1126.5 2586.72 1113.11 2676.09 1147.3 2739.98 1126.5 2745.96 1126.15 2752.4 1132.21 2752.5 1139 2754.21 1160.58 2751.76 1176.46 2752.5 1189 2753.44 1194.81 2746.6 1201.33 2739.98 1201.5 2679.33 1207.3 2602.3 1181.35 2545.02 1201.5 2537.48 1202.44 2532.02 1196.76 2532.5 1189 2530.57 1170.48 2534.57 1154.01 2532.5 1139Z" fill="#475055" fill-rule="evenodd"/><path d="M2532.5 1139C2533.33 1133.53 2539.69 1127.65 2545.02 1126.5 2640.42 1103.51 2660.75 1142.24 2739.98 1126.5 2744.92 1127.04 2753.47 1130.63 2752.5 1139 2757.54 1151.89 2751.27 1168.16 2752.5 1189 2751.99 1196.44 2746.83 1201.94 2739.98 1201.5 2658.95 1203.24 2638.8 1200.71 2545.02 1201.5 2536.63 1202.72 2532.02 1195.33 2532.5 1189 2531.93 1165.2 2533.59 1153.27 2532.5 1139Z" stroke="#2327D0" stroke-width="4.58333" stroke-miterlimit="8" fill="none" fill-rule="evenodd"/><path d="M2816.5 1195C2817.1 1187.57 2821.45 1182.34 2829.02 1182.5 2870.72 1169.11 2960.09 1203.3 3023.98 1182.5 3029.96 1182.15 3036.4 1188.21 3036.5 1195 3038.21 1216.58 3035.76 1232.46 3036.5 1245 3037.44 1250.81 3030.6 1257.33 3023.98 1257.5 2963.33 1263.3 2886.3 1237.35 2829.02 1257.5 2821.48 1258.44 2816.02 1252.76 2816.5 1245 2814.57 1226.48 2818.57 1210.01 2816.5 1195Z" fill="#475055" fill-rule="evenodd"/><path d="M2816.5 1195C2817.33 1189.53 2823.69 1183.65 2829.02 1182.5 2924.42 1159.51 2944.75 1198.24 3023.98 1182.5 3028.92 1183.04 3037.47 1186.63 3036.5 1195 3041.54 1207.89 3035.27 1224.16 3036.5 1245 3035.99 1252.44 3030.83 1257.94 3023.98 1257.5 2942.95 1259.24 2922.8 1256.71 2829.02 1257.5 2820.63 1258.72 2816.02 1251.33 2816.5 1245 2815.93 1221.2 2817.59 1209.27 2816.5 1195Z" stroke="#2327D0" stroke-width="4.58333" stroke-miterlimit="8" fill="none" fill-rule="evenodd"/><text font-family="Arial Narrow,Arial Narrow_MSFontService,sans-serif" font-weight="400" font-stretch="condensed" font-size="83" transform="matrix(1 0 0 1 805.789 1016)">Planung<tspan font-size="83" x="1207.43" y="0">Erhebung und Analyse</tspan><tspan font-size="83" x="2846.51" y="0">Abschluss</tspan></text><path d="M3108.5 1195C3109.1 1187.57 3113.45 1182.34 3121.02 1182.5 3162.72 1169.11 3252.09 1203.3 3315.98 1182.5 3321.96 1182.15 3328.4 1188.21 3328.5 1195 3330.21 1216.58 3327.76 1232.46 3328.5 1245 3329.44 1250.81 3322.6 1257.33 3315.98 1257.5 3255.33 1263.3 3178.3 1237.35 3121.02 1257.5 3113.48 1258.44 3108.02 1252.76 3108.5 1245 3106.57 1226.48 3110.57 1210.01 3108.5 1195Z" fill="#475055" fill-rule="evenodd"/><path d="M3108.5 1195C3109.33 1189.53 3115.69 1183.65 3121.02 1182.5 3216.42 1159.51 3236.75 1198.24 3315.98 1182.5 3320.92 1183.04 3329.47 1186.63 3328.5 1195 3333.54 1207.89 3327.27 1224.16 3328.5 1245 3327.99 1252.44 3322.83 1257.94 3315.98 1257.5 3234.95 1259.24 3214.8 1256.71 3121.02 1257.5 3112.63 1258.72 3108.02 1251.33 3108.5 1245 3107.93 1221.2 3109.59 1209.27 3108.5 1195Z" stroke="#2327D0" stroke-width="4.58333" stroke-miterlimit="8" fill="none" fill-rule="evenodd"/><path d="M3701.5 1139C3702.1 1131.57 3706.45 1126.34 3714.02 1126.5 3755.72 1113.11 3845.09 1147.3 3908.98 1126.5 3914.96 1126.15 3921.4 1132.21 3921.5 1139 3923.21 1160.58 3920.76 1176.46 3921.5 1189 3922.44 1194.81 3915.6 1201.33 3908.98 1201.5 3848.33 1207.3 3771.3 1181.35 3714.02 1201.5 3706.48 1202.44 3701.02 1196.76 3701.5 1189 3699.57 1170.48 3703.57 1154.01 3701.5 1139Z" fill="#475055" fill-rule="evenodd"/><path d="M3701.5 1139C3702.33 1133.53 3708.69 1127.65 3714.02 1126.5 3809.42 1103.51 3829.75 1142.24 3908.98 1126.5 3913.92 1127.04 3922.47 1130.63 3921.5 1139 3926.54 1151.89 3920.27 1168.16 3921.5 1189 3920.99 1196.44 3915.83 1201.94 3908.98 1201.5 3827.95 1203.24 3807.8 1200.71 3714.02 1201.5 3705.63 1202.72 3701.02 1195.33 3701.5 1189 3700.93 1165.2 3702.59 1153.27 3701.5 1139Z" stroke="#2327D0" stroke-width="4.58333" stroke-miterlimit="8" fill="none" fill-rule="evenodd"/><path d="M3409.5 1139C3410.1 1131.57 3414.45 1126.34 3422.02 1126.5 3463.72 1113.11 3553.09 1147.3 3616.98 1126.5 3622.96 1126.15 3629.4 1132.21 3629.5 1139 3631.21 1160.58 3628.76 1176.46 3629.5 1189 3630.44 1194.81 3623.6 1201.33 3616.98 1201.5 3556.33 1207.3 3479.3 1181.35 3422.02 1201.5 3414.48 1202.44 3409.02 1196.76 3409.5 1189 3407.57 1170.48 3411.57 1154.01 3409.5 1139Z" fill="#475055" fill-rule="evenodd"/><path d="M3409.5 1139C3410.33 1133.53 3416.69 1127.65 3422.02 1126.5 3517.42 1103.51 3537.75 1142.24 3616.98 1126.5 3621.92 1127.04 3630.47 1130.63 3629.5 1139 3634.54 1151.89 3628.27 1168.16 3629.5 1189 3628.99 1196.44 3623.83 1201.94 3616.98 1201.5 3535.95 1203.24 3515.8 1200.71 3422.02 1201.5 3413.63 1202.72 3409.02 1195.33 3409.5 1189 3408.93 1165.2 3410.59 1153.27 3409.5 1139Z" stroke="#2327D0" stroke-width="4.58333" stroke-miterlimit="8" fill="none" fill-rule="evenodd"/><path d="M1075.5 1622C1076.1 1614.57 1080.45 1609.34 1088.02 1609.5 1129.72 1596.11 1219.09 1630.3 1282.98 1609.5 1288.96 1609.15 1295.4 1615.21 1295.5 1622 1297.21 1643.58 1294.76 1659.46 1295.5 1672 1296.44 1677.81 1289.6 1684.33 1282.98 1684.5 1222.33 1690.3 1145.3 1664.35 1088.02 1684.5 1080.48 1685.44 1075.02 1679.76 1075.5 1672 1073.57 1653.48 1077.57 1637.01 1075.5 1622Z" fill="#475055" fill-rule="evenodd"/><path d="M1075.5 1622C1076.33 1616.53 1082.69 1610.65 1088.02 1609.5 1183.42 1586.51 1203.75 1625.24 1282.98 1609.5 1287.92 1610.04 1296.47 1613.63 1295.5 1622 1300.54 1634.89 1294.27 1651.16 1295.5 1672 1294.99 1679.44 1289.83 1684.94 1282.98 1684.5 1201.95 1686.24 1181.8 1683.71 1088.02 1684.5 1079.63 1685.72 1075.02 1678.33 1075.5 1672 1074.93 1648.2 1076.59 1636.27 1075.5 1622Z" stroke="#2327D0" stroke-width="4.58333" stroke-miterlimit="8" fill="none" fill-rule="evenodd"/><path d="M1859.5 1622C1860.1 1614.57 1864.45 1609.34 1872.02 1609.5 1913.72 1596.11 2003.09 1630.3 2066.98 1609.5 2072.96 1609.15 2079.4 1615.21 2079.5 1622 2081.21 1643.58 2078.76 1659.46 2079.5 1672 2080.44 1677.81 2073.6 1684.33 2066.98 1684.5 2006.33 1690.3 1929.3 1664.35 1872.02 1684.5 1864.48 1685.44 1859.02 1679.76 1859.5 1672 1857.57 1653.48 1861.57 1637.01 1859.5 1622Z" fill="#475055" fill-rule="evenodd"/><path d="M1859.5 1622C1860.33 1616.53 1866.69 1610.65 1872.02 1609.5 1967.42 1586.51 1987.75 1625.24 2066.98 1609.5 2071.92 1610.04 2080.47 1613.63 2079.5 1622 2084.54 1634.89 2078.27 1651.16 2079.5 1672 2078.99 1679.44 2073.83 1684.94 2066.98 1684.5 1985.95 1686.24 1965.8 1683.71 1872.02 1684.5 1863.63 1685.72 1859.02 1678.33 1859.5 1672 1858.93 1648.2 1860.59 1636.27 1859.5 1622Z" stroke="#2327D0" stroke-width="4.58333" stroke-miterlimit="8" fill="none" fill-rule="evenodd"/><path d="M2463.5 1622C2464.11 1614.57 2468.48 1609.34 2476.08 1609.5 2517.96 1596.11 2607.75 1630.3 2671.92 1609.5 2677.93 1609.15 2684.4 1615.21 2684.5 1622 2686.22 1643.58 2683.75 1659.46 2684.5 1672 2685.44 1677.81 2678.58 1684.33 2671.92 1684.5 2611 1690.3 2533.62 1664.35 2476.08 1684.5 2468.5 1685.44 2463.02 1679.76 2463.5 1672 2461.56 1653.48 2465.58 1637.01 2463.5 1622Z" fill="#475055" fill-rule="evenodd"/><path d="M2463.5 1622C2464.34 1616.53 2470.72 1610.65 2476.08 1609.5 2571.91 1586.51 2592.33 1625.24 2671.92 1609.5 2676.88 1610.04 2685.48 1613.63 2684.5 1622 2689.56 1634.89 2683.26 1651.16 2684.5 1672 2683.99 1679.44 2678.81 1684.94 2671.92 1684.5 2590.53 1686.24 2570.29 1683.71 2476.08 1684.5 2467.65 1685.72 2463.02 1678.33 2463.5 1672 2462.93 1648.2 2464.6 1636.27 2463.5 1622Z" stroke="#2327D0" stroke-width="4.58333" stroke-miterlimit="8" fill="none" fill-rule="evenodd"/><text fill="#2327D0" font-family="Arial Narrow,Arial Narrow_MSFontService,sans-serif" font-weight="400" font-stretch="condensed" font-size="83" transform="matrix(1 0 0 1 3379.25 1453)">Zugang<tspan font-size="83" x="-73.7607" y="323">Archivierung</tspan></text><path d="M2927.5 1507.17C2928.1 1499.64 2932.45 1494.33 2940.02 1494.5 2981.72 1480.94 3071.09 1515.58 3134.98 1494.5 3140.96 1494.14 3147.4 1500.28 3147.5 1507.17 3149.21 1529.03 3146.76 1545.13 3147.5 1557.83 3148.44 1563.72 3141.6 1570.32 3134.98 1570.5 3074.33 1576.38 2997.3 1550.08 2940.02 1570.5 2932.48 1571.45 2927.02 1565.7 2927.5 1557.83 2925.57 1539.07 2929.57 1522.38 2927.5 1507.17Z" fill="#475055" fill-rule="evenodd"/><path d="M2927.5 1507.17C2928.33 1501.63 2934.69 1495.67 2940.02 1494.5 3035.42 1471.21 3055.75 1510.45 3134.98 1494.5 3139.92 1495.04 3148.47 1498.69 3147.5 1507.17 3152.54 1520.23 3146.27 1536.72 3147.5 1557.83 3146.99 1565.38 3141.83 1570.94 3134.98 1570.5 3053.95 1572.26 3033.8 1569.7 2940.02 1570.5 2931.63 1571.74 2927.02 1564.25 2927.5 1557.83 2926.93 1533.72 2928.59 1521.63 2927.5 1507.17Z" stroke="#2327D0" stroke-width="4.58333" stroke-miterlimit="8" fill="none" fill-rule="evenodd"/><path d="M3244.5 1507.17C3245.11 1499.64 3249.48 1494.33 3257.08 1494.5 3298.96 1480.94 3388.75 1515.58 3452.92 1494.5 3458.93 1494.14 3465.4 1500.28 3465.5 1507.17 3467.22 1529.03 3464.75 1545.13 3465.5 1557.83 3466.44 1563.72 3459.58 1570.32 3452.92 1570.5 3392 1576.38 3314.62 1550.08 3257.08 1570.5 3249.5 1571.45 3244.02 1565.7 3244.5 1557.83 3242.56 1539.07 3246.58 1522.38 3244.5 1507.17Z" fill="#475055" fill-rule="evenodd"/><path d="M3244.5 1507.17C3245.34 1501.63 3251.72 1495.67 3257.08 1494.5 3352.91 1471.21 3373.33 1510.45 3452.92 1494.5 3457.88 1495.04 3466.48 1498.69 3465.5 1507.17 3470.56 1520.23 3464.26 1536.72 3465.5 1557.83 3464.99 1565.38 3459.81 1570.94 3452.92 1570.5 3371.53 1572.26 3351.29 1569.7 3257.08 1570.5 3248.65 1571.74 3244.02 1564.25 3244.5 1557.83 3243.93 1533.72 3245.6 1521.63 3244.5 1507.17Z" stroke="#2327D0" stroke-width="4.58333" stroke-miterlimit="8" fill="none" fill-rule="evenodd"/><path d="M3562.5 1507.17C3563.1 1499.64 3567.45 1494.33 3575.02 1494.5 3616.72 1480.94 3706.09 1515.58 3769.98 1494.5 3775.96 1494.14 3782.4 1500.28 3782.5 1507.17 3784.21 1529.03 3781.76 1545.13 3782.5 1557.83 3783.44 1563.72 3776.6 1570.32 3769.98 1570.5 3709.33 1576.38 3632.3 1550.08 3575.02 1570.5 3567.48 1571.45 3562.02 1565.7 3562.5 1557.83 3560.57 1539.07 3564.57 1522.38 3562.5 1507.17Z" fill="#475055" fill-rule="evenodd"/><path d="M3562.5 1507.17C3563.33 1501.63 3569.69 1495.67 3575.02 1494.5 3670.42 1471.21 3690.75 1510.45 3769.98 1494.5 3774.92 1495.04 3783.47 1498.69 3782.5 1507.17 3787.54 1520.23 3781.27 1536.72 3782.5 1557.83 3781.99 1565.38 3776.83 1570.94 3769.98 1570.5 3688.95 1572.26 3668.8 1569.7 3575.02 1570.5 3566.63 1571.74 3562.02 1564.25 3562.5 1557.83 3561.93 1533.72 3563.59 1521.63 3562.5 1507.17Z" stroke="#2327D0" stroke-width="4.58333" stroke-miterlimit="8" fill="none" fill-rule="evenodd"/><path d="M2927.5 1838.17C2928.1 1830.64 2932.45 1825.33 2940.02 1825.5 2981.72 1811.94 3071.09 1846.58 3134.98 1825.5 3140.96 1825.14 3147.4 1831.28 3147.5 1838.17 3149.21 1860.03 3146.76 1876.13 3147.5 1888.83 3148.44 1894.72 3141.6 1901.32 3134.98 1901.5 3074.33 1907.38 2997.3 1881.08 2940.02 1901.5 2932.48 1902.45 2927.02 1896.7 2927.5 1888.83 2925.57 1870.07 2929.57 1853.38 2927.5 1838.17Z" fill="#475055" fill-rule="evenodd"/><path d="M2927.5 1838.17C2928.33 1832.63 2934.69 1826.67 2940.02 1825.5 3035.42 1802.21 3055.75 1841.45 3134.98 1825.5 3139.92 1826.04 3148.47 1829.69 3147.5 1838.17 3152.54 1851.23 3146.27 1867.72 3147.5 1888.83 3146.99 1896.38 3141.83 1901.94 3134.98 1901.5 3053.95 1903.26 3033.8 1900.7 2940.02 1901.5 2931.63 1902.74 2927.02 1895.25 2927.5 1888.83 2926.93 1864.72 2928.59 1852.63 2927.5 1838.17Z" stroke="#2327D0" stroke-width="4.58333" stroke-miterlimit="8" fill="none" fill-rule="evenodd"/><path d="M3244.5 1838.17C3245.11 1830.64 3249.48 1825.33 3257.08 1825.5 3298.96 1811.94 3388.75 1846.58 3452.92 1825.5 3458.93 1825.14 3465.4 1831.28 3465.5 1838.17 3467.22 1860.03 3464.75 1876.13 3465.5 1888.83 3466.44 1894.72 3459.58 1901.32 3452.92 1901.5 3392 1907.38 3314.62 1881.08 3257.08 1901.5 3249.5 1902.45 3244.02 1896.7 3244.5 1888.83 3242.56 1870.07 3246.58 1853.38 3244.5 1838.17Z" fill="#475055" fill-rule="evenodd"/><path d="M3244.5 1838.17C3245.34 1832.63 3251.72 1826.67 3257.08 1825.5 3352.91 1802.21 3373.33 1841.45 3452.92 1825.5 3457.88 1826.04 3466.48 1829.69 3465.5 1838.17 3470.56 1851.23 3464.26 1867.72 3465.5 1888.83 3464.99 1896.38 3459.81 1901.94 3452.92 1901.5 3371.53 1903.26 3351.29 1900.7 3257.08 1901.5 3248.65 1902.74 3244.02 1895.25 3244.5 1888.83 3243.93 1864.72 3245.6 1852.63 3244.5 1838.17Z" stroke="#2327D0" stroke-width="4.58333" stroke-miterlimit="8" fill="none" fill-rule="evenodd"/><path d="M3562.5 1838.17C3563.1 1830.64 3567.45 1825.33 3575.02 1825.5 3616.72 1811.94 3706.09 1846.58 3769.98 1825.5 3775.96 1825.14 3782.4 1831.28 3782.5 1838.17 3784.21 1860.03 3781.76 1876.13 3782.5 1888.83 3783.44 1894.72 3776.6 1901.32 3769.98 1901.5 3709.33 1907.38 3632.3 1881.08 3575.02 1901.5 3567.48 1902.45 3562.02 1896.7 3562.5 1888.83 3560.57 1870.07 3564.57 1853.38 3562.5 1838.17Z" fill="#475055" fill-rule="evenodd"/><path d="M3562.5 1838.17C3563.33 1832.63 3569.69 1826.67 3575.02 1825.5 3670.42 1802.21 3690.75 1841.45 3769.98 1825.5 3774.92 1826.04 3783.47 1829.69 3782.5 1838.17 3787.54 1851.23 3781.27 1867.72 3782.5 1888.83 3781.99 1896.38 3776.83 1901.94 3769.98 1901.5 3688.95 1903.26 3668.8 1900.7 3575.02 1901.5 3566.63 1902.74 3562.02 1895.25 3562.5 1888.83 3561.93 1864.72 3563.59 1852.63 3562.5 1838.17Z" stroke="#2327D0" stroke-width="4.58333" stroke-miterlimit="8" fill="none" fill-rule="evenodd"/><path d="M4197.25 1649 2771 1649" stroke="#000000" stroke-width="10.3125" stroke-miterlimit="8" fill="none" fill-rule="evenodd"/><text fill="#2327D0" font-family="Arial Narrow,Arial Narrow_MSFontService,sans-serif" font-weight="400" font-stretch="condensed" font-size="83" transform="matrix(1 0 0 1 805.789 1453)">Planung<tspan font-size="83" x="912.527" y="0">Erhebung und Analyse</tspan></text></g></svg>