<svg width="4010" height="1390" xmlns="http://www.w3.org/2000/svg" xmlns:xlink="http://www.w3.org/1999/xlink" overflow="hidden"><defs><clipPath id="clip0"><rect x="193" y="618" width="4010" height="1390"/></clipPath></defs><g clip-path="url(#clip0)" transform="translate(-193 -618)"><path d="M209 942.129C206.649 925.744 221.11 917.573 233.081 918 314.579 910.954 326.526 927.375 401.997 918 477.468 908.625 493.794 931.774 557.919 918 569.255 917.577 582.046 928.263 582 942.129 591.477 988.913 568.251 1049.63 582 1117.02 595.749 1184.4 563.636 1220.07 582 1322.76 600.364 1425.45 578.539 1480.56 582 1528.51 585.461 1576.47 571.653 1651.7 582 1734.26 592.347 1816.82 575.416 1891.66 582 1970.87 580.819 1984.72 570.169 1996.1 557.919 1995 505.855 2009.08 469.491 1977.79 389.003 1995 308.515 2012.21 289.473 1985.49 233.081 1995 221.355 1994.82 209.046 1983.9 209 1970.87 196.162 1905.84 215.911 1827.9 209 1775.41 202.089 1722.92 219.269 1635.56 209 1590.24 198.731 1544.92 217.419 1476.55 209 1374.2 200.581 1271.85 209.978 1229.14 209 1147.88 208.022 1066.62 212.904 1011.81 209 942.129Z" stroke="#0D0D0D" stroke-width="10.3125" stroke-miterlimit="8" fill="#FFFFFF" fill-rule="evenodd"/><path d="M580 925.162C579.425 919.356 584.885 915.749 589.164 916 655.116 914.311 743.205 937.255 788.875 916 834.546 894.745 891.495 936.319 959 916 1026.5 895.682 1067.29 924.941 1129.12 916 1190.96 907.059 1233.79 932.736 1328.84 916 1335.14 915.154 1338.12 920.237 1338 925.162 1356.07 980.338 1320.41 1054.18 1338 1125.93 1355.59 1197.68 1320.24 1243.62 1338 1337.27 1355.76 1430.91 1326.92 1502.4 1338 1569.73 1349.08 1637.07 1326.73 1688.43 1338 1770.5 1349.27 1852.57 1325.33 1931.05 1338 1981.84 1337.58 1987.97 1333.89 1991.24 1328.84 1991 1294.14 2002.78 1199.98 1979.82 1158.71 1991 1117.44 2002.18 1038.6 1989.3 959 1991 879.395 1992.7 848.41 1977.33 788.875 1991 729.34 2004.67 646.429 1969.78 589.164 1991 583.183 1991.91 579.297 1988.07 580 1981.84 577.412 1929.48 584.208 1826.26 580 1781.07 575.792 1735.88 585.036 1642.73 580 1569.73 574.964 1496.74 599.682 1472.03 580 1379.53 560.318 1287.04 588.221 1233.62 580 1168.2 571.779 1102.78 580.974 983.111 580 925.162Z" stroke="#0D0D0D" stroke-width="10.3125" stroke-miterlimit="8" fill="#FFFFFF" fill-rule="evenodd"/><path d="M0 9.89049C-0.0981636 4.30081 5.18715-0.243987 9.88962 0 103.593-14.0856 144.217 25.1032 225.409 0 306.601-25.1032 355.506 16.8586 409 0 462.495-16.8586 548.404 4.29828 592.591 0 636.777-4.29828 706.954 16.1342 808.11 0 813.841-0.183351 818.749 5.24103 818 9.89049 837.258 86.4313 810.449 124.947 818 210.382 825.551 295.817 797.063 337.194 818 421.426 838.936 505.658 811.521 585.437 818 653.574 824.479 721.711 796.542 792.35 818 854.066 839.458 915.781 798.755 1020.02 818 1065.11 817.63 1071.52 813.551 1076.43 808.11 1075 759.527 1094.54 698.001 1071.93 624.519 1075 551.037 1078.07 509.81 1050.76 409 1075 308.19 1099.24 303.532 1054.25 225.409 1075 147.286 1095.75 86.4648 1072.28 9.88962 1075 3.95325 1075.47-0.500562 1071.41 0 1065.11-11.9099 966.077 4.32642 962.492 0 864.618-4.32642 766.744 0.662243 741.701 0 653.574-0.662243 565.448 16.5294 543.711 0 463.635-16.5294 383.558 23.5358 343.867 0 252.591-23.5358 161.314 6.75669 109.762 0 9.89049Z" stroke="#0D0D0D" stroke-width="10.3125" stroke-miterlimit="8" fill="#FFFFFF" fill-rule="evenodd" transform="matrix(-1 0 0 1 4186 916)"/><path d="M2168.67 909.013C2202.1 908.49 2232.35 923.662 2274.14 916.188 2329.87 906.223 2393.53 921.272 2474.88 916.188 2556.23 911.104 2597.96 930.939 2675.62 916.188 2753.28 901.438 2825.87 931.059 2876.35 916.188 2926.84 901.318 3044.61 916.922 3117.24 916.188 3189.86 915.455 3241.07 940.236 3358.12 916.188 3366.29 918.003 3371.57 921.827 3371.12 929.178 3379.99 951.037 3378.95 977.092 3375.4 1003.91L3371.33 1030.59 3371.12 1029.32C3371.41 1024.97 3367.7 1022.54 3363.9 1022.11 3318.93 1036.32 3209.07 1018.49 3169.61 1022.11 3130.15 1025.72 3088.04 1003.63 2986.98 1022.11 2885.92 1040.59 2851.23 1008.39 2781.03 1022.11 2777.81 1021.86 2773.6 1025.07 2773.8 1029.32 2783.57 1089.57 2769.64 1142.07 2773.8 1210.6 2777.97 1279.13 2772.14 1306.58 2773.8 1401.42 2775.47 1496.25 2768.22 1547.49 2773.8 1601.78 2779.38 1656.06 2771.15 1743.18 2773.8 1811.68 2776.46 1880.17 2772.45 1897.58 2773.8 1983.41 2773.71 1987.24 2777.29 1991.62 2781.03 1990.63 2795.26 1989.29 2811.81 1989.33 2829.67 1989.97L2830.29 1990 2816.13 1990.63C2770.4 1997.32 2679.49 1967.91 2615.4 1990.63 2551.3 2013.35 2512.05 1974.83 2474.88 1990.63 2437.71 2006.43 2311.91 1981.86 2254.07 1990.63 2196.23 1999.39 2146.27 1982.74 2113.55 1990.63 2080.84 1998.51 2007.82 1976.83 1952.96 1990.63 1898.11 2004.42 1792.44 1981.81 1712.08 1990.63 1631.72 1999.45 1470.1 1972.51 1350.75 1990.63 1343.38 1990.01 1338.27 1983.58 1337.75 1977.64 1331.84 1877.93 1345.11 1829.36 1337.75 1746.98 1330.39 1664.59 1351.92 1591.71 1337.75 1547.77 1323.58 1503.82 1352.23 1430.17 1337.75 1348.56 1323.28 1266.95 1341.09 1225.14 1337.75 1149.35 1334.42 1073.57 1356.5 990.547 1337.75 929.178 1337.43 921.579 1344.17 915.999 1350.75 916.188 1401.87 913.38 1490.67 921.387 1591.64 916.188 1692.61 910.99 1687.18 916.847 1752.23 916.188 1817.27 915.53 1859.77 928.883 1912.82 916.188 1965.87 903.493 2084.04 936.518 2133.63 916.188 2146.02 911.106 2157.52 909.187 2168.67 909.013Z" stroke="#0D0D0D" stroke-width="10.3125" stroke-miterlimit="8" fill="#FFFFFF" fill-rule="evenodd"/><path d="M1432.5 628.5C1478.27 625.102 1540.97 622.192 1631.6 628.5 1722.24 634.808 1806.56 637.719 1918.92 628.5 2031.28 619.281 2083.96 638.035 2135.66 628.5 2187.37 618.965 2273.3 619.365 2334.77 628.5 2396.24 637.635 2465.64 622.23 2569.15 628.5 2672.67 634.77 2748.71 620.73 2821.18 628.5 2893.66 636.269 3089.81 640.803 3196.71 628.5 3244.32 671.71 3251.89 684.053 3294.5 726 3270 750.09 3218.87 799.985 3196.71 823.5 3132.71 822.138 3010.45 824.115 2944.68 823.5 2878.91 822.886 2749.71 831.219 2692.65 823.5 2635.59 815.782 2565.62 815.279 2458.26 823.5 2350.91 831.722 2308.83 810.809 2188.59 823.5 2068.35 836.191 1992.9 820.013 1936.56 823.5 1880.22 826.987 1731.35 815.298 1666.89 823.5 1602.42 831.702 1528.48 812.875 1432.5 823.5 1433.9 774.548 1438.79 694.469 1432.5 628.5Z" fill="#D0CECE" fill-rule="evenodd"/><path d="M1432.5 628.5C1531.66 632.867 1569.93 633.283 1649.25 628.5 1728.56 623.716 1812.34 634.364 1918.92 628.5 2025.49 622.636 2114.45 637.872 2206.23 628.5 2298.01 619.128 2351.22 639.173 2422.98 628.5 2494.74 617.827 2608.45 638.767 2657.36 628.5 2706.28 618.233 2775.97 619.802 2856.47 628.5 2936.97 637.198 3040.42 628.824 3196.71 628.5 3238.5 675.674 3268.59 708.644 3294.5 726 3258.77 767.366 3228.93 793.992 3196.71 823.5 3099.06 817.199 3065.82 819.063 2997.6 823.5 2929.39 827.938 2771.57 827.165 2710.29 823.5 2649.01 819.835 2603.1 824.845 2511.19 823.5 2419.27 822.156 2365.31 821.766 2241.52 823.5 2117.72 825.234 2128.91 816.503 2024.77 823.5 1920.63 830.498 1856.84 811.511 1772.74 823.5 1688.64 835.489 1556.71 834.789 1432.5 823.5 1427.04 754.491 1426.21 701.449 1432.5 628.5Z" stroke="#000000" stroke-width="4.58333" stroke-miterlimit="8" fill="none" fill-rule="evenodd"/><text fill="#323476" font-family="Calibri,Calibri_MSFontService,sans-serif" font-weight="400" font-size="92" transform="matrix(1 0 0 1 2109.95 757)">Bearbeitung</text><path d="M624.5 628.5C673.509 628.52 748.14 625.512 824.192 628.5 900.245 631.488 918.182 632.058 1001.28 628.5 1084.37 624.941 1151.64 620.913 1189.67 628.5 1237.07 673.816 1253.19 684.474 1287.5 726 1261.55 755.67 1237.48 783.308 1189.67 823.5 1136.36 816.632 1058.92 818.786 1012.58 823.5 966.248 828.215 895.562 827.765 818.541 823.5 741.52 819.235 675.333 821.794 624.5 823.5 632.19 771.752 630 675.032 624.5 628.5Z" fill="#D0CECE" fill-rule="evenodd"/><path d="M624.5 628.5C668.836 629.867 738.829 632.933 824.192 628.5 909.555 624.066 978.574 619.275 1018.23 628.5 1057.89 637.724 1127 631.838 1189.67 628.5 1222.07 667.439 1237.92 682.015 1287.5 726 1251.74 763.602 1217.9 791.499 1189.67 823.5 1124.59 831.487 1052.08 831.325 989.975 823.5 927.869 815.675 839.791 830.691 790.283 823.5 740.775 816.309 679.188 827.91 624.5 823.5 633.236 733.097 625.244 685.335 624.5 628.5Z" stroke="#000000" stroke-width="4.58333" stroke-miterlimit="8" fill="none" fill-rule="evenodd"/><text fill="#323476" font-family="Calibri,Calibri_MSFontService,sans-serif" font-weight="400" font-size="92" transform="matrix(1 0 0 1 780.87 757)">Planung</text><text font-family="Arial Narrow,Arial Narrow_MSFontService,sans-serif" font-weight="400" font-stretch="condensed" font-size="83" transform="matrix(-1.83697e-16 -1 1 -1.83697e-16 299.581 1736)">Forschungsprojekt<tspan font-size="83" x="429" y="150.765">Forschungs</tspan><tspan font-size="83" x="500" y="250.78">-</tspan><tspan font-size="83" x="523" y="250.78">ebene</tspan><tspan font-size="83" x="-219" y="155.784">Datenmanagement</tspan><tspan font-size="83" x="-36" y="254.784">-</tspan><tspan font-size="83" x="-14" y="254.784">ebene</tspan></text><path d="M598.5 1163C601.961 1123.57 634.328 1093.22 665 1096.5 699.406 1096.48 734.059 1116.9 731.5 1163 728.145 1201.55 709.172 1221.89 665 1229.5 636.706 1229.4 597.958 1207.41 598.5 1163Z" fill="#FFFFFF" fill-rule="evenodd"/><path d="M598.5 1163C601.957 1127.41 625.987 1106.89 665 1096.5 699.266 1085.97 734.993 1122.55 731.5 1163 732.036 1196.68 695.029 1226.5 665 1229.5 632.63 1229.59 606.307 1195.93 598.5 1163Z" stroke="#000000" stroke-width="6.875" stroke-miterlimit="8" fill="none" fill-rule="evenodd"/><path d="M4004 1160C4001.54 1122.17 4035.2 1097.95 4070.5 1094 4102.5 1094.11 4141.77 1125.98 4137 1160 4134.81 1200.05 4106.52 1227.49 4070.5 1226 4032.78 1220.17 3997.05 1200.53 4004 1160Z" fill="#FFFFFF" fill-rule="evenodd"/><path d="M4004 1160C4008.06 1133.01 4036.17 1091.54 4070.5 1094 4109.84 1102.01 4134.3 1126.74 4137 1160 4135.74 1204.31 4102.1 1219.27 4070.5 1226 4036.64 1228.85 4007.58 1195.92 4004 1160Z" stroke="#000000" stroke-width="13.75" stroke-miterlimit="8" fill="none" fill-rule="evenodd"/><path d="M3051.85 1015.18C3108.16 1013.43 3139.23 1025.18 3168.82 1022.47 3208.27 1018.85 3318.08 1036.69 3363.04 1022.47 3366.84 1022.91 3370.55 1025.33 3370.26 1029.69L3370.47 1030.95 3370.43 1031.21C3364.58 1067.13 3358.67 1102.37 3370.26 1128.77L3370.45 1129.38 3370.33 1130.66C3366.04 1162.47 3361.74 1190.85 3370.26 1210.99 3372.39 1216.03 3373.72 1221.83 3374.44 1228.25L3375 1249.14 3372.51 1270.26C3371.66 1277.46 3370.95 1284.24 3370.52 1290.42L3370.44 1295.83 3370.11 1298.59C3367.96 1316.11 3365.81 1334.28 3365.3 1351.89L3365.79 1371.33 3365.07 1378.6C3360.09 1429.95 3355.45 1494.01 3370.26 1537.73L3372.36 1546.37 3370.26 1592.69C3370.35 1610.46 3370.06 1626.31 3369.66 1641.64L3369.34 1653.16 3366.23 1675.16C3365.71 1683.03 3365.63 1691.17 3366.22 1699.69L3368.03 1711.67 3368.03 1711.72C3367.83 1736.99 3368.28 1765.74 3370.26 1802.63L3370.71 1818.24 3367.65 1847.39C3363.72 1879.27 3360.28 1912.07 3363.96 1945.09L3365.65 1953.92 3365.64 1954.12C3365.73 1959.63 3366.09 1964.82 3366.83 1969.76L3369.36 1980.21 3365.94 1987.96C3363.66 1990.27 3360.66 1991.48 3357.27 1991.15L3335.82 1995.94 3321.77 1996.98C3288.76 1997.49 3256.74 1989.42 3206.86 1989.79L3175.47 1991.12 3140.43 1990.09C3100.05 1987.81 3046.73 1983.45 2976 1991.15 2964.21 1992.44 2953.57 1993.29 2943.9 1993.83L2920.45 1994.46 2891.75 1993.59 2877.51 1992.49C2866.2 1991.43 2856.4 1990.26 2846.57 1989.77L2829.61 1990.52 2829 1990.49C2811.14 1989.86 2794.6 1989.82 2780.37 1991.15 2776.63 1992.15 2773.06 1987.76 2773.15 1983.94 2771.79 1898.09 2775.8 1880.68 2773.15 1812.17 2770.49 1743.66 2778.73 1656.53 2773.15 1602.24 2767.57 1547.94 2774.81 1496.69 2773.15 1401.84 2771.49 1306.99 2777.31 1279.54 2773.15 1210.99 2768.98 1142.45 2782.91 1089.94 2773.15 1029.69 2772.94 1025.43 2777.15 1022.22 2780.37 1022.47 2850.55 1008.75 2885.22 1040.95 2986.25 1022.47 3011.5 1017.85 3033.08 1015.76 3051.85 1015.18Z" stroke="#0D0D0D" stroke-width="10.3125" stroke-miterlimit="8" fill="none" fill-rule="evenodd"/><path d="M3371 1296 3370.83 1307.13C3371.41 1316.75 3370.26 1331.54 3368.57 1349.39L3366.48 1371 3366 1351.68C3366.5 1334.19 3368.58 1316.14 3370.68 1298.74L3371 1296Z" stroke="#0D0D0D" stroke-width="10.3125" stroke-miterlimit="8" fill="none" fill-rule="evenodd"/><path d="M3368.04 1712 3370.39 1726.74C3374.97 1745.41 3375.66 1764.91 3374.52 1785.02L3370.86 1818 3370.39 1802.47C3368.31 1765.79 3367.84 1737.19 3368.04 1712.05L3368.04 1712Z" stroke="#0D0D0D" stroke-width="10.3125" stroke-miterlimit="8" fill="none" fill-rule="evenodd"/><path d="M3370.08 1980 3371 1983.79C3371.06 1987.96 3367.97 1991.03 3363.66 1991.13 3356.19 1993.18 3349.05 1994.61 3342.11 1995.55L3336 1996 3357.79 1991.13C3361.24 1991.46 3364.29 1990.24 3366.6 1987.89L3370.08 1980Z" stroke="#0D0D0D" stroke-width="10.3125" stroke-miterlimit="8" fill="none" fill-rule="evenodd"/><path d="M3041.63 1987.16C3081.37 1986.38 3114.04 1988.71 3140.96 1990.15L3176 1991.13 3175.17 1991.16C3082.75 1997.9 3065.06 1980.37 2998.44 1991.16 2981.79 1993.86 2963.42 1994.89 2944.36 1995L2921 1994.32 2944.45 1993.71C2954.12 1993.2 2964.76 1992.39 2976.54 1991.16 3000.12 1988.72 3021.76 1987.55 3041.63 1987.16Z" stroke="#0D0D0D" stroke-width="10.3125" stroke-miterlimit="8" fill="none" fill-rule="evenodd"/><path d="M2846.92 1990C2856.73 1990.51 2866.5 1991.74 2877.79 1992.85L2892 1994 2885.76 1993.8 2830 1990.79 2846.92 1990Z" stroke="#0D0D0D" stroke-width="10.3125" stroke-miterlimit="8" fill="none" fill-rule="evenodd"/><path d="M3207.32 1990.01C3257.09 1989.65 3289.04 1997.61 3321.98 1997.1L3336 1996.09 3334.64 1996.38C3279.82 2004.66 3214.74 1990.57 3177.19 1991.36L3176 1991.32 3207.32 1990.01Z" stroke="#0D0D0D" stroke-width="10.3125" stroke-miterlimit="8" fill="none" fill-rule="evenodd"/><path d="M2892 1994 2921 1994.92 2918.08 1995C2910.05 1994.98 2902.79 1994.72 2896.11 1994.33L2892 1994Z" stroke="#0D0D0D" stroke-width="10.3125" stroke-miterlimit="8" fill="none" fill-rule="evenodd"/><path d="M0 0 3841.88 0.000360892" stroke="#000000" stroke-width="10.3125" stroke-miterlimit="8" fill="none" fill-rule="evenodd" transform="matrix(-1 0 0 1 4190.88 1345)"/><text font-family="Arial Narrow,Arial Narrow_MSFontService,sans-serif" font-weight="400" font-stretch="condensed" font-size="83" transform="matrix(1 0 0 1 2906.27 1119)">Publikation</text><path d="M778.5 1139C779.107 1131.57 783.476 1126.34 791.077 1126.5 832.962 1113.11 922.746 1147.3 986.923 1126.5 992.93 1126.15 999.396 1132.21 999.5 1139 1001.22 1160.58 998.753 1176.46 999.5 1189 1000.44 1194.81 993.576 1201.33 986.923 1201.5 925.996 1207.3 848.616 1181.35 791.077 1201.5 783.501 1202.44 778.019 1196.76 778.5 1189 776.565 1170.48 780.578 1154.01 778.5 1139Z" fill="#323476" fill-rule="evenodd"/><path d="M778.5 1139C779.336 1133.53 785.724 1127.65 791.077 1126.5 886.908 1103.51 907.329 1142.24 986.923 1126.5 991.884 1127.04 1000.48 1130.63 999.5 1139 1004.56 1151.89 998.262 1168.16 999.5 1189 998.986 1196.44 993.808 1201.94 986.923 1201.5 905.528 1203.24 885.286 1200.71 791.077 1201.5 782.651 1202.72 778.021 1195.33 778.5 1189 777.926 1165.2 779.596 1153.27 778.5 1139Z" stroke="#222355" stroke-width="4.58333" stroke-miterlimit="8" fill="none" fill-rule="evenodd"/><path d="M1070.5 1139C1071.11 1131.57 1075.48 1126.34 1083.08 1126.5 1124.96 1113.11 1214.75 1147.3 1278.92 1126.5 1284.93 1126.15 1291.4 1132.21 1291.5 1139 1293.22 1160.58 1290.75 1176.46 1291.5 1189 1292.44 1194.81 1285.58 1201.33 1278.92 1201.5 1218 1207.3 1140.62 1181.35 1083.08 1201.5 1075.5 1202.44 1070.02 1196.76 1070.5 1189 1068.56 1170.48 1072.58 1154.01 1070.5 1139Z" fill="#323476" fill-rule="evenodd"/><path d="M1070.5 1139C1071.34 1133.53 1077.72 1127.65 1083.08 1126.5 1178.91 1103.51 1199.33 1142.24 1278.92 1126.5 1283.88 1127.04 1292.48 1130.63 1291.5 1139 1296.56 1151.89 1290.26 1168.16 1291.5 1189 1290.99 1196.44 1285.81 1201.94 1278.92 1201.5 1197.53 1203.24 1177.29 1200.71 1083.08 1201.5 1074.65 1202.72 1070.02 1195.33 1070.5 1189 1069.93 1165.2 1071.6 1153.27 1070.5 1139Z" stroke="#222355" stroke-width="4.58333" stroke-miterlimit="8" fill="none" fill-rule="evenodd"/><path d="M808.5 1622C809.104 1614.57 813.453 1609.34 821.02 1609.5 862.716 1596.11 952.093 1630.3 1015.98 1609.5 1021.96 1609.15 1028.4 1615.21 1028.5 1622 1030.21 1643.58 1027.76 1659.46 1028.5 1672 1029.44 1677.81 1022.6 1684.33 1015.98 1684.5 955.328 1690.3 878.298 1664.35 821.02 1684.5 813.478 1685.44 808.021 1679.76 808.5 1672 806.573 1653.48 810.569 1637.01 808.5 1622Z" fill="#323476" fill-rule="evenodd"/><path d="M808.5 1622C809.332 1616.53 815.691 1610.65 821.02 1609.5 916.418 1586.51 936.746 1625.24 1015.98 1609.5 1020.92 1610.04 1029.47 1613.63 1028.5 1622 1033.54 1634.89 1027.27 1651.16 1028.5 1672 1027.99 1679.44 1022.83 1684.94 1015.98 1684.5 934.953 1686.24 914.803 1683.71 821.02 1684.5 812.632 1685.72 808.023 1678.33 808.5 1672 807.929 1648.2 809.591 1636.27 808.5 1622Z" stroke="#222355" stroke-width="4.58333" stroke-miterlimit="8" fill="none" fill-rule="evenodd"/><path d="M1363.5 1139C1364.1 1131.57 1368.45 1126.34 1376.02 1126.5 1417.72 1113.11 1507.09 1147.3 1570.98 1126.5 1576.96 1126.15 1583.4 1132.21 1583.5 1139 1585.21 1160.58 1582.76 1176.46 1583.5 1189 1584.44 1194.81 1577.6 1201.33 1570.98 1201.5 1510.33 1207.3 1433.3 1181.35 1376.02 1201.5 1368.48 1202.44 1363.02 1196.76 1363.5 1189 1361.57 1170.48 1365.57 1154.01 1363.5 1139Z" fill="#323476" fill-rule="evenodd"/><path d="M1363.5 1139C1364.33 1133.53 1370.69 1127.65 1376.02 1126.5 1471.42 1103.51 1491.75 1142.24 1570.98 1126.5 1575.92 1127.04 1584.47 1130.63 1583.5 1139 1588.54 1151.89 1582.27 1168.16 1583.5 1189 1582.99 1196.44 1577.83 1201.94 1570.98 1201.5 1489.95 1203.24 1469.8 1200.71 1376.02 1201.5 1367.63 1202.72 1363.02 1195.33 1363.5 1189 1362.93 1165.2 1364.59 1153.27 1363.5 1139Z" stroke="#222355" stroke-width="4.58333" stroke-miterlimit="8" fill="none" fill-rule="evenodd"/><path d="M1557.5 1622C1558.1 1614.57 1562.45 1609.34 1570.02 1609.5 1611.72 1596.11 1701.09 1630.3 1764.98 1609.5 1770.96 1609.15 1777.4 1615.21 1777.5 1622 1779.21 1643.58 1776.76 1659.46 1777.5 1672 1778.44 1677.81 1771.6 1684.33 1764.98 1684.5 1704.33 1690.3 1627.3 1664.35 1570.02 1684.5 1562.48 1685.44 1557.02 1679.76 1557.5 1672 1555.57 1653.48 1559.57 1637.01 1557.5 1622Z" fill="#323476" fill-rule="evenodd"/><path d="M1557.5 1622C1558.33 1616.53 1564.69 1610.65 1570.02 1609.5 1665.42 1586.51 1685.75 1625.24 1764.98 1609.5 1769.92 1610.04 1778.47 1613.63 1777.5 1622 1782.54 1634.89 1776.27 1651.16 1777.5 1672 1776.99 1679.44 1771.83 1684.94 1764.98 1684.5 1683.95 1686.24 1663.8 1683.71 1570.02 1684.5 1561.63 1685.72 1557.02 1678.33 1557.5 1672 1556.93 1648.2 1558.59 1636.27 1557.5 1622Z" stroke="#222355" stroke-width="4.58333" stroke-miterlimit="8" fill="none" fill-rule="evenodd"/><path d="M2161.5 1622C2162.1 1614.57 2166.45 1609.34 2174.02 1609.5 2215.72 1596.11 2305.09 1630.3 2368.98 1609.5 2374.96 1609.15 2381.4 1615.21 2381.5 1622 2383.21 1643.58 2380.76 1659.46 2381.5 1672 2382.44 1677.81 2375.6 1684.33 2368.98 1684.5 2308.33 1690.3 2231.3 1664.35 2174.02 1684.5 2166.48 1685.44 2161.02 1679.76 2161.5 1672 2159.57 1653.48 2163.57 1637.01 2161.5 1622Z" fill="#323476" fill-rule="evenodd"/><path d="M2161.5 1622C2162.33 1616.53 2168.69 1610.65 2174.02 1609.5 2269.42 1586.51 2289.75 1625.24 2368.98 1609.5 2373.92 1610.04 2382.47 1613.63 2381.5 1622 2386.54 1634.89 2380.27 1651.16 2381.5 1672 2380.99 1679.44 2375.83 1684.94 2368.98 1684.5 2287.95 1686.24 2267.8 1683.71 2174.02 1684.5 2165.63 1685.72 2161.02 1678.33 2161.5 1672 2160.93 1648.2 2162.59 1636.27 2161.5 1622Z" stroke="#222355" stroke-width="4.58333" stroke-miterlimit="8" fill="none" fill-rule="evenodd"/><path d="M1655.5 1139C1656.1 1131.57 1660.45 1126.34 1668.02 1126.5 1709.72 1113.11 1799.09 1147.3 1862.98 1126.5 1868.96 1126.15 1875.4 1132.21 1875.5 1139 1877.21 1160.58 1874.76 1176.46 1875.5 1189 1876.44 1194.81 1869.6 1201.33 1862.98 1201.5 1802.33 1207.3 1725.3 1181.35 1668.02 1201.5 1660.48 1202.44 1655.02 1196.76 1655.5 1189 1653.57 1170.48 1657.57 1154.01 1655.5 1139Z" fill="#323476" fill-rule="evenodd"/><path d="M1655.5 1139C1656.33 1133.53 1662.69 1127.65 1668.02 1126.5 1763.42 1103.51 1783.75 1142.24 1862.98 1126.5 1867.92 1127.04 1876.47 1130.63 1875.5 1139 1880.54 1151.89 1874.27 1168.16 1875.5 1189 1874.99 1196.44 1869.83 1201.94 1862.98 1201.5 1781.95 1203.24 1761.8 1200.71 1668.02 1201.5 1659.63 1202.72 1655.02 1195.33 1655.5 1189 1654.93 1165.2 1656.59 1153.27 1655.5 1139Z" stroke="#222355" stroke-width="4.58333" stroke-miterlimit="8" fill="none" fill-rule="evenodd"/><path d="M1947.5 1139C1948.11 1131.57 1952.48 1126.34 1960.08 1126.5 2001.96 1113.11 2091.75 1147.3 2155.92 1126.5 2161.93 1126.15 2168.4 1132.21 2168.5 1139 2170.22 1160.58 2167.75 1176.46 2168.5 1189 2169.44 1194.81 2162.58 1201.33 2155.92 1201.5 2095 1207.3 2017.62 1181.35 1960.08 1201.5 1952.5 1202.44 1947.02 1196.76 1947.5 1189 1945.56 1170.48 1949.58 1154.01 1947.5 1139Z" fill="#323476" fill-rule="evenodd"/><path d="M1947.5 1139C1948.34 1133.53 1954.72 1127.65 1960.08 1126.5 2055.91 1103.51 2076.33 1142.24 2155.92 1126.5 2160.88 1127.04 2169.48 1130.63 2168.5 1139 2173.56 1151.89 2167.26 1168.16 2168.5 1189 2167.99 1196.44 2162.81 1201.94 2155.92 1201.5 2074.53 1203.24 2054.29 1200.71 1960.08 1201.5 1951.65 1202.72 1947.02 1195.33 1947.5 1189 1946.93 1165.2 1948.6 1153.27 1947.5 1139Z" stroke="#222355" stroke-width="4.58333" stroke-miterlimit="8" fill="none" fill-rule="evenodd"/><path d="M2239.5 1139C2240.11 1131.57 2244.48 1126.34 2252.08 1126.5 2293.96 1113.11 2383.75 1147.3 2447.92 1126.5 2453.93 1126.15 2460.4 1132.21 2460.5 1139 2462.22 1160.58 2459.75 1176.46 2460.5 1189 2461.44 1194.81 2454.58 1201.33 2447.92 1201.5 2387 1207.3 2309.62 1181.35 2252.08 1201.5 2244.5 1202.44 2239.02 1196.76 2239.5 1189 2237.56 1170.48 2241.58 1154.01 2239.5 1139Z" fill="#323476" fill-rule="evenodd"/><path d="M2239.5 1139C2240.34 1133.53 2246.72 1127.65 2252.08 1126.5 2347.91 1103.51 2368.33 1142.24 2447.92 1126.5 2452.88 1127.04 2461.48 1130.63 2460.5 1139 2465.56 1151.89 2459.26 1168.16 2460.5 1189 2459.99 1196.44 2454.81 1201.94 2447.92 1201.5 2366.53 1203.24 2346.29 1200.71 2252.08 1201.5 2243.65 1202.72 2239.02 1195.33 2239.5 1189 2238.93 1165.2 2240.6 1153.27 2239.5 1139Z" stroke="#222355" stroke-width="4.58333" stroke-miterlimit="8" fill="none" fill-rule="evenodd"/><path d="M2532.5 1139C2533.1 1131.57 2537.45 1126.34 2545.02 1126.5 2586.72 1113.11 2676.09 1147.3 2739.98 1126.5 2745.96 1126.15 2752.4 1132.21 2752.5 1139 2754.21 1160.58 2751.76 1176.46 2752.5 1189 2753.44 1194.81 2746.6 1201.33 2739.98 1201.5 2679.33 1207.3 2602.3 1181.35 2545.02 1201.5 2537.48 1202.44 2532.02 1196.76 2532.5 1189 2530.57 1170.48 2534.57 1154.01 2532.5 1139Z" fill="#323476" fill-rule="evenodd"/><path d="M2532.5 1139C2533.33 1133.53 2539.69 1127.65 2545.02 1126.5 2640.42 1103.51 2660.75 1142.24 2739.98 1126.5 2744.92 1127.04 2753.47 1130.63 2752.5 1139 2757.54 1151.89 2751.27 1168.16 2752.5 1189 2751.99 1196.44 2746.83 1201.94 2739.98 1201.5 2658.95 1203.24 2638.8 1200.71 2545.02 1201.5 2536.63 1202.72 2532.02 1195.33 2532.5 1189 2531.93 1165.2 2533.59 1153.27 2532.5 1139Z" stroke="#222355" stroke-width="4.58333" stroke-miterlimit="8" fill="none" fill-rule="evenodd"/><path d="M2816.5 1195C2817.1 1187.57 2821.45 1182.34 2829.02 1182.5 2870.72 1169.11 2960.09 1203.3 3023.98 1182.5 3029.96 1182.15 3036.4 1188.21 3036.5 1195 3038.21 1216.58 3035.76 1232.46 3036.5 1245 3037.44 1250.81 3030.6 1257.33 3023.98 1257.5 2963.33 1263.3 2886.3 1237.35 2829.02 1257.5 2821.48 1258.44 2816.02 1252.76 2816.5 1245 2814.57 1226.48 2818.57 1210.01 2816.5 1195Z" fill="#323476" fill-rule="evenodd"/><path d="M2816.5 1195C2817.33 1189.53 2823.69 1183.65 2829.02 1182.5 2924.42 1159.51 2944.75 1198.24 3023.98 1182.5 3028.92 1183.04 3037.47 1186.63 3036.5 1195 3041.54 1207.89 3035.27 1224.16 3036.5 1245 3035.99 1252.44 3030.83 1257.94 3023.98 1257.5 2942.95 1259.24 2922.8 1256.71 2829.02 1257.5 2820.63 1258.72 2816.02 1251.33 2816.5 1245 2815.93 1221.2 2817.59 1209.27 2816.5 1195Z" stroke="#222355" stroke-width="4.58333" stroke-miterlimit="8" fill="none" fill-rule="evenodd"/><path d="M3439.5 628.5C3499.01 620.078 3548.19 636.103 3643.79 628.5 3739.38 620.897 3766.26 637.44 3830.73 628.5 3895.19 619.559 3969.03 624.373 4017.67 628.5 4043 650.122 4090.05 698.008 4115.5 726 4092.29 744.832 4062.68 771.226 4017.67 823.5 3960.01 826.715 3924.53 825.401 3836.51 823.5 3748.48 821.6 3712.24 814.591 3632.22 823.5 3552.2 832.409 3498.49 830.416 3439.5 823.5 3443.06 776.186 3446.88 674.818 3439.5 628.5Z" fill="#D0CECE" fill-rule="evenodd"/><path d="M3439.5 628.5C3516.58 623.844 3567.57 628.89 3643.79 628.5 3720 628.11 3795.14 625 3848.07 628.5 3901 631.999 3944.55 630.543 4017.67 628.5 4061.19 663.057 4091.26 707.421 4115.5 726 4098.93 748.794 4036.2 799.339 4017.67 823.5 3974.98 822.659 3901.74 818.094 3836.51 823.5 3771.28 828.906 3677.35 813.976 3632.22 823.5 3587.1 833.024 3515.36 823.503 3439.5 823.5 3445.28 765.532 3447.96 688.036 3439.5 628.5Z" stroke="#000000" stroke-width="4.58333" stroke-miterlimit="8" fill="none" fill-rule="evenodd"/><text fill="#323476" font-family="Calibri,Calibri_MSFontService,sans-serif" font-weight="400" font-size="92" transform="matrix(1 0 0 1 3569.79 757)">Abschluss<tspan fill="#000000" font-family="Arial Narrow,Arial Narrow_MSFontService,sans-serif" font-stretch="condensed" font-size="83" x="-2764.01" y="259">Planung</tspan><tspan fill="#000000" font-family="Arial Narrow,Arial Narrow_MSFontService,sans-serif" font-stretch="condensed" font-size="83" x="-1556.57" y="259">Erhebung und Analyse</tspan><tspan fill="#000000" font-family="Arial Narrow,Arial Narrow_MSFontService,sans-serif" font-stretch="condensed" font-size="83" x="82.5017" y="259">Abschluss</tspan></text><path d="M3108.5 1195C3109.1 1187.57 3113.45 1182.34 3121.02 1182.5 3162.72 1169.11 3252.09 1203.3 3315.98 1182.5 3321.96 1182.15 3328.4 1188.21 3328.5 1195 3330.21 1216.58 3327.76 1232.46 3328.5 1245 3329.44 1250.81 3322.6 1257.33 3315.98 1257.5 3255.33 1263.3 3178.3 1237.35 3121.02 1257.5 3113.48 1258.44 3108.02 1252.76 3108.5 1245 3106.57 1226.48 3110.57 1210.01 3108.5 1195Z" fill="#323476" fill-rule="evenodd"/><path d="M3108.5 1195C3109.33 1189.53 3115.69 1183.65 3121.02 1182.5 3216.42 1159.51 3236.75 1198.24 3315.98 1182.5 3320.92 1183.04 3329.47 1186.63 3328.5 1195 3333.54 1207.89 3327.27 1224.16 3328.5 1245 3327.99 1252.44 3322.83 1257.94 3315.98 1257.5 3234.95 1259.24 3214.8 1256.71 3121.02 1257.5 3112.63 1258.72 3108.02 1251.33 3108.5 1245 3107.93 1221.2 3109.59 1209.27 3108.5 1195Z" stroke="#222355" stroke-width="4.58333" stroke-miterlimit="8" fill="none" fill-rule="evenodd"/><path d="M3701.5 1139C3702.1 1131.57 3706.45 1126.34 3714.02 1126.5 3755.72 1113.11 3845.09 1147.3 3908.98 1126.5 3914.96 1126.15 3921.4 1132.21 3921.5 1139 3923.21 1160.58 3920.76 1176.46 3921.5 1189 3922.44 1194.81 3915.6 1201.33 3908.98 1201.5 3848.33 1207.3 3771.3 1181.35 3714.02 1201.5 3706.48 1202.44 3701.02 1196.76 3701.5 1189 3699.57 1170.48 3703.57 1154.01 3701.5 1139Z" fill="#323476" fill-rule="evenodd"/><path d="M3701.5 1139C3702.33 1133.53 3708.69 1127.65 3714.02 1126.5 3809.42 1103.51 3829.75 1142.24 3908.98 1126.5 3913.92 1127.04 3922.47 1130.63 3921.5 1139 3926.54 1151.89 3920.27 1168.16 3921.5 1189 3920.99 1196.44 3915.83 1201.94 3908.98 1201.5 3827.95 1203.24 3807.8 1200.71 3714.02 1201.5 3705.63 1202.72 3701.02 1195.33 3701.5 1189 3700.93 1165.2 3702.59 1153.27 3701.5 1139Z" stroke="#222355" stroke-width="4.58333" stroke-miterlimit="8" fill="none" fill-rule="evenodd"/><path d="M3409.5 1139C3410.1 1131.57 3414.45 1126.34 3422.02 1126.5 3463.72 1113.11 3553.09 1147.3 3616.98 1126.5 3622.96 1126.15 3629.4 1132.21 3629.5 1139 3631.21 1160.58 3628.76 1176.46 3629.5 1189 3630.44 1194.81 3623.6 1201.33 3616.98 1201.5 3556.33 1207.3 3479.3 1181.35 3422.02 1201.5 3414.48 1202.44 3409.02 1196.76 3409.5 1189 3407.57 1170.48 3411.57 1154.01 3409.5 1139Z" fill="#323476" fill-rule="evenodd"/><path d="M3409.5 1139C3410.33 1133.53 3416.69 1127.65 3422.02 1126.5 3517.42 1103.51 3537.75 1142.24 3616.98 1126.5 3621.92 1127.04 3630.47 1130.63 3629.5 1139 3634.54 1151.89 3628.27 1168.16 3629.5 1189 3628.99 1196.44 3623.83 1201.94 3616.98 1201.5 3535.95 1203.24 3515.8 1200.71 3422.02 1201.5 3413.63 1202.72 3409.02 1195.33 3409.5 1189 3408.93 1165.2 3410.59 1153.27 3409.5 1139Z" stroke="#222355" stroke-width="4.58333" stroke-miterlimit="8" fill="none" fill-rule="evenodd"/><path d="M1075.5 1622C1076.1 1614.57 1080.45 1609.34 1088.02 1609.5 1129.72 1596.11 1219.09 1630.3 1282.98 1609.5 1288.96 1609.15 1295.4 1615.21 1295.5 1622 1297.21 1643.58 1294.76 1659.46 1295.5 1672 1296.44 1677.81 1289.6 1684.33 1282.98 1684.5 1222.33 1690.3 1145.3 1664.35 1088.02 1684.5 1080.48 1685.44 1075.02 1679.76 1075.5 1672 1073.57 1653.48 1077.57 1637.01 1075.5 1622Z" fill="#323476" fill-rule="evenodd"/><path d="M1075.5 1622C1076.33 1616.53 1082.69 1610.65 1088.02 1609.5 1183.42 1586.51 1203.75 1625.24 1282.98 1609.5 1287.92 1610.04 1296.47 1613.63 1295.5 1622 1300.54 1634.89 1294.27 1651.16 1295.5 1672 1294.99 1679.44 1289.83 1684.94 1282.98 1684.5 1201.95 1686.24 1181.8 1683.71 1088.02 1684.5 1079.63 1685.72 1075.02 1678.33 1075.5 1672 1074.93 1648.2 1076.59 1636.27 1075.5 1622Z" stroke="#222355" stroke-width="4.58333" stroke-miterlimit="8" fill="none" fill-rule="evenodd"/><path d="M1859.5 1622C1860.1 1614.57 1864.45 1609.34 1872.02 1609.5 1913.72 1596.11 2003.09 1630.3 2066.98 1609.5 2072.96 1609.15 2079.4 1615.21 2079.5 1622 2081.21 1643.58 2078.76 1659.46 2079.5 1672 2080.44 1677.81 2073.6 1684.33 2066.98 1684.5 2006.33 1690.3 1929.3 1664.35 1872.02 1684.5 1864.48 1685.44 1859.02 1679.76 1859.5 1672 1857.57 1653.48 1861.57 1637.01 1859.5 1622Z" fill="#323476" fill-rule="evenodd"/><path d="M1859.5 1622C1860.33 1616.53 1866.69 1610.65 1872.02 1609.5 1967.42 1586.51 1987.75 1625.24 2066.98 1609.5 2071.92 1610.04 2080.47 1613.63 2079.5 1622 2084.54 1634.89 2078.27 1651.16 2079.5 1672 2078.99 1679.44 2073.83 1684.94 2066.98 1684.5 1985.95 1686.24 1965.8 1683.71 1872.02 1684.5 1863.63 1685.72 1859.02 1678.33 1859.5 1672 1858.93 1648.2 1860.59 1636.27 1859.5 1622Z" stroke="#222355" stroke-width="4.58333" stroke-miterlimit="8" fill="none" fill-rule="evenodd"/><path d="M2463.5 1622C2464.11 1614.57 2468.48 1609.34 2476.08 1609.5 2517.96 1596.11 2607.75 1630.3 2671.92 1609.5 2677.93 1609.15 2684.4 1615.21 2684.5 1622 2686.22 1643.58 2683.75 1659.46 2684.5 1672 2685.44 1677.81 2678.58 1684.33 2671.92 1684.5 2611 1690.3 2533.62 1664.35 2476.08 1684.5 2468.5 1685.44 2463.02 1679.76 2463.5 1672 2461.56 1653.48 2465.58 1637.01 2463.5 1622Z" fill="#323476" fill-rule="evenodd"/><path d="M2463.5 1622C2464.34 1616.53 2470.72 1610.65 2476.08 1609.5 2571.91 1586.51 2592.33 1625.24 2671.92 1609.5 2676.88 1610.04 2685.48 1613.63 2684.5 1622 2689.56 1634.89 2683.26 1651.16 2684.5 1672 2683.99 1679.44 2678.81 1684.94 2671.92 1684.5 2590.53 1686.24 2570.29 1683.71 2476.08 1684.5 2467.65 1685.72 2463.02 1678.33 2463.5 1672 2462.93 1648.2 2464.6 1636.27 2463.5 1622Z" stroke="#222355" stroke-width="4.58333" stroke-miterlimit="8" fill="none" fill-rule="evenodd"/><path d="M0 0 0.000360892 1078.77" stroke="#000000" stroke-width="10.3125" stroke-miterlimit="8" fill="none" fill-rule="evenodd" transform="matrix(1 0 0 -1 347 1994.77)"/><path d="M4197.74 1650.49C4200.3 1711.74 4183.14 1745.54 4187.09 1777.73 4192.37 1820.64 4166.33 1940.09 4187.09 1988.99 4186.46 1993.13 4182.92 1997.16 4176.56 1996.85L4174.7 1997.08 4174.33 1997.03C4121.87 1990.67 4070.42 1984.23 4031.87 1996.85L4030.98 1997.05 4029.11 1996.92C3982.65 1992.26 3941.21 1987.57 3911.8 1996.85 3904.44 1999.17 3895.97 2000.61 3886.59 2001.39L3856.09 2002 3825.25 1999.29C3814.73 1998.37 3804.84 1997.59 3795.81 1997.13L3787.91 1997.04 3783.88 1996.68C3758.3 1994.34 3731.77 1992 3706.05 1991.45L3677.65 1991.98 3667.03 1991.2C3592.05 1985.78 3498.51 1980.74 3434.66 1996.85L3422.04 1999.12 3354.4 1996.85C3328.46 1996.94 3305.31 1996.62 3282.93 1996.19L3266.1 1995.85 3233.98 1992.46C3222.48 1991.9 3210.6 1991.81 3198.16 1992.45L3180.67 1994.41 3180.6 1994.41C3143.68 1994.2 3101.7 1994.69 3047.84 1996.85L3025.04 1997.34 2982.47 1994.01C2935.92 1989.73 2888.02 1985.99 2839.8 1990L2826.91 1991.83 2826.61 1991.82C2818.57 1991.92 2811 1992.31 2803.78 1993.11L2788.52 1995.86 2777.2 1992.14C2773.82 1989.66 2772.06 1986.4 2772.54 1982.71L2765.54 1959.38 2764.03 1944.09C2763.28 1908.19 2775.06 1873.36 2774.53 1819.11L2772.59 1784.97 2774.09 1746.85C2777.41 1702.92 2783.78 1644.92 2772.54 1567.99 2770.67 1555.16 2769.41 1543.59 2768.64 1533.07L2767.7 1507.56 2768.98 1476.34 2770.58 1460.86C2772.13 1448.55 2773.84 1437.89 2774.55 1427.2L2773.46 1408.76 2773.5 1408.09C2774.43 1388.66 2774.49 1370.67 2772.54 1355.19 2771.09 1351.12 2777.49 1347.24 2783.08 1347.34 2908.44 1345.86 2933.86 1350.23 3033.9 1347.34 3133.94 1344.45 3261.18 1353.4 3340.47 1347.34 3419.75 1341.27 3494.59 1349.15 3633.1 1347.34 3771.61 1345.53 3811.7 1351.87 3911.8 1347.34 4011.89 1342.8 4088.56 1357.96 4176.56 1347.34 4182.76 1347.11 4187.46 1351.69 4187.09 1355.19 4207.13 1431.53 4160.11 1469.24 4187.09 1579.13 4193.84 1606.61 4196.89 1630.07 4197.74 1650.49Z" stroke="#0D0D0D" stroke-width="10.3125" stroke-miterlimit="8" fill="#FFFFFF" fill-rule="evenodd"/><text font-family="Arial Narrow,Arial Narrow_MSFontService,sans-serif" font-weight="400" font-stretch="condensed" font-size="83" transform="matrix(1 0 0 1 3416.89 1450)">Zugang<tspan font-size="83" x="-35.4995" y="326">Archivierung</tspan></text><path d="M2927.5 1507.17C2928.1 1499.64 2932.45 1494.33 2940.02 1494.5 2981.72 1480.94 3071.09 1515.58 3134.98 1494.5 3140.96 1494.14 3147.4 1500.28 3147.5 1507.17 3149.21 1529.03 3146.76 1545.13 3147.5 1557.83 3148.44 1563.72 3141.6 1570.32 3134.98 1570.5 3074.33 1576.38 2997.3 1550.08 2940.02 1570.5 2932.48 1571.45 2927.02 1565.7 2927.5 1557.83 2925.57 1539.07 2929.57 1522.38 2927.5 1507.17Z" fill="#323476" fill-rule="evenodd"/><path d="M2927.5 1507.17C2928.33 1501.63 2934.69 1495.67 2940.02 1494.5 3035.42 1471.21 3055.75 1510.45 3134.98 1494.5 3139.92 1495.04 3148.47 1498.69 3147.5 1507.17 3152.54 1520.23 3146.27 1536.72 3147.5 1557.83 3146.99 1565.38 3141.83 1570.94 3134.98 1570.5 3053.95 1572.26 3033.8 1569.7 2940.02 1570.5 2931.63 1571.74 2927.02 1564.25 2927.5 1557.83 2926.93 1533.72 2928.59 1521.63 2927.5 1507.17Z" stroke="#222355" stroke-width="4.58333" stroke-miterlimit="8" fill="none" fill-rule="evenodd"/><path d="M3244.5 1507.17C3245.11 1499.64 3249.48 1494.33 3257.08 1494.5 3298.96 1480.94 3388.75 1515.58 3452.92 1494.5 3458.93 1494.14 3465.4 1500.28 3465.5 1507.17 3467.22 1529.03 3464.75 1545.13 3465.5 1557.83 3466.44 1563.72 3459.58 1570.32 3452.92 1570.5 3392 1576.38 3314.62 1550.08 3257.08 1570.5 3249.5 1571.45 3244.02 1565.7 3244.5 1557.83 3242.56 1539.07 3246.58 1522.38 3244.5 1507.17Z" fill="#323476" fill-rule="evenodd"/><path d="M3244.5 1507.17C3245.34 1501.63 3251.72 1495.67 3257.08 1494.5 3352.91 1471.21 3373.33 1510.45 3452.92 1494.5 3457.88 1495.04 3466.48 1498.69 3465.5 1507.17 3470.56 1520.23 3464.26 1536.72 3465.5 1557.83 3464.99 1565.38 3459.81 1570.94 3452.92 1570.5 3371.53 1572.26 3351.29 1569.7 3257.08 1570.5 3248.65 1571.74 3244.02 1564.25 3244.5 1557.83 3243.93 1533.72 3245.6 1521.63 3244.5 1507.17Z" stroke="#222355" stroke-width="4.58333" stroke-miterlimit="8" fill="none" fill-rule="evenodd"/><path d="M3562.5 1507.17C3563.1 1499.64 3567.45 1494.33 3575.02 1494.5 3616.72 1480.94 3706.09 1515.58 3769.98 1494.5 3775.96 1494.14 3782.4 1500.28 3782.5 1507.17 3784.21 1529.03 3781.76 1545.13 3782.5 1557.83 3783.44 1563.72 3776.6 1570.32 3769.98 1570.5 3709.33 1576.38 3632.3 1550.08 3575.02 1570.5 3567.48 1571.45 3562.02 1565.7 3562.5 1557.83 3560.57 1539.07 3564.57 1522.38 3562.5 1507.17Z" fill="#323476" fill-rule="evenodd"/><path d="M3562.5 1507.17C3563.33 1501.63 3569.69 1495.67 3575.02 1494.5 3670.42 1471.21 3690.75 1510.45 3769.98 1494.5 3774.92 1495.04 3783.47 1498.69 3782.5 1507.17 3787.54 1520.23 3781.27 1536.72 3782.5 1557.83 3781.99 1565.38 3776.83 1570.94 3769.98 1570.5 3688.95 1572.26 3668.8 1569.7 3575.02 1570.5 3566.63 1571.74 3562.02 1564.25 3562.5 1557.83 3561.93 1533.72 3563.59 1521.63 3562.5 1507.17Z" stroke="#222355" stroke-width="4.58333" stroke-miterlimit="8" fill="none" fill-rule="evenodd"/><path d="M2927.5 1838.17C2928.1 1830.64 2932.45 1825.33 2940.02 1825.5 2981.72 1811.94 3071.09 1846.58 3134.98 1825.5 3140.96 1825.14 3147.4 1831.28 3147.5 1838.17 3149.21 1860.03 3146.76 1876.13 3147.5 1888.83 3148.44 1894.72 3141.6 1901.32 3134.98 1901.5 3074.33 1907.38 2997.3 1881.08 2940.02 1901.5 2932.48 1902.45 2927.02 1896.7 2927.5 1888.83 2925.57 1870.07 2929.57 1853.38 2927.5 1838.17Z" fill="#323476" fill-rule="evenodd"/><path d="M2927.5 1838.17C2928.33 1832.63 2934.69 1826.67 2940.02 1825.5 3035.42 1802.21 3055.75 1841.45 3134.98 1825.5 3139.92 1826.04 3148.47 1829.69 3147.5 1838.17 3152.54 1851.23 3146.27 1867.72 3147.5 1888.83 3146.99 1896.38 3141.83 1901.94 3134.98 1901.5 3053.95 1903.26 3033.8 1900.7 2940.02 1901.5 2931.63 1902.74 2927.02 1895.25 2927.5 1888.83 2926.93 1864.72 2928.59 1852.63 2927.5 1838.17Z" stroke="#222355" stroke-width="4.58333" stroke-miterlimit="8" fill="none" fill-rule="evenodd"/><path d="M3244.5 1838.17C3245.11 1830.64 3249.48 1825.33 3257.08 1825.5 3298.96 1811.94 3388.75 1846.58 3452.92 1825.5 3458.93 1825.14 3465.4 1831.28 3465.5 1838.17 3467.22 1860.03 3464.75 1876.13 3465.5 1888.83 3466.44 1894.72 3459.58 1901.32 3452.92 1901.5 3392 1907.38 3314.62 1881.08 3257.08 1901.5 3249.5 1902.45 3244.02 1896.7 3244.5 1888.83 3242.56 1870.07 3246.58 1853.38 3244.5 1838.17Z" fill="#323476" fill-rule="evenodd"/><path d="M3244.5 1838.17C3245.34 1832.63 3251.72 1826.67 3257.08 1825.5 3352.91 1802.21 3373.33 1841.45 3452.92 1825.5 3457.88 1826.04 3466.48 1829.69 3465.5 1838.17 3470.56 1851.23 3464.26 1867.72 3465.5 1888.83 3464.99 1896.38 3459.81 1901.94 3452.92 1901.5 3371.53 1903.26 3351.29 1900.7 3257.08 1901.5 3248.65 1902.74 3244.02 1895.25 3244.5 1888.83 3243.93 1864.72 3245.6 1852.63 3244.5 1838.17Z" stroke="#222355" stroke-width="4.58333" stroke-miterlimit="8" fill="none" fill-rule="evenodd"/><path d="M3562.5 1838.17C3563.1 1830.64 3567.45 1825.33 3575.02 1825.5 3616.72 1811.94 3706.09 1846.58 3769.98 1825.5 3775.96 1825.14 3782.4 1831.28 3782.5 1838.17 3784.21 1860.03 3781.76 1876.13 3782.5 1888.83 3783.44 1894.72 3776.6 1901.32 3769.98 1901.5 3709.33 1907.38 3632.3 1881.08 3575.02 1901.5 3567.48 1902.45 3562.02 1896.7 3562.5 1888.83 3560.57 1870.07 3564.57 1853.38 3562.5 1838.17Z" fill="#323476" fill-rule="evenodd"/><path d="M3562.5 1838.17C3563.33 1832.63 3569.69 1826.67 3575.02 1825.5 3670.42 1802.21 3690.75 1841.45 3769.98 1825.5 3774.92 1826.04 3783.47 1829.69 3782.5 1838.17 3787.54 1851.23 3781.27 1867.72 3782.5 1888.83 3781.99 1896.38 3776.83 1901.94 3769.98 1901.5 3688.95 1903.26 3668.8 1900.7 3575.02 1901.5 3566.63 1902.74 3562.02 1895.25 3562.5 1888.83 3561.93 1864.72 3563.59 1852.63 3562.5 1838.17Z" stroke="#222355" stroke-width="4.58333" stroke-miterlimit="8" fill="none" fill-rule="evenodd"/><path d="M4197.25 1649 2771 1649" stroke="#000000" stroke-width="10.3125" stroke-miterlimit="8" fill="none" fill-rule="evenodd"/></g></svg>